<?xml version="1.0" encoding="UTF-8" standalone="no"?>
<!DOCTYPE svg PUBLIC "-//W3C//DTD SVG 1.1//EN"
 "http://www.w3.org/Graphics/SVG/1.1/DTD/svg11.dtd">
<!-- Generated by graphviz version 2.43.0 (0)
 -->
<!-- Title: MoralDamageCalculatorDecorator Pages: 1 -->
<svg width="184pt" height="149pt"
 viewBox="0.00 0.00 184.00 149.00" xmlns="http://www.w3.org/2000/svg" xmlns:xlink="http://www.w3.org/1999/xlink">

<svg id="main" version="1.1" xmlns="http://www.w3.org/2000/svg" xmlns:xlink="http://www.w3.org/1999/xlink" xml:space="preserve" onload="init(evt)">
<style type="text/css"><![CDATA[
.node, .edge {opacity: 0.7;}
.node.selected, .edge.selected {opacity: 1;}
.edge:hover path { stroke: red; }
.edge:hover polygon { stroke: red; fill: red; }
]]></style>
<script type="application/ecmascript" xlink:href="svg.min.js"/>
<svg id="graph" class="graph">
<g id="graph0" class="graph" transform="scale(1 1) rotate(0) translate(4 145)">
<title>MoralDamageCalculatorDecorator</title>
<!-- Node1 -->
<g id="Node000001" class="node">
<title>Node1</title>
<g id="a_Node000001"><a xlink:title="A DamageCalculator class responsible for calculating the moral buff if necessary, i....">
<polygon fill="#999999" stroke="transparent" points="176,-19 0,-19 0,0 176,0 176,-19"/>
<text text-anchor="start" x="4.5" y="-6.5" font-family="Helvetica,sans-Serif" font-size="10.00">MoralDamageCalculatorDecorator</text>
<polygon fill="none" stroke="#666666" points="0,0 0,-19 176,-19 176,0 0,0"/>
</a>
</g>
</g>
<!-- Node2 -->
<g id="Node000002" class="node">
<title>Node2</title>
<g id="a_Node000002"><a xlink:href="classcom_1_1peternaggschga_1_1gwent_1_1domain_1_1damage_1_1DamageCalculatorDecorator.xhtml" target="_top" xlink:title="An abstract DamageCalculator that is used as a superclass for the decorator classes implementing the ...">
<polygon fill="white" stroke="transparent" points="162,-75 14,-75 14,-56 162,-56 162,-75"/>
<text text-anchor="start" x="18.5" y="-62.5" font-family="Helvetica,sans-Serif" font-size="10.00">DamageCalculatorDecorator</text>
<polygon fill="none" stroke="#666666" points="14,-56 14,-75 162,-75 162,-56 14,-56"/>
</a>
</g>
</g>
<!-- Node2&#45;&gt;Node1 -->
<g id="edge1_Node000001_Node000002" class="edge">
<title>Node2&#45;&gt;Node1</title>
<g id="a_edge1_Node000001_Node000002"><a xlink:title=" ">
<path fill="none" stroke="#63b8ff" d="M88,-45.3C88,-36.41 88,-26.28 88,-19.25"/>
<polygon fill="none" stroke="#63b8ff" points="84.5,-45.58 88,-55.58 91.5,-45.58 84.5,-45.58"/>
</a>
</g>
</g>
<!-- Node3 -->
<g id="Node000003" class="node">
<title>Node3</title>
<g id="a_Node000003"><a xlink:href="interfacecom_1_1peternaggschga_1_1gwent_1_1domain_1_1damage_1_1DamageCalculator.xhtml" target="_top" xlink:title="An interface for a class capable of calculating the (de&#45;)buffed damage of a unit for a given UnitEnti...">
<polygon fill="white" stroke="transparent" points="138,-141 38,-141 38,-122 138,-122 138,-141"/>
<text text-anchor="start" x="42.5" y="-128.5" font-family="Helvetica,sans-Serif" font-size="10.00">DamageCalculator</text>
<polygon fill="none" stroke="#666666" points="38,-122 38,-141 138,-141 138,-122 38,-122"/>
</a>
</g>
</g>
<!-- Node3&#45;&gt;Node2 -->
<g id="edge2_Node000002_Node000003" class="edge">
<title>Node3&#45;&gt;Node2</title>
<g id="a_edge2_Node000002_Node000003"><a xlink:title=" ">
<path fill="none" stroke="#63b8ff" d="M86.4,-111.69C86.24,-109.11 86.09,-106.49 86,-104 85.63,-94.1 86.4,-82.73 87.09,-75.14"/>
<polygon fill="none" stroke="#63b8ff" points="82.92,-111.97 87.17,-121.68 89.9,-111.44 82.92,-111.97"/>
</a>
</g>
</g>
<!-- Node3&#45;&gt;Node2 -->
<g id="edge3_Node000002_Node000003" class="edge">
<title>Node3&#45;&gt;Node2</title>
<g id="a_edge3_Node000002_Node000003"><a xlink:title=" ">
<path fill="none" stroke="#63b8ff" d="M88,-121.87C88,-113.14 88,-99.31 88,-87.65"/>
<polygon fill="none" stroke="#63b8ff" points="88,-87.41 84,-81.41 88,-75.41 92,-81.41 88,-87.41"/>
</a>
</g>
<text text-anchor="middle" x="121.5" y="-96" font-family="Helvetica,sans-Serif" font-size="10.00" fill="grey"> #component</text>
</g>
</g>
</svg>
</svg>

<style type='text/css'>
<![CDATA[
[data-mouse-over-selected='false'] { opacity: 0.7; }
[data-mouse-over-selected='true']  { opacity: 1.0; }
]]>
</style>
<script type="application/ecmascript"><![CDATA[
document.addEventListener('DOMContentLoaded', (event) => {
  highlightEdges();
  highlightAdjacentNodes();
});
]]></script>
</svg>
