<?xml version="1.0" encoding="UTF-8" standalone="no"?>
<!DOCTYPE svg PUBLIC "-//W3C//DTD SVG 1.1//EN"
 "http://www.w3.org/Graphics/SVG/1.1/DTD/svg11.dtd">
<!-- Generated by graphviz version 2.43.0 (0)
 -->
<!-- Title: OverlayDialog Pages: 1 -->
<svg width="86pt" height="82pt"
 viewBox="0.00 0.00 86.00 82.00" xmlns="http://www.w3.org/2000/svg" xmlns:xlink="http://www.w3.org/1999/xlink">
<g id="graph0" class="graph" transform="scale(1 1) rotate(0) translate(4 78)">
<title>OverlayDialog</title>
<!-- Node1 -->
<g id="Node000001" class="node">
<title>Node1</title>
<g id="a_Node000001"><a xlink:title="A Dialog class which is used for popups that are shown on top of the calling Activity.">
<polygon fill="#999999" stroke="transparent" points="78,-19 0,-19 0,0 78,0 78,-19"/>
<text text-anchor="start" x="4" y="-6.5" font-family="Helvetica,sans-Serif" font-size="10.00">OverlayDialog</text>
<polygon fill="none" stroke="#666666" points="0,0 0,-19 78,-19 78,0 0,0"/>
</a>
</g>
</g>
<!-- Node2 -->
<g id="Node000002" class="node">
<title>Node2</title>
<g id="a_Node000002"><a xlink:title=" ">
<polygon fill="white" stroke="transparent" points="59,-74 19,-74 19,-55 59,-55 59,-74"/>
<text text-anchor="start" x="23" y="-61.5" font-family="Helvetica,sans-Serif" font-size="10.00">Dialog</text>
<polygon fill="none" stroke="#bfbfbf" points="19,-55 19,-74 59,-74 59,-55 19,-55"/>
</a>
</g>
</g>
<!-- Node2&#45;&gt;Node1 -->
<g id="edge1_Node000001_Node000002" class="edge">
<title>Node2&#45;&gt;Node1</title>
<g id="a_edge1_Node000001_Node000002"><a xlink:title=" ">
<path fill="none" stroke="#63b8ff" d="M39,-44.66C39,-35.93 39,-25.99 39,-19.09"/>
<polygon fill="none" stroke="#63b8ff" points="35.5,-44.75 39,-54.75 42.5,-44.75 35.5,-44.75"/>
</a>
</g>
</g>
</g>
</svg>
