<?xml version="1.0" encoding="UTF-8" standalone="no"?>
<!DOCTYPE svg PUBLIC "-//W3C//DTD SVG 1.1//EN"
 "http://www.w3.org/Graphics/SVG/1.1/DTD/svg11.dtd">
<!-- Generated by graphviz version 2.43.0 (0)
 -->
<!-- Title: ChangeFactionDialog Pages: 1 -->
<svg width="260pt" height="149pt"
 viewBox="0.00 0.00 260.00 149.00" xmlns="http://www.w3.org/2000/svg" xmlns:xlink="http://www.w3.org/1999/xlink">
<g id="graph0" class="graph" transform="scale(1 1) rotate(0) translate(4 145)">
<title>ChangeFactionDialog</title>
<!-- Node1 -->
<g id="Node000001" class="node">
<title>Node1</title>
<g id="a_Node000001"><a xlink:title="An OverlayDialog class used to change the faction design.">
<polygon fill="#999999" stroke="transparent" points="196,-19 84,-19 84,0 196,0 196,-19"/>
<text text-anchor="start" x="88.5" y="-6.5" font-family="Helvetica,sans-Serif" font-size="10.00">ChangeFactionDialog</text>
<polygon fill="none" stroke="#666666" points="84,0 84,-19 196,-19 196,0 84,0"/>
</a>
</g>
</g>
<!-- Node2 -->
<g id="Node000002" class="node">
<title>Node2</title>
<g id="a_Node000002"><a xlink:href="classcom_1_1peternaggschga_1_1gwent_1_1ui_1_1dialogs_1_1OverlayDialog.xhtml" target="_top" xlink:title="A Dialog class which is used for popups that are shown on top of the calling Activity.">
<polygon fill="white" stroke="transparent" points="78,-85 0,-85 0,-66 78,-66 78,-85"/>
<text text-anchor="start" x="4" y="-72.5" font-family="Helvetica,sans-Serif" font-size="10.00">OverlayDialog</text>
<polygon fill="none" stroke="#666666" points="0,-66 0,-85 78,-85 78,-66 0,-66"/>
</a>
</g>
</g>
<!-- Node2&#45;&gt;Node1 -->
<g id="edge1_Node000001_Node000002" class="edge">
<title>Node2&#45;&gt;Node1</title>
<g id="a_edge1_Node000001_Node000002"><a xlink:title=" ">
<path fill="none" stroke="#63b8ff" d="M61.33,-60.35C81.19,-47.77 109.58,-29.78 126.27,-19.2"/>
<polygon fill="none" stroke="#63b8ff" points="59.19,-57.56 52.62,-65.87 62.94,-63.47 59.19,-57.56"/>
</a>
</g>
</g>
<!-- Node3 -->
<g id="Node000003" class="node">
<title>Node3</title>
<g id="a_Node000003"><a xlink:title=" ">
<polygon fill="white" stroke="transparent" points="59,-141 19,-141 19,-122 59,-122 59,-141"/>
<text text-anchor="start" x="23" y="-128.5" font-family="Helvetica,sans-Serif" font-size="10.00">Dialog</text>
<polygon fill="none" stroke="#bfbfbf" points="19,-122 19,-141 59,-141 59,-122 19,-122"/>
</a>
</g>
</g>
<!-- Node3&#45;&gt;Node2 -->
<g id="edge2_Node000002_Node000003" class="edge">
<title>Node3&#45;&gt;Node2</title>
<g id="a_edge2_Node000002_Node000003"><a xlink:title=" ">
<path fill="none" stroke="#63b8ff" d="M39,-111.3C39,-102.41 39,-92.28 39,-85.25"/>
<polygon fill="none" stroke="#63b8ff" points="35.5,-111.58 39,-121.58 42.5,-111.58 35.5,-111.58"/>
</a>
</g>
</g>
<!-- Node4 -->
<g id="Node000004" class="node">
<title>Node4</title>
<g id="a_Node000004"><a xlink:href="interfacecom_1_1peternaggschga_1_1gwent_1_1ui_1_1dialogs_1_1ChangeFactionDialog_1_1Callback.xhtml" target="_top" xlink:title="An interface used for propagating a selected theme back to the creator of a ChangeFactionDialog.">
<polygon fill="white" stroke="transparent" points="252,-85 96,-85 96,-66 252,-66 252,-85"/>
<text text-anchor="start" x="100" y="-72.5" font-family="Helvetica,sans-Serif" font-size="10.00">ChangeFactionDialog.Callback</text>
<polygon fill="none" stroke="#666666" points="96,-66 96,-85 252,-85 252,-66 96,-66"/>
</a>
</g>
</g>
<!-- Node4&#45;&gt;Node1 -->
<g id="edge3_Node000001_Node000004" class="edge">
<title>Node4&#45;&gt;Node1</title>
<g id="a_edge3_Node000001_Node000004"><a xlink:title=" ">
<path fill="none" stroke="#63b8ff" d="M169.41,-65.87C164.57,-56.76 156.78,-42.09 150.44,-30.14"/>
<polygon fill="none" stroke="#63b8ff" points="150.36,-30 144.01,-26.58 144.73,-19.41 151.08,-22.83 150.36,-30"/>
</a>
</g>
<text text-anchor="middle" x="183" y="-40" font-family="Helvetica,sans-Serif" font-size="10.00" fill="grey"> &#45;callback</text>
</g>
</g>
</svg>
