<?xml version="1.0" encoding="UTF-8" standalone="no"?>
<!DOCTYPE svg PUBLIC "-//W3C//DTD SVG 1.1//EN"
 "http://www.w3.org/Graphics/SVG/1.1/DTD/svg11.dtd">
<!-- Generated by graphviz version 2.43.0 (0)
 -->
<!-- Title: SettingsHeaderFragment Pages: 1 -->
<svg width="154pt" height="82pt"
 viewBox="0.00 0.00 154.00 82.00" xmlns="http://www.w3.org/2000/svg" xmlns:xlink="http://www.w3.org/1999/xlink">
<g id="graph0" class="graph" transform="scale(1 1) rotate(0) translate(4 78)">
<title>SettingsHeaderFragment</title>
<!-- Node1 -->
<g id="Node000001" class="node">
<title>Node1</title>
<g id="a_Node000001"><a xlink:title="A PreferenceFragmentCompat class encapsulating the main preference screen, i.e., the Preferences defi...">
<polygon fill="#999999" stroke="transparent" points="138,-19 8,-19 8,0 138,0 138,-19"/>
<text text-anchor="start" x="12" y="-6.5" font-family="Helvetica,sans-Serif" font-size="10.00">SettingsHeaderFragment</text>
<polygon fill="none" stroke="#666666" points="8,0 8,-19 138,-19 138,0 8,0"/>
</a>
</g>
</g>
<!-- Node2 -->
<g id="Node000002" class="node">
<title>Node2</title>
<g id="a_Node000002"><a xlink:title=" ">
<polygon fill="white" stroke="transparent" points="146,-74 0,-74 0,-55 146,-55 146,-74"/>
<text text-anchor="start" x="4" y="-61.5" font-family="Helvetica,sans-Serif" font-size="10.00">PreferenceFragmentCompat</text>
<polygon fill="none" stroke="#bfbfbf" points="0,-55 0,-74 146,-74 146,-55 0,-55"/>
</a>
</g>
</g>
<!-- Node2&#45;&gt;Node1 -->
<g id="edge1_Node000001_Node000002" class="edge">
<title>Node2&#45;&gt;Node1</title>
<g id="a_edge1_Node000001_Node000002"><a xlink:title=" ">
<path fill="none" stroke="#63b8ff" d="M73,-44.66C73,-35.93 73,-25.99 73,-19.09"/>
<polygon fill="none" stroke="#63b8ff" points="69.5,-44.75 73,-54.75 76.5,-44.75 69.5,-44.75"/>
</a>
</g>
</g>
</g>
</svg>
