<?xml version="1.0" encoding="UTF-8" standalone="no"?>
<!DOCTYPE svg PUBLIC "-//W3C//DTD SVG 1.1//EN"
 "http://www.w3.org/Graphics/SVG/1.1/DTD/svg11.dtd">
<!-- Generated by graphviz version 2.43.0 (0)
 -->
<!-- Title: IndicatorManager Pages: 1 -->
<svg width="114pt" height="95pt"
 viewBox="0.00 0.00 114.00 95.00" xmlns="http://www.w3.org/2000/svg" xmlns:xlink="http://www.w3.org/1999/xlink">
<g id="graph0" class="graph" transform="scale(1 1) rotate(0) translate(4 91)">
<title>IndicatorManager</title>
<polygon fill="white" stroke="transparent" points="-4,4 -4,-91 110,-91 110,4 -4,4"/>
<!-- Node1 -->
<g id="node1" class="node">
<title>Node1</title>
<g id="a_node1"><a xlink:title="A class managing the indicator views shown in the bottom bar of the IntroductionActivity.">
<polygon fill="#bfbfbf" stroke="black" points="0,-0.5 0,-19.5 102,-19.5 102,-0.5 0,-0.5"/>
<text text-anchor="middle" x="51" y="-7.5" font-family="Helvetica,sans-Serif" font-size="10.00">IndicatorManager</text>
</a>
</g>
</g>
<!-- Node2 -->
<g id="node2" class="node">
<title>Node2</title>
<g id="a_node2"><a xlink:title=" ">
<polygon fill="white" stroke="#bfbfbf" points="15.5,-67.5 15.5,-86.5 86.5,-86.5 86.5,-67.5 15.5,-67.5"/>
<text text-anchor="middle" x="51" y="-74.5" font-family="Helvetica,sans-Serif" font-size="10.00">ImageView</text>
</a>
</g>
</g>
<!-- Node2&#45;&gt;Node1 -->
<g id="edge1" class="edge">
<title>Node2&#45;&gt;Node1</title>
<path fill="none" stroke="#404040" d="M51,-67.23C51,-58.17 51,-43.69 51,-31.69"/>
<polygon fill="none" stroke="#404040" points="51,-31.63 47,-25.63 51,-19.63 55,-25.63 51,-31.63"/>
<text text-anchor="middle" x="78.5" y="-41" font-family="Helvetica,sans-Serif" font-size="10.00"> &#45;indicators</text>
</g>
</g>
</svg>
