<?xml version="1.0" encoding="UTF-8" standalone="no"?>
<!DOCTYPE svg PUBLIC "-//W3C//DTD SVG 1.1//EN"
 "http://www.w3.org/Graphics/SVG/1.1/DTD/svg11.dtd">
<!-- Generated by graphviz version 2.43.0 (0)
 -->
<!-- Title: MainActivity Pages: 1 -->
<!--zoomable 416 -->
<svg id="main" version="1.1" xmlns="http://www.w3.org/2000/svg" xmlns:xlink="http://www.w3.org/1999/xlink" xml:space="preserve" onload="init(evt)">
<style type="text/css"><![CDATA[
.edge:hover path { stroke: red; }
.edge:hover polygon { stroke: red; fill: red; }
]]></style>
<script type="text/javascript"><![CDATA[
var edges = document.getElementsByTagName('g');
if (edges && edges.length) {
  for (var i=0;i<edges.length;i++) {
    if (edges[i].id.substr(0,4)=='edge') {
      edges[i].setAttribute('class','edge');
    }
  }
}
]]></script>
        <defs>
                <circle id="rim" cx="0" cy="0" r="7"/>
                <circle id="rim2" cx="0" cy="0" r="3.5"/>
                <g id="zoomPlus">
                        <use xlink:href="#rim" fill="#404040">
                                <set attributeName="fill" to="#808080" begin="zoomplus.mouseover" end="zoomplus.mouseout"/>
                        </use>
                        <path d="M-4,0h8M0,-4v8" fill="none" stroke="white" stroke-width="1.5" pointer-events="none"/>
                </g>
                <g id="zoomMin">
                        <use xlink:href="#rim" fill="#404040">
                                <set attributeName="fill" to="#808080" begin="zoomminus.mouseover" end="zoomminus.mouseout"/>
                        </use>
                        <path d="M-4,0h8" fill="none" stroke="white" stroke-width="1.5" pointer-events="none"/>
                </g>
                <g id="dirArrow">
                        <path fill="none" stroke="white" stroke-width="1.5" d="M0,-3.0v7 M-2.5,-0.5L0,-3.0L2.5,-0.5"/>
                </g>
               <g id="resetDef">
                       <use xlink:href="#rim2" fill="#404040">
                               <set attributeName="fill" to="#808080" begin="reset.mouseover" end="reset.mouseout"/>
                       </use>
               </g>
        </defs>

<script type="text/javascript">
var viewWidth = 1388;
var viewHeight = 416;
var sectionId = 'dynsection-1';
</script>
<script xlink:href="svgpan.js"/>
<svg id="graph" class="graph">
<g id="viewport">
<title>MainActivity</title>
<polygon fill="white" stroke="transparent" points="-4,4 -4,-412 1383.5,-412 1383.5,4 -4,4"/>
<!-- Node1 -->
<g id="node1" class="node">
<title>Node1</title>
<g id="a_node1"><a xlink:title=" ">
<polygon fill="#bfbfbf" stroke="black" points="647.5,-0.5 647.5,-19.5 725.5,-19.5 725.5,-0.5 647.5,-0.5"/>
<text text-anchor="middle" x="686.5" y="-7.5" font-family="Helvetica,sans-Serif" font-size="10.00">MainActivity</text>
</a>
</g>
</g>
<!-- Node2 -->
<g id="node2" class="node">
<title>Node2</title>
<g id="a_node2"><a xlink:title=" ">
<polygon fill="white" stroke="#bfbfbf" points="0,-216 0,-235 111,-235 111,-216 0,-216"/>
<text text-anchor="middle" x="55.5" y="-223" font-family="Helvetica,sans-Serif" font-size="10.00">AppCompatActivity</text>
</a>
</g>
</g>
<!-- Node2&#45;&gt;Node1 -->
<g id="edge1" class="edge">
<title>Node2&#45;&gt;Node1</title>
<path fill="none" stroke="midnightblue" d="M59.18,-205.82C67.97,-166.75 94.2,-76.83 155.5,-38 196.68,-11.91 531.48,-10.49 647.27,-10.8"/>
<polygon fill="none" stroke="midnightblue" points="55.71,-205.3 57.07,-215.8 62.56,-206.74 55.71,-205.3"/>
</g>
<!-- Node3 -->
<g id="node3" class="node">
<title>Node3</title>
<g id="a_node3"><a xlink:title=" ">
<polygon fill="white" stroke="#bfbfbf" points="129.5,-216 129.5,-235 237.5,-235 237.5,-216 129.5,-216"/>
<text text-anchor="middle" x="183.5" y="-223" font-family="Helvetica,sans-Serif" font-size="10.00">SharedPreferences</text>
</a>
</g>
</g>
<!-- Node3&#45;&gt;Node1 -->
<g id="edge2" class="edge">
<title>Node3&#45;&gt;Node1</title>
<path fill="none" stroke="#404040" d="M180.03,-215.97C168.71,-186.6 136.26,-88.64 184.5,-38 199.87,-21.87 510.23,-14.29 635.11,-11.89"/>
<polygon fill="none" stroke="#404040" points="635.3,-11.88 641.23,-7.77 647.3,-11.66 641.38,-15.77 635.3,-11.88"/>
<text text-anchor="middle" x="233.5" y="-112.5" font-family="Helvetica,sans-Serif" font-size="10.00"> &#45;sharedPreferences</text>
</g>
<!-- Node4 -->
<g id="node4" class="node">
<title>Node4</title>
<g id="a_node4"><a xlink:href="classcom_1_1peternaggschga_1_1gwent_1_1Row.xhtml" target="_top" xlink:title=" ">
<polygon fill="white" stroke="black" points="255.5,-216 255.5,-235 293.5,-235 293.5,-216 255.5,-216"/>
<text text-anchor="middle" x="274.5" y="-223" font-family="Helvetica,sans-Serif" font-size="10.00">Row</text>
</a>
</g>
</g>
<!-- Node4&#45;&gt;Node1 -->
<g id="edge3" class="edge">
<title>Node4&#45;&gt;Node1</title>
<path fill="none" stroke="#404040" d="M277.6,-215.63C290.08,-180.1 336.81,-49.39 352.5,-38 374.82,-21.8 547.34,-14.79 635.29,-12.24"/>
<polygon fill="none" stroke="#404040" points="635.37,-12.24 641.26,-8.07 647.37,-11.9 641.48,-16.07 635.37,-12.24"/>
<text text-anchor="middle" x="382" y="-123.5" font-family="Helvetica,sans-Serif" font-size="10.00"> &#45;meleeRow</text>
<text text-anchor="middle" x="382" y="-112.5" font-family="Helvetica,sans-Serif" font-size="10.00">&#45;rangeRow</text>
<text text-anchor="middle" x="382" y="-101.5" font-family="Helvetica,sans-Serif" font-size="10.00">&#45;siegeRow</text>
</g>
<!-- Node5 -->
<g id="node5" class="node">
<title>Node5</title>
<g id="a_node5"><a xlink:title=" ">
<polygon fill="white" stroke="#bfbfbf" points="183,-299.5 183,-329.5 366,-329.5 366,-299.5 183,-299.5"/>
<text text-anchor="start" x="191" y="-317.5" font-family="Helvetica,sans-Serif" font-size="10.00">List&lt; com.peternaggschga.gwent.</text>
<text text-anchor="middle" x="274.5" y="-306.5" font-family="Helvetica,sans-Serif" font-size="10.00">Unit &gt;</text>
</a>
</g>
</g>
<!-- Node5&#45;&gt;Node4 -->
<g id="edge4" class="edge">
<title>Node5&#45;&gt;Node4</title>
<path fill="none" stroke="#404040" d="M274.5,-299.13C274.5,-285.1 274.5,-263.57 274.5,-247.6"/>
<polygon fill="none" stroke="#404040" points="274.5,-247.31 270.5,-241.31 274.5,-235.31 278.5,-241.31 274.5,-247.31"/>
<text text-anchor="middle" x="290" y="-267.5" font-family="Helvetica,sans-Serif" font-size="10.00"> &#45;units</text>
</g>
<!-- Node6 -->
<g id="node6" class="node">
<title>Node6</title>
<g id="a_node6"><a xlink:title=" ">
<polygon fill="white" stroke="#bfbfbf" points="257.5,-388.5 257.5,-407.5 291.5,-407.5 291.5,-388.5 257.5,-388.5"/>
<text text-anchor="middle" x="274.5" y="-395.5" font-family="Helvetica,sans-Serif" font-size="10.00">List</text>
</a>
</g>
</g>
<!-- Node6&#45;&gt;Node5 -->
<g id="edge5" class="edge">
<title>Node6&#45;&gt;Node5</title>
<path fill="none" stroke="orange" d="M274.5,-378.23C274.5,-363.41 274.5,-343.05 274.5,-329.6"/>
<polygon fill="orange" stroke="orange" points="271,-378.28 274.5,-388.28 278,-378.28 271,-378.28"/>
<text text-anchor="start" x="274.5" y="-362" font-family="Helvetica,sans-Serif" font-size="10.00"> &lt; com::peternaggschga</text>
<text text-anchor="middle" x="334.5" y="-351" font-family="Helvetica,sans-Serif" font-size="10.00">::gwent::Unit &gt;</text>
</g>
<!-- Node7 -->
<g id="node7" class="node">
<title>Node7</title>
<g id="a_node7"><a xlink:title=" ">
<polygon fill="white" stroke="#bfbfbf" points="311.5,-210.5 311.5,-240.5 493.5,-240.5 493.5,-210.5 311.5,-210.5"/>
<text text-anchor="start" x="319.5" y="-228.5" font-family="Helvetica,sans-Serif" font-size="10.00">Set&lt; com.peternaggschga.gwent.</text>
<text text-anchor="middle" x="402.5" y="-217.5" font-family="Helvetica,sans-Serif" font-size="10.00">Row &gt;</text>
</a>
</g>
</g>
<!-- Node7&#45;&gt;Node1 -->
<g id="edge6" class="edge">
<title>Node7&#45;&gt;Node1</title>
<path fill="none" stroke="#404040" d="M407.65,-210.42C421.42,-174.91 462.74,-81.47 530.5,-38 547.51,-27.09 596.47,-19.8 635.05,-15.58"/>
<polygon fill="none" stroke="#404040" points="635.22,-15.56 640.78,-10.96 647.16,-14.31 641.61,-18.91 635.22,-15.56"/>
<text text-anchor="middle" x="553.5" y="-112.5" font-family="Helvetica,sans-Serif" font-size="10.00"> &#45;allRows</text>
</g>
<!-- Node8 -->
<g id="node8" class="node">
<title>Node8</title>
<g id="a_node8"><a xlink:title=" ">
<polygon fill="white" stroke="#bfbfbf" points="471.5,-305 471.5,-324 503.5,-324 503.5,-305 471.5,-305"/>
<text text-anchor="middle" x="487.5" y="-312" font-family="Helvetica,sans-Serif" font-size="10.00">Set</text>
</a>
</g>
</g>
<!-- Node8&#45;&gt;Node7 -->
<g id="edge7" class="edge">
<title>Node8&#45;&gt;Node7</title>
<path fill="none" stroke="orange" d="M466.38,-298.75C459.43,-293.49 451.86,-287.3 445.5,-281 432.83,-268.45 420.44,-252.19 412.24,-240.71"/>
<polygon fill="orange" stroke="orange" points="464.58,-301.77 474.72,-304.86 468.72,-296.13 464.58,-301.77"/>
<text text-anchor="start" x="445.5" y="-273" font-family="Helvetica,sans-Serif" font-size="10.00"> &lt; com::peternaggschga</text>
<text text-anchor="middle" x="505.5" y="-262" font-family="Helvetica,sans-Serif" font-size="10.00">::gwent::Row &gt;</text>
</g>
<!-- Node12 -->
<g id="node12" class="node">
<title>Node12</title>
<g id="a_node12"><a xlink:title=" ">
<polygon fill="white" stroke="#bfbfbf" points="511.5,-210.5 511.5,-240.5 693.5,-240.5 693.5,-210.5 511.5,-210.5"/>
<text text-anchor="start" x="519.5" y="-228.5" font-family="Helvetica,sans-Serif" font-size="10.00">Set&lt; com.peternaggschga.gwent.</text>
<text text-anchor="middle" x="602.5" y="-217.5" font-family="Helvetica,sans-Serif" font-size="10.00">Unit &gt;</text>
</a>
</g>
</g>
<!-- Node8&#45;&gt;Node12 -->
<g id="edge12" class="edge">
<title>Node8&#45;&gt;Node12</title>
<path fill="none" stroke="orange" d="M513.49,-306.83C529.7,-301.72 550.3,-293.4 565.5,-281 578.97,-270.01 589.49,-252.86 595.81,-240.73"/>
<polygon fill="orange" stroke="orange" points="512.18,-303.56 503.57,-309.74 514.15,-310.28 512.18,-303.56"/>
<text text-anchor="start" x="584.5" y="-273" font-family="Helvetica,sans-Serif" font-size="10.00"> &lt; com::peternaggschga</text>
<text text-anchor="middle" x="644.5" y="-262" font-family="Helvetica,sans-Serif" font-size="10.00">::gwent::Unit &gt;</text>
</g>
<!-- Node9 -->
<g id="node9" class="node">
<title>Node9</title>
<g id="a_node9"><a xlink:title=" ">
<polygon fill="white" stroke="#bfbfbf" points="712,-216 712,-235 797,-235 797,-216 712,-216"/>
<text text-anchor="middle" x="754.5" y="-223" font-family="Helvetica,sans-Serif" font-size="10.00">NumberPicker</text>
</a>
</g>
</g>
<!-- Node9&#45;&gt;Node1 -->
<g id="edge8" class="edge">
<title>Node9&#45;&gt;Node1</title>
<path fill="none" stroke="#404040" d="M719.62,-215.9C707.31,-211.02 694.74,-203.48 687.5,-192 655.86,-141.79 670.36,-67.15 680.14,-31.45"/>
<polygon fill="none" stroke="#404040" points="680.18,-31.33 678.03,-24.44 683.55,-19.81 685.71,-26.69 680.18,-31.33"/>
<text text-anchor="middle" x="723" y="-134.5" font-family="Helvetica,sans-Serif" font-size="10.00"> &#45;abilityPicker</text>
<text text-anchor="middle" x="723" y="-123.5" font-family="Helvetica,sans-Serif" font-size="10.00">&#45;bindingPicker</text>
<text text-anchor="middle" x="723" y="-112.5" font-family="Helvetica,sans-Serif" font-size="10.00">&#45;dmgPicker</text>
<text text-anchor="middle" x="723" y="-101.5" font-family="Helvetica,sans-Serif" font-size="10.00">&#45;epicPicker</text>
<text text-anchor="middle" x="723" y="-90.5" font-family="Helvetica,sans-Serif" font-size="10.00">&#45;numberPicker</text>
</g>
<!-- Node10 -->
<g id="node10" class="node">
<title>Node10</title>
<g id="a_node10"><a xlink:title=" ">
<polygon fill="white" stroke="#bfbfbf" points="815,-216 815,-235 886,-235 886,-216 815,-216"/>
<text text-anchor="middle" x="850.5" y="-223" font-family="Helvetica,sans-Serif" font-size="10.00">ImageView</text>
</a>
</g>
</g>
<!-- Node10&#45;&gt;Node1 -->
<g id="edge9" class="edge">
<title>Node10&#45;&gt;Node1</title>
<path fill="none" stroke="#404040" d="M826.42,-215.95C808.9,-209.24 787.27,-199.76 781.5,-192 740.2,-136.47 802.02,-91.8 758.5,-38 752.84,-31.01 745.18,-25.82 736.95,-21.98"/>
<polygon fill="none" stroke="#404040" points="736.7,-21.89 729.66,-23.44 725.52,-17.54 732.56,-15.98 736.7,-21.89"/>
<text text-anchor="middle" x="868" y="-184" font-family="Helvetica,sans-Serif" font-size="10.00"> &#45;backgroundImageView</text>
<text text-anchor="middle" x="868" y="-173" font-family="Helvetica,sans-Serif" font-size="10.00">&#45;backgroundOverallPointBall</text>
<text text-anchor="middle" x="868" y="-162" font-family="Helvetica,sans-Serif" font-size="10.00">&#45;coinButton</text>
<text text-anchor="start" x="781.5" y="-151" font-family="Helvetica,sans-Serif" font-size="10.00">&#45;firstRowBackgroundCardImage</text>
<text text-anchor="middle" x="868" y="-140" font-family="Helvetica,sans-Serif" font-size="10.00">View</text>
<text text-anchor="start" x="781.5" y="-129" font-family="Helvetica,sans-Serif" font-size="10.00">&#45;firstRowBackgroundHornImage</text>
<text text-anchor="middle" x="868" y="-118" font-family="Helvetica,sans-Serif" font-size="10.00">View</text>
<text text-anchor="middle" x="868" y="-107" font-family="Helvetica,sans-Serif" font-size="10.00">&#45;firstRowBackgroundPointBall</text>
<text text-anchor="start" x="781.5" y="-96" font-family="Helvetica,sans-Serif" font-size="10.00">&#45;firstRowBackgroundWeatherImage</text>
<text text-anchor="middle" x="868" y="-85" font-family="Helvetica,sans-Serif" font-size="10.00">View</text>
<text text-anchor="middle" x="868" y="-74" font-family="Helvetica,sans-Serif" font-size="10.00">&#45;firstRowCardImageView</text>
<text text-anchor="middle" x="868" y="-63" font-family="Helvetica,sans-Serif" font-size="10.00">&#45;firstRowHornImageView</text>
<text text-anchor="middle" x="868" y="-52" font-family="Helvetica,sans-Serif" font-size="10.00">&#45;firstRowPointBall</text>
<text text-anchor="middle" x="868" y="-41" font-family="Helvetica,sans-Serif" font-size="10.00">...</text>
</g>
<!-- Node11 -->
<g id="node11" class="node">
<title>Node11</title>
<g id="a_node11"><a xlink:title=" ">
<polygon fill="white" stroke="#bfbfbf" points="933.5,-216 933.5,-235 1019.5,-235 1019.5,-216 933.5,-216"/>
<text text-anchor="middle" x="976.5" y="-223" font-family="Helvetica,sans-Serif" font-size="10.00">PopupWindow</text>
</a>
</g>
</g>
<!-- Node11&#45;&gt;Node1 -->
<g id="edge10" class="edge">
<title>Node11&#45;&gt;Node1</title>
<path fill="none" stroke="#404040" d="M976.83,-215.96C977.94,-182.81 980.07,-63.14 954.5,-38 939.39,-23.14 811.31,-15.79 737.82,-12.76"/>
<polygon fill="none" stroke="#404040" points="737.64,-12.75 731.49,-16.51 725.65,-12.28 731.8,-8.52 737.64,-12.75"/>
<text text-anchor="middle" x="1014.5" y="-112.5" font-family="Helvetica,sans-Serif" font-size="10.00"> &#45;popupWindow</text>
</g>
<!-- Node12&#45;&gt;Node1 -->
<g id="edge11" class="edge">
<title>Node12&#45;&gt;Node1</title>
<path fill="none" stroke="#404040" d="M597.36,-210.16C586.25,-176.42 563.97,-90.85 602.5,-38 610.38,-27.2 622.65,-20.62 635.4,-16.65"/>
<polygon fill="none" stroke="#404040" points="635.5,-16.62 640.33,-11.27 647.13,-13.68 642.29,-19.03 635.5,-16.62"/>
<text text-anchor="middle" x="633" y="-118" font-family="Helvetica,sans-Serif" font-size="10.00"> &#45;copyUnits</text>
<text text-anchor="middle" x="633" y="-107" font-family="Helvetica,sans-Serif" font-size="10.00">&#45;deleteUnits</text>
</g>
<!-- Node13 -->
<g id="node13" class="node">
<title>Node13</title>
<g id="a_node13"><a xlink:title=" ">
<polygon fill="white" stroke="#bfbfbf" points="1040.5,-216 1040.5,-235 1108.5,-235 1108.5,-216 1040.5,-216"/>
<text text-anchor="middle" x="1074.5" y="-223" font-family="Helvetica,sans-Serif" font-size="10.00">SoundPool</text>
</a>
</g>
</g>
<!-- Node13&#45;&gt;Node1 -->
<g id="edge13" class="edge">
<title>Node13&#45;&gt;Node1</title>
<path fill="none" stroke="#404040" d="M1074.9,-215.95C1076.27,-182.72 1079.33,-62.85 1053.5,-38 1031.28,-16.62 833.81,-12.13 738.08,-11.22"/>
<polygon fill="none" stroke="#404040" points="737.83,-11.21 731.8,-15.16 725.83,-11.11 731.86,-7.16 737.83,-11.21"/>
<text text-anchor="middle" x="1104.5" y="-112.5" font-family="Helvetica,sans-Serif" font-size="10.00"> &#45;soundPool</text>
</g>
<!-- Node14 -->
<g id="node14" class="node">
<title>Node14</title>
<g id="a_node14"><a xlink:title=" ">
<polygon fill="white" stroke="#bfbfbf" points="1126.5,-216 1126.5,-235 1206.5,-235 1206.5,-216 1126.5,-216"/>
<text text-anchor="middle" x="1166.5" y="-223" font-family="Helvetica,sans-Serif" font-size="10.00">ImageButton</text>
</a>
</g>
</g>
<!-- Node14&#45;&gt;Node1 -->
<g id="edge14" class="edge">
<title>Node14&#45;&gt;Node1</title>
<path fill="none" stroke="#404040" d="M1164.18,-215.99C1162.45,-209.47 1160.12,-200.21 1158.5,-192 1151.8,-158.05 1161.02,-61.36 1135.5,-38 1106.73,-11.66 849.37,-9.99 737.76,-10.52"/>
<polygon fill="none" stroke="#404040" points="737.52,-10.53 731.55,-14.56 725.52,-10.59 731.5,-6.56 737.52,-10.53"/>
<text text-anchor="middle" x="1196.5" y="-134.5" font-family="Helvetica,sans-Serif" font-size="10.00"> &#45;burnButton</text>
<text text-anchor="middle" x="1196.5" y="-123.5" font-family="Helvetica,sans-Serif" font-size="10.00">&#45;factionButton</text>
<text text-anchor="middle" x="1196.5" y="-112.5" font-family="Helvetica,sans-Serif" font-size="10.00">&#45;resetButton</text>
<text text-anchor="middle" x="1196.5" y="-101.5" font-family="Helvetica,sans-Serif" font-size="10.00">&#45;settingsButton</text>
<text text-anchor="middle" x="1196.5" y="-90.5" font-family="Helvetica,sans-Serif" font-size="10.00">&#45;weatherButton</text>
</g>
<!-- Node15 -->
<g id="node15" class="node">
<title>Node15</title>
<g id="a_node15"><a xlink:title=" ">
<polygon fill="white" stroke="#bfbfbf" points="1226,-216 1226,-235 1287,-235 1287,-216 1226,-216"/>
<text text-anchor="middle" x="1256.5" y="-223" font-family="Helvetica,sans-Serif" font-size="10.00">TextView</text>
</a>
</g>
</g>
<!-- Node15&#45;&gt;Node1 -->
<g id="edge15" class="edge">
<title>Node15&#45;&gt;Node1</title>
<path fill="none" stroke="#404040" d="M1258.83,-215.78C1266.24,-185.79 1285.96,-86.07 1234.5,-38 1216.52,-21.21 870.7,-13.94 737.86,-11.75"/>
<polygon fill="none" stroke="#404040" points="737.69,-11.75 731.62,-15.65 725.69,-11.56 731.75,-7.65 737.69,-11.75"/>
<text text-anchor="middle" x="1324" y="-151" font-family="Helvetica,sans-Serif" font-size="10.00"> &#45;bindingPickerLabel</text>
<text text-anchor="middle" x="1324" y="-140" font-family="Helvetica,sans-Serif" font-size="10.00">&#45;firstRowCardCount</text>
<text text-anchor="middle" x="1324" y="-129" font-family="Helvetica,sans-Serif" font-size="10.00">&#45;firstRowPointView</text>
<text text-anchor="middle" x="1324" y="-118" font-family="Helvetica,sans-Serif" font-size="10.00">&#45;overallPointView</text>
<text text-anchor="middle" x="1324" y="-107" font-family="Helvetica,sans-Serif" font-size="10.00">&#45;secondRowCardCount</text>
<text text-anchor="middle" x="1324" y="-96" font-family="Helvetica,sans-Serif" font-size="10.00">&#45;secondRowPointView</text>
<text text-anchor="middle" x="1324" y="-85" font-family="Helvetica,sans-Serif" font-size="10.00">&#45;thirdRowCardCount</text>
<text text-anchor="middle" x="1324" y="-74" font-family="Helvetica,sans-Serif" font-size="10.00">&#45;thirdRowPointView</text>
</g>
</g>
</svg>
        <g id="navigator" transform="translate(0 0)" fill="#404254">
                <rect fill="#f2f5e9" fill-opacity="0.5" stroke="#606060" stroke-width=".5" x="0" y="0" width="60" height="60"/>
                <use id="zoomplus" xlink:href="#zoomPlus" x="17" y="9" onmousedown="handleZoom(evt,'in')"/>
                <use id="zoomminus" xlink:href="#zoomMin" x="42" y="9" onmousedown="handleZoom(evt,'out')"/>
                <use id="reset" xlink:href="#resetDef" x="30" y="36" onmousedown="handleReset()"/>
                <g id="arrowUp" xlink:href="#dirArrow" transform="translate(30 24)" onmousedown="handlePan(0,-1)">
                  <use xlink:href="#rim" fill="#404040">
                        <set attributeName="fill" to="#808080" begin="arrowUp.mouseover" end="arrowUp.mouseout"/>
                  </use>
                  <path fill="none" stroke="white" stroke-width="1.5" d="M0,-3.0v7 M-2.5,-0.5L0,-3.0L2.5,-0.5"/>
                </g>
                <g id="arrowRight" xlink:href="#dirArrow" transform="rotate(90) translate(36 -43)" onmousedown="handlePan(1,0)">
                  <use xlink:href="#rim" fill="#404040">
                        <set attributeName="fill" to="#808080" begin="arrowRight.mouseover" end="arrowRight.mouseout"/>
                  </use>
                  <path fill="none" stroke="white" stroke-width="1.5" d="M0,-3.0v7 M-2.5,-0.5L0,-3.0L2.5,-0.5"/>
                </g>
                <g id="arrowDown" xlink:href="#dirArrow" transform="rotate(180) translate(-30 -48)" onmousedown="handlePan(0,1)">
                  <use xlink:href="#rim" fill="#404040">
                        <set attributeName="fill" to="#808080" begin="arrowDown.mouseover" end="arrowDown.mouseout"/>
                  </use>
                  <path fill="none" stroke="white" stroke-width="1.5" d="M0,-3.0v7 M-2.5,-0.5L0,-3.0L2.5,-0.5"/>
                </g>
                <g id="arrowLeft" xlink:href="#dirArrow" transform="rotate(270) translate(-36 17)" onmousedown="handlePan(-1,0)">
                  <use xlink:href="#rim" fill="#404040">
                        <set attributeName="fill" to="#808080" begin="arrowLeft.mouseover" end="arrowLeft.mouseout"/>
                  </use>
                  <path fill="none" stroke="white" stroke-width="1.5" d="M0,-3.0v7 M-2.5,-0.5L0,-3.0L2.5,-0.5"/>
                </g>
        </g>
        <svg viewBox="0 0 15 15" width="100%" height="30px" preserveAspectRatio="xMaxYMin meet">
         <g id="arrow_out" transform="scale(0.3 0.3)">
          <a xlink:href="classcom_1_1peternaggschga_1_1gwent_1_1MainActivity__coll__graph_org.svg" target="_base">
           <rect id="button" ry="5" rx="5" y="6" x="6" height="38" width="38"
                fill="#f2f5e9" fill-opacity="0.5" stroke="#606060" stroke-width="1.0"/>
           <path id="arrow"
             d="M 11.500037,31.436501 C 11.940474,20.09759 22.043105,11.32322 32.158766,21.979434 L 37.068811,17.246167 C 37.068811,17.246167 37.088388,32 37.088388,32 L 22.160133,31.978069 C 22.160133,31.978069 26.997745,27.140456 26.997745,27.140456 C 18.528582,18.264221 13.291696,25.230495 11.500037,31.436501 z"
             style="fill:#404040;"/>
          </a>
         </g>
        </svg>
</svg>
