<?xml version="1.0" encoding="UTF-8" standalone="no"?>
<!DOCTYPE svg PUBLIC "-//W3C//DTD SVG 1.1//EN"
 "http://www.w3.org/Graphics/SVG/1.1/DTD/svg11.dtd">
<!-- Generated by graphviz version 2.43.0 (0)
 -->
<!-- Title: RowEntity Pages: 1 -->
<svg width="74pt" height="95pt"
 viewBox="0.00 0.00 74.00 95.00" xmlns="http://www.w3.org/2000/svg" xmlns:xlink="http://www.w3.org/1999/xlink">
<g id="graph0" class="graph" transform="scale(1 1) rotate(0) translate(4 91)">
<title>RowEntity</title>
<polygon fill="white" stroke="transparent" points="-4,4 -4,-91 70,-91 70,4 -4,4"/>
<!-- Node1 -->
<g id="node1" class="node">
<title>Node1</title>
<g id="a_node1"><a xlink:title="A class representing the state of an attack row, i.e., weather and commanders horn.">
<polygon fill="#bfbfbf" stroke="black" points="0,-0.5 0,-19.5 66,-19.5 66,-0.5 0,-0.5"/>
<text text-anchor="middle" x="33" y="-7.5" font-family="Helvetica,sans-Serif" font-size="10.00">RowEntity</text>
</a>
</g>
</g>
<!-- Node2 -->
<g id="node2" class="node">
<title>Node2</title>
<g id="a_node2"><a xlink:href="enumcom_1_1peternaggschga_1_1gwent_1_1data_1_1RowType.xhtml" target="_top" xlink:title="An enum listing the different types of attack rows.">
<polygon fill="white" stroke="black" points="3,-67.5 3,-86.5 63,-86.5 63,-67.5 3,-67.5"/>
<text text-anchor="middle" x="33" y="-74.5" font-family="Helvetica,sans-Serif" font-size="10.00">RowType</text>
</a>
</g>
</g>
<!-- Node2&#45;&gt;Node1 -->
<g id="edge1" class="edge">
<title>Node2&#45;&gt;Node1</title>
<path fill="none" stroke="#404040" d="M33,-67.23C33,-58.17 33,-43.69 33,-31.69"/>
<polygon fill="none" stroke="#404040" points="33,-31.63 29,-25.63 33,-19.63 37,-25.63 33,-31.63"/>
<text text-anchor="middle" x="41" y="-41" font-family="Helvetica,sans-Serif" font-size="10.00"> &#45;id</text>
</g>
</g>
</svg>
