<?xml version="1.0" encoding="UTF-8" standalone="no"?>
<!DOCTYPE svg PUBLIC "-//W3C//DTD SVG 1.1//EN"
 "http://www.w3.org/Graphics/SVG/1.1/DTD/svg11.dtd">
<!-- Generated by graphviz version 2.43.0 (0)
 -->
<!-- Title: UnitEntity Pages: 1 -->
<svg width="134pt" height="95pt"
 viewBox="0.00 0.00 134.00 95.00" xmlns="http://www.w3.org/2000/svg" xmlns:xlink="http://www.w3.org/1999/xlink">
<g id="graph0" class="graph" transform="scale(1 1) rotate(0) translate(4 91)">
<title>UnitEntity</title>
<polygon fill="white" stroke="transparent" points="-4,4 -4,-91 130,-91 130,4 -4,4"/>
<!-- Node1 -->
<g id="node1" class="node">
<title>Node1</title>
<g id="a_node1"><a xlink:title="A class representing a card on the game board.">
<polygon fill="#bfbfbf" stroke="black" points="27.5,-0.5 27.5,-19.5 92.5,-19.5 92.5,-0.5 27.5,-0.5"/>
<text text-anchor="middle" x="60" y="-7.5" font-family="Helvetica,sans-Serif" font-size="10.00">UnitEntity</text>
</a>
</g>
</g>
<!-- Node2 -->
<g id="node2" class="node">
<title>Node2</title>
<g id="a_node2"><a xlink:href="enumcom_1_1peternaggschga_1_1gwent_1_1data_1_1Ability.xhtml" target="_top" xlink:title="An enum listing the different card abilities possible.">
<polygon fill="white" stroke="black" points="0,-67.5 0,-86.5 48,-86.5 48,-67.5 0,-67.5"/>
<text text-anchor="middle" x="24" y="-74.5" font-family="Helvetica,sans-Serif" font-size="10.00">Ability</text>
</a>
</g>
</g>
<!-- Node2&#45;&gt;Node1 -->
<g id="edge1" class="edge">
<title>Node2&#45;&gt;Node1</title>
<path fill="none" stroke="#404040" d="M25.62,-67.43C27.38,-59.44 30.67,-47.39 36,-38 37.8,-34.83 40.02,-31.71 42.38,-28.77"/>
<polygon fill="none" stroke="#404040" points="42.48,-28.66 43.51,-21.53 50.5,-19.74 49.46,-26.87 42.48,-28.66"/>
<text text-anchor="middle" x="55" y="-41" font-family="Helvetica,sans-Serif" font-size="10.00"> &#45;ability</text>
</g>
<!-- Node3 -->
<g id="node3" class="node">
<title>Node3</title>
<g id="a_node3"><a xlink:href="enumcom_1_1peternaggschga_1_1gwent_1_1data_1_1RowType.xhtml" target="_top" xlink:title="An enum listing the different types of attack rows.">
<polygon fill="white" stroke="black" points="66,-67.5 66,-86.5 126,-86.5 126,-67.5 66,-67.5"/>
<text text-anchor="middle" x="96" y="-74.5" font-family="Helvetica,sans-Serif" font-size="10.00">RowType</text>
</a>
</g>
</g>
<!-- Node3&#45;&gt;Node1 -->
<g id="edge2" class="edge">
<title>Node3&#45;&gt;Node1</title>
<path fill="none" stroke="#404040" d="M91.14,-67.23C85.91,-57.78 77.41,-42.44 70.61,-30.16"/>
<polygon fill="none" stroke="#404040" points="70.59,-30.12 64.19,-26.81 64.78,-19.63 71.18,-22.94 70.59,-30.12"/>
<text text-anchor="middle" x="92.5" y="-41" font-family="Helvetica,sans-Serif" font-size="10.00"> &#45;row</text>
</g>
</g>
</svg>
