<?xml version="1.0" encoding="UTF-8" standalone="no"?>
<!DOCTYPE svg PUBLIC "-//W3C//DTD SVG 1.1//EN"
 "http://www.w3.org/Graphics/SVG/1.1/DTD/svg11.dtd">
<!-- Generated by graphviz version 2.43.0 (0)
 -->
<!-- Title: OnboardingSupportActivity Pages: 1 -->
<svg width="401pt" height="162pt"
 viewBox="0.00 0.00 400.50 162.00" xmlns="http://www.w3.org/2000/svg" xmlns:xlink="http://www.w3.org/1999/xlink">
<g id="graph0" class="graph" transform="scale(1 1) rotate(0) translate(4 158)">
<title>OnboardingSupportActivity</title>
<polygon fill="white" stroke="transparent" points="-4,4 -4,-158 396.5,-158 396.5,4 -4,4"/>
<!-- Node1 -->
<g id="node1" class="node">
<title>Node1</title>
<g id="a_node1"><a xlink:title=" ">
<polygon fill="#bfbfbf" stroke="black" points="110.5,-0.5 110.5,-19.5 258.5,-19.5 258.5,-0.5 110.5,-0.5"/>
<text text-anchor="middle" x="184.5" y="-7.5" font-family="Helvetica,sans-Serif" font-size="10.00">OnboardingSupportActivity</text>
</a>
</g>
</g>
<!-- Node2 -->
<g id="node2" class="node">
<title>Node2</title>
<g id="a_node2"><a xlink:title=" ">
<polygon fill="white" stroke="#bfbfbf" points="0,-67.5 0,-86.5 111,-86.5 111,-67.5 0,-67.5"/>
<text text-anchor="middle" x="55.5" y="-74.5" font-family="Helvetica,sans-Serif" font-size="10.00">AppCompatActivity</text>
</a>
</g>
</g>
<!-- Node2&#45;&gt;Node1 -->
<g id="edge1" class="edge">
<title>Node2&#45;&gt;Node1</title>
<path fill="none" stroke="midnightblue" d="M81.75,-62.77C107.3,-49.9 145.39,-30.71 167.3,-19.67"/>
<polygon fill="none" stroke="midnightblue" points="79.99,-59.74 72.63,-67.37 83.14,-65.99 79.99,-59.74"/>
</g>
<!-- Node3 -->
<g id="node3" class="node">
<title>Node3</title>
<g id="a_node3"><a xlink:title=" ">
<polygon fill="white" stroke="#bfbfbf" points="129,-67.5 129,-86.5 240,-86.5 240,-67.5 129,-67.5"/>
<text text-anchor="middle" x="184.5" y="-74.5" font-family="Helvetica,sans-Serif" font-size="10.00">List&lt; ImageView &gt;</text>
</a>
</g>
</g>
<!-- Node3&#45;&gt;Node1 -->
<g id="edge2" class="edge">
<title>Node3&#45;&gt;Node1</title>
<path fill="none" stroke="#404040" d="M184.5,-67.23C184.5,-58.17 184.5,-43.69 184.5,-31.69"/>
<polygon fill="none" stroke="#404040" points="184.5,-31.63 180.5,-25.63 184.5,-19.63 188.5,-25.63 184.5,-31.63"/>
<text text-anchor="middle" x="212" y="-41" font-family="Helvetica,sans-Serif" font-size="10.00"> &#45;indicators</text>
</g>
<!-- Node4 -->
<g id="node4" class="node">
<title>Node4</title>
<g id="a_node4"><a xlink:title=" ">
<polygon fill="white" stroke="#bfbfbf" points="167.5,-134.5 167.5,-153.5 201.5,-153.5 201.5,-134.5 167.5,-134.5"/>
<text text-anchor="middle" x="184.5" y="-141.5" font-family="Helvetica,sans-Serif" font-size="10.00">List</text>
</a>
</g>
</g>
<!-- Node4&#45;&gt;Node3 -->
<g id="edge3" class="edge">
<title>Node4&#45;&gt;Node3</title>
<path fill="none" stroke="orange" d="M184.5,-124.04C184.5,-111.67 184.5,-96.12 184.5,-86.63"/>
<polygon fill="orange" stroke="orange" points="181,-124.23 184.5,-134.23 188,-124.23 181,-124.23"/>
<text text-anchor="middle" x="225" y="-108" font-family="Helvetica,sans-Serif" font-size="10.00"> &lt; ImageView &gt;</text>
</g>
<!-- Node5 -->
<g id="node5" class="node">
<title>Node5</title>
<g id="a_node5"><a xlink:title=" ">
<polygon fill="white" stroke="#bfbfbf" points="258.5,-67.5 258.5,-86.5 392.5,-86.5 392.5,-67.5 258.5,-67.5"/>
<text text-anchor="middle" x="325.5" y="-74.5" font-family="Helvetica,sans-Serif" font-size="10.00">OnBackPressedCallback</text>
</a>
</g>
</g>
<!-- Node5&#45;&gt;Node1 -->
<g id="edge4" class="edge">
<title>Node5&#45;&gt;Node1</title>
<path fill="none" stroke="#404040" d="M306.95,-67.37C290.34,-59.65 265.31,-48.04 243.5,-38 234.08,-33.66 223.79,-28.95 214.49,-24.69"/>
<polygon fill="none" stroke="#404040" points="214.29,-24.6 207.17,-25.74 203.38,-19.61 210.5,-18.47 214.29,-24.6"/>
<text text-anchor="middle" x="289.5" y="-41" font-family="Helvetica,sans-Serif" font-size="10.00"> &#45;callback</text>
</g>
</g>
</svg>
