<?xml version="1.0" encoding="UTF-8" standalone="no"?>
<!DOCTYPE svg PUBLIC "-//W3C//DTD SVG 1.1//EN"
 "http://www.w3.org/Graphics/SVG/1.1/DTD/svg11.dtd">
<!-- Generated by graphviz version 2.43.0 (0)
 -->
<!-- Title: CoinFlipDialog Pages: 1 -->
<svg width="197pt" height="162pt"
 viewBox="0.00 0.00 197.00 162.00" xmlns="http://www.w3.org/2000/svg" xmlns:xlink="http://www.w3.org/1999/xlink">
<g id="graph0" class="graph" transform="scale(1 1) rotate(0) translate(4 158)">
<title>CoinFlipDialog</title>
<polygon fill="white" stroke="transparent" points="-4,4 -4,-158 193,-158 193,4 -4,4"/>
<!-- Node1 -->
<g id="node1" class="node">
<title>Node1</title>
<g id="a_node1"><a xlink:title="An OverlayDialog class showing the result of a coin&#45;flip.">
<polygon fill="#bfbfbf" stroke="black" points="68,-0.5 68,-19.5 156,-19.5 156,-0.5 68,-0.5"/>
<text text-anchor="middle" x="112" y="-7.5" font-family="Helvetica,sans-Serif" font-size="10.00">CoinFlipDialog</text>
</a>
</g>
</g>
<!-- Node2 -->
<g id="node2" class="node">
<title>Node2</title>
<g id="a_node2"><a xlink:href="classcom_1_1peternaggschga_1_1gwent_1_1ui_1_1dialogs_1_1OverlayDialog.xhtml" target="_top" xlink:title="A Dialog class which is used for popups that are shown on top of the calling Activity.">
<polygon fill="white" stroke="black" points="24,-67.5 24,-86.5 110,-86.5 110,-67.5 24,-67.5"/>
<text text-anchor="middle" x="67" y="-74.5" font-family="Helvetica,sans-Serif" font-size="10.00">OverlayDialog</text>
</a>
</g>
</g>
<!-- Node2&#45;&gt;Node1 -->
<g id="edge1" class="edge">
<title>Node2&#45;&gt;Node1</title>
<path fill="none" stroke="midnightblue" d="M78.84,-58.9C87.58,-46.27 99.12,-29.6 106.03,-19.63"/>
<polygon fill="none" stroke="midnightblue" points="75.88,-57.02 73.07,-67.23 81.64,-61 75.88,-57.02"/>
</g>
<!-- Node3 -->
<g id="node3" class="node">
<title>Node3</title>
<g id="a_node3"><a xlink:title=" ">
<polygon fill="white" stroke="#bfbfbf" points="0,-134.5 0,-153.5 48,-153.5 48,-134.5 0,-134.5"/>
<text text-anchor="middle" x="24" y="-141.5" font-family="Helvetica,sans-Serif" font-size="10.00">Dialog</text>
</a>
</g>
</g>
<!-- Node3&#45;&gt;Node2 -->
<g id="edge2" class="edge">
<title>Node3&#45;&gt;Node2</title>
<path fill="none" stroke="midnightblue" d="M35.55,-125.53C43.88,-112.95 54.76,-96.51 61.29,-86.63"/>
<polygon fill="none" stroke="midnightblue" points="32.4,-123.96 29.8,-134.23 38.24,-127.82 32.4,-123.96"/>
</g>
<!-- Node4 -->
<g id="node4" class="node">
<title>Node4</title>
<g id="a_node4"><a xlink:title=" ">
<polygon fill="white" stroke="#bfbfbf" points="66.5,-134.5 66.5,-153.5 155.5,-153.5 155.5,-134.5 66.5,-134.5"/>
<text text-anchor="middle" x="111" y="-141.5" font-family="Helvetica,sans-Serif" font-size="10.00">ColorDrawable</text>
</a>
</g>
</g>
<!-- Node4&#45;&gt;Node2 -->
<g id="edge3" class="edge">
<title>Node4&#45;&gt;Node2</title>
<path fill="none" stroke="#404040" d="M105.07,-134.23C98.6,-124.68 88.06,-109.12 79.71,-96.78"/>
<polygon fill="none" stroke="#404040" points="79.57,-96.56 72.89,-93.84 72.84,-86.63 79.52,-89.35 79.57,-96.56"/>
<text text-anchor="middle" x="131" y="-108" font-family="Helvetica,sans-Serif" font-size="10.00"> &#45;BACKGROUND</text>
</g>
<!-- Node5 -->
<g id="node5" class="node">
<title>Node5</title>
<g id="a_node5"><a xlink:title=" ">
<polygon fill="white" stroke="#bfbfbf" points="128.5,-67.5 128.5,-86.5 185.5,-86.5 185.5,-67.5 128.5,-67.5"/>
<text text-anchor="middle" x="157" y="-74.5" font-family="Helvetica,sans-Serif" font-size="10.00">Random</text>
</a>
</g>
</g>
<!-- Node5&#45;&gt;Node1 -->
<g id="edge4" class="edge">
<title>Node5&#45;&gt;Node1</title>
<path fill="none" stroke="#404040" d="M150.93,-67.23C144.32,-57.68 133.54,-42.12 125,-29.78"/>
<polygon fill="none" stroke="#404040" points="124.8,-29.49 118.1,-26.84 117.97,-19.63 124.68,-22.28 124.8,-29.49"/>
<text text-anchor="middle" x="163" y="-41" font-family="Helvetica,sans-Serif" font-size="10.00"> &#45;RANDOM</text>
</g>
</g>
</svg>
