<?xml version="1.0" encoding="UTF-8" standalone="no"?>
<!DOCTYPE svg PUBLIC "-//W3C//DTD SVG 1.1//EN"
 "http://www.w3.org/Graphics/SVG/1.1/DTD/svg11.dtd">
<!-- Generated by graphviz version 2.43.0 (0)
 -->
<!-- Title: UnitRepository Pages: 1 -->
<svg width="102pt" height="149pt"
 viewBox="0.00 0.00 102.00 149.00" xmlns="http://www.w3.org/2000/svg" xmlns:xlink="http://www.w3.org/1999/xlink">

<svg id="main" version="1.1" xmlns="http://www.w3.org/2000/svg" xmlns:xlink="http://www.w3.org/1999/xlink" xml:space="preserve" onload="init(evt)">
<style type="text/css"><![CDATA[
.node, .edge {opacity: 0.7;}
.node.selected, .edge.selected {opacity: 1;}
.edge:hover path { stroke: red; }
.edge:hover polygon { stroke: red; fill: red; }
]]></style>
<script type="application/ecmascript" xlink:href="svg.min.js"/>
<svg id="graph" class="graph">
<g id="graph0" class="graph" transform="scale(1 1) rotate(0) translate(4 145)">
<title>UnitRepository</title>
<!-- Node1 -->
<g id="Node000001" class="node">
<title>Node1</title>
<g id="a_Node000001"><a xlink:title="A facade class managing public access to the data layer.">
<polygon fill="#999999" stroke="transparent" points="83,-19 1,-19 1,0 83,0 83,-19"/>
<text text-anchor="start" x="5.5" y="-6.5" font-family="Helvetica,sans-Serif" font-size="10.00">UnitRepository</text>
<polygon fill="none" stroke="#666666" points="1,0 1,-19 83,-19 83,0 1,0"/>
</a>
</g>
</g>
<!-- Node2 -->
<g id="Node000002" class="node">
<title>Node2</title>
<g id="a_Node000002"><a xlink:href="classcom_1_1peternaggschga_1_1gwent_1_1data_1_1AppDatabase.xhtml" target="_top" xlink:title="An abstract class extending RoomDatabase and representing the SQLite database of the application.">
<polygon fill="white" stroke="transparent" points="79,-85 5,-85 5,-66 79,-66 79,-85"/>
<text text-anchor="start" x="9" y="-72.5" font-family="Helvetica,sans-Serif" font-size="10.00">AppDatabase</text>
<polygon fill="none" stroke="#666666" points="5,-66 5,-85 79,-85 79,-66 5,-66"/>
</a>
</g>
</g>
<!-- Node2&#45;&gt;Node1 -->
<g id="edge1_Node000001_Node000002" class="edge">
<title>Node2&#45;&gt;Node1</title>
<g id="a_edge1_Node000001_Node000002"><a xlink:title=" ">
<path fill="none" stroke="#63b8ff" d="M42,-65.87C42,-57.14 42,-43.31 42,-31.65"/>
<polygon fill="none" stroke="#63b8ff" points="42,-31.41 38,-25.41 42,-19.41 46,-25.41 42,-31.41"/>
</a>
</g>
<text text-anchor="middle" x="68" y="-40" font-family="Helvetica,sans-Serif" font-size="10.00" fill="grey"> &#45;database</text>
</g>
<!-- Node3 -->
<g id="Node000003" class="node">
<title>Node3</title>
<g id="a_Node000003"><a xlink:title=" ">
<polygon fill="white" stroke="transparent" points="84,-141 0,-141 0,-122 84,-122 84,-141"/>
<text text-anchor="start" x="4" y="-128.5" font-family="Helvetica,sans-Serif" font-size="10.00">RoomDatabase</text>
<polygon fill="none" stroke="#bfbfbf" points="0,-122 0,-141 84,-141 84,-122 0,-122"/>
</a>
</g>
</g>
<!-- Node3&#45;&gt;Node2 -->
<g id="edge2_Node000002_Node000003" class="edge">
<title>Node3&#45;&gt;Node2</title>
<g id="a_edge2_Node000002_Node000003"><a xlink:title=" ">
<path fill="none" stroke="#63b8ff" d="M42,-111.3C42,-102.41 42,-92.28 42,-85.25"/>
<polygon fill="none" stroke="#63b8ff" points="38.5,-111.58 42,-121.58 45.5,-111.58 38.5,-111.58"/>
</a>
</g>
</g>
</g>
</svg>
</svg>

<style type='text/css'>
<![CDATA[
[data-mouse-over-selected='false'] { opacity: 0.7; }
[data-mouse-over-selected='true']  { opacity: 1.0; }
]]>
</style>
<script type="application/ecmascript"><![CDATA[
document.addEventListener('DOMContentLoaded', (event) => {
  highlightEdges();
  highlightAdjacentNodes();
});
]]></script>
</svg>
