<?xml version="1.0" encoding="UTF-8" standalone="no"?>
<!DOCTYPE svg PUBLIC "-//W3C//DTD SVG 1.1//EN"
 "http://www.w3.org/Graphics/SVG/1.1/DTD/svg11.dtd">
<!-- Generated by graphviz version 2.43.0 (0)
 -->
<!-- Title: CardListAdapter.CardViewHolder Pages: 1 -->
<svg width="279pt" height="117pt"
 viewBox="0.00 0.00 278.50 117.00" xmlns="http://www.w3.org/2000/svg" xmlns:xlink="http://www.w3.org/1999/xlink">
<g id="graph0" class="graph" transform="scale(1 1) rotate(0) translate(4 113)">
<title>CardListAdapter.CardViewHolder</title>
<polygon fill="white" stroke="transparent" points="-4,4 -4,-113 274.5,-113 274.5,4 -4,4"/>
<!-- Node1 -->
<g id="node1" class="node">
<title>Node1</title>
<g id="a_node1"><a xlink:title="A RecyclerView.ViewHolder class managing a card view that shows a representation of the UnitEntity re...">
<polygon fill="#bfbfbf" stroke="black" points="55,-0.5 55,-30.5 198,-30.5 198,-0.5 55,-0.5"/>
<text text-anchor="start" x="63" y="-18.5" font-family="Helvetica,sans-Serif" font-size="10.00">CardListAdapter.CardView</text>
<text text-anchor="middle" x="126.5" y="-7.5" font-family="Helvetica,sans-Serif" font-size="10.00">Holder</text>
</a>
</g>
</g>
<!-- Node2 -->
<g id="node2" class="node">
<title>Node2</title>
<g id="a_node2"><a xlink:title=" ">
<polygon fill="white" stroke="#bfbfbf" points="0,-89.5 0,-108.5 73,-108.5 73,-89.5 0,-89.5"/>
<text text-anchor="middle" x="36.5" y="-96.5" font-family="Helvetica,sans-Serif" font-size="10.00">ViewHolder</text>
</a>
</g>
</g>
<!-- Node2&#45;&gt;Node1 -->
<g id="edge1" class="edge">
<title>Node2&#45;&gt;Node1</title>
<path fill="none" stroke="midnightblue" d="M53.95,-82.2C70.47,-67.23 95.06,-44.97 110.93,-30.6"/>
<polygon fill="none" stroke="midnightblue" points="51.19,-79.97 46.13,-89.28 55.89,-85.16 51.19,-79.97"/>
</g>
<!-- Node3 -->
<g id="node3" class="node">
<title>Node3</title>
<g id="a_node3"><a xlink:title=" ">
<polygon fill="white" stroke="#bfbfbf" points="91,-89.5 91,-108.5 162,-108.5 162,-89.5 91,-89.5"/>
<text text-anchor="middle" x="126.5" y="-96.5" font-family="Helvetica,sans-Serif" font-size="10.00">ImageView</text>
</a>
</g>
</g>
<!-- Node3&#45;&gt;Node1 -->
<g id="edge2" class="edge">
<title>Node3&#45;&gt;Node1</title>
<path fill="none" stroke="#404040" d="M126.5,-89.28C126.5,-78.31 126.5,-58.97 126.5,-42.98"/>
<polygon fill="none" stroke="#404040" points="126.5,-42.6 122.5,-36.6 126.5,-30.6 130.5,-36.6 126.5,-42.6"/>
<text text-anchor="middle" x="157.5" y="-57.5" font-family="Helvetica,sans-Serif" font-size="10.00"> &#45;abilityView</text>
</g>
<!-- Node4 -->
<g id="node4" class="node">
<title>Node4</title>
<g id="a_node4"><a xlink:title=" ">
<polygon fill="white" stroke="#bfbfbf" points="181,-89.5 181,-108.5 242,-108.5 242,-89.5 181,-89.5"/>
<text text-anchor="middle" x="211.5" y="-96.5" font-family="Helvetica,sans-Serif" font-size="10.00">TextView</text>
</a>
</g>
</g>
<!-- Node4&#45;&gt;Node1 -->
<g id="edge3" class="edge">
<title>Node4&#45;&gt;Node1</title>
<path fill="none" stroke="#404040" d="M209.51,-89.4C206.67,-78.76 200.53,-60.64 189.5,-49 185.17,-44.43 180.05,-40.38 174.63,-36.84"/>
<polygon fill="none" stroke="#404040" points="174.35,-36.67 167.15,-37.11 163.98,-30.63 171.17,-30.2 174.35,-36.67"/>
<text text-anchor="middle" x="236.5" y="-63" font-family="Helvetica,sans-Serif" font-size="10.00"> &#45;bindingView</text>
<text text-anchor="middle" x="236.5" y="-52" font-family="Helvetica,sans-Serif" font-size="10.00">&#45;damageView</text>
</g>
</g>
</svg>
