<?xml version="1.0" encoding="UTF-8" standalone="no"?>
<!DOCTYPE svg PUBLIC "-//W3C//DTD SVG 1.1//EN"
 "http://www.w3.org/Graphics/SVG/1.1/DTD/svg11.dtd">
<!-- Generated by graphviz version 2.43.0 (0)
 -->
<!-- Title: HornDamageCalculatorDecorator Pages: 1 -->
<svg width="288pt" height="162pt"
 viewBox="0.00 0.00 287.50 162.00" xmlns="http://www.w3.org/2000/svg" xmlns:xlink="http://www.w3.org/1999/xlink">
<g id="graph0" class="graph" transform="scale(1 1) rotate(0) translate(4 158)">
<title>HornDamageCalculatorDecorator</title>
<polygon fill="white" stroke="transparent" points="-4,4 -4,-158 283.5,-158 283.5,4 -4,4"/>
<!-- Node1 -->
<g id="node1" class="node">
<title>Node1</title>
<g id="a_node1"><a xlink:title="A DamageCalculator class responsible for calculating the horn buff if necessary, i....">
<polygon fill="#bfbfbf" stroke="black" points="58,-0.5 58,-19.5 237,-19.5 237,-0.5 58,-0.5"/>
<text text-anchor="middle" x="147.5" y="-7.5" font-family="Helvetica,sans-Serif" font-size="10.00">HornDamageCalculatorDecorator</text>
</a>
</g>
</g>
<!-- Node2 -->
<g id="node2" class="node">
<title>Node2</title>
<g id="a_node2"><a xlink:href="classcom_1_1peternaggschga_1_1gwent_1_1domain_1_1damage_1_1DamageCalculatorDecorator.xhtml" target="_top" xlink:title="An abstract DamageCalculator that is used as a superclass for the decorator classes implementing the ...">
<polygon fill="white" stroke="black" points="0,-67.5 0,-86.5 155,-86.5 155,-67.5 0,-67.5"/>
<text text-anchor="middle" x="77.5" y="-74.5" font-family="Helvetica,sans-Serif" font-size="10.00">DamageCalculatorDecorator</text>
</a>
</g>
</g>
<!-- Node2&#45;&gt;Node1 -->
<g id="edge1" class="edge">
<title>Node2&#45;&gt;Node1</title>
<path fill="none" stroke="midnightblue" d="M94.35,-60.36C108.11,-47.58 127.05,-29.99 138.21,-19.63"/>
<polygon fill="none" stroke="midnightblue" points="91.89,-57.86 86.94,-67.23 96.65,-62.99 91.89,-57.86"/>
</g>
<!-- Node3 -->
<g id="node3" class="node">
<title>Node3</title>
<g id="a_node3"><a xlink:href="interfacecom_1_1peternaggschga_1_1gwent_1_1domain_1_1damage_1_1DamageCalculator.xhtml" target="_top" xlink:title="An interface for a class capable of calculating the (de&#45;)buffed damage of a unit for a given UnitEnti...">
<polygon fill="white" stroke="black" points="25,-134.5 25,-153.5 132,-153.5 132,-134.5 25,-134.5"/>
<text text-anchor="middle" x="78.5" y="-141.5" font-family="Helvetica,sans-Serif" font-size="10.00">DamageCalculator</text>
</a>
</g>
</g>
<!-- Node3&#45;&gt;Node2 -->
<g id="edge2" class="edge">
<title>Node3&#45;&gt;Node2</title>
<path fill="none" stroke="midnightblue" d="M76.11,-123.85C75.86,-121.21 75.64,-118.54 75.5,-116 74.94,-105.97 75.75,-94.46 76.5,-86.75"/>
<polygon fill="none" stroke="midnightblue" points="72.66,-124.47 77.25,-134.02 79.61,-123.69 72.66,-124.47"/>
</g>
<!-- Node3&#45;&gt;Node2 -->
<g id="edge3" class="edge">
<title>Node3&#45;&gt;Node2</title>
<path fill="none" stroke="#404040" d="M78.37,-134.23C78.23,-125.17 78,-110.69 77.82,-98.69"/>
<polygon fill="none" stroke="#404040" points="77.82,-98.63 73.73,-92.69 77.63,-86.63 81.72,-92.57 77.82,-98.63"/>
<text text-anchor="middle" x="112" y="-108" font-family="Helvetica,sans-Serif" font-size="10.00"> #component</text>
</g>
<!-- Node4 -->
<g id="node4" class="node">
<title>Node4</title>
<g id="a_node4"><a xlink:title=" ">
<polygon fill="white" stroke="#bfbfbf" points="173,-67.5 173,-86.5 264,-86.5 264,-67.5 173,-67.5"/>
<text text-anchor="middle" x="218.5" y="-74.5" font-family="Helvetica,sans-Serif" font-size="10.00">List&lt; Integer &gt;</text>
</a>
</g>
</g>
<!-- Node4&#45;&gt;Node1 -->
<g id="edge4" class="edge">
<title>Node4&#45;&gt;Node1</title>
<path fill="none" stroke="#404040" d="M208.92,-67.23C197.96,-57.2 179.74,-40.51 165.98,-27.92"/>
<polygon fill="none" stroke="#404040" points="165.77,-27.73 158.65,-26.63 156.92,-19.63 164.05,-20.73 165.77,-27.73"/>
<text text-anchor="middle" x="207.5" y="-41" font-family="Helvetica,sans-Serif" font-size="10.00"> &#45;unitIds</text>
</g>
<!-- Node5 -->
<g id="node5" class="node">
<title>Node5</title>
<g id="a_node5"><a xlink:title=" ">
<polygon fill="white" stroke="#bfbfbf" points="201.5,-134.5 201.5,-153.5 235.5,-153.5 235.5,-134.5 201.5,-134.5"/>
<text text-anchor="middle" x="218.5" y="-141.5" font-family="Helvetica,sans-Serif" font-size="10.00">List</text>
</a>
</g>
</g>
<!-- Node5&#45;&gt;Node4 -->
<g id="edge5" class="edge">
<title>Node5&#45;&gt;Node4</title>
<path fill="none" stroke="orange" d="M218.5,-124.04C218.5,-111.67 218.5,-96.12 218.5,-86.63"/>
<polygon fill="orange" stroke="orange" points="215,-124.23 218.5,-134.23 222,-124.23 215,-124.23"/>
<text text-anchor="middle" x="249" y="-108" font-family="Helvetica,sans-Serif" font-size="10.00"> &lt; Integer &gt;</text>
</g>
</g>
</svg>
