<?xml version="1.0" encoding="UTF-8" standalone="no"?>
<!DOCTYPE svg PUBLIC "-//W3C//DTD SVG 1.1//EN"
 "http://www.w3.org/Graphics/SVG/1.1/DTD/svg11.dtd">
<!-- Generated by graphviz version 2.43.0 (0)
 -->
<!-- Title: MainActivity Pages: 1 -->
<svg width="268pt" height="149pt"
 viewBox="0.00 0.00 268.00 149.00" xmlns="http://www.w3.org/2000/svg" xmlns:xlink="http://www.w3.org/1999/xlink">

<svg id="main" version="1.1" xmlns="http://www.w3.org/2000/svg" xmlns:xlink="http://www.w3.org/1999/xlink" xml:space="preserve" onload="init(evt)">
<style type="text/css"><![CDATA[
.node, .edge {opacity: 0.7;}
.node.selected, .edge.selected {opacity: 1;}
.edge:hover path { stroke: red; }
.edge:hover polygon { stroke: red; fill: red; }
]]></style>
<script type="application/ecmascript" xlink:href="svg.min.js"/>
<svg id="graph" class="graph">
<g id="graph0" class="graph" transform="scale(1 1) rotate(0) translate(4 145)">
<title>MainActivity</title>
<!-- Node1 -->
<g id="Node000001" class="node">
<title>Node1</title>
<g id="a_Node000001"><a xlink:title="An AppCompatActivity that is called on startup and that encapsulates the main view onto the game boar...">
<polygon fill="#999999" stroke="transparent" points="127,-19 57,-19 57,0 127,0 127,-19"/>
<text text-anchor="start" x="61" y="-6.5" font-family="Helvetica,sans-Serif" font-size="10.00">MainActivity</text>
<polygon fill="none" stroke="#666666" points="57,0 57,-19 127,-19 127,0 57,0"/>
</a>
</g>
</g>
<!-- Node2 -->
<g id="Node000002" class="node">
<title>Node2</title>
<g id="a_Node000002"><a xlink:title=" ">
<polygon fill="white" stroke="transparent" points="104,-85 0,-85 0,-66 104,-66 104,-85"/>
<text text-anchor="start" x="4.5" y="-72.5" font-family="Helvetica,sans-Serif" font-size="10.00">AppCompatActivity</text>
<polygon fill="none" stroke="#bfbfbf" points="0,-66 0,-85 104,-85 104,-66 0,-66"/>
</a>
</g>
</g>
<!-- Node2&#45;&gt;Node1 -->
<g id="edge1_Node000001_Node000002" class="edge">
<title>Node2&#45;&gt;Node1</title>
<g id="a_edge1_Node000001_Node000002"><a xlink:title=" ">
<path fill="none" stroke="#63b8ff" d="M62.91,-57.05C70.52,-44.86 80.37,-29.11 86.43,-19.41"/>
<polygon fill="none" stroke="#63b8ff" points="59.73,-55.53 57.39,-65.87 65.66,-59.24 59.73,-55.53"/>
</a>
</g>
</g>
<!-- Node3 -->
<g id="Node000003" class="node">
<title>Node3</title>
<g id="a_Node000003"><a xlink:href="classcom_1_1peternaggschga_1_1gwent_1_1ui_1_1main_1_1GameBoardViewModel.xhtml" target="_top" xlink:title="An AndroidViewModel class responsible for encapsulating and offering state of views in activity_main....">
<polygon fill="white" stroke="transparent" points="242,-85 122,-85 122,-66 242,-66 242,-85"/>
<text text-anchor="start" x="126" y="-72.5" font-family="Helvetica,sans-Serif" font-size="10.00">GameBoardViewModel</text>
<polygon fill="none" stroke="#666666" points="122,-66 122,-85 242,-85 242,-66 122,-66"/>
</a>
</g>
</g>
<!-- Node3&#45;&gt;Node1 -->
<g id="edge2_Node000001_Node000003" class="edge">
<title>Node3&#45;&gt;Node1</title>
<g id="a_edge2_Node000001_Node000003"><a xlink:title=" ">
<path fill="none" stroke="#63b8ff" d="M169.86,-65.87C155.64,-55.75 131.78,-38.79 114.21,-26.3"/>
<polygon fill="none" stroke="#63b8ff" points="114.01,-26.15 106.8,-25.94 104.23,-19.2 111.44,-19.42 114.01,-26.15"/>
</a>
</g>
<text text-anchor="middle" x="201" y="-40" font-family="Helvetica,sans-Serif" font-size="10.00" fill="grey"> &#45;gameBoardViewModel</text>
</g>
<!-- Node4 -->
<g id="Node000004" class="node">
<title>Node4</title>
<g id="a_Node000004"><a xlink:title=" ">
<polygon fill="white" stroke="transparent" points="232,-141 132,-141 132,-122 232,-122 232,-141"/>
<text text-anchor="start" x="136" y="-128.5" font-family="Helvetica,sans-Serif" font-size="10.00">AndroidViewModel</text>
<polygon fill="none" stroke="#bfbfbf" points="132,-122 132,-141 232,-141 232,-122 132,-122"/>
</a>
</g>
</g>
<!-- Node4&#45;&gt;Node3 -->
<g id="edge3_Node000003_Node000004" class="edge">
<title>Node4&#45;&gt;Node3</title>
<g id="a_edge3_Node000003_Node000004"><a xlink:title=" ">
<path fill="none" stroke="#63b8ff" d="M182,-111.3C182,-102.41 182,-92.28 182,-85.25"/>
<polygon fill="none" stroke="#63b8ff" points="178.5,-111.58 182,-121.58 185.5,-111.58 178.5,-111.58"/>
</a>
</g>
</g>
</g>
</svg>
</svg>

<style type='text/css'>
<![CDATA[
[data-mouse-over-selected='false'] { opacity: 0.7; }
[data-mouse-over-selected='true']  { opacity: 1.0; }
]]>
</style>
<script type="application/ecmascript"><![CDATA[
document.addEventListener('DOMContentLoaded', (event) => {
  highlightEdges();
  highlightAdjacentNodes();
});
]]></script>
</svg>
