<?xml version="1.0" encoding="UTF-8" standalone="no"?>
<!DOCTYPE svg PUBLIC "-//W3C//DTD SVG 1.1//EN"
 "http://www.w3.org/Graphics/SVG/1.1/DTD/svg11.dtd">
<!-- Generated by graphviz version 2.43.0 (0)
 -->
<!-- Title: AddCardDialog Pages: 1 -->
<!--zoomable 262 -->
<svg id="main" version="1.1" xmlns="http://www.w3.org/2000/svg" xmlns:xlink="http://www.w3.org/1999/xlink" xml:space="preserve" onload="init(evt)">
<style type="text/css"><![CDATA[
.edge:hover path { stroke: red; }
.edge:hover polygon { stroke: red; fill: red; }
]]></style>
<script type="text/javascript"><![CDATA[
var edges = document.getElementsByTagName('g');
if (edges && edges.length) {
  for (var i=0;i<edges.length;i++) {
    if (edges[i].id.substr(0,4)=='edge') {
      edges[i].setAttribute('class','edge');
    }
  }
}
]]></script>
        <defs>
                <circle id="rim" cx="0" cy="0" r="7"/>
                <circle id="rim2" cx="0" cy="0" r="3.5"/>
                <g id="zoomPlus">
                        <use xlink:href="#rim" fill="#404040">
                                <set attributeName="fill" to="#808080" begin="zoomplus.mouseover" end="zoomplus.mouseout"/>
                        </use>
                        <path d="M-4,0h8M0,-4v8" fill="none" stroke="white" stroke-width="1.5" pointer-events="none"/>
                </g>
                <g id="zoomMin">
                        <use xlink:href="#rim" fill="#404040">
                                <set attributeName="fill" to="#808080" begin="zoomminus.mouseover" end="zoomminus.mouseout"/>
                        </use>
                        <path d="M-4,0h8" fill="none" stroke="white" stroke-width="1.5" pointer-events="none"/>
                </g>
                <g id="dirArrow">
                        <path fill="none" stroke="white" stroke-width="1.5" d="M0,-3.0v7 M-2.5,-0.5L0,-3.0L2.5,-0.5"/>
                </g>
               <g id="resetDef">
                       <use xlink:href="#rim2" fill="#404040">
                               <set attributeName="fill" to="#808080" begin="reset.mouseover" end="reset.mouseout"/>
                       </use>
               </g>
        </defs>

<script type="text/javascript">
var viewWidth = 714;
var viewHeight = 262;
var sectionId = 'dynsection-1';
</script>
<script xlink:href="svgpan.js"/>
<svg id="graph" class="graph">
<g id="viewport">
<title>AddCardDialog</title>
<polygon fill="white" stroke="transparent" points="-4,4 -4,-258 710,-258 710,4 -4,4"/>
<!-- Node1 -->
<g id="node1" class="node">
<title>Node1</title>
<g id="a_node1"><a xlink:title="An OverlayDialog used to add new UnitEntity objects to a certain row.">
<polygon fill="#bfbfbf" stroke="black" points="168.5,-0.5 168.5,-19.5 257.5,-19.5 257.5,-0.5 168.5,-0.5"/>
<text text-anchor="middle" x="213" y="-7.5" font-family="Helvetica,sans-Serif" font-size="10.00">AddCardDialog</text>
</a>
</g>
</g>
<!-- Node2 -->
<g id="node2" class="node">
<title>Node2</title>
<g id="a_node2"><a xlink:href="classcom_1_1peternaggschga_1_1gwent_1_1ui_1_1dialogs_1_1OverlayDialog.xhtml" target="_top" xlink:title="A Dialog class which is used for popups that are shown on top of the calling Activity.">
<polygon fill="white" stroke="black" points="24,-67.5 24,-86.5 110,-86.5 110,-67.5 24,-67.5"/>
<text text-anchor="middle" x="67" y="-74.5" font-family="Helvetica,sans-Serif" font-size="10.00">OverlayDialog</text>
</a>
</g>
</g>
<!-- Node2&#45;&gt;Node1 -->
<g id="edge1" class="edge">
<title>Node2&#45;&gt;Node1</title>
<path fill="none" stroke="midnightblue" d="M95.57,-63.28C124.48,-50.41 168.4,-30.85 193.53,-19.67"/>
<polygon fill="none" stroke="midnightblue" points="94.1,-60.1 86.39,-67.37 96.95,-66.5 94.1,-60.1"/>
</g>
<!-- Node3 -->
<g id="node3" class="node">
<title>Node3</title>
<g id="a_node3"><a xlink:title=" ">
<polygon fill="white" stroke="#bfbfbf" points="0,-151 0,-170 48,-170 48,-151 0,-151"/>
<text text-anchor="middle" x="24" y="-158" font-family="Helvetica,sans-Serif" font-size="10.00">Dialog</text>
</a>
</g>
</g>
<!-- Node3&#45;&gt;Node2 -->
<g id="edge2" class="edge">
<title>Node3&#45;&gt;Node2</title>
<path fill="none" stroke="midnightblue" d="M33.32,-141.83C42.31,-124.79 55.53,-99.73 62.43,-86.66"/>
<polygon fill="none" stroke="midnightblue" points="30.17,-140.3 28.6,-150.78 36.36,-143.57 30.17,-140.3"/>
</g>
<!-- Node4 -->
<g id="node4" class="node">
<title>Node4</title>
<g id="a_node4"><a xlink:title=" ">
<polygon fill="white" stroke="#bfbfbf" points="66.5,-151 66.5,-170 155.5,-170 155.5,-151 66.5,-151"/>
<text text-anchor="middle" x="111" y="-158" font-family="Helvetica,sans-Serif" font-size="10.00">ColorDrawable</text>
</a>
</g>
</g>
<!-- Node4&#45;&gt;Node2 -->
<g id="edge3" class="edge">
<title>Node4&#45;&gt;Node2</title>
<path fill="none" stroke="#404040" d="M106.29,-150.78C99.48,-138.16 86.68,-114.46 77.54,-97.53"/>
<polygon fill="none" stroke="#404040" points="77.38,-97.22 71.01,-93.84 71.67,-86.66 78.05,-90.04 77.38,-97.22"/>
<text text-anchor="middle" x="132" y="-113.5" font-family="Helvetica,sans-Serif" font-size="10.00"> &#45;BACKGROUND</text>
</g>
<!-- Node5 -->
<g id="node5" class="node">
<title>Node5</title>
<g id="a_node5"><a xlink:href="enumcom_1_1peternaggschga_1_1gwent_1_1data_1_1RowType.xhtml" target="_top" xlink:title="An enum listing the different types of attack rows.">
<polygon fill="white" stroke="black" points="128,-67.5 128,-86.5 188,-86.5 188,-67.5 128,-67.5"/>
<text text-anchor="middle" x="158" y="-74.5" font-family="Helvetica,sans-Serif" font-size="10.00">RowType</text>
</a>
</g>
</g>
<!-- Node5&#45;&gt;Node1 -->
<g id="edge4" class="edge">
<title>Node5&#45;&gt;Node1</title>
<path fill="none" stroke="#404040" d="M165.42,-67.23C173.66,-57.49 187.21,-41.48 197.74,-29.03"/>
<polygon fill="none" stroke="#404040" points="197.95,-28.79 198.77,-21.62 205.7,-19.63 204.88,-26.79 197.95,-28.79"/>
<text text-anchor="middle" x="201.5" y="-41" font-family="Helvetica,sans-Serif" font-size="10.00"> &#45;row</text>
</g>
<!-- Node6 -->
<g id="node6" class="node">
<title>Node6</title>
<g id="a_node6"><a xlink:title=" ">
<polygon fill="white" stroke="#bfbfbf" points="206.5,-67.5 206.5,-86.5 329.5,-86.5 329.5,-67.5 206.5,-67.5"/>
<text text-anchor="middle" x="268" y="-74.5" font-family="Helvetica,sans-Serif" font-size="10.00">CompositeDisposable</text>
</a>
</g>
</g>
<!-- Node6&#45;&gt;Node1 -->
<g id="edge5" class="edge">
<title>Node6&#45;&gt;Node1</title>
<path fill="none" stroke="#404040" d="M260.58,-67.23C252.34,-57.49 238.79,-41.48 228.26,-29.03"/>
<polygon fill="none" stroke="#404040" points="228.05,-28.79 221.12,-26.79 220.3,-19.63 227.23,-21.62 228.05,-28.79"/>
<text text-anchor="middle" x="276.5" y="-41" font-family="Helvetica,sans-Serif" font-size="10.00"> &#45;disposables</text>
</g>
<!-- Node7 -->
<g id="node7" class="node">
<title>Node7</title>
<g id="a_node7"><a xlink:href="classcom_1_1peternaggschga_1_1gwent_1_1ui_1_1dialogs_1_1addcard_1_1CardNumberPickerAdapter.xhtml" target="_top" xlink:title="A helper class responsible for initializing the NumberPicker views of an AddCardDialog (in #CardNumpe...">
<polygon fill="white" stroke="black" points="348,-67.5 348,-86.5 494,-86.5 494,-67.5 348,-67.5"/>
<text text-anchor="middle" x="421" y="-74.5" font-family="Helvetica,sans-Serif" font-size="10.00">CardNumberPickerAdapter</text>
</a>
</g>
</g>
<!-- Node7&#45;&gt;Node1 -->
<g id="edge6" class="edge">
<title>Node7&#45;&gt;Node1</title>
<path fill="none" stroke="#404040" d="M398.41,-67.5C376.67,-59.45 342.8,-47.25 313,-38 295.45,-32.55 275.97,-27.15 258.91,-22.63"/>
<polygon fill="none" stroke="#404040" points="258.58,-22.54 251.76,-24.89 246.97,-19.5 253.79,-17.15 258.58,-22.54"/>
<text text-anchor="middle" x="383.5" y="-41" font-family="Helvetica,sans-Serif" font-size="10.00"> &#45;pickerAdapter</text>
</g>
<!-- Node8 -->
<g id="node8" class="node">
<title>Node8</title>
<g id="a_node8"><a xlink:href="classcom_1_1peternaggschga_1_1gwent_1_1ui_1_1dialogs_1_1addcard_1_1DamageValuePicker.xhtml" target="_top" xlink:title="A ValuePicker used for selection of damage values for UnitEntity::damage.">
<polygon fill="white" stroke="black" points="246,-151 246,-170 360,-170 360,-151 246,-151"/>
<text text-anchor="middle" x="303" y="-158" font-family="Helvetica,sans-Serif" font-size="10.00">DamageValuePicker</text>
</a>
</g>
</g>
<!-- Node8&#45;&gt;Node7 -->
<g id="edge7" class="edge">
<title>Node8&#45;&gt;Node7</title>
<path fill="none" stroke="#404040" d="M306.86,-150.84C312.62,-138.86 324.58,-117.32 341,-105 349,-99 358.42,-94.27 367.94,-90.58"/>
<polygon fill="none" stroke="#404040" points="368.17,-90.5 372.52,-84.75 379.5,-86.56 375.15,-92.31 368.17,-90.5"/>
<text text-anchor="middle" x="379" y="-113.5" font-family="Helvetica,sans-Serif" font-size="10.00"> &#45;damagePicker</text>
</g>
<!-- Node9 -->
<g id="node9" class="node">
<title>Node9</title>
<g id="a_node9"><a xlink:title=" ">
<polygon fill="white" stroke="#bfbfbf" points="238,-234.5 238,-253.5 368,-253.5 368,-234.5 238,-234.5"/>
<text text-anchor="middle" x="303" y="-241.5" font-family="Helvetica,sans-Serif" font-size="10.00">ValuePicker&lt; Integer &gt;</text>
</a>
</g>
</g>
<!-- Node9&#45;&gt;Node8 -->
<g id="edge8" class="edge">
<title>Node9&#45;&gt;Node8</title>
<path fill="none" stroke="midnightblue" d="M303,-223.88C303,-206.9 303,-182.87 303,-170.16"/>
<polygon fill="none" stroke="midnightblue" points="299.5,-224.28 303,-234.28 306.5,-224.28 299.5,-224.28"/>
</g>
<!-- Node10 -->
<g id="node10" class="node">
<title>Node10</title>
<g id="a_node10"><a xlink:title=" ">
<polygon fill="white" stroke="#bfbfbf" points="378.5,-151 378.5,-170 463.5,-170 463.5,-151 378.5,-151"/>
<text text-anchor="middle" x="421" y="-158" font-family="Helvetica,sans-Serif" font-size="10.00">NumberPicker</text>
</a>
</g>
</g>
<!-- Node10&#45;&gt;Node7 -->
<g id="edge9" class="edge">
<title>Node10&#45;&gt;Node7</title>
<path fill="none" stroke="#404040" d="M421,-150.78C421,-138.52 421,-115.83 421,-99.03"/>
<polygon fill="none" stroke="#404040" points="421,-98.66 417,-92.66 421,-86.66 425,-92.66 421,-98.66"/>
<text text-anchor="middle" x="458" y="-119" font-family="Helvetica,sans-Serif" font-size="10.00"> &#45;numberPicker</text>
<text text-anchor="middle" x="458" y="-108" font-family="Helvetica,sans-Serif" font-size="10.00">&#45;squadPicker</text>
</g>
<!-- Node11 -->
<g id="node11" class="node">
<title>Node11</title>
<g id="a_node11"><a xlink:title=" ">
<polygon fill="white" stroke="#bfbfbf" points="482,-145.5 482,-175.5 690,-175.5 690,-145.5 482,-145.5"/>
<text text-anchor="start" x="490" y="-163.5" font-family="Helvetica,sans-Serif" font-size="10.00">List&lt; com.peternaggschga.gwent.data.</text>
<text text-anchor="middle" x="586" y="-152.5" font-family="Helvetica,sans-Serif" font-size="10.00">Ability &gt;</text>
</a>
</g>
</g>
<!-- Node11&#45;&gt;Node7 -->
<g id="edge10" class="edge">
<title>Node11&#45;&gt;Node7</title>
<path fill="none" stroke="#404040" d="M566.35,-145.38C549.18,-133.49 523.28,-116.62 499,-105 487.46,-99.48 474.49,-94.52 462.49,-90.41"/>
<polygon fill="none" stroke="#404040" points="462.29,-90.35 455.34,-92.27 450.89,-86.6 457.84,-84.67 462.29,-90.35"/>
<text text-anchor="middle" x="593.5" y="-113.5" font-family="Helvetica,sans-Serif" font-size="10.00"> &#45;EPIC_UNIT_ABILITIES</text>
</g>
<!-- Node12 -->
<g id="node12" class="node">
<title>Node12</title>
<g id="a_node12"><a xlink:title=" ">
<polygon fill="white" stroke="#bfbfbf" points="569,-234.5 569,-253.5 603,-253.5 603,-234.5 569,-234.5"/>
<text text-anchor="middle" x="586" y="-241.5" font-family="Helvetica,sans-Serif" font-size="10.00">List</text>
</a>
</g>
</g>
<!-- Node12&#45;&gt;Node11 -->
<g id="edge11" class="edge">
<title>Node12&#45;&gt;Node11</title>
<path fill="none" stroke="orange" d="M586,-224.23C586,-209.41 586,-189.05 586,-175.6"/>
<polygon fill="orange" stroke="orange" points="582.5,-224.28 586,-234.28 589.5,-224.28 582.5,-224.28"/>
<text text-anchor="start" x="586" y="-208" font-family="Helvetica,sans-Serif" font-size="10.00"> &lt; com::peternaggschga</text>
<text text-anchor="middle" x="646" y="-197" font-family="Helvetica,sans-Serif" font-size="10.00">::gwent::data::Ability &gt;</text>
</g>
</g>
</svg>
        <g id="navigator" transform="translate(0 0)" fill="#404254">
                <rect fill="#f2f5e9" fill-opacity="0.5" stroke="#606060" stroke-width=".5" x="0" y="0" width="60" height="60"/>
                <use id="zoomplus" xlink:href="#zoomPlus" x="17" y="9" onmousedown="handleZoom(evt,'in')"/>
                <use id="zoomminus" xlink:href="#zoomMin" x="42" y="9" onmousedown="handleZoom(evt,'out')"/>
                <use id="reset" xlink:href="#resetDef" x="30" y="36" onmousedown="handleReset()"/>
                <g id="arrowUp" xlink:href="#dirArrow" transform="translate(30 24)" onmousedown="handlePan(0,-1)">
                  <use xlink:href="#rim" fill="#404040">
                        <set attributeName="fill" to="#808080" begin="arrowUp.mouseover" end="arrowUp.mouseout"/>
                  </use>
                  <path fill="none" stroke="white" stroke-width="1.5" d="M0,-3.0v7 M-2.5,-0.5L0,-3.0L2.5,-0.5"/>
                </g>
                <g id="arrowRight" xlink:href="#dirArrow" transform="rotate(90) translate(36 -43)" onmousedown="handlePan(1,0)">
                  <use xlink:href="#rim" fill="#404040">
                        <set attributeName="fill" to="#808080" begin="arrowRight.mouseover" end="arrowRight.mouseout"/>
                  </use>
                  <path fill="none" stroke="white" stroke-width="1.5" d="M0,-3.0v7 M-2.5,-0.5L0,-3.0L2.5,-0.5"/>
                </g>
                <g id="arrowDown" xlink:href="#dirArrow" transform="rotate(180) translate(-30 -48)" onmousedown="handlePan(0,1)">
                  <use xlink:href="#rim" fill="#404040">
                        <set attributeName="fill" to="#808080" begin="arrowDown.mouseover" end="arrowDown.mouseout"/>
                  </use>
                  <path fill="none" stroke="white" stroke-width="1.5" d="M0,-3.0v7 M-2.5,-0.5L0,-3.0L2.5,-0.5"/>
                </g>
                <g id="arrowLeft" xlink:href="#dirArrow" transform="rotate(270) translate(-36 17)" onmousedown="handlePan(-1,0)">
                  <use xlink:href="#rim" fill="#404040">
                        <set attributeName="fill" to="#808080" begin="arrowLeft.mouseover" end="arrowLeft.mouseout"/>
                  </use>
                  <path fill="none" stroke="white" stroke-width="1.5" d="M0,-3.0v7 M-2.5,-0.5L0,-3.0L2.5,-0.5"/>
                </g>
        </g>
        <svg viewBox="0 0 15 15" width="100%" height="30px" preserveAspectRatio="xMaxYMin meet">
         <g id="arrow_out" transform="scale(0.3 0.3)">
          <a xlink:href="classcom_1_1peternaggschga_1_1gwent_1_1ui_1_1dialogs_1_1addcard_1_1AddCardDialog__coll__graph_org.svg" target="_base">
           <rect id="button" ry="5" rx="5" y="6" x="6" height="38" width="38"
                fill="#f2f5e9" fill-opacity="0.5" stroke="#606060" stroke-width="1.0"/>
           <path id="arrow"
             d="M 11.500037,31.436501 C 11.940474,20.09759 22.043105,11.32322 32.158766,21.979434 L 37.068811,17.246167 C 37.068811,17.246167 37.088388,32 37.088388,32 L 22.160133,31.978069 C 22.160133,31.978069 26.997745,27.140456 26.997745,27.140456 C 18.528582,18.264221 13.291696,25.230495 11.500037,31.436501 z"
             style="fill:#404040;"/>
          </a>
         </g>
        </svg>
</svg>
