<?xml version="1.0" encoding="UTF-8" standalone="no"?>
<!DOCTYPE svg PUBLIC "-//W3C//DTD SVG 1.1//EN"
 "http://www.w3.org/Graphics/SVG/1.1/DTD/svg11.dtd">
<!-- Generated by graphviz version 2.43.0 (0)
 -->
<!-- Title: GameBoardViewModel Pages: 1 -->
<!--zoomable 217 -->
<svg id="main" version="1.1" xmlns="http://www.w3.org/2000/svg" xmlns:xlink="http://www.w3.org/1999/xlink" xml:space="preserve" onload="init(evt)">
<style type="text/css"><![CDATA[
.edge:hover path { stroke: red; }
.edge:hover polygon { stroke: red; fill: red; }
]]></style>
<script type="text/javascript"><![CDATA[
var edges = document.getElementsByTagName('g');
if (edges && edges.length) {
  for (var i=0;i<edges.length;i++) {
    if (edges[i].id.substr(0,4)=='edge') {
      edges[i].setAttribute('class','edge');
    }
  }
}
]]></script>
        <defs>
                <circle id="rim" cx="0" cy="0" r="7"/>
                <circle id="rim2" cx="0" cy="0" r="3.5"/>
                <g id="zoomPlus">
                        <use xlink:href="#rim" fill="#404040">
                                <set attributeName="fill" to="#808080" begin="zoomplus.mouseover" end="zoomplus.mouseout"/>
                        </use>
                        <path d="M-4,0h8M0,-4v8" fill="none" stroke="white" stroke-width="1.5" pointer-events="none"/>
                </g>
                <g id="zoomMin">
                        <use xlink:href="#rim" fill="#404040">
                                <set attributeName="fill" to="#808080" begin="zoomminus.mouseover" end="zoomminus.mouseout"/>
                        </use>
                        <path d="M-4,0h8" fill="none" stroke="white" stroke-width="1.5" pointer-events="none"/>
                </g>
                <g id="dirArrow">
                        <path fill="none" stroke="white" stroke-width="1.5" d="M0,-3.0v7 M-2.5,-0.5L0,-3.0L2.5,-0.5"/>
                </g>
               <g id="resetDef">
                       <use xlink:href="#rim2" fill="#404040">
                               <set attributeName="fill" to="#808080" begin="reset.mouseover" end="reset.mouseout"/>
                       </use>
               </g>
        </defs>

<script type="text/javascript">
var viewWidth = 969;
var viewHeight = 217;
var sectionId = 'dynsection-1';
</script>
<script xlink:href="svgpan.js"/>
<svg id="graph" class="graph">
<g id="viewport">
<title>GameBoardViewModel</title>
<polygon fill="white" stroke="transparent" points="-4,4 -4,-213 965,-213 965,4 -4,4"/>
<!-- Node1 -->
<g id="node1" class="node">
<title>Node1</title>
<g id="a_node1"><a xlink:title="An AndroidViewModel class responsible for encapsulating and offering state of views in activity_main....">
<polygon fill="#bfbfbf" stroke="black" points="333,-0.5 333,-19.5 461,-19.5 461,-0.5 333,-0.5"/>
<text text-anchor="middle" x="397" y="-7.5" font-family="Helvetica,sans-Serif" font-size="10.00">GameBoardViewModel</text>
</a>
</g>
</g>
<!-- Node2 -->
<g id="node2" class="node">
<title>Node2</title>
<g id="a_node2"><a xlink:title=" ">
<polygon fill="white" stroke="#bfbfbf" points="0,-78.5 0,-97.5 108,-97.5 108,-78.5 0,-78.5"/>
<text text-anchor="middle" x="54" y="-85.5" font-family="Helvetica,sans-Serif" font-size="10.00">AndroidViewModel</text>
</a>
</g>
</g>
<!-- Node2&#45;&gt;Node1 -->
<g id="edge1" class="edge">
<title>Node2&#45;&gt;Node1</title>
<path fill="none" stroke="midnightblue" d="M88.31,-75.35C97.57,-72.42 107.62,-69.42 117,-67 195.97,-46.64 289.06,-29.32 345.52,-19.54"/>
<polygon fill="none" stroke="midnightblue" points="87.09,-72.07 78.65,-78.48 89.24,-78.73 87.09,-72.07"/>
</g>
<!-- Node3 -->
<g id="node3" class="node">
<title>Node3</title>
<g id="a_node3"><a xlink:title=" ">
<polygon fill="white" stroke="#bfbfbf" points="126,-73 126,-103 376,-103 376,-73 126,-73"/>
<text text-anchor="start" x="134" y="-91" font-family="Helvetica,sans-Serif" font-size="10.00">Flowable&lt; com.peternaggschga.gwent.ui.main.</text>
<text text-anchor="middle" x="251" y="-80" font-family="Helvetica,sans-Serif" font-size="10.00">MenuUiState &gt;</text>
</a>
</g>
</g>
<!-- Node3&#45;&gt;Node1 -->
<g id="edge2" class="edge">
<title>Node3&#45;&gt;Node1</title>
<path fill="none" stroke="#404040" d="M278.12,-72.88C304.27,-59.27 343.62,-38.79 369.8,-25.16"/>
<polygon fill="none" stroke="#404040" points="369.82,-25.15 373.3,-18.83 380.47,-19.61 376.99,-25.92 369.82,-25.15"/>
<text text-anchor="middle" x="377.5" y="-41" font-family="Helvetica,sans-Serif" font-size="10.00"> &#45;menuUiState</text>
</g>
<!-- Node4 -->
<g id="node4" class="node">
<title>Node4</title>
<g id="a_node4"><a xlink:title=" ">
<polygon fill="white" stroke="#bfbfbf" points="220.5,-189.5 220.5,-208.5 281.5,-208.5 281.5,-189.5 220.5,-189.5"/>
<text text-anchor="middle" x="251" y="-196.5" font-family="Helvetica,sans-Serif" font-size="10.00">Flowable</text>
</a>
</g>
</g>
<!-- Node4&#45;&gt;Node3 -->
<g id="edge3" class="edge">
<title>Node4&#45;&gt;Node3</title>
<path fill="none" stroke="orange" d="M251,-179.28C251,-157.7 251,-122.71 251,-103.24"/>
<polygon fill="orange" stroke="orange" points="247.5,-179.45 251,-189.45 254.5,-179.45 247.5,-179.45"/>
<text text-anchor="start" x="251" y="-152" font-family="Helvetica,sans-Serif" font-size="10.00"> &lt; com::peternaggschga</text>
<text text-anchor="middle" x="332.5" y="-141" font-family="Helvetica,sans-Serif" font-size="10.00">::gwent::ui::main::MenuUiState &gt;</text>
</g>
<!-- Node5 -->
<g id="node5" class="node">
<title>Node5</title>
<g id="a_node5"><a xlink:title=" ">
<polygon fill="white" stroke="#bfbfbf" points="394.5,-67.5 394.5,-108.5 693.5,-108.5 693.5,-67.5 394.5,-67.5"/>
<text text-anchor="start" x="402.5" y="-96.5" font-family="Helvetica,sans-Serif" font-size="10.00">Map&lt; com.peternaggschga.gwent.data.</text>
<text text-anchor="start" x="402.5" y="-85.5" font-family="Helvetica,sans-Serif" font-size="10.00">RowType, Flowable&lt; com.peternaggschga.gwent.ui.main.</text>
<text text-anchor="middle" x="544" y="-74.5" font-family="Helvetica,sans-Serif" font-size="10.00">RowUiState &gt; &gt;</text>
</a>
</g>
</g>
<!-- Node5&#45;&gt;Node1 -->
<g id="edge4" class="edge">
<title>Node5&#45;&gt;Node1</title>
<path fill="none" stroke="#404040" d="M506.14,-67.43C480.53,-54.18 447.29,-37 424.26,-25.09"/>
<polygon fill="none" stroke="#404040" points="424.2,-25.06 417.03,-25.86 413.54,-19.55 420.71,-18.75 424.2,-25.06"/>
<text text-anchor="middle" x="504.5" y="-41" font-family="Helvetica,sans-Serif" font-size="10.00"> &#45;rowUiStates</text>
</g>
<!-- Node6 -->
<g id="node6" class="node">
<title>Node6</title>
<g id="a_node6"><a xlink:title=" ">
<polygon fill="white" stroke="#bfbfbf" points="525,-189.5 525,-208.5 563,-208.5 563,-189.5 525,-189.5"/>
<text text-anchor="middle" x="544" y="-196.5" font-family="Helvetica,sans-Serif" font-size="10.00">Map</text>
</a>
</g>
</g>
<!-- Node6&#45;&gt;Node5 -->
<g id="edge5" class="edge">
<title>Node6&#45;&gt;Node5</title>
<path fill="none" stroke="orange" d="M544,-179.33C544,-159.67 544,-128.84 544,-108.77"/>
<polygon fill="orange" stroke="orange" points="540.5,-179.45 544,-189.45 547.5,-179.45 540.5,-179.45"/>
<text text-anchor="start" x="544" y="-163" font-family="Helvetica,sans-Serif" font-size="10.00"> &lt; com::peternaggschga</text>
<text text-anchor="start" x="544" y="-152" font-family="Helvetica,sans-Serif" font-size="10.00">::gwent::data::RowType,</text>
<text text-anchor="start" x="544" y="-141" font-family="Helvetica,sans-Serif" font-size="10.00"> Flowable&lt; com::peternaggschga</text>
<text text-anchor="middle" x="628" y="-130" font-family="Helvetica,sans-Serif" font-size="10.00">::gwent::ui::main::RowUiState &gt; &gt;</text>
</g>
<!-- Node7 -->
<g id="node7" class="node">
<title>Node7</title>
<g id="a_node7"><a xlink:title=" ">
<polygon fill="white" stroke="#bfbfbf" points="712,-67.5 712,-108.5 918,-108.5 918,-67.5 712,-67.5"/>
<text text-anchor="start" x="720" y="-96.5" font-family="Helvetica,sans-Serif" font-size="10.00">ViewModelInitializer</text>
<text text-anchor="start" x="720" y="-85.5" font-family="Helvetica,sans-Serif" font-size="10.00">&lt; com.peternaggschga.gwent.ui.main.</text>
<text text-anchor="middle" x="815" y="-74.5" font-family="Helvetica,sans-Serif" font-size="10.00">GameBoardViewModel &gt;</text>
</a>
</g>
</g>
<!-- Node7&#45;&gt;Node1 -->
<g id="edge6" class="edge">
<title>Node7&#45;&gt;Node1</title>
<path fill="none" stroke="#404040" d="M711.94,-68.26C631.38,-53.61 522.26,-33.77 455.89,-21.71"/>
<polygon fill="none" stroke="#404040" points="455.82,-21.7 449.2,-24.56 444.02,-19.55 450.64,-16.69 455.82,-21.7"/>
<text text-anchor="middle" x="638" y="-41" font-family="Helvetica,sans-Serif" font-size="10.00"> &#45;INITIALIZER</text>
</g>
<!-- Node8 -->
<g id="node8" class="node">
<title>Node8</title>
<g id="a_node8"><a xlink:title=" ">
<polygon fill="white" stroke="#bfbfbf" points="757,-189.5 757,-208.5 873,-208.5 873,-189.5 757,-189.5"/>
<text text-anchor="middle" x="815" y="-196.5" font-family="Helvetica,sans-Serif" font-size="10.00">ViewModelInitializer</text>
</a>
</g>
</g>
<!-- Node8&#45;&gt;Node7 -->
<g id="edge7" class="edge">
<title>Node8&#45;&gt;Node7</title>
<path fill="none" stroke="orange" d="M815,-179.33C815,-159.67 815,-128.84 815,-108.77"/>
<polygon fill="orange" stroke="orange" points="811.5,-179.45 815,-189.45 818.5,-179.45 811.5,-179.45"/>
<text text-anchor="start" x="815" y="-157.5" font-family="Helvetica,sans-Serif" font-size="10.00"> &lt; com::peternaggschga</text>
<text text-anchor="start" x="815" y="-146.5" font-family="Helvetica,sans-Serif" font-size="10.00">::gwent::ui::main::GameBoard</text>
<text text-anchor="middle" x="888" y="-135.5" font-family="Helvetica,sans-Serif" font-size="10.00">ViewModel &gt;</text>
</g>
</g>
</svg>
        <g id="navigator" transform="translate(0 0)" fill="#404254">
                <rect fill="#f2f5e9" fill-opacity="0.5" stroke="#606060" stroke-width=".5" x="0" y="0" width="60" height="60"/>
                <use id="zoomplus" xlink:href="#zoomPlus" x="17" y="9" onmousedown="handleZoom(evt,'in')"/>
                <use id="zoomminus" xlink:href="#zoomMin" x="42" y="9" onmousedown="handleZoom(evt,'out')"/>
                <use id="reset" xlink:href="#resetDef" x="30" y="36" onmousedown="handleReset()"/>
                <g id="arrowUp" xlink:href="#dirArrow" transform="translate(30 24)" onmousedown="handlePan(0,-1)">
                  <use xlink:href="#rim" fill="#404040">
                        <set attributeName="fill" to="#808080" begin="arrowUp.mouseover" end="arrowUp.mouseout"/>
                  </use>
                  <path fill="none" stroke="white" stroke-width="1.5" d="M0,-3.0v7 M-2.5,-0.5L0,-3.0L2.5,-0.5"/>
                </g>
                <g id="arrowRight" xlink:href="#dirArrow" transform="rotate(90) translate(36 -43)" onmousedown="handlePan(1,0)">
                  <use xlink:href="#rim" fill="#404040">
                        <set attributeName="fill" to="#808080" begin="arrowRight.mouseover" end="arrowRight.mouseout"/>
                  </use>
                  <path fill="none" stroke="white" stroke-width="1.5" d="M0,-3.0v7 M-2.5,-0.5L0,-3.0L2.5,-0.5"/>
                </g>
                <g id="arrowDown" xlink:href="#dirArrow" transform="rotate(180) translate(-30 -48)" onmousedown="handlePan(0,1)">
                  <use xlink:href="#rim" fill="#404040">
                        <set attributeName="fill" to="#808080" begin="arrowDown.mouseover" end="arrowDown.mouseout"/>
                  </use>
                  <path fill="none" stroke="white" stroke-width="1.5" d="M0,-3.0v7 M-2.5,-0.5L0,-3.0L2.5,-0.5"/>
                </g>
                <g id="arrowLeft" xlink:href="#dirArrow" transform="rotate(270) translate(-36 17)" onmousedown="handlePan(-1,0)">
                  <use xlink:href="#rim" fill="#404040">
                        <set attributeName="fill" to="#808080" begin="arrowLeft.mouseover" end="arrowLeft.mouseout"/>
                  </use>
                  <path fill="none" stroke="white" stroke-width="1.5" d="M0,-3.0v7 M-2.5,-0.5L0,-3.0L2.5,-0.5"/>
                </g>
        </g>
        <svg viewBox="0 0 15 15" width="100%" height="30px" preserveAspectRatio="xMaxYMin meet">
         <g id="arrow_out" transform="scale(0.3 0.3)">
          <a xlink:href="classcom_1_1peternaggschga_1_1gwent_1_1ui_1_1main_1_1GameBoardViewModel__coll__graph_org.svg" target="_base">
           <rect id="button" ry="5" rx="5" y="6" x="6" height="38" width="38"
                fill="#f2f5e9" fill-opacity="0.5" stroke="#606060" stroke-width="1.0"/>
           <path id="arrow"
             d="M 11.500037,31.436501 C 11.940474,20.09759 22.043105,11.32322 32.158766,21.979434 L 37.068811,17.246167 C 37.068811,17.246167 37.088388,32 37.088388,32 L 22.160133,31.978069 C 22.160133,31.978069 26.997745,27.140456 26.997745,27.140456 C 18.528582,18.264221 13.291696,25.230495 11.500037,31.436501 z"
             style="fill:#404040;"/>
          </a>
         </g>
        </svg>
</svg>
