<?xml version="1.0" encoding="UTF-8" standalone="no"?>
<!DOCTYPE svg PUBLIC "-//W3C//DTD SVG 1.1//EN"
 "http://www.w3.org/Graphics/SVG/1.1/DTD/svg11.dtd">
<!-- Generated by graphviz version 2.43.0 (0)
 -->
<!-- Title: AddCardDialog Pages: 1 -->
<svg width="330pt" height="225pt"
 viewBox="0.00 0.00 330.00 225.00" xmlns="http://www.w3.org/2000/svg" xmlns:xlink="http://www.w3.org/1999/xlink">
<g id="graph0" class="graph" transform="scale(1 1) rotate(0) translate(4 221)">
<title>AddCardDialog</title>
<!-- Node1 -->
<g id="Node000001" class="node">
<title>Node1</title>
<g id="a_Node000001"><a xlink:title="An OverlayDialog used to add new UnitEntity objects to a certain #row.">
<polygon fill="#999999" stroke="transparent" points="142,-19 60,-19 60,0 142,0 142,-19"/>
<text text-anchor="start" x="64.5" y="-6.5" font-family="Helvetica,sans-Serif" font-size="10.00">AddCardDialog</text>
<polygon fill="none" stroke="#666666" points="60,0 60,-19 142,-19 142,0 60,0"/>
</a>
</g>
</g>
<!-- Node2 -->
<g id="Node000002" class="node">
<title>Node2</title>
<g id="a_Node000002"><a xlink:href="classcom_1_1peternaggschga_1_1gwent_1_1ui_1_1dialogs_1_1OverlayDialog.xhtml" target="_top" xlink:title="A Dialog class which is used for popups that are shown on top of the calling Activity.">
<polygon fill="white" stroke="transparent" points="78,-85 0,-85 0,-66 78,-66 78,-85"/>
<text text-anchor="start" x="4" y="-72.5" font-family="Helvetica,sans-Serif" font-size="10.00">OverlayDialog</text>
<polygon fill="none" stroke="#666666" points="0,-66 0,-85 78,-85 78,-66 0,-66"/>
</a>
</g>
</g>
<!-- Node2&#45;&gt;Node1 -->
<g id="edge1_Node000001_Node000002" class="edge">
<title>Node2&#45;&gt;Node1</title>
<g id="a_edge1_Node000001_Node000002"><a xlink:title=" ">
<path fill="none" stroke="#63b8ff" d="M54.52,-58.48C66.49,-46.12 82.6,-29.49 92.37,-19.41"/>
<polygon fill="none" stroke="#63b8ff" points="51.81,-56.25 47.36,-65.87 56.83,-61.12 51.81,-56.25"/>
</a>
</g>
</g>
<!-- Node3 -->
<g id="Node000003" class="node">
<title>Node3</title>
<g id="a_Node000003"><a xlink:title=" ">
<polygon fill="white" stroke="transparent" points="59,-151 19,-151 19,-132 59,-132 59,-151"/>
<text text-anchor="start" x="23" y="-138.5" font-family="Helvetica,sans-Serif" font-size="10.00">Dialog</text>
<polygon fill="none" stroke="#bfbfbf" points="19,-132 19,-151 59,-151 59,-132 19,-132"/>
</a>
</g>
</g>
<!-- Node3&#45;&gt;Node2 -->
<g id="edge2_Node000002_Node000003" class="edge">
<title>Node3&#45;&gt;Node2</title>
<g id="a_edge2_Node000002_Node000003"><a xlink:title=" ">
<path fill="none" stroke="#63b8ff" d="M39,-121.58C39,-109.63 39,-94.72 39,-85.41"/>
<polygon fill="none" stroke="#63b8ff" points="35.5,-121.87 39,-131.87 42.5,-121.87 35.5,-121.87"/>
</a>
</g>
</g>
<!-- Node4 -->
<g id="Node000004" class="node">
<title>Node4</title>
<g id="a_Node000004"><a xlink:href="classcom_1_1peternaggschga_1_1gwent_1_1ui_1_1dialogs_1_1addcard_1_1CardNumberPickerAdapter.xhtml" target="_top" xlink:title="A helper class responsible for initializing the NumberPicker views of an AddCardDialog (in #CardNumpe...">
<polygon fill="white" stroke="transparent" points="234,-85 96,-85 96,-66 234,-66 234,-85"/>
<text text-anchor="start" x="100" y="-72.5" font-family="Helvetica,sans-Serif" font-size="10.00">CardNumberPickerAdapter</text>
<polygon fill="none" stroke="#666666" points="96,-66 96,-85 234,-85 234,-66 96,-66"/>
</a>
</g>
</g>
<!-- Node4&#45;&gt;Node1 -->
<g id="edge3_Node000001_Node000004" class="edge">
<title>Node4&#45;&gt;Node1</title>
<g id="a_edge3_Node000001_Node000004"><a xlink:title=" ">
<path fill="none" stroke="#63b8ff" d="M156.37,-65.87C146.69,-56.19 130.74,-40.24 118.44,-27.94"/>
<polygon fill="none" stroke="#63b8ff" points="118.39,-27.89 111.32,-26.48 109.91,-19.41 116.98,-20.82 118.39,-27.89"/>
</a>
</g>
<text text-anchor="middle" x="173.5" y="-40" font-family="Helvetica,sans-Serif" font-size="10.00" fill="grey"> &#45;pickerAdapter</text>
</g>
<!-- Node5 -->
<g id="Node000005" class="node">
<title>Node5</title>
<g id="a_Node000005"><a xlink:href="classcom_1_1peternaggschga_1_1gwent_1_1ui_1_1dialogs_1_1addcard_1_1DamageValuePicker.xhtml" target="_top" xlink:title="A ValuePicker used for selection of damage values for UnitEntity::damage.">
<polygon fill="white" stroke="transparent" points="200,-151 94,-151 94,-132 200,-132 200,-151"/>
<text text-anchor="start" x="98" y="-138.5" font-family="Helvetica,sans-Serif" font-size="10.00">DamageValuePicker</text>
<polygon fill="none" stroke="#666666" points="94,-132 94,-151 200,-151 200,-132 94,-132"/>
</a>
</g>
</g>
<!-- Node5&#45;&gt;Node4 -->
<g id="edge4_Node000004_Node000005" class="edge">
<title>Node5&#45;&gt;Node4</title>
<g id="a_edge4_Node000004_Node000005"><a xlink:title=" ">
<path fill="none" stroke="#63b8ff" d="M149.22,-131.84C151.2,-124.22 154.2,-112.85 157,-103 157.55,-101.06 158.14,-99.04 158.73,-97.02"/>
<polygon fill="none" stroke="#63b8ff" points="158.8,-96.8 156.7,-89.9 162.26,-85.31 164.36,-92.21 158.8,-96.8"/>
</a>
</g>
<text text-anchor="middle" x="195" y="-106" font-family="Helvetica,sans-Serif" font-size="10.00" fill="grey"> &#45;damagePicker</text>
</g>
<!-- Node6 -->
<g id="Node000006" class="node">
<title>Node6</title>
<g id="a_Node000006"><a xlink:title=" ">
<polygon fill="white" stroke="transparent" points="208,-217 86,-217 86,-198 208,-198 208,-217"/>
<text text-anchor="start" x="90" y="-204.5" font-family="Helvetica,sans-Serif" font-size="10.00">ValuePicker&lt; Integer &gt;</text>
<polygon fill="none" stroke="#bfbfbf" points="86,-198 86,-217 208,-217 208,-198 86,-198"/>
</a>
</g>
</g>
<!-- Node6&#45;&gt;Node5 -->
<g id="edge5_Node000005_Node000006" class="edge">
<title>Node6&#45;&gt;Node5</title>
<g id="a_edge5_Node000005_Node000006"><a xlink:title=" ">
<path fill="none" stroke="#63b8ff" d="M147,-187.58C147,-175.63 147,-160.72 147,-151.41"/>
<polygon fill="none" stroke="#63b8ff" points="143.5,-187.87 147,-197.87 150.5,-187.87 143.5,-187.87"/>
</a>
</g>
</g>
<!-- Node7 -->
<g id="Node000007" class="node">
<title>Node7</title>
<g id="a_Node000007"><a xlink:href="classcom_1_1peternaggschga_1_1gwent_1_1ui_1_1dialogs_1_1addcard_1_1SquadManager.xhtml" target="_top" xlink:title="A class used by the CardNumberPickerAdapter to determine the first squad with members or set the defa...">
<polygon fill="white" stroke="transparent" points="300,-151 218,-151 218,-132 300,-132 300,-151"/>
<text text-anchor="start" x="222.5" y="-138.5" font-family="Helvetica,sans-Serif" font-size="10.00">SquadManager</text>
<polygon fill="none" stroke="#666666" points="218,-132 218,-151 300,-151 300,-132 218,-132"/>
</a>
</g>
</g>
<!-- Node7&#45;&gt;Node4 -->
<g id="edge6_Node000004_Node000007" class="edge">
<title>Node7&#45;&gt;Node4</title>
<g id="a_edge6_Node000004_Node000007"><a xlink:title=" ">
<path fill="none" stroke="#63b8ff" d="M254.97,-131.95C250.62,-123.54 242.95,-110.85 233,-103 226.03,-97.5 217.77,-93.02 209.46,-89.42"/>
<polygon fill="none" stroke="#63b8ff" points="209.39,-89.39 202.34,-90.94 198.2,-85.04 205.24,-83.49 209.39,-89.39"/>
</a>
</g>
<text text-anchor="middle" x="282.5" y="-106" font-family="Helvetica,sans-Serif" font-size="10.00" fill="grey"> &#45;squadManager</text>
</g>
<!-- Node8 -->
<g id="Node000008" class="node">
<title>Node8</title>
<g id="a_Node000008"><a xlink:href="classcom_1_1peternaggschga_1_1gwent_1_1ui_1_1dialogs_1_1addcard_1_1SquadState.xhtml" target="_top" xlink:title="A data class encapsulating information about the squad defined by #squadNumber, i....">
<polygon fill="white" stroke="transparent" points="291,-217 227,-217 227,-198 291,-198 291,-217"/>
<text text-anchor="start" x="231" y="-204.5" font-family="Helvetica,sans-Serif" font-size="10.00">SquadState</text>
<polygon fill="none" stroke="#666666" points="227,-198 227,-217 291,-217 291,-198 227,-198"/>
</a>
</g>
</g>
<!-- Node8&#45;&gt;Node7 -->
<g id="edge7_Node000007_Node000008" class="edge">
<title>Node8&#45;&gt;Node7</title>
<g id="a_edge7_Node000007_Node000008"><a xlink:title=" ">
<path fill="none" stroke="#63b8ff" d="M259,-197.87C259,-189.14 259,-175.31 259,-163.65"/>
<polygon fill="none" stroke="#63b8ff" points="259,-163.41 255,-157.41 259,-151.41 263,-157.41 259,-163.41"/>
</a>
</g>
<text text-anchor="middle" x="277.5" y="-172" font-family="Helvetica,sans-Serif" font-size="10.00" fill="grey"> &#45;states</text>
</g>
</g>
</svg>
