<?xml version="1.0" encoding="UTF-8" standalone="no"?>
<!DOCTYPE svg PUBLIC "-//W3C//DTD SVG 1.1//EN"
 "http://www.w3.org/Graphics/SVG/1.1/DTD/svg11.dtd">
<!-- Generated by graphviz version 2.43.0 (0)
 -->
<!-- Title: CardUiState Pages: 1 -->
<svg width="137pt" height="95pt"
 viewBox="0.00 0.00 136.50 95.00" xmlns="http://www.w3.org/2000/svg" xmlns:xlink="http://www.w3.org/1999/xlink">
<g id="graph0" class="graph" transform="scale(1 1) rotate(0) translate(4 91)">
<title>CardUiState</title>
<polygon fill="white" stroke="transparent" points="-4,4 -4,-91 132.5,-91 132.5,4 -4,4"/>
<!-- Node1 -->
<g id="node1" class="node">
<title>Node1</title>
<g id="a_node1"><a xlink:title="A data class encapsulating the visible state of a card in the card list shown by the ShowUnitsDialog.">
<polygon fill="#bfbfbf" stroke="black" points="0,-0.5 0,-19.5 75,-19.5 75,-0.5 0,-0.5"/>
<text text-anchor="middle" x="37.5" y="-7.5" font-family="Helvetica,sans-Serif" font-size="10.00">CardUiState</text>
</a>
</g>
</g>
<!-- Node2 -->
<g id="node2" class="node">
<title>Node2</title>
<g id="a_node2"><a xlink:title=" ">
<polygon fill="white" stroke="#bfbfbf" points="12,-67.5 12,-86.5 63,-86.5 63,-67.5 12,-67.5"/>
<text text-anchor="middle" x="37.5" y="-74.5" font-family="Helvetica,sans-Serif" font-size="10.00">DiffUtil</text>
</a>
</g>
</g>
<!-- Node2&#45;&gt;Node1 -->
<g id="edge1" class="edge">
<title>Node2&#45;&gt;Node1</title>
<path fill="none" stroke="#404040" d="M37.5,-67.23C37.5,-58.17 37.5,-43.69 37.5,-31.69"/>
<polygon fill="none" stroke="#404040" points="37.5,-31.63 33.5,-25.63 37.5,-19.63 41.5,-25.63 37.5,-31.63"/>
<text text-anchor="middle" x="83" y="-41" font-family="Helvetica,sans-Serif" font-size="10.00"> +DIFF_CALLBACK</text>
</g>
</g>
</svg>
