<?xml version="1.0" encoding="UTF-8" standalone="no"?>
<!DOCTYPE svg PUBLIC "-//W3C//DTD SVG 1.1//EN"
 "http://www.w3.org/Graphics/SVG/1.1/DTD/svg11.dtd">
<!-- Generated by graphviz version 2.43.0 (0)
 -->
<!-- Title: SoundManager Pages: 1 -->
<svg width="281pt" height="95pt"
 viewBox="0.00 0.00 281.00 95.00" xmlns="http://www.w3.org/2000/svg" xmlns:xlink="http://www.w3.org/1999/xlink">
<g id="graph0" class="graph" transform="scale(1 1) rotate(0) translate(4 91)">
<title>SoundManager</title>
<polygon fill="white" stroke="transparent" points="-4,4 -4,-91 277,-91 277,4 -4,4"/>
<!-- Node1 -->
<g id="node1" class="node">
<title>Node1</title>
<g id="a_node1"><a xlink:title="A class responsible for initializing and playing sounds when they are enabled.">
<polygon fill="#bfbfbf" stroke="black" points="114.5,-0.5 114.5,-19.5 203.5,-19.5 203.5,-0.5 114.5,-0.5"/>
<text text-anchor="middle" x="159" y="-7.5" font-family="Helvetica,sans-Serif" font-size="10.00">SoundManager</text>
</a>
</g>
</g>
<!-- Node2 -->
<g id="node2" class="node">
<title>Node2</title>
<g id="a_node2"><a xlink:title=" ">
<polygon fill="white" stroke="#bfbfbf" points="0,-67.5 0,-86.5 108,-86.5 108,-67.5 0,-67.5"/>
<text text-anchor="middle" x="54" y="-74.5" font-family="Helvetica,sans-Serif" font-size="10.00">SharedPreferences</text>
</a>
</g>
</g>
<!-- Node2&#45;&gt;Node1 -->
<g id="edge1" class="edge">
<title>Node2&#45;&gt;Node1</title>
<path fill="none" stroke="#404040" d="M56.22,-67.21C58.84,-58.58 64.02,-45.65 73,-38 81.57,-30.7 92.12,-25.36 102.86,-21.47"/>
<polygon fill="none" stroke="#404040" points="103.06,-21.41 107.57,-15.79 114.5,-17.79 109.98,-23.42 103.06,-21.41"/>
<text text-anchor="middle" x="114" y="-41" font-family="Helvetica,sans-Serif" font-size="10.00"> &#45;changeListener</text>
</g>
<!-- Node3 -->
<g id="node3" class="node">
<title>Node3</title>
<g id="a_node3"><a xlink:href="classcom_1_1peternaggschga_1_1gwent_1_1ui_1_1sounds_1_1Sound.xhtml" target="_top" xlink:title="A data class encapsulating information on a certain sound effect, e.g., its id in a SoundPool and whe...">
<polygon fill="white" stroke="black" points="135.5,-67.5 135.5,-86.5 182.5,-86.5 182.5,-67.5 135.5,-67.5"/>
<text text-anchor="middle" x="159" y="-74.5" font-family="Helvetica,sans-Serif" font-size="10.00">Sound</text>
</a>
</g>
</g>
<!-- Node3&#45;&gt;Node1 -->
<g id="edge2" class="edge">
<title>Node3&#45;&gt;Node1</title>
<path fill="none" stroke="#404040" d="M159,-67.23C159,-58.17 159,-43.69 159,-31.69"/>
<polygon fill="none" stroke="#404040" points="159,-31.63 155,-25.63 159,-19.63 163,-25.63 159,-31.63"/>
<text text-anchor="middle" x="180" y="-41" font-family="Helvetica,sans-Serif" font-size="10.00"> &#45;sounds</text>
</g>
<!-- Node4 -->
<g id="node4" class="node">
<title>Node4</title>
<g id="a_node4"><a xlink:title=" ">
<polygon fill="white" stroke="#bfbfbf" points="201,-67.5 201,-86.5 269,-86.5 269,-67.5 201,-67.5"/>
<text text-anchor="middle" x="235" y="-74.5" font-family="Helvetica,sans-Serif" font-size="10.00">SoundPool</text>
</a>
</g>
</g>
<!-- Node4&#45;&gt;Node1 -->
<g id="edge3" class="edge">
<title>Node4&#45;&gt;Node1</title>
<path fill="none" stroke="#404040" d="M229.58,-67.39C224.09,-59.15 215.01,-46.72 205,-38 199.76,-33.44 193.65,-29.23 187.62,-25.56"/>
<polygon fill="none" stroke="#404040" points="187.5,-25.5 180.31,-26.02 177.06,-19.58 184.25,-19.06 187.5,-25.5"/>
<text text-anchor="middle" x="244" y="-41" font-family="Helvetica,sans-Serif" font-size="10.00"> &#45;soundPool</text>
</g>
</g>
</svg>
