<?xml version="1.0" encoding="UTF-8" standalone="no"?>
<!DOCTYPE svg PUBLIC "-//W3C//DTD SVG 1.1//EN"
 "http://www.w3.org/Graphics/SVG/1.1/DTD/svg11.dtd">
<!-- Generated by graphviz version 2.43.0 (0)
 -->
<!-- Title: MainActivity Pages: 1 -->
<svg width="112pt" height="82pt"
 viewBox="0.00 0.00 112.00 82.00" xmlns="http://www.w3.org/2000/svg" xmlns:xlink="http://www.w3.org/1999/xlink">
<g id="graph0" class="graph" transform="scale(1 1) rotate(0) translate(4 78)">
<title>MainActivity</title>
<!-- Node1 -->
<g id="Node000001" class="node">
<title>Node1</title>
<g id="a_Node000001"><a xlink:title="An AppCompatActivity that is called on startup and that encapsulates the main view onto the game boar...">
<polygon fill="#999999" stroke="transparent" points="87,-19 17,-19 17,0 87,0 87,-19"/>
<text text-anchor="start" x="21" y="-6.5" font-family="Helvetica,sans-Serif" font-size="10.00">MainActivity</text>
<polygon fill="none" stroke="#666666" points="17,0 17,-19 87,-19 87,0 17,0"/>
</a>
</g>
</g>
<!-- Node2 -->
<g id="Node000002" class="node">
<title>Node2</title>
<g id="a_Node000002"><a xlink:title=" ">
<polygon fill="white" stroke="transparent" points="104,-74 0,-74 0,-55 104,-55 104,-74"/>
<text text-anchor="start" x="4.5" y="-61.5" font-family="Helvetica,sans-Serif" font-size="10.00">AppCompatActivity</text>
<polygon fill="none" stroke="#bfbfbf" points="0,-55 0,-74 104,-74 104,-55 0,-55"/>
</a>
</g>
</g>
<!-- Node2&#45;&gt;Node1 -->
<g id="edge1_Node000001_Node000002" class="edge">
<title>Node2&#45;&gt;Node1</title>
<g id="a_edge1_Node000001_Node000002"><a xlink:title=" ">
<path fill="none" stroke="#63b8ff" d="M52,-44.66C52,-35.93 52,-25.99 52,-19.09"/>
<polygon fill="none" stroke="#63b8ff" points="48.5,-44.75 52,-54.75 55.5,-44.75 48.5,-44.75"/>
</a>
</g>
</g>
</g>
</svg>
