<?xml version="1.0" encoding="UTF-8" standalone="no"?>
<!DOCTYPE svg PUBLIC "-//W3C//DTD SVG 1.1//EN"
 "http://www.w3.org/Graphics/SVG/1.1/DTD/svg11.dtd">
<!-- Generated by graphviz version 2.43.0 (0)
 -->
<!-- Title: BondDamageCalculatorDecorator Pages: 1 -->
<svg width="350pt" height="162pt"
 viewBox="0.00 0.00 349.50 162.00" xmlns="http://www.w3.org/2000/svg" xmlns:xlink="http://www.w3.org/1999/xlink">
<g id="graph0" class="graph" transform="scale(1 1) rotate(0) translate(4 158)">
<title>BondDamageCalculatorDecorator</title>
<polygon fill="white" stroke="transparent" points="-4,4 -4,-158 345.5,-158 345.5,4 -4,4"/>
<!-- Node1 -->
<g id="node1" class="node">
<title>Node1</title>
<g id="a_node1"><a xlink:title="A DamageCalculator class responsible for calculating the tight bond buff if necessary,...">
<polygon fill="#bfbfbf" stroke="black" points="68.5,-0.5 68.5,-19.5 248.5,-19.5 248.5,-0.5 68.5,-0.5"/>
<text text-anchor="middle" x="158.5" y="-7.5" font-family="Helvetica,sans-Serif" font-size="10.00">BondDamageCalculatorDecorator</text>
</a>
</g>
</g>
<!-- Node2 -->
<g id="node2" class="node">
<title>Node2</title>
<g id="a_node2"><a xlink:href="classcom_1_1peternaggschga_1_1gwent_1_1domain_1_1damage_1_1DamageCalculatorDecorator.xhtml" target="_top" xlink:title="An abstract DamageCalculator that is used as a superclass for the decorator classes implementing the ...">
<polygon fill="white" stroke="black" points="0,-67.5 0,-86.5 155,-86.5 155,-67.5 0,-67.5"/>
<text text-anchor="middle" x="77.5" y="-74.5" font-family="Helvetica,sans-Serif" font-size="10.00">DamageCalculatorDecorator</text>
</a>
</g>
</g>
<!-- Node2&#45;&gt;Node1 -->
<g id="edge1" class="edge">
<title>Node2&#45;&gt;Node1</title>
<path fill="none" stroke="midnightblue" d="M96.55,-60.71C112.51,-47.91 134.71,-30.09 147.75,-19.63"/>
<polygon fill="none" stroke="midnightblue" points="94.03,-58.25 88.42,-67.23 98.41,-63.7 94.03,-58.25"/>
</g>
<!-- Node3 -->
<g id="node3" class="node">
<title>Node3</title>
<g id="a_node3"><a xlink:href="interfacecom_1_1peternaggschga_1_1gwent_1_1domain_1_1damage_1_1DamageCalculator.xhtml" target="_top" xlink:title="An interface for a class capable of calculating the (de&#45;)buffed damage of a unit for a given UnitEnti...">
<polygon fill="white" stroke="black" points="25,-134.5 25,-153.5 132,-153.5 132,-134.5 25,-134.5"/>
<text text-anchor="middle" x="78.5" y="-141.5" font-family="Helvetica,sans-Serif" font-size="10.00">DamageCalculator</text>
</a>
</g>
</g>
<!-- Node3&#45;&gt;Node2 -->
<g id="edge2" class="edge">
<title>Node3&#45;&gt;Node2</title>
<path fill="none" stroke="midnightblue" d="M76.11,-123.85C75.86,-121.21 75.64,-118.54 75.5,-116 74.94,-105.97 75.75,-94.46 76.5,-86.75"/>
<polygon fill="none" stroke="midnightblue" points="72.66,-124.47 77.25,-134.02 79.61,-123.69 72.66,-124.47"/>
</g>
<!-- Node3&#45;&gt;Node2 -->
<g id="edge3" class="edge">
<title>Node3&#45;&gt;Node2</title>
<path fill="none" stroke="#404040" d="M78.37,-134.23C78.23,-125.17 78,-110.69 77.82,-98.69"/>
<polygon fill="none" stroke="#404040" points="77.82,-98.63 73.73,-92.69 77.63,-86.63 81.72,-92.57 77.82,-98.63"/>
<text text-anchor="middle" x="112" y="-108" font-family="Helvetica,sans-Serif" font-size="10.00"> #component</text>
</g>
<!-- Node4 -->
<g id="node4" class="node">
<title>Node4</title>
<g id="a_node4"><a xlink:title=" ">
<polygon fill="white" stroke="#bfbfbf" points="173,-67.5 173,-86.5 308,-86.5 308,-67.5 173,-67.5"/>
<text text-anchor="middle" x="240.5" y="-74.5" font-family="Helvetica,sans-Serif" font-size="10.00">Map&lt; Integer, Integer &gt;</text>
</a>
</g>
</g>
<!-- Node4&#45;&gt;Node1 -->
<g id="edge4" class="edge">
<title>Node4&#45;&gt;Node1</title>
<path fill="none" stroke="#404040" d="M229.44,-67.23C216.53,-57 194.91,-39.86 178.93,-27.19"/>
<polygon fill="none" stroke="#404040" points="178.79,-27.08 171.6,-26.49 169.38,-19.63 176.57,-20.22 178.79,-27.08"/>
<text text-anchor="middle" x="243" y="-41" font-family="Helvetica,sans-Serif" font-size="10.00"> &#45;idToSquadSize</text>
</g>
<!-- Node5 -->
<g id="node5" class="node">
<title>Node5</title>
<g id="a_node5"><a xlink:title=" ">
<polygon fill="white" stroke="#bfbfbf" points="221.5,-134.5 221.5,-153.5 259.5,-153.5 259.5,-134.5 221.5,-134.5"/>
<text text-anchor="middle" x="240.5" y="-141.5" font-family="Helvetica,sans-Serif" font-size="10.00">Map</text>
</a>
</g>
</g>
<!-- Node5&#45;&gt;Node4 -->
<g id="edge5" class="edge">
<title>Node5&#45;&gt;Node4</title>
<path fill="none" stroke="orange" d="M240.5,-124.04C240.5,-111.67 240.5,-96.12 240.5,-86.63"/>
<polygon fill="orange" stroke="orange" points="237,-124.23 240.5,-134.23 244,-124.23 237,-124.23"/>
<text text-anchor="middle" x="291" y="-108" font-family="Helvetica,sans-Serif" font-size="10.00"> &lt; Integer, Integer &gt;</text>
</g>
</g>
</svg>
