<?xml version="1.0" encoding="UTF-8" standalone="no"?>
<!DOCTYPE svg PUBLIC "-//W3C//DTD SVG 1.1//EN"
 "http://www.w3.org/Graphics/SVG/1.1/DTD/svg11.dtd">
<!-- Generated by graphviz version 2.43.0 (0)
 -->
<!-- Title: SettingsActivity Pages: 1 -->
<svg width="290pt" height="95pt"
 viewBox="0.00 0.00 289.50 95.00" xmlns="http://www.w3.org/2000/svg" xmlns:xlink="http://www.w3.org/1999/xlink">
<g id="graph0" class="graph" transform="scale(1 1) rotate(0) translate(4 91)">
<title>SettingsActivity</title>
<polygon fill="white" stroke="transparent" points="-4,4 -4,-91 285.5,-91 285.5,4 -4,4"/>
<!-- Node1 -->
<g id="node1" class="node">
<title>Node1</title>
<g id="a_node1"><a xlink:title=" ">
<polygon fill="#bfbfbf" stroke="black" points="83.5,-0.5 83.5,-19.5 177.5,-19.5 177.5,-0.5 83.5,-0.5"/>
<text text-anchor="middle" x="130.5" y="-7.5" font-family="Helvetica,sans-Serif" font-size="10.00">SettingsActivity</text>
</a>
</g>
</g>
<!-- Node2 -->
<g id="node2" class="node">
<title>Node2</title>
<g id="a_node2"><a xlink:title=" ">
<polygon fill="white" stroke="#bfbfbf" points="0,-62 0,-81 111,-81 111,-62 0,-62"/>
<text text-anchor="middle" x="55.5" y="-69" font-family="Helvetica,sans-Serif" font-size="10.00">AppCompatActivity</text>
</a>
</g>
</g>
<!-- Node2&#45;&gt;Node1 -->
<g id="edge1" class="edge">
<title>Node2&#45;&gt;Node1</title>
<path fill="none" stroke="midnightblue" d="M74.44,-55.47C88.79,-44.09 107.98,-28.87 119.77,-19.51"/>
<polygon fill="none" stroke="midnightblue" points="71.9,-53.02 66.25,-61.98 76.26,-58.5 71.9,-53.02"/>
</g>
<!-- Node3 -->
<g id="node3" class="node">
<title>Node3</title>
<g id="a_node3"><a xlink:title=" ">
<polygon fill="white" stroke="#bfbfbf" points="129.5,-56.5 129.5,-86.5 281.5,-86.5 281.5,-56.5 129.5,-56.5"/>
<text text-anchor="start" x="137.5" y="-74.5" font-family="Helvetica,sans-Serif" font-size="10.00">OnPreferenceStartFragment</text>
<text text-anchor="middle" x="205.5" y="-63.5" font-family="Helvetica,sans-Serif" font-size="10.00">Callback</text>
</a>
</g>
</g>
<!-- Node3&#45;&gt;Node1 -->
<g id="edge2" class="edge">
<title>Node3&#45;&gt;Node1</title>
<path fill="none" stroke="midnightblue" d="M179.53,-49.89C166.48,-39.54 151.37,-27.56 141.41,-19.66"/>
<polygon fill="none" stroke="midnightblue" points="177.72,-52.93 187.73,-56.4 182.07,-47.44 177.72,-52.93"/>
</g>
</g>
</svg>
