<?xml version="1.0" encoding="UTF-8" standalone="no"?>
<!DOCTYPE svg PUBLIC "-//W3C//DTD SVG 1.1//EN"
 "http://www.w3.org/Graphics/SVG/1.1/DTD/svg11.dtd">
<!-- Generated by graphviz version 2.43.0 (0)
 -->
<!-- Title: DamageCalculatorDecorator Pages: 1 -->
<svg width="156pt" height="93pt"
 viewBox="0.00 0.00 156.00 93.00" xmlns="http://www.w3.org/2000/svg" xmlns:xlink="http://www.w3.org/1999/xlink">
<g id="graph0" class="graph" transform="scale(1 1) rotate(0) translate(4 89)">
<title>DamageCalculatorDecorator</title>
<!-- Node1 -->
<g id="Node000001" class="node">
<title>Node1</title>
<g id="a_Node000001"><a xlink:title="An abstract DamageCalculator that is used as a superclass for the decorator classes implementing the ...">
<polygon fill="#999999" stroke="transparent" points="148,-19 0,-19 0,0 148,0 148,-19"/>
<text text-anchor="start" x="4.5" y="-6.5" font-family="Helvetica,sans-Serif" font-size="10.00">DamageCalculatorDecorator</text>
<polygon fill="none" stroke="#666666" points="0,0 0,-19 148,-19 148,0 0,0"/>
</a>
</g>
</g>
<!-- Node2 -->
<g id="Node000002" class="node">
<title>Node2</title>
<g id="a_Node000002"><a xlink:href="interfacecom_1_1peternaggschga_1_1gwent_1_1domain_1_1damage_1_1DamageCalculator.xhtml" target="_top" xlink:title="An interface for a class capable of calculating the (de&#45;)buffed damage of a unit for a given UnitEnti...">
<polygon fill="white" stroke="transparent" points="124,-85 24,-85 24,-66 124,-66 124,-85"/>
<text text-anchor="start" x="28.5" y="-72.5" font-family="Helvetica,sans-Serif" font-size="10.00">DamageCalculator</text>
<polygon fill="none" stroke="#666666" points="24,-66 24,-85 124,-85 124,-66 24,-66"/>
</a>
</g>
</g>
<!-- Node2&#45;&gt;Node1 -->
<g id="edge1_Node000001_Node000002" class="edge">
<title>Node2&#45;&gt;Node1</title>
<g id="a_edge1_Node000001_Node000002"><a xlink:title=" ">
<path fill="none" stroke="#63b8ff" d="M72.4,-55.69C72.24,-53.11 72.09,-50.49 72,-48 71.63,-38.1 72.4,-26.73 73.09,-19.14"/>
<polygon fill="none" stroke="#63b8ff" points="68.92,-55.97 73.17,-65.68 75.9,-55.44 68.92,-55.97"/>
</a>
</g>
</g>
<!-- Node2&#45;&gt;Node1 -->
<g id="edge2_Node000001_Node000002" class="edge">
<title>Node2&#45;&gt;Node1</title>
<g id="a_edge2_Node000001_Node000002"><a xlink:title=" ">
<path fill="none" stroke="#63b8ff" d="M74,-65.87C74,-57.14 74,-43.31 74,-31.65"/>
<polygon fill="none" stroke="#63b8ff" points="74,-31.41 70,-25.41 74,-19.41 78,-25.41 74,-31.41"/>
</a>
</g>
<text text-anchor="middle" x="107.5" y="-40" font-family="Helvetica,sans-Serif" font-size="10.00" fill="grey"> #component</text>
</g>
</g>
</svg>
