<?xml version="1.0" encoding="UTF-8" standalone="no"?>
<!DOCTYPE svg PUBLIC "-//W3C//DTD SVG 1.1//EN"
 "http://www.w3.org/Graphics/SVG/1.1/DTD/svg11.dtd">
<!-- Generated by graphviz version 2.43.0 (0)
 -->
<!-- Title: UnitEntity Pages: 1 -->
<svg width="118pt" height="93pt"
 viewBox="0.00 0.00 118.00 93.00" xmlns="http://www.w3.org/2000/svg" xmlns:xlink="http://www.w3.org/1999/xlink">

<svg id="main" version="1.1" xmlns="http://www.w3.org/2000/svg" xmlns:xlink="http://www.w3.org/1999/xlink" xml:space="preserve" onload="init(evt)">
<style type="text/css"><![CDATA[
.node, .edge {opacity: 0.7;}
.node.selected, .edge.selected {opacity: 1;}
.edge:hover path { stroke: red; }
.edge:hover polygon { stroke: red; fill: red; }
]]></style>
<script type="application/ecmascript" xlink:href="svg.min.js"/>
<svg id="graph" class="graph">
<g id="graph0" class="graph" transform="scale(1 1) rotate(0) translate(4 89)">
<title>UnitEntity</title>
<!-- Node1 -->
<g id="Node000001" class="node">
<title>Node1</title>
<g id="a_Node000001"><a xlink:title="A class representing a card on the game board.">
<polygon fill="#999999" stroke="transparent" points="81,-19 23,-19 23,0 81,0 81,-19"/>
<text text-anchor="start" x="27.5" y="-6.5" font-family="Helvetica,sans-Serif" font-size="10.00">UnitEntity</text>
<polygon fill="none" stroke="#666666" points="23,0 23,-19 81,-19 81,0 23,0"/>
</a>
</g>
</g>
<!-- Node2 -->
<g id="Node000002" class="node">
<title>Node2</title>
<g id="a_Node000002"><a xlink:href="enumcom_1_1peternaggschga_1_1gwent_1_1data_1_1Ability.xhtml" target="_top" xlink:title="An enum listing the different card abilities possible.">
<polygon fill="white" stroke="transparent" points="40,-85 0,-85 0,-66 40,-66 40,-85"/>
<text text-anchor="start" x="4" y="-72.5" font-family="Helvetica,sans-Serif" font-size="10.00">Ability</text>
<polygon fill="none" stroke="#666666" points="0,-66 0,-85 40,-85 40,-66 0,-66"/>
</a>
</g>
</g>
<!-- Node2&#45;&gt;Node1 -->
<g id="edge1_Node000001_Node000002" class="edge">
<title>Node2&#45;&gt;Node1</title>
<g id="a_edge1_Node000001_Node000002"><a xlink:title=" ">
<path fill="none" stroke="#63b8ff" d="M19.28,-65.99C18.98,-58.08 19.47,-46.15 24,-37 25.7,-33.57 28.03,-30.35 30.64,-27.42"/>
<polygon fill="none" stroke="#63b8ff" points="30.69,-27.37 32.31,-20.34 39.42,-19.13 37.8,-26.16 30.69,-27.37"/>
</a>
</g>
<text text-anchor="middle" x="43" y="-40" font-family="Helvetica,sans-Serif" font-size="10.00" fill="grey"> &#45;ability</text>
</g>
<!-- Node3 -->
<g id="Node000003" class="node">
<title>Node3</title>
<g id="a_Node000003"><a xlink:href="enumcom_1_1peternaggschga_1_1gwent_1_1data_1_1RowType.xhtml" target="_top" xlink:title="An enum listing the different types of attack rows.">
<polygon fill="white" stroke="transparent" points="110,-85 58,-85 58,-66 110,-66 110,-85"/>
<text text-anchor="start" x="62" y="-72.5" font-family="Helvetica,sans-Serif" font-size="10.00">RowType</text>
<polygon fill="none" stroke="#666666" points="58,-66 58,-85 110,-85 110,-66 58,-66"/>
</a>
</g>
</g>
<!-- Node3&#45;&gt;Node1 -->
<g id="edge2_Node000001_Node000003" class="edge">
<title>Node3&#45;&gt;Node1</title>
<g id="a_edge2_Node000001_Node000003"><a xlink:title=" ">
<path fill="none" stroke="#63b8ff" d="M79.68,-65.87C75.13,-56.76 67.8,-42.09 61.82,-30.14"/>
<polygon fill="none" stroke="#63b8ff" points="61.82,-30.14 55.56,-26.56 56.45,-19.41 62.71,-22.98 61.82,-30.14"/>
</a>
</g>
<text text-anchor="middle" x="81.5" y="-40" font-family="Helvetica,sans-Serif" font-size="10.00" fill="grey"> &#45;row</text>
</g>
</g>
</svg>
</svg>

<style type='text/css'>
<![CDATA[
[data-mouse-over-selected='false'] { opacity: 0.7; }
[data-mouse-over-selected='true']  { opacity: 1.0; }
]]>
</style>
<script type="application/ecmascript"><![CDATA[
document.addEventListener('DOMContentLoaded', (event) => {
  highlightEdges();
  highlightAdjacentNodes();
});
]]></script>
</svg>
