<?xml version="1.0" encoding="UTF-8" standalone="no"?>
<!DOCTYPE svg PUBLIC "-//W3C//DTD SVG 1.1//EN"
 "http://www.w3.org/Graphics/SVG/1.1/DTD/svg11.dtd">
<!-- Generated by graphviz version 2.43.0 (0)
 -->
<!-- Title: OverlayDialog Pages: 1 -->
<svg width="177pt" height="95pt"
 viewBox="0.00 0.00 177.00 95.00" xmlns="http://www.w3.org/2000/svg" xmlns:xlink="http://www.w3.org/1999/xlink">
<g id="graph0" class="graph" transform="scale(1 1) rotate(0) translate(4 91)">
<title>OverlayDialog</title>
<polygon fill="white" stroke="transparent" points="-4,4 -4,-91 173,-91 173,4 -4,4"/>
<!-- Node1 -->
<g id="node1" class="node">
<title>Node1</title>
<g id="a_node1"><a xlink:title="A Dialog class which is used for popups that are shown on top of the calling Activity.">
<polygon fill="#bfbfbf" stroke="black" points="24,-0.5 24,-19.5 110,-19.5 110,-0.5 24,-0.5"/>
<text text-anchor="middle" x="67" y="-7.5" font-family="Helvetica,sans-Serif" font-size="10.00">OverlayDialog</text>
</a>
</g>
</g>
<!-- Node2 -->
<g id="node2" class="node">
<title>Node2</title>
<g id="a_node2"><a xlink:title=" ">
<polygon fill="white" stroke="#bfbfbf" points="0,-67.5 0,-86.5 48,-86.5 48,-67.5 0,-67.5"/>
<text text-anchor="middle" x="24" y="-74.5" font-family="Helvetica,sans-Serif" font-size="10.00">Dialog</text>
</a>
</g>
</g>
<!-- Node2&#45;&gt;Node1 -->
<g id="edge1" class="edge">
<title>Node2&#45;&gt;Node1</title>
<path fill="none" stroke="midnightblue" d="M35.55,-58.53C43.88,-45.95 54.76,-29.51 61.29,-19.63"/>
<polygon fill="none" stroke="midnightblue" points="32.4,-56.96 29.8,-67.23 38.24,-60.82 32.4,-56.96"/>
</g>
<!-- Node3 -->
<g id="node3" class="node">
<title>Node3</title>
<g id="a_node3"><a xlink:title=" ">
<polygon fill="white" stroke="#bfbfbf" points="66.5,-67.5 66.5,-86.5 155.5,-86.5 155.5,-67.5 66.5,-67.5"/>
<text text-anchor="middle" x="111" y="-74.5" font-family="Helvetica,sans-Serif" font-size="10.00">ColorDrawable</text>
</a>
</g>
</g>
<!-- Node3&#45;&gt;Node1 -->
<g id="edge2" class="edge">
<title>Node3&#45;&gt;Node1</title>
<path fill="none" stroke="#404040" d="M105.07,-67.23C98.6,-57.68 88.06,-42.12 79.71,-29.78"/>
<polygon fill="none" stroke="#404040" points="79.57,-29.56 72.89,-26.84 72.84,-19.63 79.52,-22.35 79.57,-29.56"/>
<text text-anchor="middle" x="130" y="-41" font-family="Helvetica,sans-Serif" font-size="10.00"> &#45;BACKGROUND</text>
</g>
</g>
</svg>
