<?xml version="1.0" encoding="UTF-8" standalone="no"?>
<!DOCTYPE svg PUBLIC "-//W3C//DTD SVG 1.1//EN"
 "http://www.w3.org/Graphics/SVG/1.1/DTD/svg11.dtd">
<!-- Generated by graphviz version 2.43.0 (0)
 -->
<!-- Title: AddCardDialog Pages: 1 -->
<svg width="90pt" height="137pt"
 viewBox="0.00 0.00 90.00 137.00" xmlns="http://www.w3.org/2000/svg" xmlns:xlink="http://www.w3.org/1999/xlink">
<g id="graph0" class="graph" transform="scale(1 1) rotate(0) translate(4 133)">
<title>AddCardDialog</title>
<!-- Node1 -->
<g id="Node000001" class="node">
<title>Node1</title>
<g id="a_Node000001"><a xlink:title="An OverlayDialog used to add new UnitEntity objects to a certain #row.">
<polygon fill="#999999" stroke="transparent" points="82,-19 0,-19 0,0 82,0 82,-19"/>
<text text-anchor="start" x="4.5" y="-6.5" font-family="Helvetica,sans-Serif" font-size="10.00">AddCardDialog</text>
<polygon fill="none" stroke="#666666" points="0,0 0,-19 82,-19 82,0 0,0"/>
</a>
</g>
</g>
<!-- Node2 -->
<g id="Node000002" class="node">
<title>Node2</title>
<g id="a_Node000002"><a xlink:href="classcom_1_1peternaggschga_1_1gwent_1_1ui_1_1dialogs_1_1OverlayDialog.xhtml" target="_top" xlink:title="A Dialog class which is used for popups that are shown on top of the calling Activity.">
<polygon fill="white" stroke="transparent" points="80,-74 2,-74 2,-55 80,-55 80,-74"/>
<text text-anchor="start" x="6" y="-61.5" font-family="Helvetica,sans-Serif" font-size="10.00">OverlayDialog</text>
<polygon fill="none" stroke="#666666" points="2,-55 2,-74 80,-74 80,-55 2,-55"/>
</a>
</g>
</g>
<!-- Node2&#45;&gt;Node1 -->
<g id="edge1_Node000001_Node000002" class="edge">
<title>Node2&#45;&gt;Node1</title>
<g id="a_edge1_Node000001_Node000002"><a xlink:title=" ">
<path fill="none" stroke="#63b8ff" d="M41,-44.66C41,-35.93 41,-25.99 41,-19.09"/>
<polygon fill="none" stroke="#63b8ff" points="37.5,-44.75 41,-54.75 44.5,-44.75 37.5,-44.75"/>
</a>
</g>
</g>
<!-- Node3 -->
<g id="Node000003" class="node">
<title>Node3</title>
<g id="a_Node000003"><a xlink:title=" ">
<polygon fill="white" stroke="transparent" points="61,-129 21,-129 21,-110 61,-110 61,-129"/>
<text text-anchor="start" x="25" y="-116.5" font-family="Helvetica,sans-Serif" font-size="10.00">Dialog</text>
<polygon fill="none" stroke="#bfbfbf" points="21,-110 21,-129 61,-129 61,-110 21,-110"/>
</a>
</g>
</g>
<!-- Node3&#45;&gt;Node2 -->
<g id="edge2_Node000002_Node000003" class="edge">
<title>Node3&#45;&gt;Node2</title>
<g id="a_edge2_Node000002_Node000003"><a xlink:title=" ">
<path fill="none" stroke="#63b8ff" d="M41,-99.66C41,-90.93 41,-80.99 41,-74.09"/>
<polygon fill="none" stroke="#63b8ff" points="37.5,-99.75 41,-109.75 44.5,-99.75 37.5,-99.75"/>
</a>
</g>
</g>
</g>
</svg>
