<?xml version="1.0" encoding="UTF-8" standalone="no"?>
<!DOCTYPE svg PUBLIC "-//W3C//DTD SVG 1.1//EN"
 "http://www.w3.org/Graphics/SVG/1.1/DTD/svg11.dtd">
<!-- Generated by graphviz version 2.43.0 (0)
 -->
<!-- Title: MainActivity Pages: 1 -->
<!--zoomable 284 -->
<svg id="main" version="1.1" xmlns="http://www.w3.org/2000/svg" xmlns:xlink="http://www.w3.org/1999/xlink" xml:space="preserve" onload="init(evt)">
<style type="text/css"><![CDATA[
.edge:hover path { stroke: red; }
.edge:hover polygon { stroke: red; fill: red; }
]]></style>
<script type="text/javascript"><![CDATA[
var edges = document.getElementsByTagName('g');
if (edges && edges.length) {
  for (var i=0;i<edges.length;i++) {
    if (edges[i].id.substr(0,4)=='edge') {
      edges[i].setAttribute('class','edge');
    }
  }
}
]]></script>
        <defs>
                <circle id="rim" cx="0" cy="0" r="7"/>
                <circle id="rim2" cx="0" cy="0" r="3.5"/>
                <g id="zoomPlus">
                        <use xlink:href="#rim" fill="#404040">
                                <set attributeName="fill" to="#808080" begin="zoomplus.mouseover" end="zoomplus.mouseout"/>
                        </use>
                        <path d="M-4,0h8M0,-4v8" fill="none" stroke="white" stroke-width="1.5" pointer-events="none"/>
                </g>
                <g id="zoomMin">
                        <use xlink:href="#rim" fill="#404040">
                                <set attributeName="fill" to="#808080" begin="zoomminus.mouseover" end="zoomminus.mouseout"/>
                        </use>
                        <path d="M-4,0h8" fill="none" stroke="white" stroke-width="1.5" pointer-events="none"/>
                </g>
                <g id="dirArrow">
                        <path fill="none" stroke="white" stroke-width="1.5" d="M0,-3.0v7 M-2.5,-0.5L0,-3.0L2.5,-0.5"/>
                </g>
               <g id="resetDef">
                       <use xlink:href="#rim2" fill="#404040">
                               <set attributeName="fill" to="#808080" begin="reset.mouseover" end="reset.mouseout"/>
                       </use>
               </g>
        </defs>

<script type="text/javascript">
var viewWidth = 1377;
var viewHeight = 284;
var sectionId = 'dynsection-1';
</script>
<script xlink:href="svgpan.js"/>
<svg id="graph" class="graph">
<g id="viewport">
<title>MainActivity</title>
<polygon fill="white" stroke="transparent" points="-4,4 -4,-280 1372.5,-280 1372.5,4 -4,4"/>
<!-- Node1 -->
<g id="node1" class="node">
<title>Node1</title>
<g id="a_node1"><a xlink:title="An AppCompatActivity that is called on startup and that encapsulates the main view onto the game boar...">
<polygon fill="#bfbfbf" stroke="black" points="283.5,-0.5 283.5,-19.5 361.5,-19.5 361.5,-0.5 283.5,-0.5"/>
<text text-anchor="middle" x="322.5" y="-7.5" font-family="Helvetica,sans-Serif" font-size="10.00">MainActivity</text>
</a>
</g>
</g>
<!-- Node2 -->
<g id="node2" class="node">
<title>Node2</title>
<g id="a_node2"><a xlink:title=" ">
<polygon fill="white" stroke="#bfbfbf" points="0,-67.5 0,-86.5 111,-86.5 111,-67.5 0,-67.5"/>
<text text-anchor="middle" x="55.5" y="-74.5" font-family="Helvetica,sans-Serif" font-size="10.00">AppCompatActivity</text>
</a>
</g>
</g>
<!-- Node2&#45;&gt;Node1 -->
<g id="edge1" class="edge">
<title>Node2&#45;&gt;Node1</title>
<path fill="none" stroke="midnightblue" d="M78.71,-62.31C93.82,-54.01 114.24,-43.91 133.5,-38 183.88,-22.55 244.59,-15.87 283.36,-13.04"/>
<polygon fill="none" stroke="midnightblue" points="76.6,-59.49 69.61,-67.45 80.04,-65.58 76.6,-59.49"/>
</g>
<!-- Node3 -->
<g id="node3" class="node">
<title>Node3</title>
<g id="a_node3"><a xlink:href="classcom_1_1peternaggschga_1_1gwent_1_1ui_1_1sounds_1_1SoundManager.xhtml" target="_top" xlink:title="A class responsible for initializing and playing sounds when they are enabled.">
<polygon fill="white" stroke="black" points="278,-67.5 278,-86.5 367,-86.5 367,-67.5 278,-67.5"/>
<text text-anchor="middle" x="322.5" y="-74.5" font-family="Helvetica,sans-Serif" font-size="10.00">SoundManager</text>
</a>
</g>
</g>
<!-- Node3&#45;&gt;Node1 -->
<g id="edge2" class="edge">
<title>Node3&#45;&gt;Node1</title>
<path fill="none" stroke="#404040" d="M322.5,-67.23C322.5,-58.17 322.5,-43.69 322.5,-31.69"/>
<polygon fill="none" stroke="#404040" points="322.5,-31.63 318.5,-25.63 322.5,-19.63 326.5,-25.63 322.5,-31.63"/>
<text text-anchor="middle" x="362" y="-41" font-family="Helvetica,sans-Serif" font-size="10.00"> &#45;soundManager</text>
</g>
<!-- Node4 -->
<g id="node4" class="node">
<title>Node4</title>
<g id="a_node4"><a xlink:title=" ">
<polygon fill="white" stroke="#bfbfbf" points="114.5,-145.5 114.5,-164.5 222.5,-164.5 222.5,-145.5 114.5,-145.5"/>
<text text-anchor="middle" x="168.5" y="-152.5" font-family="Helvetica,sans-Serif" font-size="10.00">SharedPreferences</text>
</a>
</g>
</g>
<!-- Node4&#45;&gt;Node1 -->
<g id="edge6" class="edge">
<title>Node4&#45;&gt;Node1</title>
<path fill="none" stroke="#404040" d="M163.69,-145.39C155.03,-128.6 139.25,-91.03 156.5,-67 182.43,-30.88 232.87,-17.75 271.38,-13.14"/>
<polygon fill="none" stroke="#404040" points="271.48,-13.13 277.04,-8.54 283.42,-11.92 277.85,-16.5 271.48,-13.13"/>
<text text-anchor="middle" x="212.5" y="-74.5" font-family="Helvetica,sans-Serif" font-size="10.00"> &#45;factionSwitchListener</text>
</g>
<!-- Node4&#45;&gt;Node3 -->
<g id="edge3" class="edge">
<title>Node4&#45;&gt;Node3</title>
<path fill="none" stroke="#404040" d="M171.59,-145.23C175.99,-134.08 185.16,-115.05 199.5,-105 205.26,-100.96 236.34,-94.15 265.82,-88.39"/>
<polygon fill="none" stroke="#404040" points="266.06,-88.34 271.19,-83.28 277.84,-86.07 272.7,-91.13 266.06,-88.34"/>
<text text-anchor="middle" x="240.5" y="-108" font-family="Helvetica,sans-Serif" font-size="10.00"> &#45;changeListener</text>
</g>
<!-- Node5 -->
<g id="node5" class="node">
<title>Node5</title>
<g id="a_node5"><a xlink:href="classcom_1_1peternaggschga_1_1gwent_1_1ui_1_1sounds_1_1Sound.xhtml" target="_top" xlink:title="A data class encapsulating information on a certain sound effect, e.g., its id in a SoundPool and whe...">
<polygon fill="white" stroke="black" points="256,-145.5 256,-164.5 303,-164.5 303,-145.5 256,-145.5"/>
<text text-anchor="middle" x="279.5" y="-152.5" font-family="Helvetica,sans-Serif" font-size="10.00">Sound</text>
</a>
</g>
</g>
<!-- Node5&#45;&gt;Node3 -->
<g id="edge4" class="edge">
<title>Node5&#45;&gt;Node3</title>
<path fill="none" stroke="#404040" d="M279.54,-145.4C279.96,-135.1 281.87,-117.64 289.5,-105 291.9,-101.03 295.1,-97.38 298.57,-94.14"/>
<polygon fill="none" stroke="#404040" points="298.65,-94.08 300.82,-87.2 308.01,-86.56 305.83,-93.44 298.65,-94.08"/>
<text text-anchor="middle" x="310.5" y="-108" font-family="Helvetica,sans-Serif" font-size="10.00"> &#45;sounds</text>
</g>
<!-- Node6 -->
<g id="node6" class="node">
<title>Node6</title>
<g id="a_node6"><a xlink:title=" ">
<polygon fill="white" stroke="#bfbfbf" points="321.5,-145.5 321.5,-164.5 389.5,-164.5 389.5,-145.5 321.5,-145.5"/>
<text text-anchor="middle" x="355.5" y="-152.5" font-family="Helvetica,sans-Serif" font-size="10.00">SoundPool</text>
</a>
</g>
</g>
<!-- Node6&#45;&gt;Node3 -->
<g id="edge5" class="edge">
<title>Node6&#45;&gt;Node3</title>
<path fill="none" stroke="#404040" d="M351.71,-145.28C346.74,-133.83 337.86,-113.37 331.19,-98.01"/>
<polygon fill="none" stroke="#404040" points="331.02,-97.62 324.96,-93.71 326.24,-86.62 332.3,-90.53 331.02,-97.62"/>
<text text-anchor="middle" x="368.5" y="-108" font-family="Helvetica,sans-Serif" font-size="10.00"> &#45;soundPool</text>
</g>
<!-- Node7 -->
<g id="node7" class="node">
<title>Node7</title>
<g id="a_node7"><a xlink:title=" ">
<polygon fill="white" stroke="#bfbfbf" points="385,-67.5 385,-86.5 508,-86.5 508,-67.5 385,-67.5"/>
<text text-anchor="middle" x="446.5" y="-74.5" font-family="Helvetica,sans-Serif" font-size="10.00">CompositeDisposable</text>
</a>
</g>
</g>
<!-- Node7&#45;&gt;Node1 -->
<g id="edge7" class="edge">
<title>Node7&#45;&gt;Node1</title>
<path fill="none" stroke="#404040" d="M439.18,-67.29C431.56,-58.74 418.89,-45.86 405.5,-38 395.22,-31.96 383.42,-27.09 372,-23.23"/>
<polygon fill="none" stroke="#404040" points="371.78,-23.16 364.86,-25.18 360.33,-19.57 367.25,-17.55 371.78,-23.16"/>
<text text-anchor="middle" x="453" y="-41" font-family="Helvetica,sans-Serif" font-size="10.00"> &#45;disposables</text>
</g>
<!-- Node8 -->
<g id="node8" class="node">
<title>Node8</title>
<g id="a_node8"><a xlink:href="classcom_1_1peternaggschga_1_1gwent_1_1ui_1_1main_1_1GameBoardViewModel.xhtml" target="_top" xlink:title="An AndroidViewModel class responsible for encapsulating and offering state of views in activity_main....">
<polygon fill="white" stroke="black" points="594.5,-67.5 594.5,-86.5 722.5,-86.5 722.5,-67.5 594.5,-67.5"/>
<text text-anchor="middle" x="658.5" y="-74.5" font-family="Helvetica,sans-Serif" font-size="10.00">GameBoardViewModel</text>
</a>
</g>
</g>
<!-- Node8&#45;&gt;Node1 -->
<g id="edge8" class="edge">
<title>Node8&#45;&gt;Node1</title>
<path fill="none" stroke="#404040" d="M623.35,-67.44C589.26,-59.29 536.01,-46.98 489.5,-38 450.89,-30.55 406.98,-23.5 373.88,-18.48"/>
<polygon fill="none" stroke="#404040" points="373.63,-18.44 367.1,-21.51 361.76,-16.66 368.29,-13.59 373.63,-18.44"/>
<text text-anchor="middle" x="600.5" y="-41" font-family="Helvetica,sans-Serif" font-size="10.00"> &#45;gameBoardViewModel</text>
</g>
<!-- Node9 -->
<g id="node9" class="node">
<title>Node9</title>
<g id="a_node9"><a xlink:title=" ">
<polygon fill="white" stroke="#bfbfbf" points="407.5,-145.5 407.5,-164.5 515.5,-164.5 515.5,-145.5 407.5,-145.5"/>
<text text-anchor="middle" x="461.5" y="-152.5" font-family="Helvetica,sans-Serif" font-size="10.00">AndroidViewModel</text>
</a>
</g>
</g>
<!-- Node9&#45;&gt;Node8 -->
<g id="edge9" class="edge">
<title>Node9&#45;&gt;Node8</title>
<path fill="none" stroke="midnightblue" d="M493.28,-141.74C533.42,-126.25 601.44,-100.01 636.37,-86.54"/>
<polygon fill="none" stroke="midnightblue" points="491.79,-138.56 483.72,-145.43 494.31,-145.1 491.79,-138.56"/>
</g>
<!-- Node10 -->
<g id="node10" class="node">
<title>Node10</title>
<g id="a_node10"><a xlink:title=" ">
<polygon fill="white" stroke="#bfbfbf" points="533.5,-140 533.5,-170 783.5,-170 783.5,-140 533.5,-140"/>
<text text-anchor="start" x="541.5" y="-158" font-family="Helvetica,sans-Serif" font-size="10.00">Flowable&lt; com.peternaggschga.gwent.ui.main.</text>
<text text-anchor="middle" x="658.5" y="-147" font-family="Helvetica,sans-Serif" font-size="10.00">MenuUiState &gt;</text>
</a>
</g>
</g>
<!-- Node10&#45;&gt;Node8 -->
<g id="edge10" class="edge">
<title>Node10&#45;&gt;Node8</title>
<path fill="none" stroke="#404040" d="M658.5,-139.7C658.5,-128.21 658.5,-111.9 658.5,-98.93"/>
<polygon fill="none" stroke="#404040" points="658.5,-98.56 654.5,-92.56 658.5,-86.56 662.5,-92.56 658.5,-98.56"/>
<text text-anchor="middle" x="694" y="-108" font-family="Helvetica,sans-Serif" font-size="10.00"> &#45;menuUiState</text>
</g>
<!-- Node11 -->
<g id="node11" class="node">
<title>Node11</title>
<g id="a_node11"><a xlink:title=" ">
<polygon fill="white" stroke="#bfbfbf" points="628,-256.5 628,-275.5 689,-275.5 689,-256.5 628,-256.5"/>
<text text-anchor="middle" x="658.5" y="-263.5" font-family="Helvetica,sans-Serif" font-size="10.00">Flowable</text>
</a>
</g>
</g>
<!-- Node11&#45;&gt;Node10 -->
<g id="edge11" class="edge">
<title>Node11&#45;&gt;Node10</title>
<path fill="none" stroke="orange" d="M658.5,-246.28C658.5,-224.7 658.5,-189.71 658.5,-170.24"/>
<polygon fill="orange" stroke="orange" points="655,-246.45 658.5,-256.45 662,-246.45 655,-246.45"/>
<text text-anchor="start" x="658.5" y="-219" font-family="Helvetica,sans-Serif" font-size="10.00"> &lt; com::peternaggschga</text>
<text text-anchor="middle" x="740" y="-208" font-family="Helvetica,sans-Serif" font-size="10.00">::gwent::ui::main::MenuUiState &gt;</text>
</g>
<!-- Node12 -->
<g id="node12" class="node">
<title>Node12</title>
<g id="a_node12"><a xlink:title=" ">
<polygon fill="white" stroke="#bfbfbf" points="802,-134.5 802,-175.5 1101,-175.5 1101,-134.5 802,-134.5"/>
<text text-anchor="start" x="810" y="-163.5" font-family="Helvetica,sans-Serif" font-size="10.00">Map&lt; com.peternaggschga.gwent.data.</text>
<text text-anchor="start" x="810" y="-152.5" font-family="Helvetica,sans-Serif" font-size="10.00">RowType, Flowable&lt; com.peternaggschga.gwent.ui.main.</text>
<text text-anchor="middle" x="951.5" y="-141.5" font-family="Helvetica,sans-Serif" font-size="10.00">RowUiState &gt; &gt;</text>
</a>
</g>
</g>
<!-- Node12&#45;&gt;Node8 -->
<g id="edge12" class="edge">
<title>Node12&#45;&gt;Node8</title>
<path fill="none" stroke="#404040" d="M876.05,-134.43C821.26,-120.22 748.98,-101.47 703.1,-89.57"/>
<polygon fill="none" stroke="#404040" points="703.09,-89.57 696.27,-91.93 691.47,-86.55 698.28,-84.19 703.09,-89.57"/>
<text text-anchor="middle" x="839" y="-108" font-family="Helvetica,sans-Serif" font-size="10.00"> &#45;rowUiStates</text>
</g>
<!-- Node13 -->
<g id="node13" class="node">
<title>Node13</title>
<g id="a_node13"><a xlink:title=" ">
<polygon fill="white" stroke="#bfbfbf" points="932.5,-256.5 932.5,-275.5 970.5,-275.5 970.5,-256.5 932.5,-256.5"/>
<text text-anchor="middle" x="951.5" y="-263.5" font-family="Helvetica,sans-Serif" font-size="10.00">Map</text>
</a>
</g>
</g>
<!-- Node13&#45;&gt;Node12 -->
<g id="edge13" class="edge">
<title>Node13&#45;&gt;Node12</title>
<path fill="none" stroke="orange" d="M951.5,-246.33C951.5,-226.67 951.5,-195.84 951.5,-175.77"/>
<polygon fill="orange" stroke="orange" points="948,-246.45 951.5,-256.45 955,-246.45 948,-246.45"/>
<text text-anchor="start" x="951.5" y="-230" font-family="Helvetica,sans-Serif" font-size="10.00"> &lt; com::peternaggschga</text>
<text text-anchor="start" x="951.5" y="-219" font-family="Helvetica,sans-Serif" font-size="10.00">::gwent::data::RowType,</text>
<text text-anchor="start" x="951.5" y="-208" font-family="Helvetica,sans-Serif" font-size="10.00"> Flowable&lt; com::peternaggschga</text>
<text text-anchor="middle" x="1035.5" y="-197" font-family="Helvetica,sans-Serif" font-size="10.00">::gwent::ui::main::RowUiState &gt; &gt;</text>
</g>
<!-- Node14 -->
<g id="node14" class="node">
<title>Node14</title>
<g id="a_node14"><a xlink:title=" ">
<polygon fill="white" stroke="#bfbfbf" points="1119.5,-134.5 1119.5,-175.5 1325.5,-175.5 1325.5,-134.5 1119.5,-134.5"/>
<text text-anchor="start" x="1127.5" y="-163.5" font-family="Helvetica,sans-Serif" font-size="10.00">ViewModelInitializer</text>
<text text-anchor="start" x="1127.5" y="-152.5" font-family="Helvetica,sans-Serif" font-size="10.00">&lt; com.peternaggschga.gwent.ui.main.</text>
<text text-anchor="middle" x="1222.5" y="-141.5" font-family="Helvetica,sans-Serif" font-size="10.00">GameBoardViewModel &gt;</text>
</a>
</g>
</g>
<!-- Node14&#45;&gt;Node8 -->
<g id="edge14" class="edge">
<title>Node14&#45;&gt;Node8</title>
<path fill="none" stroke="#404040" d="M1119.38,-135.52C1116.05,-135 1112.75,-134.49 1109.5,-134 978.03,-114.2 824.24,-96.2 734.47,-86.21"/>
<polygon fill="none" stroke="#404040" points="734.43,-86.21 728.02,-89.52 722.5,-84.89 728.9,-81.57 734.43,-86.21"/>
<text text-anchor="middle" x="1005.5" y="-108" font-family="Helvetica,sans-Serif" font-size="10.00"> &#45;INITIALIZER</text>
</g>
<!-- Node15 -->
<g id="node15" class="node">
<title>Node15</title>
<g id="a_node15"><a xlink:title=" ">
<polygon fill="white" stroke="#bfbfbf" points="1164.5,-256.5 1164.5,-275.5 1280.5,-275.5 1280.5,-256.5 1164.5,-256.5"/>
<text text-anchor="middle" x="1222.5" y="-263.5" font-family="Helvetica,sans-Serif" font-size="10.00">ViewModelInitializer</text>
</a>
</g>
</g>
<!-- Node15&#45;&gt;Node14 -->
<g id="edge15" class="edge">
<title>Node15&#45;&gt;Node14</title>
<path fill="none" stroke="orange" d="M1222.5,-246.33C1222.5,-226.67 1222.5,-195.84 1222.5,-175.77"/>
<polygon fill="orange" stroke="orange" points="1219,-246.45 1222.5,-256.45 1226,-246.45 1219,-246.45"/>
<text text-anchor="start" x="1222.5" y="-224.5" font-family="Helvetica,sans-Serif" font-size="10.00"> &lt; com::peternaggschga</text>
<text text-anchor="start" x="1222.5" y="-213.5" font-family="Helvetica,sans-Serif" font-size="10.00">::gwent::ui::main::GameBoard</text>
<text text-anchor="middle" x="1295.5" y="-202.5" font-family="Helvetica,sans-Serif" font-size="10.00">ViewModel &gt;</text>
</g>
</g>
</svg>
        <g id="navigator" transform="translate(0 0)" fill="#404254">
                <rect fill="#f2f5e9" fill-opacity="0.5" stroke="#606060" stroke-width=".5" x="0" y="0" width="60" height="60"/>
                <use id="zoomplus" xlink:href="#zoomPlus" x="17" y="9" onmousedown="handleZoom(evt,'in')"/>
                <use id="zoomminus" xlink:href="#zoomMin" x="42" y="9" onmousedown="handleZoom(evt,'out')"/>
                <use id="reset" xlink:href="#resetDef" x="30" y="36" onmousedown="handleReset()"/>
                <g id="arrowUp" xlink:href="#dirArrow" transform="translate(30 24)" onmousedown="handlePan(0,-1)">
                  <use xlink:href="#rim" fill="#404040">
                        <set attributeName="fill" to="#808080" begin="arrowUp.mouseover" end="arrowUp.mouseout"/>
                  </use>
                  <path fill="none" stroke="white" stroke-width="1.5" d="M0,-3.0v7 M-2.5,-0.5L0,-3.0L2.5,-0.5"/>
                </g>
                <g id="arrowRight" xlink:href="#dirArrow" transform="rotate(90) translate(36 -43)" onmousedown="handlePan(1,0)">
                  <use xlink:href="#rim" fill="#404040">
                        <set attributeName="fill" to="#808080" begin="arrowRight.mouseover" end="arrowRight.mouseout"/>
                  </use>
                  <path fill="none" stroke="white" stroke-width="1.5" d="M0,-3.0v7 M-2.5,-0.5L0,-3.0L2.5,-0.5"/>
                </g>
                <g id="arrowDown" xlink:href="#dirArrow" transform="rotate(180) translate(-30 -48)" onmousedown="handlePan(0,1)">
                  <use xlink:href="#rim" fill="#404040">
                        <set attributeName="fill" to="#808080" begin="arrowDown.mouseover" end="arrowDown.mouseout"/>
                  </use>
                  <path fill="none" stroke="white" stroke-width="1.5" d="M0,-3.0v7 M-2.5,-0.5L0,-3.0L2.5,-0.5"/>
                </g>
                <g id="arrowLeft" xlink:href="#dirArrow" transform="rotate(270) translate(-36 17)" onmousedown="handlePan(-1,0)">
                  <use xlink:href="#rim" fill="#404040">
                        <set attributeName="fill" to="#808080" begin="arrowLeft.mouseover" end="arrowLeft.mouseout"/>
                  </use>
                  <path fill="none" stroke="white" stroke-width="1.5" d="M0,-3.0v7 M-2.5,-0.5L0,-3.0L2.5,-0.5"/>
                </g>
        </g>
        <svg viewBox="0 0 15 15" width="100%" height="30px" preserveAspectRatio="xMaxYMin meet">
         <g id="arrow_out" transform="scale(0.3 0.3)">
          <a xlink:href="classcom_1_1peternaggschga_1_1gwent_1_1ui_1_1main_1_1MainActivity__coll__graph_org.svg" target="_base">
           <rect id="button" ry="5" rx="5" y="6" x="6" height="38" width="38"
                fill="#f2f5e9" fill-opacity="0.5" stroke="#606060" stroke-width="1.0"/>
           <path id="arrow"
             d="M 11.500037,31.436501 C 11.940474,20.09759 22.043105,11.32322 32.158766,21.979434 L 37.068811,17.246167 C 37.068811,17.246167 37.088388,32 37.088388,32 L 22.160133,31.978069 C 22.160133,31.978069 26.997745,27.140456 26.997745,27.140456 C 18.528582,18.264221 13.291696,25.230495 11.500037,31.436501 z"
             style="fill:#404040;"/>
          </a>
         </g>
        </svg>
</svg>
