<?xml version="1.0" encoding="UTF-8" standalone="no"?>
<!DOCTYPE svg PUBLIC "-//W3C//DTD SVG 1.1//EN"
 "http://www.w3.org/Graphics/SVG/1.1/DTD/svg11.dtd">
<!-- Generated by graphviz version 2.43.0 (0)
 -->
<!-- Title: RowUiStateObserver Pages: 1 -->
<svg width="362pt" height="106pt"
 viewBox="0.00 0.00 362.00 106.00" xmlns="http://www.w3.org/2000/svg" xmlns:xlink="http://www.w3.org/1999/xlink">
<g id="graph0" class="graph" transform="scale(1 1) rotate(0) translate(4 102)">
<title>RowUiStateObserver</title>
<polygon fill="white" stroke="transparent" points="-4,4 -4,-102 358,-102 358,4 -4,4"/>
<!-- Node1 -->
<g id="node1" class="node">
<title>Node1</title>
<g id="a_node1"><a xlink:title="An observer class responsible for updating the views of the row defined in #row when notified,...">
<polygon fill="#bfbfbf" stroke="black" points="141,-0.5 141,-19.5 259,-19.5 259,-0.5 141,-0.5"/>
<text text-anchor="middle" x="200" y="-7.5" font-family="Helvetica,sans-Serif" font-size="10.00">RowUiStateObserver</text>
</a>
</g>
</g>
<!-- Node2 -->
<g id="node2" class="node">
<title>Node2</title>
<g id="a_node2"><a xlink:title=" ">
<polygon fill="white" stroke="#bfbfbf" points="0,-78.5 0,-97.5 146,-97.5 146,-78.5 0,-78.5"/>
<text text-anchor="middle" x="73" y="-85.5" font-family="Helvetica,sans-Serif" font-size="10.00">Consumer&lt; RowUiState &gt;</text>
</a>
</g>
</g>
<!-- Node2&#45;&gt;Node1 -->
<g id="edge1" class="edge">
<title>Node2&#45;&gt;Node1</title>
<path fill="none" stroke="midnightblue" d="M96.43,-72.98C122.52,-57.36 163.88,-32.61 185.6,-19.62"/>
<polygon fill="none" stroke="midnightblue" points="94.35,-70.14 87.57,-78.28 97.95,-76.15 94.35,-70.14"/>
</g>
<!-- Node3 -->
<g id="node3" class="node">
<title>Node3</title>
<g id="a_node3"><a xlink:title=" ">
<polygon fill="white" stroke="#bfbfbf" points="164.5,-78.5 164.5,-97.5 235.5,-97.5 235.5,-78.5 164.5,-78.5"/>
<text text-anchor="middle" x="200" y="-85.5" font-family="Helvetica,sans-Serif" font-size="10.00">ImageView</text>
</a>
</g>
</g>
<!-- Node3&#45;&gt;Node1 -->
<g id="edge2" class="edge">
<title>Node3&#45;&gt;Node1</title>
<path fill="none" stroke="#404040" d="M200,-78.28C200,-67.06 200,-47.19 200,-31.94"/>
<polygon fill="none" stroke="#404040" points="200,-31.62 196,-25.62 200,-19.62 204,-25.62 200,-31.62"/>
<text text-anchor="middle" x="234" y="-52" font-family="Helvetica,sans-Serif" font-size="10.00"> &#45;hornView</text>
<text text-anchor="middle" x="234" y="-41" font-family="Helvetica,sans-Serif" font-size="10.00">&#45;weatherView</text>
</g>
<!-- Node4 -->
<g id="node4" class="node">
<title>Node4</title>
<g id="a_node4"><a xlink:title=" ">
<polygon fill="white" stroke="#bfbfbf" points="260.5,-78.5 260.5,-97.5 321.5,-97.5 321.5,-78.5 260.5,-78.5"/>
<text text-anchor="middle" x="291" y="-85.5" font-family="Helvetica,sans-Serif" font-size="10.00">TextView</text>
</a>
</g>
</g>
<!-- Node4&#45;&gt;Node1 -->
<g id="edge3" class="edge">
<title>Node4&#45;&gt;Node1</title>
<path fill="none" stroke="#404040" d="M289.2,-78.21C286.55,-67.38 280.62,-49.06 269,-38 263.05,-32.34 255.78,-27.82 248.22,-24.23"/>
<polygon fill="none" stroke="#404040" points="248.13,-24.19 241.06,-25.6 237.04,-19.61 244.12,-18.2 248.13,-24.19"/>
<text text-anchor="middle" x="318.5" y="-52" font-family="Helvetica,sans-Serif" font-size="10.00"> &#45;damageView</text>
<text text-anchor="middle" x="318.5" y="-41" font-family="Helvetica,sans-Serif" font-size="10.00">&#45;unitView</text>
</g>
</g>
</svg>
