<?xml version="1.0" encoding="UTF-8" standalone="no"?>
<!DOCTYPE svg PUBLIC "-//W3C//DTD SVG 1.1//EN"
 "http://www.w3.org/Graphics/SVG/1.1/DTD/svg11.dtd">
<!-- Generated by graphviz version 2.43.0 (0)
 -->
<!-- Title: BondDamageCalculatorDecorator Pages: 1 -->
<svg width="180pt" height="149pt"
 viewBox="0.00 0.00 180.00 149.00" xmlns="http://www.w3.org/2000/svg" xmlns:xlink="http://www.w3.org/1999/xlink">
<g id="graph0" class="graph" transform="scale(1 1) rotate(0) translate(4 145)">
<title>BondDamageCalculatorDecorator</title>
<!-- Node1 -->
<g id="Node000001" class="node">
<title>Node1</title>
<g id="a_Node000001"><a xlink:title="A DamageCalculator class responsible for calculating the tight bond buff if necessary,...">
<polygon fill="#999999" stroke="transparent" points="172,-19 0,-19 0,0 172,0 172,-19"/>
<text text-anchor="start" x="4" y="-6.5" font-family="Helvetica,sans-Serif" font-size="10.00">BondDamageCalculatorDecorator</text>
<polygon fill="none" stroke="#666666" points="0,0 0,-19 172,-19 172,0 0,0"/>
</a>
</g>
</g>
<!-- Node2 -->
<g id="Node000002" class="node">
<title>Node2</title>
<g id="a_Node000002"><a xlink:href="classcom_1_1peternaggschga_1_1gwent_1_1domain_1_1damage_1_1DamageCalculatorDecorator.xhtml" target="_top" xlink:title="An abstract DamageCalculator that is used as a superclass for the decorator classes implementing the ...">
<polygon fill="white" stroke="transparent" points="160,-75 12,-75 12,-56 160,-56 160,-75"/>
<text text-anchor="start" x="16.5" y="-62.5" font-family="Helvetica,sans-Serif" font-size="10.00">DamageCalculatorDecorator</text>
<polygon fill="none" stroke="#666666" points="12,-56 12,-75 160,-75 160,-56 12,-56"/>
</a>
</g>
</g>
<!-- Node2&#45;&gt;Node1 -->
<g id="edge1_Node000001_Node000002" class="edge">
<title>Node2&#45;&gt;Node1</title>
<g id="a_edge1_Node000001_Node000002"><a xlink:title=" ">
<path fill="none" stroke="#63b8ff" d="M86,-45.3C86,-36.41 86,-26.28 86,-19.25"/>
<polygon fill="none" stroke="#63b8ff" points="82.5,-45.58 86,-55.58 89.5,-45.58 82.5,-45.58"/>
</a>
</g>
</g>
<!-- Node3 -->
<g id="Node000003" class="node">
<title>Node3</title>
<g id="a_Node000003"><a xlink:href="interfacecom_1_1peternaggschga_1_1gwent_1_1domain_1_1damage_1_1DamageCalculator.xhtml" target="_top" xlink:title="An interface for a class capable of calculating the (de&#45;)buffed damage of a unit for a given UnitEnti...">
<polygon fill="white" stroke="transparent" points="136,-141 36,-141 36,-122 136,-122 136,-141"/>
<text text-anchor="start" x="40.5" y="-128.5" font-family="Helvetica,sans-Serif" font-size="10.00">DamageCalculator</text>
<polygon fill="none" stroke="#666666" points="36,-122 36,-141 136,-141 136,-122 36,-122"/>
</a>
</g>
</g>
<!-- Node3&#45;&gt;Node2 -->
<g id="edge2_Node000002_Node000003" class="edge">
<title>Node3&#45;&gt;Node2</title>
<g id="a_edge2_Node000002_Node000003"><a xlink:title=" ">
<path fill="none" stroke="#63b8ff" d="M84.4,-111.69C84.24,-109.11 84.09,-106.49 84,-104 83.63,-94.1 84.4,-82.73 85.09,-75.14"/>
<polygon fill="none" stroke="#63b8ff" points="80.92,-111.97 85.17,-121.68 87.9,-111.44 80.92,-111.97"/>
</a>
</g>
</g>
<!-- Node3&#45;&gt;Node2 -->
<g id="edge3_Node000002_Node000003" class="edge">
<title>Node3&#45;&gt;Node2</title>
<g id="a_edge3_Node000002_Node000003"><a xlink:title=" ">
<path fill="none" stroke="#63b8ff" d="M86,-121.87C86,-113.14 86,-99.31 86,-87.65"/>
<polygon fill="none" stroke="#63b8ff" points="86,-87.41 82,-81.41 86,-75.41 90,-81.41 86,-87.41"/>
</a>
</g>
<text text-anchor="middle" x="119.5" y="-96" font-family="Helvetica,sans-Serif" font-size="10.00" fill="grey"> #component</text>
</g>
</g>
</svg>
