<?xml version="1.0" encoding="UTF-8" standalone="no"?>
<!DOCTYPE svg PUBLIC "-//W3C//DTD SVG 1.1//EN"
 "http://www.w3.org/Graphics/SVG/1.1/DTD/svg11.dtd">
<!-- Generated by graphviz version 2.43.0 (0)
 -->
<!-- Title: CardNumberPickerAdapter Pages: 1 -->
<svg width="476pt" height="195pt"
 viewBox="0.00 0.00 476.00 195.00" xmlns="http://www.w3.org/2000/svg" xmlns:xlink="http://www.w3.org/1999/xlink">
<g id="graph0" class="graph" transform="scale(1 1) rotate(0) translate(4 191)">
<title>CardNumberPickerAdapter</title>
<polygon fill="white" stroke="transparent" points="-4,4 -4,-191 472,-191 472,4 -4,4"/>
<!-- Node1 -->
<g id="node1" class="node">
<title>Node1</title>
<g id="a_node1"><a xlink:title="A helper class responsible for initializing the NumberPicker views of an AddCardDialog (in #CardNumpe...">
<polygon fill="#bfbfbf" stroke="black" points="110,-0.5 110,-19.5 256,-19.5 256,-0.5 110,-0.5"/>
<text text-anchor="middle" x="183" y="-7.5" font-family="Helvetica,sans-Serif" font-size="10.00">CardNumberPickerAdapter</text>
</a>
</g>
</g>
<!-- Node2 -->
<g id="node2" class="node">
<title>Node2</title>
<g id="a_node2"><a xlink:href="classcom_1_1peternaggschga_1_1gwent_1_1ui_1_1dialogs_1_1addcard_1_1DamageValuePicker.xhtml" target="_top" xlink:title="A ValuePicker used for selection of damage values for UnitEntity::damage.">
<polygon fill="white" stroke="black" points="8,-84 8,-103 122,-103 122,-84 8,-84"/>
<text text-anchor="middle" x="65" y="-91" font-family="Helvetica,sans-Serif" font-size="10.00">DamageValuePicker</text>
</a>
</g>
</g>
<!-- Node2&#45;&gt;Node1 -->
<g id="edge1" class="edge">
<title>Node2&#45;&gt;Node1</title>
<path fill="none" stroke="#404040" d="M68.86,-83.84C74.62,-71.86 86.58,-50.32 103,-38 111,-32 120.42,-27.27 129.94,-23.58"/>
<polygon fill="none" stroke="#404040" points="130.17,-23.5 134.52,-17.75 141.5,-19.56 137.15,-25.31 130.17,-23.5"/>
<text text-anchor="middle" x="141" y="-46.5" font-family="Helvetica,sans-Serif" font-size="10.00"> &#45;damagePicker</text>
</g>
<!-- Node3 -->
<g id="node3" class="node">
<title>Node3</title>
<g id="a_node3"><a xlink:title=" ">
<polygon fill="white" stroke="#bfbfbf" points="0,-167.5 0,-186.5 130,-186.5 130,-167.5 0,-167.5"/>
<text text-anchor="middle" x="65" y="-174.5" font-family="Helvetica,sans-Serif" font-size="10.00">ValuePicker&lt; Integer &gt;</text>
</a>
</g>
</g>
<!-- Node3&#45;&gt;Node2 -->
<g id="edge2" class="edge">
<title>Node3&#45;&gt;Node2</title>
<path fill="none" stroke="midnightblue" d="M65,-156.88C65,-139.9 65,-115.87 65,-103.16"/>
<polygon fill="none" stroke="midnightblue" points="61.5,-157.28 65,-167.28 68.5,-157.28 61.5,-157.28"/>
</g>
<!-- Node4 -->
<g id="node4" class="node">
<title>Node4</title>
<g id="a_node4"><a xlink:title=" ">
<polygon fill="white" stroke="#bfbfbf" points="140.5,-84 140.5,-103 225.5,-103 225.5,-84 140.5,-84"/>
<text text-anchor="middle" x="183" y="-91" font-family="Helvetica,sans-Serif" font-size="10.00">NumberPicker</text>
</a>
</g>
</g>
<!-- Node4&#45;&gt;Node1 -->
<g id="edge3" class="edge">
<title>Node4&#45;&gt;Node1</title>
<path fill="none" stroke="#404040" d="M183,-83.78C183,-71.52 183,-48.83 183,-32.03"/>
<polygon fill="none" stroke="#404040" points="183,-31.66 179,-25.66 183,-19.66 187,-25.66 183,-31.66"/>
<text text-anchor="middle" x="220" y="-52" font-family="Helvetica,sans-Serif" font-size="10.00"> &#45;numberPicker</text>
<text text-anchor="middle" x="220" y="-41" font-family="Helvetica,sans-Serif" font-size="10.00">&#45;squadPicker</text>
</g>
<!-- Node5 -->
<g id="node5" class="node">
<title>Node5</title>
<g id="a_node5"><a xlink:title=" ">
<polygon fill="white" stroke="#bfbfbf" points="244,-78.5 244,-108.5 452,-108.5 452,-78.5 244,-78.5"/>
<text text-anchor="start" x="252" y="-96.5" font-family="Helvetica,sans-Serif" font-size="10.00">List&lt; com.peternaggschga.gwent.data.</text>
<text text-anchor="middle" x="348" y="-85.5" font-family="Helvetica,sans-Serif" font-size="10.00">Ability &gt;</text>
</a>
</g>
</g>
<!-- Node5&#45;&gt;Node1 -->
<g id="edge4" class="edge">
<title>Node5&#45;&gt;Node1</title>
<path fill="none" stroke="#404040" d="M328.35,-78.38C311.18,-66.49 285.28,-49.62 261,-38 249.46,-32.48 236.49,-27.52 224.49,-23.41"/>
<polygon fill="none" stroke="#404040" points="224.29,-23.35 217.34,-25.27 212.89,-19.6 219.84,-17.67 224.29,-23.35"/>
<text text-anchor="middle" x="355.5" y="-46.5" font-family="Helvetica,sans-Serif" font-size="10.00"> &#45;EPIC_UNIT_ABILITIES</text>
</g>
<!-- Node6 -->
<g id="node6" class="node">
<title>Node6</title>
<g id="a_node6"><a xlink:title=" ">
<polygon fill="white" stroke="#bfbfbf" points="331,-167.5 331,-186.5 365,-186.5 365,-167.5 331,-167.5"/>
<text text-anchor="middle" x="348" y="-174.5" font-family="Helvetica,sans-Serif" font-size="10.00">List</text>
</a>
</g>
</g>
<!-- Node6&#45;&gt;Node5 -->
<g id="edge5" class="edge">
<title>Node6&#45;&gt;Node5</title>
<path fill="none" stroke="orange" d="M348,-157.23C348,-142.41 348,-122.05 348,-108.6"/>
<polygon fill="orange" stroke="orange" points="344.5,-157.28 348,-167.28 351.5,-157.28 344.5,-157.28"/>
<text text-anchor="start" x="348" y="-141" font-family="Helvetica,sans-Serif" font-size="10.00"> &lt; com::peternaggschga</text>
<text text-anchor="middle" x="408" y="-130" font-family="Helvetica,sans-Serif" font-size="10.00">::gwent::data::Ability &gt;</text>
</g>
</g>
</svg>
