<?xml version="1.0" encoding="UTF-8" standalone="no"?>
<!DOCTYPE svg PUBLIC "-//W3C//DTD SVG 1.1//EN"
 "http://www.w3.org/Graphics/SVG/1.1/DTD/svg11.dtd">
<!-- Generated by graphviz version 2.43.0 (0)
 -->
<!-- Title: CardListAdapter Pages: 1 -->
<svg width="340pt" height="184pt"
 viewBox="0.00 0.00 339.50 184.00" xmlns="http://www.w3.org/2000/svg" xmlns:xlink="http://www.w3.org/1999/xlink">
<g id="graph0" class="graph" transform="scale(1 1) rotate(0) translate(4 180)">
<title>CardListAdapter</title>
<polygon fill="white" stroke="transparent" points="-4,4 -4,-180 335.5,-180 335.5,4 -4,4"/>
<!-- Node1 -->
<g id="node1" class="node">
<title>Node1</title>
<g id="a_node1"><a xlink:title="A ListAdapter used to provide CardListAdapter.CardViewHolder objects created from CardUiState objects...">
<polygon fill="#bfbfbf" stroke="black" points="63.5,-0.5 63.5,-19.5 158.5,-19.5 158.5,-0.5 63.5,-0.5"/>
<text text-anchor="middle" x="111" y="-7.5" font-family="Helvetica,sans-Serif" font-size="10.00">CardListAdapter</text>
</a>
</g>
</g>
<!-- Node2 -->
<g id="node2" class="node">
<title>Node2</title>
<g id="a_node2"><a xlink:title=" ">
<polygon fill="white" stroke="#bfbfbf" points="0,-78.5 0,-108.5 190,-108.5 190,-78.5 0,-78.5"/>
<text text-anchor="start" x="8" y="-96.5" font-family="Helvetica,sans-Serif" font-size="10.00">ListAdapter&lt; CardUiState,</text>
<text text-anchor="middle" x="95" y="-85.5" font-family="Helvetica,sans-Serif" font-size="10.00"> CardListAdapter.CardViewHolder &gt;</text>
</a>
</g>
</g>
<!-- Node2&#45;&gt;Node1 -->
<g id="edge1" class="edge">
<title>Node2&#45;&gt;Node1</title>
<path fill="none" stroke="midnightblue" d="M99.76,-68.25C102.99,-51.78 107.08,-30.99 109.32,-19.54"/>
<polygon fill="none" stroke="midnightblue" points="96.28,-67.82 97.79,-78.3 103.15,-69.17 96.28,-67.82"/>
</g>
<!-- Node3 -->
<g id="node3" class="node">
<title>Node3</title>
<g id="a_node3"><a xlink:title=" ">
<polygon fill="white" stroke="#bfbfbf" points="208.5,-84 208.5,-103 331.5,-103 331.5,-84 208.5,-84"/>
<text text-anchor="middle" x="270" y="-91" font-family="Helvetica,sans-Serif" font-size="10.00">Consumer&lt; Integer &gt;</text>
</a>
</g>
</g>
<!-- Node3&#45;&gt;Node1 -->
<g id="edge2" class="edge">
<title>Node3&#45;&gt;Node1</title>
<path fill="none" stroke="#404040" d="M253.28,-83.93C226.04,-69.97 171.78,-42.16 138.71,-25.2"/>
<polygon fill="none" stroke="#404040" points="138.65,-25.17 131.48,-25.99 127.97,-19.7 135.13,-18.88 138.65,-25.17"/>
<text text-anchor="middle" x="232.5" y="-52" font-family="Helvetica,sans-Serif" font-size="10.00"> &#45;onCopy</text>
<text text-anchor="middle" x="232.5" y="-41" font-family="Helvetica,sans-Serif" font-size="10.00">&#45;onRemove</text>
</g>
<!-- Node4 -->
<g id="node4" class="node">
<title>Node4</title>
<g id="a_node4"><a xlink:title=" ">
<polygon fill="white" stroke="#bfbfbf" points="237,-156.5 237,-175.5 303,-175.5 303,-156.5 237,-156.5"/>
<text text-anchor="middle" x="270" y="-163.5" font-family="Helvetica,sans-Serif" font-size="10.00">Consumer</text>
</a>
</g>
</g>
<!-- Node4&#45;&gt;Node3 -->
<g id="edge3" class="edge">
<title>Node4&#45;&gt;Node3</title>
<path fill="none" stroke="orange" d="M270,-145.94C270,-132.03 270,-113.82 270,-103.22"/>
<polygon fill="orange" stroke="orange" points="266.5,-146.36 270,-156.36 273.5,-146.36 266.5,-146.36"/>
<text text-anchor="middle" x="300.5" y="-130" font-family="Helvetica,sans-Serif" font-size="10.00"> &lt; Integer &gt;</text>
</g>
</g>
</svg>
