<?xml version="1.0" encoding="UTF-8" standalone="no"?>
<!DOCTYPE svg PUBLIC "-//W3C//DTD SVG 1.1//EN"
 "http://www.w3.org/Graphics/SVG/1.1/DTD/svg11.dtd">
<!-- Generated by graphviz version 2.43.0 (0)
 -->
<!-- Title: SquadManager Pages: 1 -->
<svg width="97pt" height="95pt"
 viewBox="0.00 0.00 97.00 95.00" xmlns="http://www.w3.org/2000/svg" xmlns:xlink="http://www.w3.org/1999/xlink">
<g id="graph0" class="graph" transform="scale(1 1) rotate(0) translate(4 91)">
<title>SquadManager</title>
<polygon fill="white" stroke="transparent" points="-4,4 -4,-91 93,-91 93,4 -4,4"/>
<!-- Node1 -->
<g id="node1" class="node">
<title>Node1</title>
<g id="a_node1"><a xlink:title="A class used by the CardNumberPickerAdapter to determine the first squad with members or set the defa...">
<polygon fill="#bfbfbf" stroke="black" points="0,-0.5 0,-19.5 89,-19.5 89,-0.5 0,-0.5"/>
<text text-anchor="middle" x="44.5" y="-7.5" font-family="Helvetica,sans-Serif" font-size="10.00">SquadManager</text>
</a>
</g>
</g>
<!-- Node2 -->
<g id="node2" class="node">
<title>Node2</title>
<g id="a_node2"><a xlink:href="classcom_1_1peternaggschga_1_1gwent_1_1ui_1_1dialogs_1_1addcard_1_1SquadState.xhtml" target="_top" xlink:title="A data class encapsulating information about the squad defined by squadNumber, i.e....">
<polygon fill="white" stroke="black" points="8.5,-67.5 8.5,-86.5 80.5,-86.5 80.5,-67.5 8.5,-67.5"/>
<text text-anchor="middle" x="44.5" y="-74.5" font-family="Helvetica,sans-Serif" font-size="10.00">SquadState</text>
</a>
</g>
</g>
<!-- Node2&#45;&gt;Node1 -->
<g id="edge1" class="edge">
<title>Node2&#45;&gt;Node1</title>
<path fill="none" stroke="#404040" d="M44.5,-67.23C44.5,-58.17 44.5,-43.69 44.5,-31.69"/>
<polygon fill="none" stroke="#404040" points="44.5,-31.63 40.5,-25.63 44.5,-19.63 48.5,-25.63 44.5,-31.63"/>
<text text-anchor="middle" x="63" y="-41" font-family="Helvetica,sans-Serif" font-size="10.00"> &#45;states</text>
</g>
</g>
</svg>
