<?xml version="1.0" encoding="UTF-8" standalone="no"?>
<!DOCTYPE svg PUBLIC "-//W3C//DTD SVG 1.1//EN"
 "http://www.w3.org/Graphics/SVG/1.1/DTD/svg11.dtd">
<!-- Generated by graphviz version 2.43.0 (0)
 -->
<!-- Title: FactionSwitchListener Pages: 1 -->
<svg width="508pt" height="184pt"
 viewBox="0.00 0.00 507.50 184.00" xmlns="http://www.w3.org/2000/svg" xmlns:xlink="http://www.w3.org/1999/xlink">
<g id="graph0" class="graph" transform="scale(1 1) rotate(0) translate(4 180)">
<title>FactionSwitchListener</title>
<polygon fill="white" stroke="transparent" points="-4,4 -4,-180 503.5,-180 503.5,4 -4,4"/>
<!-- Node1 -->
<g id="node1" class="node">
<title>Node1</title>
<g id="a_node1"><a xlink:title="A class implementing SharedPreference.OnSharedPreferenceChangeListener for the THEME_PREFERENCE_KEY S...">
<polygon fill="#bfbfbf" stroke="black" points="221.5,-0.5 221.5,-19.5 343.5,-19.5 343.5,-0.5 221.5,-0.5"/>
<text text-anchor="middle" x="282.5" y="-7.5" font-family="Helvetica,sans-Serif" font-size="10.00">FactionSwitchListener</text>
</a>
</g>
</g>
<!-- Node2 -->
<g id="node2" class="node">
<title>Node2</title>
<g id="a_node2"><a xlink:title=" ">
<polygon fill="white" stroke="#bfbfbf" points="0,-78.5 0,-108.5 153,-108.5 153,-78.5 0,-78.5"/>
<text text-anchor="start" x="8" y="-96.5" font-family="Helvetica,sans-Serif" font-size="10.00">OnSharedPreferenceChange</text>
<text text-anchor="middle" x="76.5" y="-85.5" font-family="Helvetica,sans-Serif" font-size="10.00">Listener</text>
</a>
</g>
</g>
<!-- Node2&#45;&gt;Node1 -->
<g id="edge1" class="edge">
<title>Node2&#45;&gt;Node1</title>
<path fill="none" stroke="midnightblue" d="M121.33,-74.76C164.47,-57.7 227.86,-32.62 260.81,-19.58"/>
<polygon fill="none" stroke="midnightblue" points="119.92,-71.56 111.91,-78.49 122.5,-78.07 119.92,-71.56"/>
</g>
<!-- Node3 -->
<g id="node3" class="node">
<title>Node3</title>
<g id="a_node3"><a xlink:title=" ">
<polygon fill="white" stroke="#bfbfbf" points="171,-84 171,-103 272,-103 272,-84 171,-84"/>
<text text-anchor="middle" x="221.5" y="-91" font-family="Helvetica,sans-Serif" font-size="10.00">List&lt; TextView &gt;</text>
</a>
</g>
</g>
<!-- Node3&#45;&gt;Node1 -->
<g id="edge2" class="edge">
<title>Node3&#45;&gt;Node1</title>
<path fill="none" stroke="#404040" d="M223.84,-83.62C227.19,-72.16 234.22,-52.01 245.5,-38 248.81,-33.89 252.89,-30.09 257.12,-26.73"/>
<polygon fill="none" stroke="#404040" points="257.19,-26.67 259.76,-19.93 266.96,-19.71 264.4,-26.45 257.19,-26.67"/>
<text text-anchor="middle" x="273" y="-46.5" font-family="Helvetica,sans-Serif" font-size="10.00"> &#45;unitViews</text>
</g>
<!-- Node4 -->
<g id="node4" class="node">
<title>Node4</title>
<g id="a_node4"><a xlink:title=" ">
<polygon fill="white" stroke="#bfbfbf" points="265.5,-156.5 265.5,-175.5 299.5,-175.5 299.5,-156.5 265.5,-156.5"/>
<text text-anchor="middle" x="282.5" y="-163.5" font-family="Helvetica,sans-Serif" font-size="10.00">List</text>
</a>
</g>
</g>
<!-- Node4&#45;&gt;Node3 -->
<g id="edge3" class="edge">
<title>Node4&#45;&gt;Node3</title>
<path fill="none" stroke="orange" d="M259.08,-150.31C254.25,-146.65 249.44,-142.47 245.5,-138 236.15,-127.39 228.93,-112.52 224.95,-103.2"/>
<polygon fill="orange" stroke="orange" points="257.41,-153.41 267.61,-156.3 261.44,-147.69 257.41,-153.41"/>
<text text-anchor="middle" x="280.5" y="-130" font-family="Helvetica,sans-Serif" font-size="10.00"> &lt; TextView &gt;</text>
</g>
<!-- Node5 -->
<g id="node5" class="node">
<title>Node5</title>
<g id="a_node5"><a xlink:title=" ">
<polygon fill="white" stroke="#bfbfbf" points="290,-84 290,-103 401,-103 401,-84 290,-84"/>
<text text-anchor="middle" x="345.5" y="-91" font-family="Helvetica,sans-Serif" font-size="10.00">List&lt; ImageView &gt;</text>
</a>
</g>
</g>
<!-- Node4&#45;&gt;Node5 -->
<g id="edge5" class="edge">
<title>Node4&#45;&gt;Node5</title>
<path fill="none" stroke="orange" d="M302.37,-150.26C306.91,-146.49 311.55,-142.29 315.5,-138 325.69,-126.93 335.14,-112.19 340.61,-103.03"/>
<polygon fill="orange" stroke="orange" points="300.17,-147.54 294.5,-156.49 304.51,-153.03 300.17,-147.54"/>
<text text-anchor="middle" x="364" y="-130" font-family="Helvetica,sans-Serif" font-size="10.00"> &lt; ImageView &gt;</text>
</g>
<!-- Node5&#45;&gt;Node1 -->
<g id="edge4" class="edge">
<title>Node5&#45;&gt;Node1</title>
<path fill="none" stroke="#404040" d="M338.76,-83.78C328.81,-70.91 309.97,-46.53 296.84,-29.55"/>
<polygon fill="none" stroke="#404040" points="296.53,-29.15 289.7,-26.85 289.19,-19.66 296.03,-21.96 296.53,-29.15"/>
<text text-anchor="middle" x="347" y="-52" font-family="Helvetica,sans-Serif" font-size="10.00"> &#45;ballViews</text>
<text text-anchor="middle" x="347" y="-41" font-family="Helvetica,sans-Serif" font-size="10.00">&#45;cardViews</text>
</g>
<!-- Node6 -->
<g id="node6" class="node">
<title>Node6</title>
<g id="a_node6"><a xlink:title=" ">
<polygon fill="white" stroke="#bfbfbf" points="419.5,-84 419.5,-103 499.5,-103 499.5,-84 419.5,-84"/>
<text text-anchor="middle" x="459.5" y="-91" font-family="Helvetica,sans-Serif" font-size="10.00">ImageButton</text>
</a>
</g>
</g>
<!-- Node6&#45;&gt;Node1 -->
<g id="edge6" class="edge">
<title>Node6&#45;&gt;Node1</title>
<path fill="none" stroke="#404040" d="M449.15,-83.93C434.35,-72.07 405.88,-50.67 378.5,-38 365,-31.75 349.74,-26.66 335.43,-22.65"/>
<polygon fill="none" stroke="#404040" points="335.29,-22.61 328.46,-24.93 323.69,-19.53 330.52,-17.2 335.29,-22.61"/>
<text text-anchor="middle" x="452" y="-46.5" font-family="Helvetica,sans-Serif" font-size="10.00"> &#45;factionButton</text>
</g>
</g>
</svg>
