<?xml version="1.0" encoding="UTF-8" standalone="no"?>
<!DOCTYPE svg PUBLIC "-//W3C//DTD SVG 1.1//EN"
 "http://www.w3.org/Graphics/SVG/1.1/DTD/svg11.dtd">
<!-- Generated by graphviz version 2.43.0 (0)
 -->
<!-- Title: Row Pages: 1 -->
<svg width="220pt" height="184pt"
 viewBox="0.00 0.00 219.50 184.00" xmlns="http://www.w3.org/2000/svg" xmlns:xlink="http://www.w3.org/1999/xlink">
<g id="graph0" class="graph" transform="scale(1 1) rotate(0) translate(4 180)">
<title>Row</title>
<polygon fill="white" stroke="transparent" points="-4,4 -4,-180 215.5,-180 215.5,4 -4,4"/>
<!-- Node1 -->
<g id="node1" class="node">
<title>Node1</title>
<g id="a_node1"><a xlink:title=" ">
<polygon fill="#bfbfbf" stroke="black" points="72.5,-0.5 72.5,-19.5 110.5,-19.5 110.5,-0.5 72.5,-0.5"/>
<text text-anchor="middle" x="91.5" y="-7.5" font-family="Helvetica,sans-Serif" font-size="10.00">Row</text>
</a>
</g>
</g>
<!-- Node2 -->
<g id="node2" class="node">
<title>Node2</title>
<g id="a_node2"><a xlink:title=" ">
<polygon fill="white" stroke="#bfbfbf" points="0,-67.5 0,-97.5 183,-97.5 183,-67.5 0,-67.5"/>
<text text-anchor="start" x="8" y="-85.5" font-family="Helvetica,sans-Serif" font-size="10.00">List&lt; com.peternaggschga.gwent.</text>
<text text-anchor="middle" x="91.5" y="-74.5" font-family="Helvetica,sans-Serif" font-size="10.00">Unit &gt;</text>
</a>
</g>
</g>
<!-- Node2&#45;&gt;Node1 -->
<g id="edge1" class="edge">
<title>Node2&#45;&gt;Node1</title>
<path fill="none" stroke="#404040" d="M91.5,-67.23C91.5,-57.16 91.5,-43.5 91.5,-32.17"/>
<polygon fill="none" stroke="#404040" points="91.5,-31.89 87.5,-25.89 91.5,-19.89 95.5,-25.89 91.5,-31.89"/>
<text text-anchor="middle" x="107" y="-41" font-family="Helvetica,sans-Serif" font-size="10.00"> &#45;units</text>
</g>
<!-- Node3 -->
<g id="node3" class="node">
<title>Node3</title>
<g id="a_node3"><a xlink:title=" ">
<polygon fill="white" stroke="#bfbfbf" points="74.5,-156.5 74.5,-175.5 108.5,-175.5 108.5,-156.5 74.5,-156.5"/>
<text text-anchor="middle" x="91.5" y="-163.5" font-family="Helvetica,sans-Serif" font-size="10.00">List</text>
</a>
</g>
</g>
<!-- Node3&#45;&gt;Node2 -->
<g id="edge2" class="edge">
<title>Node3&#45;&gt;Node2</title>
<path fill="none" stroke="orange" d="M91.5,-146.23C91.5,-131.41 91.5,-111.05 91.5,-97.6"/>
<polygon fill="orange" stroke="orange" points="88,-146.28 91.5,-156.28 95,-146.28 88,-146.28"/>
<text text-anchor="start" x="91.5" y="-130" font-family="Helvetica,sans-Serif" font-size="10.00"> &lt; com::peternaggschga</text>
<text text-anchor="middle" x="151.5" y="-119" font-family="Helvetica,sans-Serif" font-size="10.00">::gwent::Unit &gt;</text>
</g>
</g>
</svg>
