<?xml version="1.0" encoding="UTF-8" standalone="no"?>
<!DOCTYPE svg PUBLIC "-//W3C//DTD SVG 1.1//EN"
 "http://www.w3.org/Graphics/SVG/1.1/DTD/svg11.dtd">
<!-- Generated by graphviz version 2.43.0 (0)
 -->
<!-- Title: SettingsActivity Pages: 1 -->
<svg width="274pt" height="93pt"
 viewBox="0.00 0.00 274.00 93.00" xmlns="http://www.w3.org/2000/svg" xmlns:xlink="http://www.w3.org/1999/xlink">
<g id="graph0" class="graph" transform="scale(1 1) rotate(0) translate(4 89)">
<title>SettingsActivity</title>
<!-- Node1 -->
<g id="Node000001" class="node">
<title>Node1</title>
<g id="a_Node000001"><a xlink:title="An AppCompatActivity implementing PreferenceFragmentCompat.OnPreferenceStartFragmentCallback that is ...">
<polygon fill="#999999" stroke="transparent" points="166,-19 80,-19 80,0 166,0 166,-19"/>
<text text-anchor="start" x="84" y="-6.5" font-family="Helvetica,sans-Serif" font-size="10.00">SettingsActivity</text>
<polygon fill="none" stroke="#666666" points="80,0 80,-19 166,-19 166,0 80,0"/>
</a>
</g>
</g>
<!-- Node2 -->
<g id="Node000002" class="node">
<title>Node2</title>
<g id="a_Node000002"><a xlink:title=" ">
<polygon fill="white" stroke="transparent" points="104,-79.5 0,-79.5 0,-60.5 104,-60.5 104,-79.5"/>
<text text-anchor="start" x="4.5" y="-67" font-family="Helvetica,sans-Serif" font-size="10.00">AppCompatActivity</text>
<polygon fill="none" stroke="#bfbfbf" points="0,-60.5 0,-79.5 104,-79.5 104,-60.5 0,-60.5"/>
</a>
</g>
</g>
<!-- Node2&#45;&gt;Node1 -->
<g id="edge1_Node000001_Node000002" class="edge">
<title>Node2&#45;&gt;Node1</title>
<g id="a_edge1_Node000001_Node000002"><a xlink:title=" ">
<path fill="none" stroke="#63b8ff" d="M70.54,-53.72C83.9,-42.71 101.45,-28.25 112.48,-19.17"/>
<polygon fill="none" stroke="#63b8ff" points="67.97,-51.31 62.48,-60.37 72.42,-56.71 67.97,-51.31"/>
</a>
</g>
</g>
<!-- Node3 -->
<g id="Node000003" class="node">
<title>Node3</title>
<g id="a_Node000003"><a xlink:title=" ">
<polygon fill="white" stroke="transparent" points="266,-85 122,-85 122,-55 266,-55 266,-85"/>
<text text-anchor="start" x="126" y="-73" font-family="Helvetica,sans-Serif" font-size="10.00">OnPreferenceStartFragment</text>
<text text-anchor="start" x="172.5" y="-62" font-family="Helvetica,sans-Serif" font-size="10.00">Callback</text>
<polygon fill="none" stroke="#bfbfbf" points="122,-55 122,-85 266,-85 266,-55 122,-55"/>
</a>
</g>
</g>
<!-- Node3&#45;&gt;Node1 -->
<g id="edge2_Node000001_Node000003" class="edge">
<title>Node3&#45;&gt;Node1</title>
<g id="a_edge2_Node000001_Node000003"><a xlink:title=" ">
<path fill="none" stroke="#63b8ff" d="M168.81,-48.24C156.73,-38.29 142.91,-26.91 133.64,-19.27"/>
<polygon fill="none" stroke="#63b8ff" points="166.87,-51.18 176.81,-54.84 171.32,-45.78 166.87,-51.18"/>
</a>
</g>
</g>
</g>
</svg>
