<?xml version="1.0" encoding="UTF-8" standalone="no"?>
<!DOCTYPE svg PUBLIC "-//W3C//DTD SVG 1.1//EN"
 "http://www.w3.org/Graphics/SVG/1.1/DTD/svg11.dtd">
<!-- Generated by graphviz version 2.43.0 (0)
 -->
<!-- Title: RowUiStateObserver Pages: 1 -->
<svg width="146pt" height="82pt"
 viewBox="0.00 0.00 146.00 82.00" xmlns="http://www.w3.org/2000/svg" xmlns:xlink="http://www.w3.org/1999/xlink">
<g id="graph0" class="graph" transform="scale(1 1) rotate(0) translate(4 78)">
<title>RowUiStateObserver</title>
<!-- Node1 -->
<g id="Node000001" class="node">
<title>Node1</title>
<g id="a_Node000001"><a xlink:title="An observer class responsible for updating the views of the row defined in #row when notified,...">
<polygon fill="#999999" stroke="transparent" points="124,-19 14,-19 14,0 124,0 124,-19"/>
<text text-anchor="start" x="18" y="-6.5" font-family="Helvetica,sans-Serif" font-size="10.00">RowUiStateObserver</text>
<polygon fill="none" stroke="#666666" points="14,0 14,-19 124,-19 124,0 14,0"/>
</a>
</g>
</g>
<!-- Node2 -->
<g id="Node000002" class="node">
<title>Node2</title>
<g id="a_Node000002"><a xlink:title=" ">
<polygon fill="white" stroke="transparent" points="138,-74 0,-74 0,-55 138,-55 138,-74"/>
<text text-anchor="start" x="4" y="-61.5" font-family="Helvetica,sans-Serif" font-size="10.00">Consumer&lt; RowUiState &gt;</text>
<polygon fill="none" stroke="#bfbfbf" points="0,-55 0,-74 138,-74 138,-55 0,-55"/>
</a>
</g>
</g>
<!-- Node2&#45;&gt;Node1 -->
<g id="edge1_Node000001_Node000002" class="edge">
<title>Node2&#45;&gt;Node1</title>
<g id="a_edge1_Node000001_Node000002"><a xlink:title=" ">
<path fill="none" stroke="#63b8ff" d="M69,-44.66C69,-35.93 69,-25.99 69,-19.09"/>
<polygon fill="none" stroke="#63b8ff" points="65.5,-44.75 69,-54.75 72.5,-44.75 65.5,-44.75"/>
</a>
</g>
</g>
</g>
</svg>
