<?xml version="1.0" encoding="UTF-8" standalone="no"?>
<!DOCTYPE svg PUBLIC "-//W3C//DTD SVG 1.1//EN"
 "http://www.w3.org/Graphics/SVG/1.1/DTD/svg11.dtd">
<!-- Generated by graphviz version 2.43.0 (0)
 -->
<!-- Title: ShowUnitsDialog Pages: 1 -->
<svg width="260pt" height="160pt"
 viewBox="0.00 0.00 260.00 160.00" xmlns="http://www.w3.org/2000/svg" xmlns:xlink="http://www.w3.org/1999/xlink">

<svg id="main" version="1.1" xmlns="http://www.w3.org/2000/svg" xmlns:xlink="http://www.w3.org/1999/xlink" xml:space="preserve" onload="init(evt)">
<style type="text/css"><![CDATA[
.node, .edge {opacity: 0.7;}
.node.selected, .edge.selected {opacity: 1;}
.edge:hover path { stroke: red; }
.edge:hover polygon { stroke: red; fill: red; }
]]></style>
<script type="application/ecmascript" xlink:href="svg.min.js"/>
<svg id="graph" class="graph">
<g id="graph0" class="graph" transform="scale(1 1) rotate(0) translate(4 156)">
<title>ShowUnitsDialog</title>
<!-- Node1 -->
<g id="Node000001" class="node">
<title>Node1</title>
<g id="a_Node000001"><a xlink:title="An OverlayDialog used to list the units of a certain row and enabling the user to copy,...">
<polygon fill="#999999" stroke="transparent" points="135,-19 43,-19 43,0 135,0 135,-19"/>
<text text-anchor="start" x="47" y="-6.5" font-family="Helvetica,sans-Serif" font-size="10.00">ShowUnitsDialog</text>
<polygon fill="none" stroke="#666666" points="43,0 43,-19 135,-19 135,0 43,0"/>
</a>
</g>
</g>
<!-- Node2 -->
<g id="Node000002" class="node">
<title>Node2</title>
<g id="a_Node000002"><a xlink:href="classcom_1_1peternaggschga_1_1gwent_1_1ui_1_1dialogs_1_1OverlayDialog.xhtml" target="_top" xlink:title="A Dialog class which is used for popups that are shown on top of the calling Activity.">
<polygon fill="white" stroke="transparent" points="78,-85 0,-85 0,-66 78,-66 78,-85"/>
<text text-anchor="start" x="4" y="-72.5" font-family="Helvetica,sans-Serif" font-size="10.00">OverlayDialog</text>
<polygon fill="none" stroke="#666666" points="0,-66 0,-85 78,-85 78,-66 0,-66"/>
</a>
</g>
</g>
<!-- Node2&#45;&gt;Node1 -->
<g id="edge1_Node000001_Node000002" class="edge">
<title>Node2&#45;&gt;Node1</title>
<g id="a_edge1_Node000001_Node000002"><a xlink:title=" ">
<path fill="none" stroke="#63b8ff" d="M52.07,-57.77C61.66,-45.49 74.31,-29.3 82.04,-19.41"/>
<polygon fill="none" stroke="#63b8ff" points="49.14,-55.83 45.74,-65.87 54.66,-60.14 49.14,-55.83"/>
</a>
</g>
</g>
<!-- Node3 -->
<g id="Node000003" class="node">
<title>Node3</title>
<g id="a_Node000003"><a xlink:title=" ">
<polygon fill="white" stroke="transparent" points="52,-146.5 12,-146.5 12,-127.5 52,-127.5 52,-146.5"/>
<text text-anchor="start" x="16" y="-134" font-family="Helvetica,sans-Serif" font-size="10.00">Dialog</text>
<polygon fill="none" stroke="#bfbfbf" points="12,-127.5 12,-146.5 52,-146.5 52,-127.5 12,-127.5"/>
</a>
</g>
</g>
<!-- Node3&#45;&gt;Node2 -->
<g id="edge2_Node000002_Node000003" class="edge">
<title>Node3&#45;&gt;Node2</title>
<g id="a_edge2_Node000002_Node000003"><a xlink:title=" ">
<path fill="none" stroke="#63b8ff" d="M34.2,-117.32C35.47,-106.5 37.01,-93.4 38,-85.01"/>
<polygon fill="none" stroke="#63b8ff" points="30.7,-117.13 33,-127.48 37.65,-117.95 30.7,-117.13"/>
</a>
</g>
</g>
<!-- Node4 -->
<g id="Node000004" class="node">
<title>Node4</title>
<g id="a_Node000004"><a xlink:href="classcom_1_1peternaggschga_1_1gwent_1_1ui_1_1dialogs_1_1cards_1_1CardListAdapter.xhtml" target="_top" xlink:title="A ListAdapter used to provide CardListAdapter.CardViewHolder objects created from CardUiState objects...">
<polygon fill="white" stroke="transparent" points="198,-85 110,-85 110,-66 198,-66 198,-85"/>
<text text-anchor="start" x="114.5" y="-72.5" font-family="Helvetica,sans-Serif" font-size="10.00">CardListAdapter</text>
<polygon fill="none" stroke="#666666" points="110,-66 110,-85 198,-85 198,-66 110,-66"/>
</a>
</g>
</g>
<!-- Node4&#45;&gt;Node1 -->
<g id="edge3_Node000001_Node000004" class="edge">
<title>Node4&#45;&gt;Node1</title>
<g id="a_edge3_Node000001_Node000004"><a xlink:title=" ">
<path fill="none" stroke="#63b8ff" d="M145.23,-65.87C135.4,-56.19 119.2,-40.24 106.71,-27.94"/>
<polygon fill="none" stroke="#63b8ff" points="106.6,-27.82 99.51,-26.47 98.04,-19.41 105.13,-20.76 106.6,-27.82"/>
</a>
</g>
<text text-anchor="middle" x="168" y="-40" font-family="Helvetica,sans-Serif" font-size="10.00" fill="grey"> &#45;cardListAdapter</text>
</g>
<!-- Node5 -->
<g id="Node000005" class="node">
<title>Node5</title>
<g id="a_Node000005"><a xlink:title=" ">
<polygon fill="white" stroke="transparent" points="252,-152 70,-152 70,-122 252,-122 252,-152"/>
<text text-anchor="start" x="74" y="-140" font-family="Helvetica,sans-Serif" font-size="10.00">ListAdapter&lt; CardUiState,</text>
<text text-anchor="start" x="74" y="-129" font-family="Helvetica,sans-Serif" font-size="10.00"> CardListAdapter.CardViewHolder &gt;</text>
<polygon fill="none" stroke="#bfbfbf" points="70,-122 70,-152 252,-152 252,-122 70,-122"/>
</a>
</g>
</g>
<!-- Node5&#45;&gt;Node4 -->
<g id="edge4_Node000004_Node000005" class="edge">
<title>Node5&#45;&gt;Node4</title>
<g id="a_edge4_Node000004_Node000005"><a xlink:title=" ">
<path fill="none" stroke="#63b8ff" d="M158.15,-111.79C157.04,-102.36 155.84,-92.15 155.02,-85.16"/>
<polygon fill="none" stroke="#63b8ff" points="154.7,-112.38 159.34,-121.9 161.65,-111.56 154.7,-112.38"/>
</a>
</g>
</g>
</g>
</svg>
</svg>

<style type='text/css'>
<![CDATA[
[data-mouse-over-selected='false'] { opacity: 0.7; }
[data-mouse-over-selected='true']  { opacity: 1.0; }
]]>
</style>
<script type="application/ecmascript"><![CDATA[
document.addEventListener('DOMContentLoaded', (event) => {
  highlightEdges();
  highlightAdjacentNodes();
});
]]></script>
</svg>
