<?xml version="1.0" encoding="UTF-8" standalone="no"?>
<!DOCTYPE svg PUBLIC "-//W3C//DTD SVG 1.1//EN"
 "http://www.w3.org/Graphics/SVG/1.1/DTD/svg11.dtd">
<!-- Generated by graphviz version 2.43.0 (0)
 -->
<!-- Title: ResetAlertDialogBuilderAdapter Pages: 1 -->
<svg width="272pt" height="106pt"
 viewBox="0.00 0.00 271.50 106.00" xmlns="http://www.w3.org/2000/svg" xmlns:xlink="http://www.w3.org/1999/xlink">
<g id="graph0" class="graph" transform="scale(1 1) rotate(0) translate(4 102)">
<title>ResetAlertDialogBuilderAdapter</title>
<polygon fill="white" stroke="transparent" points="-4,4 -4,-102 267.5,-102 267.5,4 -4,4"/>
<!-- Node1 -->
<g id="node1" class="node">
<title>Node1</title>
<g id="a_node1"><a xlink:title="An adapter class adapting AlertDialog.Builder to provide an interface for creating an AlertDialog ask...">
<polygon fill="#bfbfbf" stroke="black" points="19.5,-0.5 19.5,-19.5 191.5,-19.5 191.5,-0.5 19.5,-0.5"/>
<text text-anchor="middle" x="105.5" y="-7.5" font-family="Helvetica,sans-Serif" font-size="10.00">ResetAlertDialogBuilderAdapter</text>
</a>
</g>
</g>
<!-- Node2 -->
<g id="node2" class="node">
<title>Node2</title>
<g id="a_node2"><a xlink:title=" ">
<polygon fill="white" stroke="#bfbfbf" points="0,-73 0,-92 71,-92 71,-73 0,-73"/>
<text text-anchor="middle" x="35.5" y="-80" font-family="Helvetica,sans-Serif" font-size="10.00">AlertDialog</text>
</a>
</g>
</g>
<!-- Node2&#45;&gt;Node1 -->
<g id="edge1" class="edge">
<title>Node2&#45;&gt;Node1</title>
<path fill="none" stroke="#404040" d="M42.16,-72.76C49.26,-63.68 61.03,-49.25 72.5,-38 76.2,-34.37 80.34,-30.71 84.41,-27.3"/>
<polygon fill="none" stroke="#404040" points="84.72,-27.05 86.89,-20.17 94.07,-19.52 91.91,-26.4 84.72,-27.05"/>
<text text-anchor="middle" x="113.5" y="-41" font-family="Helvetica,sans-Serif" font-size="10.00"> &#45;adapteeBuilder</text>
</g>
<!-- Node3 -->
<g id="node3" class="node">
<title>Node3</title>
<g id="a_node3"><a xlink:href="interfacecom_1_1peternaggschga_1_1gwent_1_1domain_1_1cases_1_1ResetAlertDialogBuilderAdapter_1_1Callback.xhtml" target="_top" xlink:title="An interface defining functions to propagate the user&#39;s decision back to the creator.">
<polygon fill="white" stroke="black" points="89.5,-67.5 89.5,-97.5 263.5,-97.5 263.5,-67.5 89.5,-67.5"/>
<text text-anchor="start" x="97.5" y="-85.5" font-family="Helvetica,sans-Serif" font-size="10.00">ResetAlertDialogBuilderAdapter.</text>
<text text-anchor="middle" x="176.5" y="-74.5" font-family="Helvetica,sans-Serif" font-size="10.00">Callback</text>
</a>
</g>
</g>
<!-- Node3&#45;&gt;Node1 -->
<g id="edge2" class="edge">
<title>Node3&#45;&gt;Node1</title>
<path fill="none" stroke="#404040" d="M171.8,-67.25C168.2,-58.04 162.49,-46.28 154.5,-38 149.78,-33.11 143.97,-28.87 138.03,-25.3"/>
<polygon fill="none" stroke="#404040" points="137.97,-25.27 130.79,-25.95 127.4,-19.59 134.58,-18.9 137.97,-25.27"/>
<text text-anchor="middle" x="202" y="-41" font-family="Helvetica,sans-Serif" font-size="10.00"> &#45;dialogCallback</text>
</g>
</g>
</svg>
