<?xml version="1.0" encoding="UTF-8" standalone="no"?>
<!DOCTYPE svg PUBLIC "-//W3C//DTD SVG 1.1//EN"
 "http://www.w3.org/Graphics/SVG/1.1/DTD/svg11.dtd">
<!-- Generated by graphviz version 2.43.0 (0)
 -->
<!-- Title: CardListAdapter.CardViewHolder Pages: 1 -->
<svg width="144pt" height="93pt"
 viewBox="0.00 0.00 144.00 93.00" xmlns="http://www.w3.org/2000/svg" xmlns:xlink="http://www.w3.org/1999/xlink">
<g id="graph0" class="graph" transform="scale(1 1) rotate(0) translate(4 89)">
<title>CardListAdapter.CardViewHolder</title>
<!-- Node1 -->
<g id="Node000001" class="node">
<title>Node1</title>
<g id="a_Node000001"><a xlink:title="A RecyclerView.ViewHolder class managing a card view that shows a representation of the UnitEntity re...">
<polygon fill="#999999" stroke="transparent" points="136,-30 0,-30 0,0 136,0 136,-30"/>
<text text-anchor="start" x="4.5" y="-18" font-family="Helvetica,sans-Serif" font-size="10.00">CardListAdapter.CardView</text>
<text text-anchor="start" x="51.5" y="-7" font-family="Helvetica,sans-Serif" font-size="10.00">Holder</text>
<polygon fill="none" stroke="#666666" points="0,0 0,-30 136,-30 136,0 0,0"/>
</a>
</g>
</g>
<!-- Node2 -->
<g id="Node000002" class="node">
<title>Node2</title>
<g id="a_Node000002"><a xlink:title=" ">
<polygon fill="white" stroke="transparent" points="101,-85 35,-85 35,-66 101,-66 101,-85"/>
<text text-anchor="start" x="39.5" y="-72.5" font-family="Helvetica,sans-Serif" font-size="10.00">ViewHolder</text>
<polygon fill="none" stroke="#bfbfbf" points="35,-66 35,-85 101,-85 101,-66 35,-66"/>
</a>
</g>
</g>
<!-- Node2&#45;&gt;Node1 -->
<g id="edge1_Node000001_Node000002" class="edge">
<title>Node2&#45;&gt;Node1</title>
<g id="a_edge1_Node000001_Node000002"><a xlink:title=" ">
<path fill="none" stroke="#63b8ff" d="M68,-55.65C68,-47.36 68,-37.78 68,-30.11"/>
<polygon fill="none" stroke="#63b8ff" points="64.5,-55.87 68,-65.87 71.5,-55.87 64.5,-55.87"/>
</a>
</g>
</g>
</g>
</svg>
