<?xml version="1.0" encoding="UTF-8" standalone="no"?>
<!DOCTYPE svg PUBLIC "-//W3C//DTD SVG 1.1//EN"
 "http://www.w3.org/Graphics/SVG/1.1/DTD/svg11.dtd">
<!-- Generated by graphviz version 2.43.0 (0)
 -->
<!-- Title: ChangeFactionDialog Pages: 1 -->
<svg width="300pt" height="162pt"
 viewBox="0.00 0.00 300.00 162.00" xmlns="http://www.w3.org/2000/svg" xmlns:xlink="http://www.w3.org/1999/xlink">
<g id="graph0" class="graph" transform="scale(1 1) rotate(0) translate(4 158)">
<title>ChangeFactionDialog</title>
<polygon fill="white" stroke="transparent" points="-4,4 -4,-158 296,-158 296,4 -4,4"/>
<!-- Node1 -->
<g id="node1" class="node">
<title>Node1</title>
<g id="a_node1"><a xlink:title="An OverlayDialog class used to change the faction design.">
<polygon fill="#bfbfbf" stroke="black" points="78.5,-0.5 78.5,-19.5 197.5,-19.5 197.5,-0.5 78.5,-0.5"/>
<text text-anchor="middle" x="138" y="-7.5" font-family="Helvetica,sans-Serif" font-size="10.00">ChangeFactionDialog</text>
</a>
</g>
</g>
<!-- Node2 -->
<g id="node2" class="node">
<title>Node2</title>
<g id="a_node2"><a xlink:href="classcom_1_1peternaggschga_1_1gwent_1_1ui_1_1dialogs_1_1OverlayDialog.xhtml" target="_top" xlink:title="A Dialog class which is used for popups that are shown on top of the calling Activity.">
<polygon fill="white" stroke="black" points="24,-67.5 24,-86.5 110,-86.5 110,-67.5 24,-67.5"/>
<text text-anchor="middle" x="67" y="-74.5" font-family="Helvetica,sans-Serif" font-size="10.00">OverlayDialog</text>
</a>
</g>
</g>
<!-- Node2&#45;&gt;Node1 -->
<g id="edge1" class="edge">
<title>Node2&#45;&gt;Node1</title>
<path fill="none" stroke="midnightblue" d="M84.09,-60.36C98.05,-47.58 117.26,-29.99 128.58,-19.63"/>
<polygon fill="none" stroke="midnightblue" points="81.59,-57.9 76.58,-67.23 86.31,-63.06 81.59,-57.9"/>
</g>
<!-- Node3 -->
<g id="node3" class="node">
<title>Node3</title>
<g id="a_node3"><a xlink:title=" ">
<polygon fill="white" stroke="#bfbfbf" points="0,-134.5 0,-153.5 48,-153.5 48,-134.5 0,-134.5"/>
<text text-anchor="middle" x="24" y="-141.5" font-family="Helvetica,sans-Serif" font-size="10.00">Dialog</text>
</a>
</g>
</g>
<!-- Node3&#45;&gt;Node2 -->
<g id="edge2" class="edge">
<title>Node3&#45;&gt;Node2</title>
<path fill="none" stroke="midnightblue" d="M35.55,-125.53C43.88,-112.95 54.76,-96.51 61.29,-86.63"/>
<polygon fill="none" stroke="midnightblue" points="32.4,-123.96 29.8,-134.23 38.24,-127.82 32.4,-123.96"/>
</g>
<!-- Node4 -->
<g id="node4" class="node">
<title>Node4</title>
<g id="a_node4"><a xlink:title=" ">
<polygon fill="white" stroke="#bfbfbf" points="66.5,-134.5 66.5,-153.5 155.5,-153.5 155.5,-134.5 66.5,-134.5"/>
<text text-anchor="middle" x="111" y="-141.5" font-family="Helvetica,sans-Serif" font-size="10.00">ColorDrawable</text>
</a>
</g>
</g>
<!-- Node4&#45;&gt;Node2 -->
<g id="edge3" class="edge">
<title>Node4&#45;&gt;Node2</title>
<path fill="none" stroke="#404040" d="M105.07,-134.23C98.6,-124.68 88.06,-109.12 79.71,-96.78"/>
<polygon fill="none" stroke="#404040" points="79.57,-96.56 72.89,-93.84 72.84,-86.63 79.52,-89.35 79.57,-96.56"/>
<text text-anchor="middle" x="131" y="-108" font-family="Helvetica,sans-Serif" font-size="10.00"> &#45;BACKGROUND</text>
</g>
<!-- Node5 -->
<g id="node5" class="node">
<title>Node5</title>
<g id="a_node5"><a xlink:href="interfacecom_1_1peternaggschga_1_1gwent_1_1ui_1_1dialogs_1_1ChangeFactionDialog_1_1Callback.xhtml" target="_top" xlink:title="An interface used for propagating a selected theme back to the creator of a ChangeFactionDialog.">
<polygon fill="white" stroke="black" points="128,-67.5 128,-86.5 292,-86.5 292,-67.5 128,-67.5"/>
<text text-anchor="middle" x="210" y="-74.5" font-family="Helvetica,sans-Serif" font-size="10.00">ChangeFactionDialog.Callback</text>
</a>
</g>
</g>
<!-- Node5&#45;&gt;Node1 -->
<g id="edge4" class="edge">
<title>Node5&#45;&gt;Node1</title>
<path fill="none" stroke="#404040" d="M200.29,-67.23C189.17,-57.2 170.69,-40.51 156.74,-27.92"/>
<polygon fill="none" stroke="#404040" points="156.46,-27.67 149.33,-26.62 147.56,-19.63 154.69,-20.68 156.46,-27.67"/>
<text text-anchor="middle" x="202" y="-41" font-family="Helvetica,sans-Serif" font-size="10.00"> &#45;callback</text>
</g>
</g>
</svg>
