<?xml version="1.0" encoding="UTF-8" standalone="no"?>
<!DOCTYPE svg PUBLIC "-//W3C//DTD SVG 1.1//EN"
 "http://www.w3.org/Graphics/SVG/1.1/DTD/svg11.dtd">
<!-- Generated by graphviz version 2.43.0 (0)
 -->
<!-- Title: UnitRepository Pages: 1 -->
<svg width="106pt" height="152pt"
 viewBox="0.00 0.00 106.00 152.00" xmlns="http://www.w3.org/2000/svg" xmlns:xlink="http://www.w3.org/1999/xlink">
<g id="graph0" class="graph" transform="scale(1 1) rotate(0) translate(4 148)">
<title>UnitRepository</title>
<polygon fill="white" stroke="transparent" points="-4,4 -4,-148 102,-148 102,4 -4,4"/>
<!-- Node1 -->
<g id="node1" class="node">
<title>Node1</title>
<g id="a_node1"><a xlink:title="A facade class managing public access to the data layer.">
<polygon fill="#bfbfbf" stroke="black" points="1.5,-0.5 1.5,-19.5 90.5,-19.5 90.5,-0.5 1.5,-0.5"/>
<text text-anchor="middle" x="46" y="-7.5" font-family="Helvetica,sans-Serif" font-size="10.00">UnitRepository</text>
</a>
</g>
</g>
<!-- Node2 -->
<g id="node2" class="node">
<title>Node2</title>
<g id="a_node2"><a xlink:href="classcom_1_1peternaggschga_1_1gwent_1_1data_1_1AppDatabase.xhtml" target="_top" xlink:title="An abstract class extending RoomDatabase and representing the SQLite database of the application.">
<polygon fill="white" stroke="black" points="5,-67.5 5,-86.5 87,-86.5 87,-67.5 5,-67.5"/>
<text text-anchor="middle" x="46" y="-74.5" font-family="Helvetica,sans-Serif" font-size="10.00">AppDatabase</text>
</a>
</g>
</g>
<!-- Node2&#45;&gt;Node1 -->
<g id="edge1" class="edge">
<title>Node2&#45;&gt;Node1</title>
<path fill="none" stroke="#404040" d="M46,-67.23C46,-58.17 46,-43.69 46,-31.69"/>
<polygon fill="none" stroke="#404040" points="46,-31.63 42,-25.63 46,-19.63 50,-25.63 46,-31.63"/>
<text text-anchor="middle" x="72" y="-41" font-family="Helvetica,sans-Serif" font-size="10.00"> &#45;database</text>
</g>
<!-- Node3 -->
<g id="node3" class="node">
<title>Node3</title>
<g id="a_node3"><a xlink:title=" ">
<polygon fill="white" stroke="#bfbfbf" points="0,-124.5 0,-143.5 92,-143.5 92,-124.5 0,-124.5"/>
<text text-anchor="middle" x="46" y="-131.5" font-family="Helvetica,sans-Serif" font-size="10.00">RoomDatabase</text>
</a>
</g>
</g>
<!-- Node3&#45;&gt;Node2 -->
<g id="edge2" class="edge">
<title>Node3&#45;&gt;Node2</title>
<path fill="none" stroke="midnightblue" d="M46,-114.12C46,-104.82 46,-94.06 46,-86.71"/>
<polygon fill="none" stroke="midnightblue" points="42.5,-114.41 46,-124.41 49.5,-114.41 42.5,-114.41"/>
</g>
</g>
</svg>
