<?xml version="1.0" encoding="UTF-8" standalone="no"?>
<!DOCTYPE svg PUBLIC "-//W3C//DTD SVG 1.1//EN"
 "http://www.w3.org/Graphics/SVG/1.1/DTD/svg11.dtd">
<!-- Generated by graphviz version 2.43.0 (0)
 -->
<!-- Title: HornDamageCalculatorDecorator Pages: 1 -->
<svg width="180pt" height="137pt"
 viewBox="0.00 0.00 180.00 137.00" xmlns="http://www.w3.org/2000/svg" xmlns:xlink="http://www.w3.org/1999/xlink">
<g id="graph0" class="graph" transform="scale(1 1) rotate(0) translate(4 133)">
<title>HornDamageCalculatorDecorator</title>
<!-- Node1 -->
<g id="Node000001" class="node">
<title>Node1</title>
<g id="a_Node000001"><a xlink:title="A DamageCalculator class responsible for calculating the horn buff if necessary, i....">
<polygon fill="#999999" stroke="transparent" points="172,-19 0,-19 0,0 172,0 172,-19"/>
<text text-anchor="start" x="4.5" y="-6.5" font-family="Helvetica,sans-Serif" font-size="10.00">HornDamageCalculatorDecorator</text>
<polygon fill="none" stroke="#666666" points="0,0 0,-19 172,-19 172,0 0,0"/>
</a>
</g>
</g>
<!-- Node2 -->
<g id="Node000002" class="node">
<title>Node2</title>
<g id="a_Node000002"><a xlink:href="classcom_1_1peternaggschga_1_1gwent_1_1domain_1_1damage_1_1DamageCalculatorDecorator.xhtml" target="_top" xlink:title="An abstract DamageCalculator that is used as a superclass for the decorator classes implementing the ...">
<polygon fill="white" stroke="transparent" points="160,-74 12,-74 12,-55 160,-55 160,-74"/>
<text text-anchor="start" x="16.5" y="-61.5" font-family="Helvetica,sans-Serif" font-size="10.00">DamageCalculatorDecorator</text>
<polygon fill="none" stroke="#666666" points="12,-55 12,-74 160,-74 160,-55 12,-55"/>
</a>
</g>
</g>
<!-- Node2&#45;&gt;Node1 -->
<g id="edge1_Node000001_Node000002" class="edge">
<title>Node2&#45;&gt;Node1</title>
<g id="a_edge1_Node000001_Node000002"><a xlink:title=" ">
<path fill="none" stroke="#63b8ff" d="M86,-44.66C86,-35.93 86,-25.99 86,-19.09"/>
<polygon fill="none" stroke="#63b8ff" points="82.5,-44.75 86,-54.75 89.5,-44.75 82.5,-44.75"/>
</a>
</g>
</g>
<!-- Node3 -->
<g id="Node000003" class="node">
<title>Node3</title>
<g id="a_Node000003"><a xlink:href="interfacecom_1_1peternaggschga_1_1gwent_1_1domain_1_1damage_1_1DamageCalculator.xhtml" target="_top" xlink:title="An interface for a class capable of calculating the (de&#45;)buffed damage of a unit for a given UnitEnti...">
<polygon fill="white" stroke="transparent" points="136,-129 36,-129 36,-110 136,-110 136,-129"/>
<text text-anchor="start" x="40.5" y="-116.5" font-family="Helvetica,sans-Serif" font-size="10.00">DamageCalculator</text>
<polygon fill="none" stroke="#666666" points="36,-110 36,-129 136,-129 136,-110 36,-110"/>
</a>
</g>
</g>
<!-- Node3&#45;&gt;Node2 -->
<g id="edge2_Node000002_Node000003" class="edge">
<title>Node3&#45;&gt;Node2</title>
<g id="a_edge2_Node000002_Node000003"><a xlink:title=" ">
<path fill="none" stroke="#63b8ff" d="M86,-99.66C86,-90.93 86,-80.99 86,-74.09"/>
<polygon fill="none" stroke="#63b8ff" points="82.5,-99.75 86,-109.75 89.5,-99.75 82.5,-99.75"/>
</a>
</g>
</g>
</g>
</svg>
