<?xml version="1.0" encoding="UTF-8" standalone="no"?>
<!DOCTYPE svg PUBLIC "-//W3C//DTD SVG 1.1//EN"
 "http://www.w3.org/Graphics/SVG/1.1/DTD/svg11.dtd">
<!-- Generated by graphviz version 2.43.0 (0)
 -->
<!-- Title: OverlayDialog Pages: 1 -->
<svg width="459pt" height="140pt"
 viewBox="0.00 0.00 458.50 140.00" xmlns="http://www.w3.org/2000/svg" xmlns:xlink="http://www.w3.org/1999/xlink">
<g id="graph0" class="graph" transform="scale(1 1) rotate(0) translate(4 136)">
<title>OverlayDialog</title>
<polygon fill="white" stroke="transparent" points="-4,4 -4,-136 454.5,-136 454.5,4 -4,4"/>
<!-- Node1 -->
<g id="node1" class="node">
<title>Node1</title>
<g id="a_node1"><a xlink:title="A Dialog class which is used for popups that are shown on top of the calling Activity.">
<polygon fill="#bfbfbf" stroke="black" points="191.5,-56.5 191.5,-75.5 277.5,-75.5 277.5,-56.5 191.5,-56.5"/>
<text text-anchor="middle" x="234.5" y="-63.5" font-family="Helvetica,sans-Serif" font-size="10.00">OverlayDialog</text>
</a>
</g>
</g>
<!-- Node3 -->
<g id="node3" class="node">
<title>Node3</title>
<g id="a_node3"><a xlink:href="classcom_1_1peternaggschga_1_1gwent_1_1ui_1_1dialogs_1_1ChangeFactionDialog.xhtml" target="_top" xlink:title="An OverlayDialog class used to change the faction design.">
<polygon fill="white" stroke="black" points="0,-0.5 0,-19.5 119,-19.5 119,-0.5 0,-0.5"/>
<text text-anchor="middle" x="59.5" y="-7.5" font-family="Helvetica,sans-Serif" font-size="10.00">ChangeFactionDialog</text>
</a>
</g>
</g>
<!-- Node1&#45;&gt;Node3 -->
<g id="edge2" class="edge">
<title>Node1&#45;&gt;Node3</title>
<path fill="none" stroke="midnightblue" d="M197.03,-53.44C164.03,-43.26 116.74,-28.66 87.1,-19.52"/>
<polygon fill="none" stroke="midnightblue" points="196.18,-56.84 206.77,-56.44 198.25,-50.15 196.18,-56.84"/>
</g>
<!-- Node4 -->
<g id="node4" class="node">
<title>Node4</title>
<g id="a_node4"><a xlink:href="classcom_1_1peternaggschga_1_1gwent_1_1ui_1_1dialogs_1_1CoinFlipDialog.xhtml" target="_top" xlink:title="An OverlayDialog class showing the result of a coin&#45;flip.">
<polygon fill="white" stroke="black" points="137.5,-0.5 137.5,-19.5 225.5,-19.5 225.5,-0.5 137.5,-0.5"/>
<text text-anchor="middle" x="181.5" y="-7.5" font-family="Helvetica,sans-Serif" font-size="10.00">CoinFlipDialog</text>
</a>
</g>
</g>
<!-- Node1&#45;&gt;Node4 -->
<g id="edge3" class="edge">
<title>Node1&#45;&gt;Node4</title>
<path fill="none" stroke="midnightblue" d="M218.52,-48.72C209.18,-39.2 197.75,-27.56 190.09,-19.75"/>
<polygon fill="none" stroke="midnightblue" points="216.25,-51.4 225.75,-56.08 221.24,-46.49 216.25,-51.4"/>
</g>
<!-- Node5 -->
<g id="node5" class="node">
<title>Node5</title>
<g id="a_node5"><a xlink:href="classcom_1_1peternaggschga_1_1gwent_1_1ui_1_1dialogs_1_1addcard_1_1AddCardDialog.xhtml" target="_top" xlink:title="An OverlayDialog used to add new UnitEntity objects to a certain row.">
<polygon fill="white" stroke="black" points="243,-0.5 243,-19.5 332,-19.5 332,-0.5 243,-0.5"/>
<text text-anchor="middle" x="287.5" y="-7.5" font-family="Helvetica,sans-Serif" font-size="10.00">AddCardDialog</text>
</a>
</g>
</g>
<!-- Node1&#45;&gt;Node5 -->
<g id="edge4" class="edge">
<title>Node1&#45;&gt;Node5</title>
<path fill="none" stroke="midnightblue" d="M250.48,-48.72C259.82,-39.2 271.25,-27.56 278.91,-19.75"/>
<polygon fill="none" stroke="midnightblue" points="247.76,-46.49 243.25,-56.08 252.75,-51.4 247.76,-46.49"/>
</g>
<!-- Node6 -->
<g id="node6" class="node">
<title>Node6</title>
<g id="a_node6"><a xlink:href="classcom_1_1peternaggschga_1_1gwent_1_1ui_1_1dialogs_1_1cards_1_1ShowUnitsDialog.xhtml" target="_top" xlink:title="An OverlayDialog used to list the units of a certain row and enabling the user to copy,...">
<polygon fill="white" stroke="black" points="350.5,-0.5 350.5,-19.5 450.5,-19.5 450.5,-0.5 350.5,-0.5"/>
<text text-anchor="middle" x="400.5" y="-7.5" font-family="Helvetica,sans-Serif" font-size="10.00">ShowUnitsDialog</text>
</a>
</g>
</g>
<!-- Node1&#45;&gt;Node6 -->
<g id="edge5" class="edge">
<title>Node1&#45;&gt;Node6</title>
<path fill="none" stroke="midnightblue" d="M270.45,-53.3C301.73,-43.13 346.32,-28.62 374.32,-19.52"/>
<polygon fill="none" stroke="midnightblue" points="269.23,-50.02 260.8,-56.44 271.4,-56.68 269.23,-50.02"/>
</g>
<!-- Node2 -->
<g id="node2" class="node">
<title>Node2</title>
<g id="a_node2"><a xlink:title=" ">
<polygon fill="white" stroke="#bfbfbf" points="210.5,-112.5 210.5,-131.5 258.5,-131.5 258.5,-112.5 210.5,-112.5"/>
<text text-anchor="middle" x="234.5" y="-119.5" font-family="Helvetica,sans-Serif" font-size="10.00">Dialog</text>
</a>
</g>
</g>
<!-- Node2&#45;&gt;Node1 -->
<g id="edge1" class="edge">
<title>Node2&#45;&gt;Node1</title>
<path fill="none" stroke="midnightblue" d="M234.5,-101.8C234.5,-92.91 234.5,-82.78 234.5,-75.75"/>
<polygon fill="none" stroke="midnightblue" points="231,-102.08 234.5,-112.08 238,-102.08 231,-102.08"/>
</g>
</g>
</svg>
