<?xml version="1.0" encoding="UTF-8" standalone="no"?>
<!DOCTYPE svg PUBLIC "-//W3C//DTD SVG 1.1//EN"
 "http://www.w3.org/Graphics/SVG/1.1/DTD/svg11.dtd">
<!-- Generated by graphviz version 2.43.0 (0)
 -->
<!-- Title: GwentApplication Pages: 1 -->
<svg width="275pt" height="219pt"
 viewBox="0.00 0.00 275.00 219.00" xmlns="http://www.w3.org/2000/svg" xmlns:xlink="http://www.w3.org/1999/xlink">
<g id="graph0" class="graph" transform="scale(1 1) rotate(0) translate(4 215)">
<title>GwentApplication</title>
<polygon fill="white" stroke="transparent" points="-4,4 -4,-215 271,-215 271,4 -4,4"/>
<!-- Node1 -->
<g id="node1" class="node">
<title>Node1</title>
<g id="a_node1"><a xlink:title="An Application encapsulating the Gwent app.">
<polygon fill="#bfbfbf" stroke="black" points="56,-0.5 56,-19.5 159,-19.5 159,-0.5 56,-0.5"/>
<text text-anchor="middle" x="107.5" y="-7.5" font-family="Helvetica,sans-Serif" font-size="10.00">GwentApplication</text>
</a>
</g>
</g>
<!-- Node2 -->
<g id="node2" class="node">
<title>Node2</title>
<g id="a_node2"><a xlink:title=" ">
<polygon fill="white" stroke="#bfbfbf" points="0,-67.5 0,-86.5 71,-86.5 71,-67.5 0,-67.5"/>
<text text-anchor="middle" x="35.5" y="-74.5" font-family="Helvetica,sans-Serif" font-size="10.00">Application</text>
</a>
</g>
</g>
<!-- Node2&#45;&gt;Node1 -->
<g id="edge1" class="edge">
<title>Node2&#45;&gt;Node1</title>
<path fill="none" stroke="midnightblue" d="M52.83,-60.36C66.98,-47.58 86.46,-29.99 97.94,-19.63"/>
<polygon fill="none" stroke="midnightblue" points="50.29,-57.93 45.21,-67.23 54.98,-63.13 50.29,-57.93"/>
</g>
<!-- Node3 -->
<g id="node3" class="node">
<title>Node3</title>
<g id="a_node3"><a xlink:href="classcom_1_1peternaggschga_1_1gwent_1_1data_1_1UnitRepository.xhtml" target="_top" xlink:title="A facade class managing public access to the data layer.">
<polygon fill="white" stroke="black" points="178,-67.5 178,-86.5 267,-86.5 267,-67.5 178,-67.5"/>
<text text-anchor="middle" x="222.5" y="-74.5" font-family="Helvetica,sans-Serif" font-size="10.00">UnitRepository</text>
</a>
</g>
</g>
<!-- Node3&#45;&gt;Node1 -->
<g id="edge2" class="edge">
<title>Node3&#45;&gt;Node1</title>
<path fill="none" stroke="#404040" d="M206.99,-67.23C188.11,-56.56 155.95,-38.38 133.31,-25.59"/>
<polygon fill="none" stroke="#404040" points="133.21,-25.53 126.02,-26.06 122.76,-19.63 129.96,-19.1 133.21,-25.53"/>
<text text-anchor="middle" x="200" y="-41" font-family="Helvetica,sans-Serif" font-size="10.00"> &#45;repository</text>
</g>
<!-- Node4 -->
<g id="node4" class="node">
<title>Node4</title>
<g id="a_node4"><a xlink:href="classcom_1_1peternaggschga_1_1gwent_1_1data_1_1AppDatabase.xhtml" target="_top" xlink:title="An abstract class extending RoomDatabase and representing the SQLite database of the application.">
<polygon fill="white" stroke="black" points="82.5,-134.5 82.5,-153.5 164.5,-153.5 164.5,-134.5 82.5,-134.5"/>
<text text-anchor="middle" x="123.5" y="-141.5" font-family="Helvetica,sans-Serif" font-size="10.00">AppDatabase</text>
</a>
</g>
</g>
<!-- Node4&#45;&gt;Node1 -->
<g id="edge5" class="edge">
<title>Node4&#45;&gt;Node1</title>
<path fill="none" stroke="#404040" d="M122.45,-134.34C119.94,-113.64 113.54,-60.85 109.98,-31.49"/>
<polygon fill="none" stroke="#404040" points="109.98,-31.43 105.28,-25.96 108.53,-19.52 113.23,-25 109.98,-31.43"/>
<text text-anchor="middle" x="142.5" y="-74.5" font-family="Helvetica,sans-Serif" font-size="10.00"> &#45;database</text>
</g>
<!-- Node4&#45;&gt;Node3 -->
<g id="edge3" class="edge">
<title>Node4&#45;&gt;Node3</title>
<path fill="none" stroke="#404040" d="M136.85,-134.23C152.81,-123.76 179.79,-106.04 199.2,-93.29"/>
<polygon fill="none" stroke="#404040" points="199.33,-93.21 202.15,-86.58 209.36,-86.63 206.54,-93.26 199.33,-93.21"/>
<text text-anchor="middle" x="204.5" y="-108" font-family="Helvetica,sans-Serif" font-size="10.00"> &#45;database</text>
</g>
<!-- Node5 -->
<g id="node5" class="node">
<title>Node5</title>
<g id="a_node5"><a xlink:title=" ">
<polygon fill="white" stroke="#bfbfbf" points="77.5,-191.5 77.5,-210.5 169.5,-210.5 169.5,-191.5 77.5,-191.5"/>
<text text-anchor="middle" x="123.5" y="-198.5" font-family="Helvetica,sans-Serif" font-size="10.00">RoomDatabase</text>
</a>
</g>
</g>
<!-- Node5&#45;&gt;Node4 -->
<g id="edge4" class="edge">
<title>Node5&#45;&gt;Node4</title>
<path fill="none" stroke="midnightblue" d="M123.5,-181.12C123.5,-171.82 123.5,-161.06 123.5,-153.71"/>
<polygon fill="none" stroke="midnightblue" points="120,-181.41 123.5,-191.41 127,-181.41 120,-181.41"/>
</g>
</g>
</svg>
