<?xml version="1.0" encoding="UTF-8" standalone="no"?>
<!DOCTYPE svg PUBLIC "-//W3C//DTD SVG 1.1//EN"
 "http://www.w3.org/Graphics/SVG/1.1/DTD/svg11.dtd">
<!-- Generated by graphviz version 2.43.0 (0)
 -->
<!-- Title: DamageCalculatorDecorator Pages: 1 -->
<svg width="163pt" height="95pt"
 viewBox="0.00 0.00 163.00 95.00" xmlns="http://www.w3.org/2000/svg" xmlns:xlink="http://www.w3.org/1999/xlink">
<g id="graph0" class="graph" transform="scale(1 1) rotate(0) translate(4 91)">
<title>DamageCalculatorDecorator</title>
<polygon fill="white" stroke="transparent" points="-4,4 -4,-91 159,-91 159,4 -4,4"/>
<!-- Node1 -->
<g id="node1" class="node">
<title>Node1</title>
<g id="a_node1"><a xlink:title="An abstract DamageCalculator that is used as a superclass for the decorator classes implementing the ...">
<polygon fill="#bfbfbf" stroke="black" points="0,-0.5 0,-19.5 155,-19.5 155,-0.5 0,-0.5"/>
<text text-anchor="middle" x="77.5" y="-7.5" font-family="Helvetica,sans-Serif" font-size="10.00">DamageCalculatorDecorator</text>
</a>
</g>
</g>
<!-- Node2 -->
<g id="node2" class="node">
<title>Node2</title>
<g id="a_node2"><a xlink:href="interfacecom_1_1peternaggschga_1_1gwent_1_1domain_1_1damage_1_1DamageCalculator.xhtml" target="_top" xlink:title="An interface for a class capable of calculating the (de&#45;)buffed damage of a unit for a given UnitEnti...">
<polygon fill="white" stroke="black" points="24,-67.5 24,-86.5 131,-86.5 131,-67.5 24,-67.5"/>
<text text-anchor="middle" x="77.5" y="-74.5" font-family="Helvetica,sans-Serif" font-size="10.00">DamageCalculator</text>
</a>
</g>
</g>
<!-- Node2&#45;&gt;Node1 -->
<g id="edge1" class="edge">
<title>Node2&#45;&gt;Node1</title>
<path fill="none" stroke="midnightblue" d="M75.94,-57.38C75.76,-54.58 75.6,-51.71 75.5,-49 75.13,-38.97 75.9,-27.45 76.59,-19.75"/>
<polygon fill="none" stroke="midnightblue" points="72.46,-57.79 76.71,-67.5 79.44,-57.26 72.46,-57.79"/>
</g>
<!-- Node2&#45;&gt;Node1 -->
<g id="edge2" class="edge">
<title>Node2&#45;&gt;Node1</title>
<path fill="none" stroke="#404040" d="M77.5,-67.23C77.5,-58.17 77.5,-43.69 77.5,-31.69"/>
<polygon fill="none" stroke="#404040" points="77.5,-31.63 73.5,-25.63 77.5,-19.63 81.5,-25.63 77.5,-31.63"/>
<text text-anchor="middle" x="111" y="-41" font-family="Helvetica,sans-Serif" font-size="10.00"> #component</text>
</g>
</g>
</svg>
