<?xml version="1.0" encoding="UTF-8" standalone="no"?>
<!DOCTYPE svg PUBLIC "-//W3C//DTD SVG 1.1//EN"
 "http://www.w3.org/Graphics/SVG/1.1/DTD/svg11.dtd">
<!-- Generated by graphviz version 2.43.0 (0)
 -->
<!-- Title: ShowUnitsDialog Pages: 1 -->
<svg width="693pt" height="251pt"
 viewBox="0.00 0.00 692.50 251.00" xmlns="http://www.w3.org/2000/svg" xmlns:xlink="http://www.w3.org/1999/xlink">
<g id="graph0" class="graph" transform="scale(1 1) rotate(0) translate(4 247)">
<title>ShowUnitsDialog</title>
<polygon fill="white" stroke="transparent" points="-4,4 -4,-247 688.5,-247 688.5,4 -4,4"/>
<!-- Node1 -->
<g id="node1" class="node">
<title>Node1</title>
<g id="a_node1"><a xlink:title="An OverlayDialog used to list the units of a certain row and enabling the user to copy,...">
<polygon fill="#bfbfbf" stroke="black" points="218,-0.5 218,-19.5 318,-19.5 318,-0.5 218,-0.5"/>
<text text-anchor="middle" x="268" y="-7.5" font-family="Helvetica,sans-Serif" font-size="10.00">ShowUnitsDialog</text>
</a>
</g>
</g>
<!-- Node2 -->
<g id="node2" class="node">
<title>Node2</title>
<g id="a_node2"><a xlink:href="classcom_1_1peternaggschga_1_1gwent_1_1ui_1_1dialogs_1_1OverlayDialog.xhtml" target="_top" xlink:title="A Dialog class which is used for popups that are shown on top of the calling Activity.">
<polygon fill="white" stroke="black" points="24,-67.5 24,-86.5 110,-86.5 110,-67.5 24,-67.5"/>
<text text-anchor="middle" x="67" y="-74.5" font-family="Helvetica,sans-Serif" font-size="10.00">OverlayDialog</text>
</a>
</g>
</g>
<!-- Node2&#45;&gt;Node1 -->
<g id="edge1" class="edge">
<title>Node2&#45;&gt;Node1</title>
<path fill="none" stroke="midnightblue" d="M103.29,-64.27C143.11,-51.39 206.09,-31.02 241.52,-19.56"/>
<polygon fill="none" stroke="midnightblue" points="102.13,-60.96 93.69,-67.37 104.28,-67.62 102.13,-60.96"/>
</g>
<!-- Node3 -->
<g id="node3" class="node">
<title>Node3</title>
<g id="a_node3"><a xlink:title=" ">
<polygon fill="white" stroke="#bfbfbf" points="0,-151 0,-170 48,-170 48,-151 0,-151"/>
<text text-anchor="middle" x="24" y="-158" font-family="Helvetica,sans-Serif" font-size="10.00">Dialog</text>
</a>
</g>
</g>
<!-- Node3&#45;&gt;Node2 -->
<g id="edge2" class="edge">
<title>Node3&#45;&gt;Node2</title>
<path fill="none" stroke="midnightblue" d="M33.32,-141.83C42.31,-124.79 55.53,-99.73 62.43,-86.66"/>
<polygon fill="none" stroke="midnightblue" points="30.17,-140.3 28.6,-150.78 36.36,-143.57 30.17,-140.3"/>
</g>
<!-- Node4 -->
<g id="node4" class="node">
<title>Node4</title>
<g id="a_node4"><a xlink:title=" ">
<polygon fill="white" stroke="#bfbfbf" points="66.5,-151 66.5,-170 155.5,-170 155.5,-151 66.5,-151"/>
<text text-anchor="middle" x="111" y="-158" font-family="Helvetica,sans-Serif" font-size="10.00">ColorDrawable</text>
</a>
</g>
</g>
<!-- Node4&#45;&gt;Node2 -->
<g id="edge3" class="edge">
<title>Node4&#45;&gt;Node2</title>
<path fill="none" stroke="#404040" d="M106.29,-150.78C99.48,-138.16 86.68,-114.46 77.54,-97.53"/>
<polygon fill="none" stroke="#404040" points="77.38,-97.22 71.01,-93.84 71.67,-86.66 78.05,-90.04 77.38,-97.22"/>
<text text-anchor="middle" x="132" y="-113.5" font-family="Helvetica,sans-Serif" font-size="10.00"> &#45;BACKGROUND</text>
</g>
<!-- Node5 -->
<g id="node5" class="node">
<title>Node5</title>
<g id="a_node5"><a xlink:href="enumcom_1_1peternaggschga_1_1gwent_1_1data_1_1RowType.xhtml" target="_top" xlink:title="An enum listing the different types of attack rows.">
<polygon fill="white" stroke="black" points="128,-67.5 128,-86.5 188,-86.5 188,-67.5 128,-67.5"/>
<text text-anchor="middle" x="158" y="-74.5" font-family="Helvetica,sans-Serif" font-size="10.00">RowType</text>
</a>
</g>
</g>
<!-- Node5&#45;&gt;Node1 -->
<g id="edge4" class="edge">
<title>Node5&#45;&gt;Node1</title>
<path fill="none" stroke="#404040" d="M172.84,-67.23C190.81,-56.61 221.38,-38.55 243.01,-25.76"/>
<polygon fill="none" stroke="#404040" points="243.07,-25.73 246.2,-19.24 253.4,-19.63 250.27,-26.12 243.07,-25.73"/>
<text text-anchor="middle" x="232.5" y="-41" font-family="Helvetica,sans-Serif" font-size="10.00"> &#45;row</text>
</g>
<!-- Node6 -->
<g id="node6" class="node">
<title>Node6</title>
<g id="a_node6"><a xlink:title=" ">
<polygon fill="white" stroke="#bfbfbf" points="206.5,-67.5 206.5,-86.5 329.5,-86.5 329.5,-67.5 206.5,-67.5"/>
<text text-anchor="middle" x="268" y="-74.5" font-family="Helvetica,sans-Serif" font-size="10.00">CompositeDisposable</text>
</a>
</g>
</g>
<!-- Node6&#45;&gt;Node1 -->
<g id="edge5" class="edge">
<title>Node6&#45;&gt;Node1</title>
<path fill="none" stroke="#404040" d="M268,-67.23C268,-58.17 268,-43.69 268,-31.69"/>
<polygon fill="none" stroke="#404040" points="268,-31.63 264,-25.63 268,-19.63 272,-25.63 268,-31.63"/>
<text text-anchor="middle" x="300.5" y="-41" font-family="Helvetica,sans-Serif" font-size="10.00"> &#45;disposables</text>
</g>
<!-- Node7 -->
<g id="node7" class="node">
<title>Node7</title>
<g id="a_node7"><a xlink:title=" ">
<polygon fill="white" stroke="#bfbfbf" points="347.5,-67.5 347.5,-86.5 430.5,-86.5 430.5,-67.5 347.5,-67.5"/>
<text text-anchor="middle" x="389" y="-74.5" font-family="Helvetica,sans-Serif" font-size="10.00">RecyclerView</text>
</a>
</g>
</g>
<!-- Node7&#45;&gt;Node1 -->
<g id="edge6" class="edge">
<title>Node7&#45;&gt;Node1</title>
<path fill="none" stroke="#404040" d="M378.78,-67.29C368.66,-58.98 352.49,-46.5 337,-38 327.25,-32.65 316.22,-27.83 305.88,-23.8"/>
<polygon fill="none" stroke="#404040" points="305.85,-23.79 298.83,-25.44 294.6,-19.59 301.62,-17.94 305.85,-23.79"/>
<text text-anchor="middle" x="400" y="-41" font-family="Helvetica,sans-Serif" font-size="10.00"> &#45;unitRecyclerView</text>
</g>
<!-- Node8 -->
<g id="node8" class="node">
<title>Node8</title>
<g id="a_node8"><a xlink:href="classcom_1_1peternaggschga_1_1gwent_1_1ui_1_1dialogs_1_1cards_1_1CardListAdapter.xhtml" target="_top" xlink:title="A ListAdapter used to provide CardListAdapter.CardViewHolder objects created from CardUiState objects...">
<polygon fill="white" stroke="black" points="452.5,-67.5 452.5,-86.5 547.5,-86.5 547.5,-67.5 452.5,-67.5"/>
<text text-anchor="middle" x="500" y="-74.5" font-family="Helvetica,sans-Serif" font-size="10.00">CardListAdapter</text>
</a>
</g>
</g>
<!-- Node8&#45;&gt;Node1 -->
<g id="edge7" class="edge">
<title>Node8&#45;&gt;Node1</title>
<path fill="none" stroke="#404040" d="M491.65,-67.49C482.36,-58.58 466.48,-44.94 450,-38 412.21,-22.09 366.56,-15.34 330.43,-12.57"/>
<polygon fill="none" stroke="#404040" points="330.05,-12.55 323.8,-16.14 318.08,-11.75 324.33,-8.16 330.05,-12.55"/>
<text text-anchor="middle" x="511" y="-41" font-family="Helvetica,sans-Serif" font-size="10.00"> &#45;cardListAdapter</text>
</g>
<!-- Node9 -->
<g id="node9" class="node">
<title>Node9</title>
<g id="a_node9"><a xlink:title=" ">
<polygon fill="white" stroke="#bfbfbf" points="353,-145.5 353,-175.5 543,-175.5 543,-145.5 353,-145.5"/>
<text text-anchor="start" x="361" y="-163.5" font-family="Helvetica,sans-Serif" font-size="10.00">ListAdapter&lt; CardUiState,</text>
<text text-anchor="middle" x="448" y="-152.5" font-family="Helvetica,sans-Serif" font-size="10.00"> CardListAdapter.CardViewHolder &gt;</text>
</a>
</g>
</g>
<!-- Node9&#45;&gt;Node8 -->
<g id="edge8" class="edge">
<title>Node9&#45;&gt;Node8</title>
<path fill="none" stroke="midnightblue" d="M462.58,-136.65C473.22,-119.98 487.04,-98.32 494.55,-86.54"/>
<polygon fill="none" stroke="midnightblue" points="459.49,-134.99 457.06,-145.3 465.39,-138.76 459.49,-134.99"/>
</g>
<!-- Node10 -->
<g id="node10" class="node">
<title>Node10</title>
<g id="a_node10"><a xlink:title=" ">
<polygon fill="white" stroke="#bfbfbf" points="561.5,-151 561.5,-170 684.5,-170 684.5,-151 561.5,-151"/>
<text text-anchor="middle" x="623" y="-158" font-family="Helvetica,sans-Serif" font-size="10.00">Consumer&lt; Integer &gt;</text>
</a>
</g>
</g>
<!-- Node10&#45;&gt;Node8 -->
<g id="edge9" class="edge">
<title>Node10&#45;&gt;Node8</title>
<path fill="none" stroke="#404040" d="M609.84,-150.78C589.21,-137.11 549,-110.47 523.38,-93.49"/>
<polygon fill="none" stroke="#404040" points="523.07,-93.29 515.86,-93.31 513.07,-86.66 520.28,-86.64 523.07,-93.29"/>
<text text-anchor="middle" x="600.5" y="-119" font-family="Helvetica,sans-Serif" font-size="10.00"> &#45;onCopy</text>
<text text-anchor="middle" x="600.5" y="-108" font-family="Helvetica,sans-Serif" font-size="10.00">&#45;onRemove</text>
</g>
<!-- Node11 -->
<g id="node11" class="node">
<title>Node11</title>
<g id="a_node11"><a xlink:title=" ">
<polygon fill="white" stroke="#bfbfbf" points="590,-223.5 590,-242.5 656,-242.5 656,-223.5 590,-223.5"/>
<text text-anchor="middle" x="623" y="-230.5" font-family="Helvetica,sans-Serif" font-size="10.00">Consumer</text>
</a>
</g>
</g>
<!-- Node11&#45;&gt;Node10 -->
<g id="edge10" class="edge">
<title>Node11&#45;&gt;Node10</title>
<path fill="none" stroke="orange" d="M623,-212.94C623,-199.03 623,-180.82 623,-170.22"/>
<polygon fill="orange" stroke="orange" points="619.5,-213.36 623,-223.36 626.5,-213.36 619.5,-213.36"/>
<text text-anchor="middle" x="653.5" y="-197" font-family="Helvetica,sans-Serif" font-size="10.00"> &lt; Integer &gt;</text>
</g>
</g>
</svg>
