<?xml version="1.0" encoding="UTF-8" standalone="no"?>
<!DOCTYPE svg PUBLIC "-//W3C//DTD SVG 1.1//EN"
 "http://www.w3.org/Graphics/SVG/1.1/DTD/svg11.dtd">
<!-- Generated by graphviz version 2.43.0 (0)
 -->
<!-- Title: IntroductionActivity Pages: 1 -->
<svg width="244pt" height="93pt"
 viewBox="0.00 0.00 244.00 93.00" xmlns="http://www.w3.org/2000/svg" xmlns:xlink="http://www.w3.org/1999/xlink">

<svg id="main" version="1.1" xmlns="http://www.w3.org/2000/svg" xmlns:xlink="http://www.w3.org/1999/xlink" xml:space="preserve" onload="init(evt)">
<style type="text/css"><![CDATA[
.node, .edge {opacity: 0.7;}
.node.selected, .edge.selected {opacity: 1;}
.edge:hover path { stroke: red; }
.edge:hover polygon { stroke: red; fill: red; }
]]></style>
<script type="application/ecmascript" xlink:href="svg.min.js"/>
<svg id="graph" class="graph">
<g id="graph0" class="graph" transform="scale(1 1) rotate(0) translate(4 89)">
<title>IntroductionActivity</title>
<!-- Node1 -->
<g id="Node000001" class="node">
<title>Node1</title>
<g id="a_Node000001"><a xlink:title="An AppCompatActivity that gives the user an introduction into the usage of the application.">
<polygon fill="#999999" stroke="transparent" points="163,-19 57,-19 57,0 163,0 163,-19"/>
<text text-anchor="start" x="61.5" y="-6.5" font-family="Helvetica,sans-Serif" font-size="10.00">IntroductionActivity</text>
<polygon fill="none" stroke="#666666" points="57,0 57,-19 163,-19 163,0 57,0"/>
</a>
</g>
</g>
<!-- Node2 -->
<g id="Node000002" class="node">
<title>Node2</title>
<g id="a_Node000002"><a xlink:title=" ">
<polygon fill="white" stroke="transparent" points="104,-85 0,-85 0,-66 104,-66 104,-85"/>
<text text-anchor="start" x="4.5" y="-72.5" font-family="Helvetica,sans-Serif" font-size="10.00">AppCompatActivity</text>
<polygon fill="none" stroke="#bfbfbf" points="0,-66 0,-85 104,-85 104,-66 0,-66"/>
</a>
</g>
</g>
<!-- Node2&#45;&gt;Node1 -->
<g id="edge1_Node000001_Node000002" class="edge">
<title>Node2&#45;&gt;Node1</title>
<g id="a_edge1_Node000001_Node000002"><a xlink:title=" ">
<path fill="none" stroke="#63b8ff" d="M66.84,-58.12C78,-45.81 92.88,-29.39 101.93,-19.41"/>
<polygon fill="none" stroke="#63b8ff" points="63.94,-56.11 59.82,-65.87 69.13,-60.81 63.94,-56.11"/>
</a>
</g>
</g>
<!-- Node3 -->
<g id="Node000003" class="node">
<title>Node3</title>
<g id="a_Node000003"><a xlink:href="classcom_1_1peternaggschga_1_1gwent_1_1ui_1_1introduction_1_1IndicatorManager.xhtml" target="_top" xlink:title="A class managing the indicator views shown in the bottom bar of the IntroductionActivity.">
<polygon fill="white" stroke="transparent" points="216,-85 122,-85 122,-66 216,-66 216,-85"/>
<text text-anchor="start" x="126" y="-72.5" font-family="Helvetica,sans-Serif" font-size="10.00">IndicatorManager</text>
<polygon fill="none" stroke="#666666" points="122,-66 122,-85 216,-85 216,-66 122,-66"/>
</a>
</g>
</g>
<!-- Node3&#45;&gt;Node1 -->
<g id="edge2_Node000001_Node000003" class="edge">
<title>Node3&#45;&gt;Node1</title>
<g id="a_edge2_Node000001_Node000003"><a xlink:title=" ">
<path fill="none" stroke="#63b8ff" d="M161.04,-65.87C152.21,-56.28 137.7,-40.55 126.41,-28.3"/>
<polygon fill="none" stroke="#63b8ff" points="126.34,-28.23 119.34,-26.53 118.21,-19.41 125.22,-21.11 126.34,-28.23"/>
</a>
</g>
<text text-anchor="middle" x="189.5" y="-40" font-family="Helvetica,sans-Serif" font-size="10.00" fill="grey"> &#45;indicatorManager</text>
</g>
</g>
</svg>
</svg>

<style type='text/css'>
<![CDATA[
[data-mouse-over-selected='false'] { opacity: 0.7; }
[data-mouse-over-selected='true']  { opacity: 1.0; }
]]>
</style>
<script type="application/ecmascript"><![CDATA[
document.addEventListener('DOMContentLoaded', (event) => {
  highlightEdges();
  highlightAdjacentNodes();
});
]]></script>
</svg>
