<?xml version="1.0" encoding="UTF-8" standalone="no"?>
<!DOCTYPE svg PUBLIC "-//W3C//DTD SVG 1.1//EN"
 "http://www.w3.org/Graphics/SVG/1.1/DTD/svg11.dtd">
<!-- Generated by graphviz version 2.43.0 (0)
 -->
<!-- Title: OverlayDialog Pages: 1 -->
<svg width="428pt" height="137pt"
 viewBox="0.00 0.00 428.00 137.00" xmlns="http://www.w3.org/2000/svg" xmlns:xlink="http://www.w3.org/1999/xlink">

<svg id="main" version="1.1" xmlns="http://www.w3.org/2000/svg" xmlns:xlink="http://www.w3.org/1999/xlink" xml:space="preserve" onload="init(evt)">
<style type="text/css"><![CDATA[
.node, .edge {opacity: 0.7;}
.node.selected, .edge.selected {opacity: 1;}
.edge:hover path { stroke: red; }
.edge:hover polygon { stroke: red; fill: red; }
]]></style>
<script type="application/ecmascript" xlink:href="svg.min.js"/>
<svg id="graph" class="graph">
<g id="graph0" class="graph" transform="scale(1 1) rotate(0) translate(4 133)">
<title>OverlayDialog</title>
<!-- Node1 -->
<g id="Node000001" class="node">
<title>Node1</title>
<g id="a_Node000001"><a xlink:title="A Dialog class which is used for popups that are shown on top of the calling Activity.">
<polygon fill="#999999" stroke="transparent" points="258,-74 180,-74 180,-55 258,-55 258,-74"/>
<text text-anchor="start" x="184" y="-61.5" font-family="Helvetica,sans-Serif" font-size="10.00">OverlayDialog</text>
<polygon fill="none" stroke="#666666" points="180,-55 180,-74 258,-74 258,-55 180,-55"/>
</a>
</g>
</g>
<!-- Node3 -->
<g id="Node000003" class="node">
<title>Node3</title>
<g id="a_Node000003"><a xlink:href="classcom_1_1peternaggschga_1_1gwent_1_1ui_1_1dialogs_1_1ChangeFactionDialog.xhtml" target="_top" xlink:title="An OverlayDialog class used to change the faction design.">
<polygon fill="white" stroke="transparent" points="112,-19 0,-19 0,0 112,0 112,-19"/>
<text text-anchor="start" x="4.5" y="-6.5" font-family="Helvetica,sans-Serif" font-size="10.00">ChangeFactionDialog</text>
<polygon fill="none" stroke="#666666" points="0,0 0,-19 112,-19 112,0 0,0"/>
</a>
</g>
</g>
<!-- Node1&#45;&gt;Node3 -->
<g id="edge2_Node000001_Node000003" class="edge">
<title>Node1&#45;&gt;Node3</title>
<g id="a_edge2_Node000001_Node000003"><a xlink:title=" ">
<path fill="none" stroke="#63b8ff" d="M183.01,-51.8C152.59,-41.91 109.72,-27.97 82.39,-19.08"/>
<polygon fill="none" stroke="#63b8ff" points="182.22,-55.22 192.81,-54.98 184.38,-48.56 182.22,-55.22"/>
</a>
</g>
</g>
<!-- Node4 -->
<g id="Node000004" class="node">
<title>Node4</title>
<g id="a_Node000004"><a xlink:href="classcom_1_1peternaggschga_1_1gwent_1_1ui_1_1dialogs_1_1CoinFlipDialog.xhtml" target="_top" xlink:title="An OverlayDialog class showing the result of a coin&#45;flip.">
<polygon fill="white" stroke="transparent" points="210,-19 130,-19 130,0 210,0 210,-19"/>
<text text-anchor="start" x="134" y="-6.5" font-family="Helvetica,sans-Serif" font-size="10.00">CoinFlipDialog</text>
<polygon fill="none" stroke="#666666" points="130,0 130,-19 210,-19 210,0 130,0"/>
</a>
</g>
</g>
<!-- Node1&#45;&gt;Node4 -->
<g id="edge3_Node000001_Node000004" class="edge">
<title>Node1&#45;&gt;Node4</title>
<g id="a_edge3_Node000001_Node000004"><a xlink:title=" ">
<path fill="none" stroke="#63b8ff" d="M203.97,-47.24C195.38,-37.95 184.96,-26.68 177.94,-19.09"/>
<polygon fill="none" stroke="#63b8ff" points="201.55,-49.78 210.91,-54.75 206.69,-45.03 201.55,-49.78"/>
</a>
</g>
</g>
<!-- Node5 -->
<g id="Node000005" class="node">
<title>Node5</title>
<g id="a_Node000005"><a xlink:href="classcom_1_1peternaggschga_1_1gwent_1_1ui_1_1dialogs_1_1addcard_1_1AddCardDialog.xhtml" target="_top" xlink:title="An OverlayDialog used to add new UnitEntity objects to a certain #row.">
<polygon fill="white" stroke="transparent" points="310,-19 228,-19 228,0 310,0 310,-19"/>
<text text-anchor="start" x="232.5" y="-6.5" font-family="Helvetica,sans-Serif" font-size="10.00">AddCardDialog</text>
<polygon fill="none" stroke="#666666" points="228,0 228,-19 310,-19 310,0 228,0"/>
</a>
</g>
</g>
<!-- Node1&#45;&gt;Node5 -->
<g id="edge4_Node000001_Node000005" class="edge">
<title>Node1&#45;&gt;Node5</title>
<g id="a_edge4_Node000001_Node000005"><a xlink:title=" ">
<path fill="none" stroke="#63b8ff" d="M234.34,-47.24C243.1,-37.95 253.74,-26.68 260.9,-19.09"/>
<polygon fill="none" stroke="#63b8ff" points="231.57,-45.07 227.26,-54.75 236.66,-49.88 231.57,-45.07"/>
</a>
</g>
</g>
<!-- Node6 -->
<g id="Node000006" class="node">
<title>Node6</title>
<g id="a_Node000006"><a xlink:href="classcom_1_1peternaggschga_1_1gwent_1_1ui_1_1dialogs_1_1cards_1_1ShowUnitsDialog.xhtml" target="_top" xlink:title="An OverlayDialog used to list the units of a certain row and enabling the user to copy,...">
<polygon fill="white" stroke="transparent" points="420,-19 328,-19 328,0 420,0 420,-19"/>
<text text-anchor="start" x="332" y="-6.5" font-family="Helvetica,sans-Serif" font-size="10.00">ShowUnitsDialog</text>
<polygon fill="none" stroke="#666666" points="328,0 328,-19 420,-19 420,0 328,0"/>
</a>
</g>
</g>
<!-- Node1&#45;&gt;Node6 -->
<g id="edge5_Node000001_Node000006" class="edge">
<title>Node1&#45;&gt;Node6</title>
<g id="a_edge5_Node000001_Node000006"><a xlink:title=" ">
<path fill="none" stroke="#63b8ff" d="M253.6,-51.67C282.5,-41.79 323.03,-27.93 348.9,-19.08"/>
<polygon fill="none" stroke="#63b8ff" points="252.23,-48.44 243.9,-54.98 254.5,-55.06 252.23,-48.44"/>
</a>
</g>
</g>
<!-- Node2 -->
<g id="Node000002" class="node">
<title>Node2</title>
<g id="a_Node000002"><a xlink:title=" ">
<polygon fill="white" stroke="transparent" points="239,-129 199,-129 199,-110 239,-110 239,-129"/>
<text text-anchor="start" x="203" y="-116.5" font-family="Helvetica,sans-Serif" font-size="10.00">Dialog</text>
<polygon fill="none" stroke="#bfbfbf" points="199,-110 199,-129 239,-129 239,-110 199,-110"/>
</a>
</g>
</g>
<!-- Node2&#45;&gt;Node1 -->
<g id="edge1_Node000001_Node000002" class="edge">
<title>Node2&#45;&gt;Node1</title>
<g id="a_edge1_Node000001_Node000002"><a xlink:title=" ">
<path fill="none" stroke="#63b8ff" d="M219,-99.66C219,-90.93 219,-80.99 219,-74.09"/>
<polygon fill="none" stroke="#63b8ff" points="215.5,-99.75 219,-109.75 222.5,-99.75 215.5,-99.75"/>
</a>
</g>
</g>
</g>
</svg>
</svg>

<style type='text/css'>
<![CDATA[
[data-mouse-over-selected='false'] { opacity: 0.7; }
[data-mouse-over-selected='true']  { opacity: 1.0; }
]]>
</style>
<script type="application/ecmascript"><![CDATA[
document.addEventListener('DOMContentLoaded', (event) => {
  highlightEdges();
  highlightAdjacentNodes();
});
]]></script>
</svg>
