<?xml version="1.0" encoding="UTF-8" standalone="no"?>
<!DOCTYPE svg PUBLIC "-//W3C//DTD SVG 1.1//EN"
 "http://www.w3.org/Graphics/SVG/1.1/DTD/svg11.dtd">
<!-- Generated by graphviz version 2.43.0 (0)
 -->
<!-- Title: FactionSwitchListener Pages: 1 -->
<svg width="154pt" height="93pt"
 viewBox="0.00 0.00 154.00 93.00" xmlns="http://www.w3.org/2000/svg" xmlns:xlink="http://www.w3.org/1999/xlink">

<svg id="main" version="1.1" xmlns="http://www.w3.org/2000/svg" xmlns:xlink="http://www.w3.org/1999/xlink" xml:space="preserve" onload="init(evt)">
<style type="text/css"><![CDATA[
.node, .edge {opacity: 0.7;}
.node.selected, .edge.selected {opacity: 1;}
.edge:hover path { stroke: red; }
.edge:hover polygon { stroke: red; fill: red; }
]]></style>
<script type="application/ecmascript" xlink:href="svg.min.js"/>
<svg id="graph" class="graph">
<g id="graph0" class="graph" transform="scale(1 1) rotate(0) translate(4 89)">
<title>FactionSwitchListener</title>
<!-- Node1 -->
<g id="Node000001" class="node">
<title>Node1</title>
<g id="a_Node000001"><a xlink:title="A class implementing SharedPreference.OnSharedPreferenceChangeListener for the #THEME_PREFERENCE_KEY ...">
<polygon fill="#999999" stroke="transparent" points="130,-19 16,-19 16,0 130,0 130,-19"/>
<text text-anchor="start" x="20" y="-6.5" font-family="Helvetica,sans-Serif" font-size="10.00">FactionSwitchListener</text>
<polygon fill="none" stroke="#666666" points="16,0 16,-19 130,-19 130,0 16,0"/>
</a>
</g>
</g>
<!-- Node2 -->
<g id="Node000002" class="node">
<title>Node2</title>
<g id="a_Node000002"><a xlink:title=" ">
<polygon fill="white" stroke="transparent" points="146,-85 0,-85 0,-55 146,-55 146,-85"/>
<text text-anchor="start" x="4.5" y="-73" font-family="Helvetica,sans-Serif" font-size="10.00">OnSharedPreferenceChange</text>
<text text-anchor="start" x="53" y="-62" font-family="Helvetica,sans-Serif" font-size="10.00">Listener</text>
<polygon fill="none" stroke="#bfbfbf" points="0,-55 0,-85 146,-85 146,-55 0,-55"/>
</a>
</g>
</g>
<!-- Node2&#45;&gt;Node1 -->
<g id="edge1_Node000001_Node000002" class="edge">
<title>Node2&#45;&gt;Node1</title>
<g id="a_edge1_Node000001_Node000002"><a xlink:title=" ">
<path fill="none" stroke="#63b8ff" d="M73,-44.75C73,-35.72 73,-26.03 73,-19.27"/>
<polygon fill="none" stroke="#63b8ff" points="69.5,-44.84 73,-54.84 76.5,-44.84 69.5,-44.84"/>
</a>
</g>
</g>
</g>
</svg>
</svg>

<style type='text/css'>
<![CDATA[
[data-mouse-over-selected='false'] { opacity: 0.7; }
[data-mouse-over-selected='true']  { opacity: 1.0; }
]]>
</style>
<script type="application/ecmascript"><![CDATA[
document.addEventListener('DOMContentLoaded', (event) => {
  highlightEdges();
  highlightAdjacentNodes();
});
]]></script>
</svg>
