<?xml version="1.0" encoding="UTF-8" standalone="no"?>
<!DOCTYPE svg PUBLIC "-//W3C//DTD SVG 1.1//EN"
 "http://www.w3.org/Graphics/SVG/1.1/DTD/svg11.dtd">
<!-- Generated by graphviz version 2.43.0 (0)
 -->
<!-- Title: RowEntity Pages: 1 -->
<svg width="66pt" height="93pt"
 viewBox="0.00 0.00 66.00 93.00" xmlns="http://www.w3.org/2000/svg" xmlns:xlink="http://www.w3.org/1999/xlink">

<svg id="main" version="1.1" xmlns="http://www.w3.org/2000/svg" xmlns:xlink="http://www.w3.org/1999/xlink" xml:space="preserve" onload="init(evt)">
<style type="text/css"><![CDATA[
.node, .edge {opacity: 0.7;}
.node.selected, .edge.selected {opacity: 1;}
.edge:hover path { stroke: red; }
.edge:hover polygon { stroke: red; fill: red; }
]]></style>
<script type="application/ecmascript" xlink:href="svg.min.js"/>
<svg id="graph" class="graph">
<g id="graph0" class="graph" transform="scale(1 1) rotate(0) translate(4 89)">
<title>RowEntity</title>
<!-- Node1 -->
<g id="Node000001" class="node">
<title>Node1</title>
<g id="a_Node000001"><a xlink:title="A class representing the state of an attack row, i.e., weather and commanders horn.">
<polygon fill="#999999" stroke="transparent" points="58,-19 0,-19 0,0 58,0 58,-19"/>
<text text-anchor="start" x="4" y="-6.5" font-family="Helvetica,sans-Serif" font-size="10.00">RowEntity</text>
<polygon fill="none" stroke="#666666" points="0,0 0,-19 58,-19 58,0 0,0"/>
</a>
</g>
</g>
<!-- Node2 -->
<g id="Node000002" class="node">
<title>Node2</title>
<g id="a_Node000002"><a xlink:href="enumcom_1_1peternaggschga_1_1gwent_1_1data_1_1RowType.xhtml" target="_top" xlink:title="An enum listing the different types of attack rows.">
<polygon fill="white" stroke="transparent" points="55,-85 3,-85 3,-66 55,-66 55,-85"/>
<text text-anchor="start" x="7" y="-72.5" font-family="Helvetica,sans-Serif" font-size="10.00">RowType</text>
<polygon fill="none" stroke="#666666" points="3,-66 3,-85 55,-85 55,-66 3,-66"/>
</a>
</g>
</g>
<!-- Node2&#45;&gt;Node1 -->
<g id="edge1_Node000001_Node000002" class="edge">
<title>Node2&#45;&gt;Node1</title>
<g id="a_edge1_Node000001_Node000002"><a xlink:title=" ">
<path fill="none" stroke="#63b8ff" d="M29,-65.87C29,-57.14 29,-43.31 29,-31.65"/>
<polygon fill="none" stroke="#63b8ff" points="29,-31.41 25,-25.41 29,-19.41 33,-25.41 29,-31.41"/>
</a>
</g>
<text text-anchor="middle" x="37" y="-40" font-family="Helvetica,sans-Serif" font-size="10.00" fill="grey"> &#45;id</text>
</g>
</g>
</svg>
</svg>

<style type='text/css'>
<![CDATA[
[data-mouse-over-selected='false'] { opacity: 0.7; }
[data-mouse-over-selected='true']  { opacity: 1.0; }
]]>
</style>
<script type="application/ecmascript"><![CDATA[
document.addEventListener('DOMContentLoaded', (event) => {
  highlightEdges();
  highlightAdjacentNodes();
});
]]></script>
</svg>
