<?xml version="1.0" encoding="UTF-8" standalone="no"?>
<!DOCTYPE svg PUBLIC "-//W3C//DTD SVG 1.1//EN"
 "http://www.w3.org/Graphics/SVG/1.1/DTD/svg11.dtd">
<!-- Generated by graphviz version 2.43.0 (0)
 -->
<!-- Title: MenuUiStateObserver Pages: 1 -->
<svg width="383pt" height="117pt"
 viewBox="0.00 0.00 383.00 117.00" xmlns="http://www.w3.org/2000/svg" xmlns:xlink="http://www.w3.org/1999/xlink">
<g id="graph0" class="graph" transform="scale(1 1) rotate(0) translate(4 113)">
<title>MenuUiStateObserver</title>
<polygon fill="white" stroke="transparent" points="-4,4 -4,-113 379,-113 379,4 -4,4"/>
<!-- Node1 -->
<g id="node1" class="node">
<title>Node1</title>
<g id="a_node1"><a xlink:title="An observer class responsible for updating the menu views when notified, i.e., when a new MenuUiState...">
<polygon fill="#bfbfbf" stroke="black" points="148,-0.5 148,-19.5 272,-19.5 272,-0.5 148,-0.5"/>
<text text-anchor="middle" x="210" y="-7.5" font-family="Helvetica,sans-Serif" font-size="10.00">MenuUiStateObserver</text>
</a>
</g>
</g>
<!-- Node2 -->
<g id="node2" class="node">
<title>Node2</title>
<g id="a_node2"><a xlink:title=" ">
<polygon fill="white" stroke="#bfbfbf" points="0,-89.5 0,-108.5 152,-108.5 152,-89.5 0,-89.5"/>
<text text-anchor="middle" x="76" y="-96.5" font-family="Helvetica,sans-Serif" font-size="10.00">Consumer&lt; MenuUiState &gt;</text>
</a>
</g>
</g>
<!-- Node2&#45;&gt;Node1 -->
<g id="edge1" class="edge">
<title>Node2&#45;&gt;Node1</title>
<path fill="none" stroke="midnightblue" d="M98.04,-83.69C126.09,-65.48 173.68,-34.58 196.72,-19.62"/>
<polygon fill="none" stroke="midnightblue" points="95.82,-80.96 89.34,-89.34 99.63,-86.83 95.82,-80.96"/>
</g>
<!-- Node3 -->
<g id="node3" class="node">
<title>Node3</title>
<g id="a_node3"><a xlink:title=" ">
<polygon fill="white" stroke="#bfbfbf" points="170,-89.5 170,-108.5 250,-108.5 250,-89.5 170,-89.5"/>
<text text-anchor="middle" x="210" y="-96.5" font-family="Helvetica,sans-Serif" font-size="10.00">ImageButton</text>
</a>
</g>
</g>
<!-- Node3&#45;&gt;Node1 -->
<g id="edge2" class="edge">
<title>Node3&#45;&gt;Node1</title>
<path fill="none" stroke="#404040" d="M210,-89.34C210,-76.05 210,-50.24 210,-31.88"/>
<polygon fill="none" stroke="#404040" points="210,-31.62 206,-25.62 210,-19.62 214,-25.62 210,-31.62"/>
<text text-anchor="middle" x="248" y="-63" font-family="Helvetica,sans-Serif" font-size="10.00"> &#45;burnButton</text>
<text text-anchor="middle" x="248" y="-52" font-family="Helvetica,sans-Serif" font-size="10.00">&#45;resetButton</text>
<text text-anchor="middle" x="248" y="-41" font-family="Helvetica,sans-Serif" font-size="10.00">&#45;weatherButton</text>
</g>
<!-- Node4 -->
<g id="node4" class="node">
<title>Node4</title>
<g id="a_node4"><a xlink:title=" ">
<polygon fill="white" stroke="#bfbfbf" points="278.5,-89.5 278.5,-108.5 339.5,-108.5 339.5,-89.5 278.5,-89.5"/>
<text text-anchor="middle" x="309" y="-96.5" font-family="Helvetica,sans-Serif" font-size="10.00">TextView</text>
</a>
</g>
</g>
<!-- Node4&#45;&gt;Node1 -->
<g id="edge3" class="edge">
<title>Node4&#45;&gt;Node1</title>
<path fill="none" stroke="#404040" d="M308.15,-89.41C306.43,-76.52 301.38,-52.18 287,-38 281.17,-32.25 274.05,-27.73 266.52,-24.16"/>
<polygon fill="none" stroke="#404040" points="266.41,-24.11 259.34,-25.56 255.29,-19.59 262.36,-18.15 266.41,-24.11"/>
<text text-anchor="middle" x="339.5" y="-52" font-family="Helvetica,sans-Serif" font-size="10.00"> &#45;damageView</text>
</g>
</g>
</svg>
