<?xml version="1.0" encoding="UTF-8" standalone="no"?>
<!DOCTYPE svg PUBLIC "-//W3C//DTD SVG 1.1//EN"
 "http://www.w3.org/Graphics/SVG/1.1/DTD/svg11.dtd">
<!-- Generated by graphviz version 2.43.0 (0)
 -->
<!-- Title: CardNumberPickerAdapter Pages: 1 -->
<svg width="242pt" height="159pt"
 viewBox="0.00 0.00 242.00 159.00" xmlns="http://www.w3.org/2000/svg" xmlns:xlink="http://www.w3.org/1999/xlink">
<g id="graph0" class="graph" transform="scale(1 1) rotate(0) translate(4 155)">
<title>CardNumberPickerAdapter</title>
<!-- Node1 -->
<g id="Node000001" class="node">
<title>Node1</title>
<g id="a_Node000001"><a xlink:title="A helper class responsible for initializing the NumberPicker views of an AddCardDialog (in #CardNumpe...">
<polygon fill="#999999" stroke="transparent" points="185,-19 47,-19 47,0 185,0 185,-19"/>
<text text-anchor="start" x="51" y="-6.5" font-family="Helvetica,sans-Serif" font-size="10.00">CardNumberPickerAdapter</text>
<polygon fill="none" stroke="#666666" points="47,0 47,-19 185,-19 185,0 47,0"/>
</a>
</g>
</g>
<!-- Node2 -->
<g id="Node000002" class="node">
<title>Node2</title>
<g id="a_Node000002"><a xlink:href="classcom_1_1peternaggschga_1_1gwent_1_1ui_1_1dialogs_1_1addcard_1_1DamageValuePicker.xhtml" target="_top" xlink:title="A ValuePicker used for selection of damage values for UnitEntity::damage.">
<polygon fill="white" stroke="transparent" points="114,-85 8,-85 8,-66 114,-66 114,-85"/>
<text text-anchor="start" x="12" y="-72.5" font-family="Helvetica,sans-Serif" font-size="10.00">DamageValuePicker</text>
<polygon fill="none" stroke="#666666" points="8,-66 8,-85 114,-85 114,-66 8,-66"/>
</a>
</g>
</g>
<!-- Node2&#45;&gt;Node1 -->
<g id="edge1_Node000001_Node000002" class="edge">
<title>Node2&#45;&gt;Node1</title>
<g id="a_edge1_Node000001_Node000002"><a xlink:title=" ">
<path fill="none" stroke="#63b8ff" d="M61.44,-65.95C62.26,-57.78 64.56,-45.48 71,-37 74.42,-32.49 78.85,-28.61 83.6,-25.31"/>
<polygon fill="none" stroke="#63b8ff" points="83.89,-25.14 87.01,-18.63 94.21,-19.01 91.09,-25.51 83.89,-25.14"/>
</a>
</g>
<text text-anchor="middle" x="109" y="-40" font-family="Helvetica,sans-Serif" font-size="10.00" fill="grey"> &#45;damagePicker</text>
</g>
<!-- Node3 -->
<g id="Node000003" class="node">
<title>Node3</title>
<g id="a_Node000003"><a xlink:title=" ">
<polygon fill="white" stroke="transparent" points="122,-151 0,-151 0,-132 122,-132 122,-151"/>
<text text-anchor="start" x="4" y="-138.5" font-family="Helvetica,sans-Serif" font-size="10.00">ValuePicker&lt; Integer &gt;</text>
<polygon fill="none" stroke="#bfbfbf" points="0,-132 0,-151 122,-151 122,-132 0,-132"/>
</a>
</g>
</g>
<!-- Node3&#45;&gt;Node2 -->
<g id="edge2_Node000002_Node000003" class="edge">
<title>Node3&#45;&gt;Node2</title>
<g id="a_edge2_Node000002_Node000003"><a xlink:title=" ">
<path fill="none" stroke="#63b8ff" d="M61,-121.58C61,-109.63 61,-94.72 61,-85.41"/>
<polygon fill="none" stroke="#63b8ff" points="57.5,-121.87 61,-131.87 64.5,-121.87 57.5,-121.87"/>
</a>
</g>
</g>
<!-- Node4 -->
<g id="Node000004" class="node">
<title>Node4</title>
<g id="a_Node000004"><a xlink:href="classcom_1_1peternaggschga_1_1gwent_1_1ui_1_1dialogs_1_1addcard_1_1SquadManager.xhtml" target="_top" xlink:title="A class used by the CardNumberPickerAdapter to determine the first squad with members or set the defa...">
<polygon fill="white" stroke="transparent" points="214,-85 132,-85 132,-66 214,-66 214,-85"/>
<text text-anchor="start" x="136.5" y="-72.5" font-family="Helvetica,sans-Serif" font-size="10.00">SquadManager</text>
<polygon fill="none" stroke="#666666" points="132,-66 132,-85 214,-85 214,-66 132,-66"/>
</a>
</g>
</g>
<!-- Node4&#45;&gt;Node1 -->
<g id="edge3_Node000001_Node000004" class="edge">
<title>Node4&#45;&gt;Node1</title>
<g id="a_edge3_Node000001_Node000004"><a xlink:title=" ">
<path fill="none" stroke="#63b8ff" d="M167.8,-65.7C162.93,-57.78 155.18,-46.05 147,-37 143.87,-33.54 140.3,-30.11 136.72,-26.91"/>
<polygon fill="none" stroke="#63b8ff" points="136.71,-26.9 129.55,-26.1 127.53,-19.18 134.7,-19.98 136.71,-26.9"/>
</a>
</g>
<text text-anchor="middle" x="194.5" y="-40" font-family="Helvetica,sans-Serif" font-size="10.00" fill="grey"> &#45;squadManager</text>
</g>
<!-- Node5 -->
<g id="Node000005" class="node">
<title>Node5</title>
<g id="a_Node000005"><a xlink:href="classcom_1_1peternaggschga_1_1gwent_1_1ui_1_1dialogs_1_1addcard_1_1SquadState.xhtml" target="_top" xlink:title="A data class encapsulating information about the squad defined by #squadNumber, i....">
<polygon fill="white" stroke="transparent" points="205,-151 141,-151 141,-132 205,-132 205,-151"/>
<text text-anchor="start" x="145" y="-138.5" font-family="Helvetica,sans-Serif" font-size="10.00">SquadState</text>
<polygon fill="none" stroke="#666666" points="141,-132 141,-151 205,-151 205,-132 141,-132"/>
</a>
</g>
</g>
<!-- Node5&#45;&gt;Node4 -->
<g id="edge4_Node000004_Node000005" class="edge">
<title>Node5&#45;&gt;Node4</title>
<g id="a_edge4_Node000004_Node000005"><a xlink:title=" ">
<path fill="none" stroke="#63b8ff" d="M173,-131.87C173,-123.14 173,-109.31 173,-97.65"/>
<polygon fill="none" stroke="#63b8ff" points="173,-97.41 169,-91.41 173,-85.41 177,-91.41 173,-97.41"/>
</a>
</g>
<text text-anchor="middle" x="191.5" y="-106" font-family="Helvetica,sans-Serif" font-size="10.00" fill="grey"> &#45;states</text>
</g>
</g>
</svg>
