<?xml version="1.0" encoding="UTF-8" standalone="no"?>
<!DOCTYPE svg PUBLIC "-//W3C//DTD SVG 1.1//EN"
 "http://www.w3.org/Graphics/SVG/1.1/DTD/svg11.dtd">
<!-- Generated by graphviz version 2.43.0 (0)
 -->
<!-- Title: IntroductionActivity Pages: 1 -->
<svg width="244pt" height="162pt"
 viewBox="0.00 0.00 243.50 162.00" xmlns="http://www.w3.org/2000/svg" xmlns:xlink="http://www.w3.org/1999/xlink">
<g id="graph0" class="graph" transform="scale(1 1) rotate(0) translate(4 158)">
<title>IntroductionActivity</title>
<polygon fill="white" stroke="transparent" points="-4,4 -4,-158 239.5,-158 239.5,4 -4,4"/>
<!-- Node1 -->
<g id="node1" class="node">
<title>Node1</title>
<g id="a_node1"><a xlink:title="An AppCompatActivity that gives the user an introduction into the usage of the application.">
<polygon fill="#bfbfbf" stroke="black" points="15,-0.5 15,-19.5 128,-19.5 128,-0.5 15,-0.5"/>
<text text-anchor="middle" x="71.5" y="-7.5" font-family="Helvetica,sans-Serif" font-size="10.00">IntroductionActivity</text>
</a>
</g>
</g>
<!-- Node2 -->
<g id="node2" class="node">
<title>Node2</title>
<g id="a_node2"><a xlink:title=" ">
<polygon fill="white" stroke="#bfbfbf" points="0,-67.5 0,-86.5 111,-86.5 111,-67.5 0,-67.5"/>
<text text-anchor="middle" x="55.5" y="-74.5" font-family="Helvetica,sans-Serif" font-size="10.00">AppCompatActivity</text>
</a>
</g>
</g>
<!-- Node2&#45;&gt;Node1 -->
<g id="edge1" class="edge">
<title>Node2&#45;&gt;Node1</title>
<path fill="none" stroke="midnightblue" d="M60.07,-57.41C63.13,-44.99 67.02,-29.22 69.38,-19.63"/>
<polygon fill="none" stroke="midnightblue" points="56.65,-56.69 57.66,-67.23 63.45,-58.36 56.65,-56.69"/>
</g>
<!-- Node3 -->
<g id="node3" class="node">
<title>Node3</title>
<g id="a_node3"><a xlink:href="classcom_1_1peternaggschga_1_1gwent_1_1ui_1_1introduction_1_1IndicatorManager.xhtml" target="_top" xlink:title="A class managing the indicator views shown in the bottom bar of the IntroductionActivity.">
<polygon fill="white" stroke="black" points="129.5,-67.5 129.5,-86.5 231.5,-86.5 231.5,-67.5 129.5,-67.5"/>
<text text-anchor="middle" x="180.5" y="-74.5" font-family="Helvetica,sans-Serif" font-size="10.00">IndicatorManager</text>
</a>
</g>
</g>
<!-- Node3&#45;&gt;Node1 -->
<g id="edge2" class="edge">
<title>Node3&#45;&gt;Node1</title>
<path fill="none" stroke="#404040" d="M165.8,-67.23C148.07,-56.66 117.97,-38.71 96.55,-25.94"/>
<polygon fill="none" stroke="#404040" points="96.27,-25.77 89.07,-26.14 85.97,-19.63 93.17,-19.26 96.27,-25.77"/>
<text text-anchor="middle" x="179" y="-41" font-family="Helvetica,sans-Serif" font-size="10.00"> &#45;indicatorManager</text>
</g>
<!-- Node4 -->
<g id="node4" class="node">
<title>Node4</title>
<g id="a_node4"><a xlink:title=" ">
<polygon fill="white" stroke="#bfbfbf" points="145,-134.5 145,-153.5 216,-153.5 216,-134.5 145,-134.5"/>
<text text-anchor="middle" x="180.5" y="-141.5" font-family="Helvetica,sans-Serif" font-size="10.00">ImageView</text>
</a>
</g>
</g>
<!-- Node4&#45;&gt;Node3 -->
<g id="edge3" class="edge">
<title>Node4&#45;&gt;Node3</title>
<path fill="none" stroke="#404040" d="M180.5,-134.23C180.5,-125.17 180.5,-110.69 180.5,-98.69"/>
<polygon fill="none" stroke="#404040" points="180.5,-98.63 176.5,-92.63 180.5,-86.63 184.5,-92.63 180.5,-98.63"/>
<text text-anchor="middle" x="208" y="-108" font-family="Helvetica,sans-Serif" font-size="10.00"> &#45;indicators</text>
</g>
</g>
</svg>
