<?xml version="1.0" encoding="UTF-8" standalone="no"?>
<!DOCTYPE svg PUBLIC "-//W3C//DTD SVG 1.1//EN"
 "http://www.w3.org/Graphics/SVG/1.1/DTD/svg11.dtd">
<!-- Generated by graphviz version 2.43.0 (0)
 -->
<!-- Title: RevengeAlertDialogBuilderAdapter Pages: 1 -->
<svg width="326pt" height="106pt"
 viewBox="0.00 0.00 326.00 106.00" xmlns="http://www.w3.org/2000/svg" xmlns:xlink="http://www.w3.org/1999/xlink">
<g id="graph0" class="graph" transform="scale(1 1) rotate(0) translate(4 102)">
<title>RevengeAlertDialogBuilderAdapter</title>
<polygon fill="white" stroke="transparent" points="-4,4 -4,-102 322,-102 322,4 -4,4"/>
<!-- Node1 -->
<g id="node1" class="node">
<title>Node1</title>
<g id="a_node1"><a xlink:title="An adapter class adapting AlertDialog.Builder to provide an interface for creating an AlertDialog ask...">
<polygon fill="#bfbfbf" stroke="black" points="68.5,-0.5 68.5,-30.5 217.5,-30.5 217.5,-0.5 68.5,-0.5"/>
<text text-anchor="start" x="76.5" y="-18.5" font-family="Helvetica,sans-Serif" font-size="10.00">RevengeAlertDialogBuilder</text>
<text text-anchor="middle" x="143" y="-7.5" font-family="Helvetica,sans-Serif" font-size="10.00">Adapter</text>
</a>
</g>
</g>
<!-- Node2 -->
<g id="node2" class="node">
<title>Node2</title>
<g id="a_node2"><a xlink:href="enumcom_1_1peternaggschga_1_1gwent_1_1data_1_1Ability.xhtml" target="_top" xlink:title="An enum listing the different card abilities possible.">
<polygon fill="white" stroke="black" points="0,-78.5 0,-97.5 48,-97.5 48,-78.5 0,-78.5"/>
<text text-anchor="middle" x="24" y="-85.5" font-family="Helvetica,sans-Serif" font-size="10.00">Ability</text>
</a>
</g>
</g>
<!-- Node2&#45;&gt;Node1 -->
<g id="edge1" class="edge">
<title>Node2&#45;&gt;Node1</title>
<path fill="none" stroke="#404040" d="M26.24,-78.22C28.87,-69.62 34.06,-56.7 43,-49 49.18,-43.68 56.25,-39.23 63.71,-35.5"/>
<polygon fill="none" stroke="#404040" points="63.9,-35.42 67.75,-29.32 74.86,-30.54 71,-36.63 63.9,-35.42"/>
<text text-anchor="middle" x="91" y="-52" font-family="Helvetica,sans-Serif" font-size="10.00"> &#45;AVENGER_ABILITY</text>
</g>
<!-- Node3 -->
<g id="node3" class="node">
<title>Node3</title>
<g id="a_node3"><a xlink:href="enumcom_1_1peternaggschga_1_1gwent_1_1data_1_1RowType.xhtml" target="_top" xlink:title="An enum listing the different types of attack rows.">
<polygon fill="white" stroke="black" points="113,-78.5 113,-97.5 173,-97.5 173,-78.5 113,-78.5"/>
<text text-anchor="middle" x="143" y="-85.5" font-family="Helvetica,sans-Serif" font-size="10.00">RowType</text>
</a>
</g>
</g>
<!-- Node3&#45;&gt;Node1 -->
<g id="edge2" class="edge">
<title>Node3&#45;&gt;Node1</title>
<path fill="none" stroke="#404040" d="M143,-78.36C143,-69.51 143,-55.33 143,-42.78"/>
<polygon fill="none" stroke="#404040" points="143,-42.58 139,-36.58 143,-30.58 147,-36.58 143,-42.58"/>
<text text-anchor="middle" x="184.5" y="-52" font-family="Helvetica,sans-Serif" font-size="10.00"> &#45;AVENGER_ROW</text>
</g>
<!-- Node4 -->
<g id="node4" class="node">
<title>Node4</title>
<g id="a_node4"><a xlink:title=" ">
<polygon fill="white" stroke="#bfbfbf" points="213.5,-78.5 213.5,-97.5 284.5,-97.5 284.5,-78.5 213.5,-78.5"/>
<text text-anchor="middle" x="249" y="-85.5" font-family="Helvetica,sans-Serif" font-size="10.00">AlertDialog</text>
</a>
</g>
</g>
<!-- Node4&#45;&gt;Node1 -->
<g id="edge3" class="edge">
<title>Node4&#45;&gt;Node1</title>
<path fill="none" stroke="#404040" d="M245.95,-78.32C242.55,-69.79 236.27,-56.93 227,-49 221,-43.87 214.11,-39.5 206.9,-35.79"/>
<polygon fill="none" stroke="#404040" points="206.68,-35.69 199.56,-36.8 195.79,-30.65 202.92,-29.54 206.68,-35.69"/>
<text text-anchor="middle" x="277" y="-52" font-family="Helvetica,sans-Serif" font-size="10.00"> &#45;adapteeBuilder</text>
</g>
</g>
</svg>
