<?xml version="1.0" encoding="UTF-8" standalone="no"?>
<!DOCTYPE svg PUBLIC "-//W3C//DTD SVG 1.1//EN"
 "http://www.w3.org/Graphics/SVG/1.1/DTD/svg11.dtd">
<!-- Generated by graphviz version 2.43.0 (0)
 -->
<!-- Title: MoralDamageCalculatorDecorator Pages: 1 -->
<svg width="191pt" height="140pt"
 viewBox="0.00 0.00 191.00 140.00" xmlns="http://www.w3.org/2000/svg" xmlns:xlink="http://www.w3.org/1999/xlink">
<g id="graph0" class="graph" transform="scale(1 1) rotate(0) translate(4 136)">
<title>MoralDamageCalculatorDecorator</title>
<polygon fill="white" stroke="transparent" points="-4,4 -4,-136 187,-136 187,4 -4,4"/>
<!-- Node1 -->
<g id="node1" class="node">
<title>Node1</title>
<g id="a_node1"><a xlink:title="A DamageCalculator class responsible for calculating the moral buff if necessary, i....">
<polygon fill="#bfbfbf" stroke="black" points="0,-0.5 0,-19.5 183,-19.5 183,-0.5 0,-0.5"/>
<text text-anchor="middle" x="91.5" y="-7.5" font-family="Helvetica,sans-Serif" font-size="10.00">MoralDamageCalculatorDecorator</text>
</a>
</g>
</g>
<!-- Node2 -->
<g id="node2" class="node">
<title>Node2</title>
<g id="a_node2"><a xlink:href="classcom_1_1peternaggschga_1_1gwent_1_1domain_1_1damage_1_1DamageCalculatorDecorator.xhtml" target="_top" xlink:title="An abstract DamageCalculator that is used as a superclass for the decorator classes implementing the ...">
<polygon fill="white" stroke="black" points="14,-56.5 14,-75.5 169,-75.5 169,-56.5 14,-56.5"/>
<text text-anchor="middle" x="91.5" y="-63.5" font-family="Helvetica,sans-Serif" font-size="10.00">DamageCalculatorDecorator</text>
</a>
</g>
</g>
<!-- Node2&#45;&gt;Node1 -->
<g id="edge1" class="edge">
<title>Node2&#45;&gt;Node1</title>
<path fill="none" stroke="midnightblue" d="M91.5,-45.8C91.5,-36.91 91.5,-26.78 91.5,-19.75"/>
<polygon fill="none" stroke="midnightblue" points="88,-46.08 91.5,-56.08 95,-46.08 88,-46.08"/>
</g>
<!-- Node3 -->
<g id="node3" class="node">
<title>Node3</title>
<g id="a_node3"><a xlink:href="interfacecom_1_1peternaggschga_1_1gwent_1_1domain_1_1damage_1_1DamageCalculator.xhtml" target="_top" xlink:title="An interface for a class capable of calculating the (de&#45;)buffed damage of a unit for a given UnitEnti...">
<polygon fill="white" stroke="black" points="38,-112.5 38,-131.5 145,-131.5 145,-112.5 38,-112.5"/>
<text text-anchor="middle" x="91.5" y="-119.5" font-family="Helvetica,sans-Serif" font-size="10.00">DamageCalculator</text>
</a>
</g>
</g>
<!-- Node3&#45;&gt;Node2 -->
<g id="edge2" class="edge">
<title>Node3&#45;&gt;Node2</title>
<path fill="none" stroke="midnightblue" d="M91.5,-101.8C91.5,-92.91 91.5,-82.78 91.5,-75.75"/>
<polygon fill="none" stroke="midnightblue" points="88,-102.08 91.5,-112.08 95,-102.08 88,-102.08"/>
</g>
</g>
</svg>
