<?xml version="1.0" encoding="UTF-8" standalone="no"?>
<!DOCTYPE svg PUBLIC "-//W3C//DTD SVG 1.1//EN"
 "http://www.w3.org/Graphics/SVG/1.1/DTD/svg11.dtd">
<!-- Generated by graphviz version 2.43.0 (0)
 -->
<!-- Title: Graphical Class Hierarchy Pages: 1 -->
<svg width="375pt" height="116pt"
 viewBox="0.00 0.00 375.00 116.00" xmlns="http://www.w3.org/2000/svg" xmlns:xlink="http://www.w3.org/1999/xlink">
<g id="graph0" class="graph" transform="scale(1 1) rotate(0) translate(4 112)">
<title>Graphical Class Hierarchy</title>
<polygon fill="white" stroke="transparent" points="-4,4 -4,-112 371,-112 371,4 -4,4"/>
<!-- Node15 -->
<g id="node1" class="node">
<title>Node15</title>
<g id="a_node1"><a xlink:title=" ">
<polygon fill="white" stroke="#bfbfbf" points="0,-44.5 0,-63.5 154,-63.5 154,-44.5 0,-44.5"/>
<text text-anchor="middle" x="77" y="-51.5" font-family="Helvetica,sans-Serif" font-size="10.00">PreferenceFragmentCompat</text>
</a>
</g>
</g>
<!-- Node0 -->
<g id="node2" class="node">
<title>Node0</title>
<g id="a_node2"><a xlink:href="classcom_1_1peternaggschga_1_1gwent_1_1SettingsActivity_1_1HeaderFragment.xhtml" target="_top" xlink:title=" ">
<polygon fill="white" stroke="black" points="190,-88.5 190,-107.5 367,-107.5 367,-88.5 190,-88.5"/>
<text text-anchor="middle" x="278.5" y="-95.5" font-family="Helvetica,sans-Serif" font-size="10.00">SettingsActivity.HeaderFragment</text>
</a>
</g>
</g>
<!-- Node15&#45;&gt;Node0 -->
<g id="edge1" class="edge">
<title>Node15&#45;&gt;Node0</title>
<path fill="none" stroke="midnightblue" d="M130.39,-65.76C149.19,-69.96 170.54,-74.72 190,-79 204.12,-82.11 219.53,-85.47 233.42,-88.48"/>
<polygon fill="midnightblue" stroke="midnightblue" points="131.06,-62.32 120.53,-63.56 129.53,-69.15 131.06,-62.32"/>
</g>
<!-- Node17 -->
<g id="node3" class="node">
<title>Node17</title>
<g id="a_node3"><a xlink:href="classcom_1_1peternaggschga_1_1gwent_1_1SettingsActivity_1_1RuleHeaderFragment.xhtml" target="_top" xlink:title=" ">
<polygon fill="white" stroke="black" points="202.5,-39 202.5,-69 354.5,-69 354.5,-39 202.5,-39"/>
<text text-anchor="start" x="210.5" y="-57" font-family="Helvetica,sans-Serif" font-size="10.00">SettingsActivity.RuleHeader</text>
<text text-anchor="middle" x="278.5" y="-46" font-family="Helvetica,sans-Serif" font-size="10.00">Fragment</text>
</a>
</g>
</g>
<!-- Node15&#45;&gt;Node17 -->
<g id="edge2" class="edge">
<title>Node15&#45;&gt;Node17</title>
<path fill="none" stroke="midnightblue" d="M164.32,-54C176.95,-54 189.87,-54 202.25,-54"/>
<polygon fill="midnightblue" stroke="midnightblue" points="164.28,-50.5 154.28,-54 164.28,-57.5 164.28,-50.5"/>
</g>
<!-- Node18 -->
<g id="node4" class="node">
<title>Node18</title>
<g id="a_node4"><a xlink:href="classcom_1_1peternaggschga_1_1gwent_1_1SettingsActivity_1_1SoundFragment.xhtml" target="_top" xlink:title=" ">
<polygon fill="white" stroke="black" points="192.5,-0.5 192.5,-19.5 364.5,-19.5 364.5,-0.5 192.5,-0.5"/>
<text text-anchor="middle" x="278.5" y="-7.5" font-family="Helvetica,sans-Serif" font-size="10.00">SettingsActivity.SoundFragment</text>
</a>
</g>
</g>
<!-- Node15&#45;&gt;Node18 -->
<g id="edge3" class="edge">
<title>Node15&#45;&gt;Node18</title>
<path fill="none" stroke="midnightblue" d="M131.43,-42.22C163.64,-35.11 204.12,-26.18 234.3,-19.53"/>
<polygon fill="midnightblue" stroke="midnightblue" points="130.3,-38.88 121.29,-44.45 131.81,-45.72 130.3,-38.88"/>
</g>
</g>
</svg>
