<?xml version="1.0" encoding="UTF-8" standalone="no"?>
<!DOCTYPE svg PUBLIC "-//W3C//DTD SVG 1.1//EN"
 "http://www.w3.org/Graphics/SVG/1.1/DTD/svg11.dtd">
<!-- Generated by graphviz version 2.43.0 (0)
 -->
<!-- Title: Graphical Class Hierarchy Pages: 1 -->
<svg width="333pt" height="138pt"
 viewBox="0.00 0.00 333.00 138.00" xmlns="http://www.w3.org/2000/svg" xmlns:xlink="http://www.w3.org/1999/xlink">
<g id="graph0" class="graph" transform="scale(1 1) rotate(0) translate(4 134)">
<title>Graphical Class Hierarchy</title>
<!-- Node0 -->
<g id="Node000000" class="node">
<title>Node0</title>
<g id="a_Node000000"><a xlink:title=" ">
<polygon fill="#e0e0e0" stroke="#999999" points="48,-74 0,-74 0,-55 48,-55 48,-74"/>
<text text-anchor="middle" x="24" y="-62" font-family="Helvetica,sans-Serif" font-size="10.00">Dialog</text>
</a>
</g>
</g>
<!-- Node1 -->
<g id="Node000001" class="node">
<title>Node1</title>
<g id="a_Node000001"><a xlink:href="classcom_1_1peternaggschga_1_1gwent_1_1ui_1_1dialogs_1_1OverlayDialog.xhtml" target="_top" xlink:title="A Dialog class which is used for popups that are shown on top of the calling Activity.">
<polygon fill="white" stroke="#666666" points="170,-74 84,-74 84,-55 170,-55 170,-74"/>
<text text-anchor="middle" x="127" y="-62" font-family="Helvetica,sans-Serif" font-size="10.00">OverlayDialog</text>
</a>
</g>
</g>
<!-- Node0&#45;&gt;Node1 -->
<g id="edge15_Node000000_Node000001" class="edge">
<title>Node0&#45;&gt;Node1</title>
<g id="a_edge15_Node000000_Node000001"><a xlink:title=" ">
<path fill="none" stroke="#63b8ff" d="M58.42,-64.5C66.57,-64.5 75.39,-64.5 83.89,-64.5"/>
<polygon fill="#63b8ff" stroke="#63b8ff" points="58.17,-61 48.17,-64.5 58.17,-68 58.17,-61"/>
</a>
</g>
</g>
<!-- Node2 -->
<g id="Node000002" class="node">
<title>Node2</title>
<g id="a_Node000002"><a xlink:href="classcom_1_1peternaggschga_1_1gwent_1_1ui_1_1dialogs_1_1ChangeFactionDialog.xhtml" target="_top" xlink:title="An OverlayDialog class used to change the faction design.">
<polygon fill="white" stroke="#666666" points="325,-130 206,-130 206,-111 325,-111 325,-130"/>
<text text-anchor="middle" x="265.5" y="-118" font-family="Helvetica,sans-Serif" font-size="10.00">ChangeFactionDialog</text>
</a>
</g>
</g>
<!-- Node1&#45;&gt;Node2 -->
<g id="edge16_Node000001_Node000002" class="edge">
<title>Node1&#45;&gt;Node2</title>
<g id="a_edge16_Node000001_Node000002"><a xlink:title=" ">
<path fill="none" stroke="#63b8ff" d="M154.72,-78.79C169.57,-86.41 188.53,-95.6 206,-102.5 213.71,-105.54 222.15,-108.4 230.16,-110.91"/>
<polygon fill="#63b8ff" stroke="#63b8ff" points="156.1,-75.57 145.62,-74.06 152.87,-81.78 156.1,-75.57"/>
</a>
</g>
</g>
<!-- Node3 -->
<g id="Node000003" class="node">
<title>Node3</title>
<g id="a_Node000003"><a xlink:href="classcom_1_1peternaggschga_1_1gwent_1_1ui_1_1dialogs_1_1CoinFlipDialog.xhtml" target="_top" xlink:title="An OverlayDialog class showing the result of a coin&#45;flip.">
<polygon fill="white" stroke="#666666" points="309.5,-93 221.5,-93 221.5,-74 309.5,-74 309.5,-93"/>
<text text-anchor="middle" x="265.5" y="-81" font-family="Helvetica,sans-Serif" font-size="10.00">CoinFlipDialog</text>
</a>
</g>
</g>
<!-- Node1&#45;&gt;Node3 -->
<g id="edge17_Node000001_Node000003" class="edge">
<title>Node1&#45;&gt;Node3</title>
<g id="a_edge17_Node000001_Node000003"><a xlink:title=" ">
<path fill="none" stroke="#63b8ff" d="M180.25,-71.77C193.84,-73.66 208.33,-75.68 221.39,-77.5"/>
<polygon fill="#63b8ff" stroke="#63b8ff" points="180.46,-68.27 170.07,-70.36 179.49,-75.2 180.46,-68.27"/>
</a>
</g>
</g>
<!-- Node4 -->
<g id="Node000004" class="node">
<title>Node4</title>
<g id="a_Node000004"><a xlink:href="classcom_1_1peternaggschga_1_1gwent_1_1ui_1_1dialogs_1_1addcard_1_1AddCardDialog.xhtml" target="_top" xlink:title="An OverlayDialog used to add new UnitEntity objects to a certain #row.">
<polygon fill="white" stroke="#666666" points="310,-56 221,-56 221,-37 310,-37 310,-56"/>
<text text-anchor="middle" x="265.5" y="-44" font-family="Helvetica,sans-Serif" font-size="10.00">AddCardDialog</text>
</a>
</g>
</g>
<!-- Node1&#45;&gt;Node4 -->
<g id="edge18_Node000001_Node000004" class="edge">
<title>Node1&#45;&gt;Node4</title>
<g id="a_edge18_Node000001_Node000004"><a xlink:title=" ">
<path fill="none" stroke="#63b8ff" d="M180.15,-57.62C193.61,-55.85 207.95,-53.96 220.92,-52.25"/>
<polygon fill="#63b8ff" stroke="#63b8ff" points="179.52,-54.18 170.07,-58.95 180.44,-61.12 179.52,-54.18"/>
</a>
</g>
</g>
<!-- Node5 -->
<g id="Node000005" class="node">
<title>Node5</title>
<g id="a_Node000005"><a xlink:href="classcom_1_1peternaggschga_1_1gwent_1_1ui_1_1dialogs_1_1cards_1_1ShowUnitsDialog.xhtml" target="_top" xlink:title="An OverlayDialog used to list the units of a certain row and enabling the user to copy,...">
<polygon fill="white" stroke="#666666" points="315.5,-19 215.5,-19 215.5,0 315.5,0 315.5,-19"/>
<text text-anchor="middle" x="265.5" y="-7" font-family="Helvetica,sans-Serif" font-size="10.00">ShowUnitsDialog</text>
</a>
</g>
</g>
<!-- Node1&#45;&gt;Node5 -->
<g id="edge19_Node000001_Node000005" class="edge">
<title>Node1&#45;&gt;Node5</title>
<g id="a_edge19_Node000001_Node000005"><a xlink:title=" ">
<path fill="none" stroke="#63b8ff" d="M156.03,-50.59C170.73,-43.54 189.14,-35.1 206,-28.5 214.55,-25.15 223.96,-21.91 232.68,-19.08"/>
<polygon fill="#63b8ff" stroke="#63b8ff" points="154.43,-47.47 146.96,-54.98 157.48,-53.77 154.43,-47.47"/>
</a>
</g>
</g>
</g>
</svg>
