<?xml version="1.0" encoding="UTF-8" standalone="no"?>
<!DOCTYPE svg PUBLIC "-//W3C//DTD SVG 1.1//EN"
 "http://www.w3.org/Graphics/SVG/1.1/DTD/svg11.dtd">
<!-- Generated by graphviz version 2.43.0 (0)
 -->
<!-- Title: Graphical Class Hierarchy Pages: 1 -->
<svg width="525pt" height="104pt"
 viewBox="0.00 0.00 525.00 104.00" xmlns="http://www.w3.org/2000/svg" xmlns:xlink="http://www.w3.org/1999/xlink">
<g id="graph0" class="graph" transform="scale(1 1) rotate(0) translate(4 100)">
<title>Graphical Class Hierarchy</title>
<polygon fill="white" stroke="transparent" points="-4,4 -4,-100 521,-100 521,4 -4,4"/>
<!-- Node0 -->
<g id="node1" class="node">
<title>Node0</title>
<g id="a_node1"><a xlink:href="interfacecom_1_1peternaggschga_1_1gwent_1_1domain_1_1damage_1_1DamageCalculator.xhtml" target="_top" xlink:title="An interface for a class capable of calculating the (de&#45;)buffed damage of a unit for a given UnitEnti...">
<polygon fill="white" stroke="black" points="0,-19.5 0,-38.5 107,-38.5 107,-19.5 0,-19.5"/>
<text text-anchor="middle" x="53.5" y="-26.5" font-family="Helvetica,sans-Serif" font-size="10.00">DamageCalculator</text>
</a>
</g>
</g>
<!-- Node1 -->
<g id="node2" class="node">
<title>Node1</title>
<g id="a_node2"><a xlink:href="classcom_1_1peternaggschga_1_1gwent_1_1domain_1_1damage_1_1DamageCalculatorDecorator.xhtml" target="_top" xlink:title="An abstract DamageCalculator that is used as a superclass for the decorator classes implementing the ...">
<polygon fill="white" stroke="black" points="143,-38.5 143,-57.5 298,-57.5 298,-38.5 143,-38.5"/>
<text text-anchor="middle" x="220.5" y="-45.5" font-family="Helvetica,sans-Serif" font-size="10.00">DamageCalculatorDecorator</text>
</a>
</g>
</g>
<!-- Node0&#45;&gt;Node1 -->
<g id="edge1" class="edge">
<title>Node0&#45;&gt;Node1</title>
<path fill="none" stroke="midnightblue" d="M117.25,-36.23C125.66,-37.19 134.37,-38.2 142.98,-39.19"/>
<polygon fill="midnightblue" stroke="midnightblue" points="117.5,-32.73 107.16,-35.06 116.69,-39.69 117.5,-32.73"/>
</g>
<!-- Node5 -->
<g id="node6" class="node">
<title>Node5</title>
<g id="a_node6"><a xlink:href="classcom_1_1peternaggschga_1_1gwent_1_1domain_1_1damage_1_1WeatherDamageCalculator.xhtml" target="_top" xlink:title="A DamageCalculator class responsible for calculating the weather debuff if necessary,...">
<polygon fill="white" stroke="black" points="146.5,-0.5 146.5,-19.5 294.5,-19.5 294.5,-0.5 146.5,-0.5"/>
<text text-anchor="middle" x="220.5" y="-7.5" font-family="Helvetica,sans-Serif" font-size="10.00">WeatherDamageCalculator</text>
</a>
</g>
</g>
<!-- Node0&#45;&gt;Node5 -->
<g id="edge5" class="edge">
<title>Node0&#45;&gt;Node5</title>
<path fill="none" stroke="midnightblue" d="M117.28,-21.77C126.76,-20.68 136.61,-19.55 146.28,-18.43"/>
<polygon fill="midnightblue" stroke="midnightblue" points="116.69,-18.31 107.16,-22.94 117.5,-25.27 116.69,-18.31"/>
</g>
<!-- Node2 -->
<g id="node3" class="node">
<title>Node2</title>
<g id="a_node3"><a xlink:href="classcom_1_1peternaggschga_1_1gwent_1_1domain_1_1damage_1_1BondDamageCalculatorDecorator.xhtml" target="_top" xlink:title="A DamageCalculator class responsible for calculating the tight bond buff if necessary,...">
<polygon fill="white" stroke="black" points="335.5,-76.5 335.5,-95.5 515.5,-95.5 515.5,-76.5 335.5,-76.5"/>
<text text-anchor="middle" x="425.5" y="-83.5" font-family="Helvetica,sans-Serif" font-size="10.00">BondDamageCalculatorDecorator</text>
</a>
</g>
</g>
<!-- Node1&#45;&gt;Node2 -->
<g id="edge2" class="edge">
<title>Node1&#45;&gt;Node2</title>
<path fill="none" stroke="midnightblue" d="M282.5,-59.42C311.54,-64.86 345.88,-71.28 373.52,-76.46"/>
<polygon fill="midnightblue" stroke="midnightblue" points="282.94,-55.94 272.46,-57.54 281.65,-62.82 282.94,-55.94"/>
</g>
<!-- Node3 -->
<g id="node4" class="node">
<title>Node3</title>
<g id="a_node4"><a xlink:href="classcom_1_1peternaggschga_1_1gwent_1_1domain_1_1damage_1_1HornDamageCalculatorDecorator.xhtml" target="_top" xlink:title="A DamageCalculator class responsible for calculating the horn buff if necessary, i....">
<polygon fill="white" stroke="black" points="336,-38.5 336,-57.5 515,-57.5 515,-38.5 336,-38.5"/>
<text text-anchor="middle" x="425.5" y="-45.5" font-family="Helvetica,sans-Serif" font-size="10.00">HornDamageCalculatorDecorator</text>
</a>
</g>
</g>
<!-- Node1&#45;&gt;Node3 -->
<g id="edge3" class="edge">
<title>Node1&#45;&gt;Node3</title>
<path fill="none" stroke="midnightblue" d="M308.38,-48C317.44,-48 326.65,-48 335.72,-48"/>
<polygon fill="midnightblue" stroke="midnightblue" points="308.25,-44.5 298.25,-48 308.25,-51.5 308.25,-44.5"/>
</g>
<!-- Node4 -->
<g id="node5" class="node">
<title>Node4</title>
<g id="a_node5"><a xlink:href="classcom_1_1peternaggschga_1_1gwent_1_1domain_1_1damage_1_1MoralDamageCalculatorDecorator.xhtml" target="_top" xlink:title="A DamageCalculator class responsible for calculating the moral buff if necessary, i....">
<polygon fill="white" stroke="black" points="334,-0.5 334,-19.5 517,-19.5 517,-0.5 334,-0.5"/>
<text text-anchor="middle" x="425.5" y="-7.5" font-family="Helvetica,sans-Serif" font-size="10.00">MoralDamageCalculatorDecorator</text>
</a>
</g>
</g>
<!-- Node1&#45;&gt;Node4 -->
<g id="edge4" class="edge">
<title>Node1&#45;&gt;Node4</title>
<path fill="none" stroke="midnightblue" d="M282.5,-36.58C311.54,-31.14 345.88,-24.72 373.52,-19.54"/>
<polygon fill="midnightblue" stroke="midnightblue" points="281.65,-33.18 272.46,-38.46 282.94,-40.06 281.65,-33.18"/>
</g>
</g>
</svg>
