<?xml version="1.0" encoding="UTF-8" standalone="no"?>
<!DOCTYPE svg PUBLIC "-//W3C//DTD SVG 1.1//EN"
 "http://www.w3.org/Graphics/SVG/1.1/DTD/svg11.dtd">
<!-- Generated by graphviz version 2.43.0 (0)
 -->
<!-- Title: Graphical Class Hierarchy Pages: 1 -->
<svg width="344pt" height="148pt"
 viewBox="0.00 0.00 344.00 147.50" xmlns="http://www.w3.org/2000/svg" xmlns:xlink="http://www.w3.org/1999/xlink">
<g id="graph0" class="graph" transform="scale(1 1) rotate(0) translate(4 143.5)">
<title>Graphical Class Hierarchy</title>
<polygon fill="white" stroke="transparent" points="-4,4 -4,-143.5 340,-143.5 340,4 -4,4"/>
<!-- Node1 -->
<g id="node1" class="node">
<title>Node1</title>
<g id="a_node1"><a xlink:title=" ">
<polygon fill="white" stroke="#bfbfbf" points="0,-109 0,-139 152,-139 152,-109 0,-109"/>
<text text-anchor="start" x="8" y="-127" font-family="Helvetica,sans-Serif" font-size="10.00">OnPreferenceStartFragment</text>
<text text-anchor="middle" x="76" y="-116" font-family="Helvetica,sans-Serif" font-size="10.00">Callback</text>
</a>
</g>
</g>
<!-- Node0 -->
<g id="node2" class="node">
<title>Node0</title>
<g id="a_node2"><a xlink:href="classcom_1_1peternaggschga_1_1gwent_1_1SettingsActivity.xhtml" target="_top" xlink:title=" ">
<polygon fill="white" stroke="black" points="215,-114.5 215,-133.5 309,-133.5 309,-114.5 215,-114.5"/>
<text text-anchor="middle" x="262" y="-121.5" font-family="Helvetica,sans-Serif" font-size="10.00">SettingsActivity</text>
</a>
</g>
</g>
<!-- Node1&#45;&gt;Node0 -->
<g id="edge1" class="edge">
<title>Node1&#45;&gt;Node0</title>
<path fill="none" stroke="midnightblue" d="M162.15,-124C180.32,-124 198.85,-124 214.89,-124"/>
<polygon fill="midnightblue" stroke="midnightblue" points="162.11,-120.5 152.11,-124 162.11,-127.5 162.11,-120.5"/>
</g>
<!-- Node7 -->
<g id="node3" class="node">
<title>Node7</title>
<g id="a_node3"><a xlink:title=" ">
<polygon fill="white" stroke="#bfbfbf" points="20.5,-54.5 20.5,-73.5 131.5,-73.5 131.5,-54.5 20.5,-54.5"/>
<text text-anchor="middle" x="76" y="-61.5" font-family="Helvetica,sans-Serif" font-size="10.00">AppCompatActivity</text>
</a>
</g>
</g>
<!-- Node7&#45;&gt;Node0 -->
<g id="edge5" class="edge">
<title>Node7&#45;&gt;Node0</title>
<path fill="none" stroke="midnightblue" d="M110.5,-77.36C132.37,-85.84 161.65,-96.73 188,-105 198.75,-108.37 210.51,-111.62 221.4,-114.46"/>
<polygon fill="midnightblue" stroke="midnightblue" points="111.6,-74.03 101.01,-73.66 109.05,-80.55 111.6,-74.03"/>
</g>
<!-- Node8 -->
<g id="node4" class="node">
<title>Node8</title>
<g id="a_node4"><a xlink:href="classcom_1_1peternaggschga_1_1gwent_1_1MainActivity.xhtml" target="_top" xlink:title=" ">
<polygon fill="white" stroke="black" points="223,-76.5 223,-95.5 301,-95.5 301,-76.5 223,-76.5"/>
<text text-anchor="middle" x="262" y="-83.5" font-family="Helvetica,sans-Serif" font-size="10.00">MainActivity</text>
</a>
</g>
</g>
<!-- Node7&#45;&gt;Node8 -->
<g id="edge2" class="edge">
<title>Node7&#45;&gt;Node8</title>
<path fill="none" stroke="midnightblue" d="M141.89,-71.76C168.96,-75 199.47,-78.64 222.84,-81.44"/>
<polygon fill="midnightblue" stroke="midnightblue" points="142.05,-68.25 131.71,-70.54 141.22,-75.2 142.05,-68.25"/>
</g>
<!-- Node9 -->
<g id="node5" class="node">
<title>Node9</title>
<g id="a_node5"><a xlink:href="classcom_1_1peternaggschga_1_1gwent_1_1OnboardingSupportActivity.xhtml" target="_top" xlink:title=" ">
<polygon fill="white" stroke="black" points="188,-38.5 188,-57.5 336,-57.5 336,-38.5 188,-38.5"/>
<text text-anchor="middle" x="262" y="-45.5" font-family="Helvetica,sans-Serif" font-size="10.00">OnboardingSupportActivity</text>
</a>
</g>
</g>
<!-- Node7&#45;&gt;Node9 -->
<g id="edge3" class="edge">
<title>Node7&#45;&gt;Node9</title>
<path fill="none" stroke="midnightblue" d="M141.81,-58.36C156.67,-57.07 172.57,-55.69 187.76,-54.37"/>
<polygon fill="midnightblue" stroke="midnightblue" points="141.37,-54.89 131.71,-59.24 141.97,-61.86 141.37,-54.89"/>
</g>
<!-- Node10 -->
<g id="node6" class="node">
<title>Node10</title>
<g id="a_node6"><a xlink:href="classcom_1_1peternaggschga_1_1gwent_1_1RuleActivity.xhtml" target="_top" xlink:title=" ">
<polygon fill="white" stroke="black" points="224,-0.5 224,-19.5 300,-19.5 300,-0.5 224,-0.5"/>
<text text-anchor="middle" x="262" y="-7.5" font-family="Helvetica,sans-Serif" font-size="10.00">RuleActivity</text>
</a>
</g>
</g>
<!-- Node7&#45;&gt;Node10 -->
<g id="edge4" class="edge">
<title>Node7&#45;&gt;Node10</title>
<path fill="none" stroke="midnightblue" d="M115.73,-51.26C136.99,-44.4 163.86,-35.94 188,-29 199.58,-25.67 212.26,-22.28 223.76,-19.3"/>
<polygon fill="midnightblue" stroke="midnightblue" points="114.52,-47.97 106.09,-54.38 116.68,-54.63 114.52,-47.97"/>
</g>
</g>
</svg>
