<?xml version="1.0" encoding="UTF-8" standalone="no"?>
<!DOCTYPE svg PUBLIC "-//W3C//DTD SVG 1.1//EN"
 "http://www.w3.org/Graphics/SVG/1.1/DTD/svg11.dtd">
<!-- Generated by graphviz version 2.43.0 (0)
 -->
<!-- Title: Graphical Class Hierarchy Pages: 1 -->
<svg width="336pt" height="104pt"
 viewBox="0.00 0.00 336.00 104.00" xmlns="http://www.w3.org/2000/svg" xmlns:xlink="http://www.w3.org/1999/xlink">
<g id="graph0" class="graph" transform="scale(1 1) rotate(0) translate(4 100)">
<title>Graphical Class Hierarchy</title>
<polygon fill="white" stroke="transparent" points="-4,4 -4,-100 332,-100 332,4 -4,4"/>
<!-- Node74 -->
<g id="node1" class="node">
<title>Node74</title>
<g id="a_node1"><a xlink:title=" ">
<polygon fill="white" stroke="#bfbfbf" points="0,-38.5 0,-57.5 154,-57.5 154,-38.5 0,-38.5"/>
<text text-anchor="middle" x="77" y="-45.5" font-family="Helvetica,sans-Serif" font-size="10.00">PreferenceFragmentCompat</text>
</a>
</g>
</g>
<!-- Node0 -->
<g id="node2" class="node">
<title>Node0</title>
<g id="a_node2"><a xlink:href="classcom_1_1peternaggschga_1_1gwent_1_1ui_1_1settings_1_1SettingsHeaderFragment.xhtml" target="_top" xlink:title="A PreferenceFragmentCompat class encapsulating the main preference screen, i.e., the Preferences defi...">
<polygon fill="white" stroke="black" points="190,-76.5 190,-95.5 328,-95.5 328,-76.5 190,-76.5"/>
<text text-anchor="middle" x="259" y="-83.5" font-family="Helvetica,sans-Serif" font-size="10.00">SettingsHeaderFragment</text>
</a>
</g>
</g>
<!-- Node74&#45;&gt;Node0 -->
<g id="edge1" class="edge">
<title>Node74&#45;&gt;Node0</title>
<path fill="none" stroke="midnightblue" d="M133.33,-59.68C158.86,-65.07 188.78,-71.39 212.91,-76.48"/>
<polygon fill="midnightblue" stroke="midnightblue" points="133.93,-56.23 123.42,-57.59 132.48,-63.08 133.93,-56.23"/>
</g>
<!-- Node76 -->
<g id="node3" class="node">
<title>Node76</title>
<g id="a_node3"><a xlink:href="classcom_1_1peternaggschga_1_1gwent_1_1ui_1_1settings_1_1SettingsRuleFragment.xhtml" target="_top" xlink:title="A PreferenceFragmentCompat class encapsulating the rule preference screen, i.e., the rule sections de...">
<polygon fill="white" stroke="black" points="196.5,-38.5 196.5,-57.5 321.5,-57.5 321.5,-38.5 196.5,-38.5"/>
<text text-anchor="middle" x="259" y="-45.5" font-family="Helvetica,sans-Serif" font-size="10.00">SettingsRuleFragment</text>
</a>
</g>
</g>
<!-- Node74&#45;&gt;Node76 -->
<g id="edge2" class="edge">
<title>Node74&#45;&gt;Node76</title>
<path fill="none" stroke="midnightblue" d="M164.39,-48C175.18,-48 186.05,-48 196.36,-48"/>
<polygon fill="midnightblue" stroke="midnightblue" points="164.08,-44.5 154.08,-48 164.08,-51.5 164.08,-44.5"/>
</g>
<!-- Node77 -->
<g id="node4" class="node">
<title>Node77</title>
<g id="a_node4"><a xlink:href="classcom_1_1peternaggschga_1_1gwent_1_1ui_1_1settings_1_1SettingsSoundFragment.xhtml" target="_top" xlink:title="A PreferenceFragmentCompat class encapsulating the sound preference screen, i.e., the Preferences def...">
<polygon fill="white" stroke="black" points="192.5,-0.5 192.5,-19.5 325.5,-19.5 325.5,-0.5 192.5,-0.5"/>
<text text-anchor="middle" x="259" y="-7.5" font-family="Helvetica,sans-Serif" font-size="10.00">SettingsSoundFragment</text>
</a>
</g>
</g>
<!-- Node74&#45;&gt;Node77 -->
<g id="edge3" class="edge">
<title>Node74&#45;&gt;Node77</title>
<path fill="none" stroke="midnightblue" d="M133.33,-36.32C158.86,-30.93 188.78,-24.61 212.91,-19.52"/>
<polygon fill="midnightblue" stroke="midnightblue" points="132.48,-32.92 123.42,-38.41 133.93,-39.77 132.48,-32.92"/>
</g>
</g>
</svg>
