<?xml version="1.0" encoding="UTF-8" standalone="no"?>
<!DOCTYPE svg PUBLIC "-//W3C//DTD SVG 1.1//EN"
 "http://www.w3.org/Graphics/SVG/1.1/DTD/svg11.dtd">
<!-- Generated by graphviz version 2.43.0 (0)
 -->
<!-- Title: Graphical Class Hierarchy Pages: 1 -->
<svg width="309pt" height="144pt"
 viewBox="0.00 0.00 309.00 143.50" xmlns="http://www.w3.org/2000/svg" xmlns:xlink="http://www.w3.org/1999/xlink">
<g id="graph0" class="graph" transform="scale(1 1) rotate(0) translate(4 139.5)">
<title>Graphical Class Hierarchy</title>
<!-- Node0 -->
<g id="Node000000" class="node">
<title>Node0</title>
<g id="a_Node000000"><a xlink:title=" ">
<polygon fill="#e0e0e0" stroke="#999999" points="131.5,-82.5 20.5,-82.5 20.5,-63.5 131.5,-63.5 131.5,-82.5"/>
<text text-anchor="middle" x="76" y="-70.5" font-family="Helvetica,sans-Serif" font-size="10.00">AppCompatActivity</text>
</a>
</g>
</g>
<!-- Node1 -->
<g id="Node000001" class="node">
<title>Node1</title>
<g id="a_Node000001"><a xlink:href="classcom_1_1peternaggschga_1_1gwent_1_1ui_1_1introduction_1_1IntroductionActivity.xhtml" target="_top" xlink:title="An AppCompatActivity that gives the user an introduction into the usage of the application.">
<polygon fill="white" stroke="#666666" points="301,-135.5 188,-135.5 188,-116.5 301,-116.5 301,-135.5"/>
<text text-anchor="middle" x="244.5" y="-123.5" font-family="Helvetica,sans-Serif" font-size="10.00">IntroductionActivity</text>
</a>
</g>
</g>
<!-- Node0&#45;&gt;Node1 -->
<g id="edge2_Node000000_Node000001" class="edge">
<title>Node0&#45;&gt;Node1</title>
<g id="a_edge2_Node000000_Node000001"><a xlink:title=" ">
<path fill="none" stroke="#63b8ff" d="M116.81,-85.67C146.54,-95.13 186.53,-107.87 213.57,-116.47"/>
<polygon fill="#63b8ff" stroke="#63b8ff" points="117.74,-82.3 107.15,-82.6 115.62,-88.97 117.74,-82.3"/>
</a>
</g>
</g>
<!-- Node2 -->
<g id="Node000002" class="node">
<title>Node2</title>
<g id="a_Node000002"><a xlink:href="classcom_1_1peternaggschga_1_1gwent_1_1ui_1_1main_1_1MainActivity.xhtml" target="_top" xlink:title="An AppCompatActivity that is called on startup and that encapsulates the main view onto the game boar...">
<polygon fill="white" stroke="#666666" points="283.5,-98.5 205.5,-98.5 205.5,-79.5 283.5,-79.5 283.5,-98.5"/>
<text text-anchor="middle" x="244.5" y="-86.5" font-family="Helvetica,sans-Serif" font-size="10.00">MainActivity</text>
</a>
</g>
</g>
<!-- Node0&#45;&gt;Node2 -->
<g id="edge3_Node000000_Node000002" class="edge">
<title>Node0&#45;&gt;Node2</title>
<g id="a_edge3_Node000000_Node000002"><a xlink:title=" ">
<path fill="none" stroke="#63b8ff" d="M141.62,-79.21C163.21,-81.28 186.57,-83.53 205.46,-85.34"/>
<polygon fill="#63b8ff" stroke="#63b8ff" points="141.81,-75.71 131.52,-78.24 141.14,-82.68 141.81,-75.71"/>
</a>
</g>
</g>
<!-- Node3 -->
<g id="Node000003" class="node">
<title>Node3</title>
<g id="a_Node000003"><a xlink:href="classcom_1_1peternaggschga_1_1gwent_1_1ui_1_1settings_1_1RuleActivity.xhtml" target="_top" xlink:title="An AppCompatActivity used to present the rules of the game.">
<polygon fill="white" stroke="#666666" points="282.5,-61.5 206.5,-61.5 206.5,-42.5 282.5,-42.5 282.5,-61.5"/>
<text text-anchor="middle" x="244.5" y="-49.5" font-family="Helvetica,sans-Serif" font-size="10.00">RuleActivity</text>
</a>
</g>
</g>
<!-- Node0&#45;&gt;Node3 -->
<g id="edge4_Node000000_Node000003" class="edge">
<title>Node0&#45;&gt;Node3</title>
<g id="a_edge4_Node000000_Node000003"><a xlink:title=" ">
<path fill="none" stroke="#63b8ff" d="M141.48,-64.87C163.51,-62.09 187.38,-59.08 206.49,-56.67"/>
<polygon fill="#63b8ff" stroke="#63b8ff" points="141,-61.4 131.52,-66.12 141.88,-68.34 141,-61.4"/>
</a>
</g>
</g>
<!-- Node4 -->
<g id="Node000004" class="node">
<title>Node4</title>
<g id="a_Node000004"><a xlink:href="classcom_1_1peternaggschga_1_1gwent_1_1ui_1_1settings_1_1SettingsActivity.xhtml" target="_top" xlink:title="An AppCompatActivity implementing PreferenceFragmentCompat.OnPreferenceStartFragmentCallback that is ...">
<polygon fill="white" stroke="#666666" points="291.5,-24.5 197.5,-24.5 197.5,-5.5 291.5,-5.5 291.5,-24.5"/>
<text text-anchor="middle" x="244.5" y="-12.5" font-family="Helvetica,sans-Serif" font-size="10.00">SettingsActivity</text>
</a>
</g>
</g>
<!-- Node0&#45;&gt;Node4 -->
<g id="edge5_Node000000_Node000004" class="edge">
<title>Node0&#45;&gt;Node4</title>
<g id="a_edge5_Node000000_Node000004"><a xlink:title=" ">
<path fill="none" stroke="#63b8ff" d="M112.42,-59.91C134.16,-51.95 162.62,-41.69 188,-33 196.24,-30.18 205.21,-27.22 213.49,-24.54"/>
<polygon fill="#63b8ff" stroke="#63b8ff" points="111.12,-56.66 102.93,-63.39 113.53,-63.23 111.12,-56.66"/>
</a>
</g>
</g>
<!-- Node5 -->
<g id="Node000005" class="node">
<title>Node5</title>
<g id="a_Node000005"><a xlink:title=" ">
<polygon fill="#e0e0e0" stroke="#999999" points="152,-30 0,-30 0,0 152,0 152,-30"/>
<text text-anchor="start" x="8" y="-18" font-family="Helvetica,sans-Serif" font-size="10.00">OnPreferenceStartFragment</text>
<text text-anchor="middle" x="76" y="-7" font-family="Helvetica,sans-Serif" font-size="10.00">Callback</text>
</a>
</g>
</g>
<!-- Node5&#45;&gt;Node4 -->
<g id="edge6_Node000005_Node000004" class="edge">
<title>Node5&#45;&gt;Node4</title>
<g id="a_edge6_Node000005_Node000004"><a xlink:title=" ">
<path fill="none" stroke="#63b8ff" d="M162.54,-15C174.54,-15 186.49,-15 197.37,-15"/>
<polygon fill="#63b8ff" stroke="#63b8ff" points="162.46,-11.5 152.46,-15 162.46,-18.5 162.46,-11.5"/>
</a>
</g>
</g>
</g>
</svg>
