<?xml version="1.0" encoding="UTF-8" standalone="no"?>
<!DOCTYPE svg PUBLIC "-//W3C//DTD SVG 1.1//EN"
 "http://www.w3.org/Graphics/SVG/1.1/DTD/svg11.dtd">
<!-- Generated by graphviz version 2.43.0 (0)
 -->
<!-- Title: Graphical Class Hierarchy Pages: 1 -->
<svg width="309pt" height="148pt"
 viewBox="0.00 0.00 309.00 147.50" xmlns="http://www.w3.org/2000/svg" xmlns:xlink="http://www.w3.org/1999/xlink">
<g id="graph0" class="graph" transform="scale(1 1) rotate(0) translate(4 143.5)">
<title>Graphical Class Hierarchy</title>
<polygon fill="white" stroke="transparent" points="-4,4 -4,-143.5 305,-143.5 305,4 -4,4"/>
<!-- Node22 -->
<g id="node1" class="node">
<title>Node22</title>
<g id="a_node1"><a xlink:title=" ">
<polygon fill="white" stroke="#bfbfbf" points="0,-109 0,-139 152,-139 152,-109 0,-109"/>
<text text-anchor="start" x="8" y="-127" font-family="Helvetica,sans-Serif" font-size="10.00">OnPreferenceStartFragment</text>
<text text-anchor="middle" x="76" y="-116" font-family="Helvetica,sans-Serif" font-size="10.00">Callback</text>
</a>
</g>
</g>
<!-- Node0 -->
<g id="node2" class="node">
<title>Node0</title>
<g id="a_node2"><a xlink:href="classcom_1_1peternaggschga_1_1gwent_1_1ui_1_1settings_1_1SettingsActivity.xhtml" target="_top" xlink:title="An AppCompatActivity implementing PreferenceFragmentCompat.OnPreferenceStartFragmentCallback that is ...">
<polygon fill="white" stroke="black" points="197.5,-114.5 197.5,-133.5 291.5,-133.5 291.5,-114.5 197.5,-114.5"/>
<text text-anchor="middle" x="244.5" y="-121.5" font-family="Helvetica,sans-Serif" font-size="10.00">SettingsActivity</text>
</a>
</g>
</g>
<!-- Node22&#45;&gt;Node0 -->
<g id="edge1" class="edge">
<title>Node22&#45;&gt;Node0</title>
<path fill="none" stroke="midnightblue" d="M162.54,-124C174.54,-124 186.49,-124 197.37,-124"/>
<polygon fill="midnightblue" stroke="midnightblue" points="162.46,-120.5 152.46,-124 162.46,-127.5 162.46,-120.5"/>
</g>
<!-- Node53 -->
<g id="node3" class="node">
<title>Node53</title>
<g id="a_node3"><a xlink:title=" ">
<polygon fill="white" stroke="#bfbfbf" points="20.5,-54.5 20.5,-73.5 131.5,-73.5 131.5,-54.5 20.5,-54.5"/>
<text text-anchor="middle" x="76" y="-61.5" font-family="Helvetica,sans-Serif" font-size="10.00">AppCompatActivity</text>
</a>
</g>
</g>
<!-- Node53&#45;&gt;Node0 -->
<g id="edge5" class="edge">
<title>Node53&#45;&gt;Node0</title>
<path fill="none" stroke="midnightblue" d="M112.01,-77.18C133.82,-85.32 162.49,-95.92 188,-105 196.83,-108.14 206.48,-111.48 215.22,-114.46"/>
<polygon fill="midnightblue" stroke="midnightblue" points="113.1,-73.85 102.51,-73.62 110.65,-80.4 113.1,-73.85"/>
</g>
<!-- Node54 -->
<g id="node4" class="node">
<title>Node54</title>
<g id="a_node4"><a xlink:href="classcom_1_1peternaggschga_1_1gwent_1_1ui_1_1introduction_1_1IntroductionActivity.xhtml" target="_top" xlink:title="An AppCompatActivity that gives the user an introduction into the usage of the application.">
<polygon fill="white" stroke="black" points="188,-76.5 188,-95.5 301,-95.5 301,-76.5 188,-76.5"/>
<text text-anchor="middle" x="244.5" y="-83.5" font-family="Helvetica,sans-Serif" font-size="10.00">IntroductionActivity</text>
</a>
</g>
</g>
<!-- Node53&#45;&gt;Node54 -->
<g id="edge2" class="edge">
<title>Node53&#45;&gt;Node54</title>
<path fill="none" stroke="midnightblue" d="M141.84,-72.57C156.99,-74.57 173,-76.68 187.72,-78.63"/>
<polygon fill="midnightblue" stroke="midnightblue" points="141.89,-69.04 131.52,-71.2 140.97,-75.98 141.89,-69.04"/>
</g>
<!-- Node55 -->
<g id="node5" class="node">
<title>Node55</title>
<g id="a_node5"><a xlink:href="classcom_1_1peternaggschga_1_1gwent_1_1ui_1_1main_1_1MainActivity.xhtml" target="_top" xlink:title="An AppCompatActivity that is called on startup and that encapsulates the main view onto the game boar...">
<polygon fill="white" stroke="black" points="205.5,-38.5 205.5,-57.5 283.5,-57.5 283.5,-38.5 205.5,-38.5"/>
<text text-anchor="middle" x="244.5" y="-45.5" font-family="Helvetica,sans-Serif" font-size="10.00">MainActivity</text>
</a>
</g>
</g>
<!-- Node53&#45;&gt;Node55 -->
<g id="edge3" class="edge">
<title>Node53&#45;&gt;Node55</title>
<path fill="none" stroke="midnightblue" d="M141.62,-57.79C163.21,-55.72 186.57,-53.47 205.46,-51.66"/>
<polygon fill="midnightblue" stroke="midnightblue" points="141.14,-54.32 131.52,-58.76 141.81,-61.29 141.14,-54.32"/>
</g>
<!-- Node56 -->
<g id="node6" class="node">
<title>Node56</title>
<g id="a_node6"><a xlink:href="classcom_1_1peternaggschga_1_1gwent_1_1ui_1_1settings_1_1RuleActivity.xhtml" target="_top" xlink:title="An AppCompatActivity used to present the rules of the game.">
<polygon fill="white" stroke="black" points="206.5,-0.5 206.5,-19.5 282.5,-19.5 282.5,-0.5 206.5,-0.5"/>
<text text-anchor="middle" x="244.5" y="-7.5" font-family="Helvetica,sans-Serif" font-size="10.00">RuleActivity</text>
</a>
</g>
</g>
<!-- Node53&#45;&gt;Node56 -->
<g id="edge4" class="edge">
<title>Node53&#45;&gt;Node56</title>
<path fill="none" stroke="midnightblue" d="M116.11,-51.32C146.11,-41.58 186.88,-28.36 214.13,-19.53"/>
<polygon fill="midnightblue" stroke="midnightblue" points="114.82,-48.06 106.38,-54.47 116.98,-54.71 114.82,-48.06"/>
</g>
</g>
</svg>
