<?xml version="1.0" encoding="UTF-8" standalone="no"?>
<!DOCTYPE svg PUBLIC "-//W3C//DTD SVG 1.1//EN"
 "http://www.w3.org/Graphics/SVG/1.1/DTD/svg11.dtd">
<!-- Generated by graphviz version 2.43.0 (0)
 -->
<!-- Title: Graphical Class Hierarchy Pages: 1 -->
<svg width="234pt" height="64pt"
 viewBox="0.00 0.00 234.00 64.00" xmlns="http://www.w3.org/2000/svg" xmlns:xlink="http://www.w3.org/1999/xlink">
<g id="graph0" class="graph" transform="scale(1 1) rotate(0) translate(4 60)">
<title>Graphical Class Hierarchy</title>
<!-- Node0 -->
<g id="Node000000" class="node">
<title>Node0</title>
<g id="a_Node000000"><a xlink:title=" ">
<polygon fill="#e0e0e0" stroke="#999999" points="66,-37 0,-37 0,-18 66,-18 66,-37"/>
<text text-anchor="middle" x="33" y="-25" font-family="Helvetica,sans-Serif" font-size="10.00">Consumer</text>
</a>
</g>
</g>
<!-- Node1 -->
<g id="Node000001" class="node">
<title>Node1</title>
<g id="a_Node000001"><a xlink:href="classcom_1_1peternaggschga_1_1gwent_1_1ui_1_1main_1_1MenuUiStateObserver.xhtml" target="_top" xlink:title="An observer class responsible for updating the menu views when notified, i.e., when a new MenuUiState...">
<polygon fill="white" stroke="#666666" points="226,-56 102,-56 102,-37 226,-37 226,-56"/>
<text text-anchor="middle" x="164" y="-44" font-family="Helvetica,sans-Serif" font-size="10.00">MenuUiStateObserver</text>
</a>
</g>
</g>
<!-- Node0&#45;&gt;Node1 -->
<g id="edge8_Node000000_Node000001" class="edge">
<title>Node0&#45;&gt;Node1</title>
<g id="a_edge8_Node000000_Node000001"><a xlink:title=" ">
<path fill="none" stroke="#63b8ff" d="M76.24,-33.72C84.42,-34.93 93.14,-36.21 101.79,-37.48"/>
<polygon fill="#63b8ff" stroke="#63b8ff" points="76.62,-30.24 66.22,-32.25 75.6,-37.17 76.62,-30.24"/>
</a>
</g>
</g>
<!-- Node2 -->
<g id="Node000002" class="node">
<title>Node2</title>
<g id="a_Node000002"><a xlink:href="classcom_1_1peternaggschga_1_1gwent_1_1ui_1_1main_1_1RowUiStateObserver.xhtml" target="_top" xlink:title="An observer class responsible for updating the views of the row defined in #row when notified,...">
<polygon fill="white" stroke="#666666" points="223,-19 105,-19 105,0 223,0 223,-19"/>
<text text-anchor="middle" x="164" y="-7" font-family="Helvetica,sans-Serif" font-size="10.00">RowUiStateObserver</text>
</a>
</g>
</g>
<!-- Node0&#45;&gt;Node2 -->
<g id="edge9_Node000000_Node000002" class="edge">
<title>Node0&#45;&gt;Node2</title>
<g id="a_edge9_Node000000_Node000002"><a xlink:title=" ">
<path fill="none" stroke="#63b8ff" d="M76.21,-21.61C85.36,-20.33 95.2,-18.96 104.84,-17.62"/>
<polygon fill="#63b8ff" stroke="#63b8ff" points="75.64,-18.16 66.22,-23 76.61,-25.09 75.64,-18.16"/>
</a>
</g>
</g>
</g>
</svg>
