<?xml version="1.0" encoding="UTF-8" standalone="no"?>
<!DOCTYPE svg PUBLIC "-//W3C//DTD SVG 1.1//EN"
 "http://www.w3.org/Graphics/SVG/1.1/DTD/svg11.dtd">
<!-- Generated by graphviz version 2.43.0 (0)
 -->
<!-- Title: Graphical Class Hierarchy Pages: 1 -->
<svg width="336pt" height="101pt"
 viewBox="0.00 0.00 336.00 101.00" xmlns="http://www.w3.org/2000/svg" xmlns:xlink="http://www.w3.org/1999/xlink">
<g id="graph0" class="graph" transform="scale(1 1) rotate(0) translate(4 97)">
<title>Graphical Class Hierarchy</title>
<!-- Node0 -->
<g id="Node000000" class="node">
<title>Node0</title>
<g id="a_Node000000"><a xlink:title=" ">
<polygon fill="#e0e0e0" stroke="#999999" points="154,-56 0,-56 0,-37 154,-37 154,-56"/>
<text text-anchor="middle" x="77" y="-44" font-family="Helvetica,sans-Serif" font-size="10.00">PreferenceFragmentCompat</text>
</a>
</g>
</g>
<!-- Node1 -->
<g id="Node000001" class="node">
<title>Node1</title>
<g id="a_Node000001"><a xlink:href="classcom_1_1peternaggschga_1_1gwent_1_1ui_1_1settings_1_1SettingsHeaderFragment.xhtml" target="_top" xlink:title="A PreferenceFragmentCompat class encapsulating the main preference screen, i.e., the Preferences defi...">
<polygon fill="white" stroke="#666666" points="328,-93 190,-93 190,-74 328,-74 328,-93"/>
<text text-anchor="middle" x="259" y="-81" font-family="Helvetica,sans-Serif" font-size="10.00">SettingsHeaderFragment</text>
</a>
</g>
</g>
<!-- Node0&#45;&gt;Node1 -->
<g id="edge24_Node000000_Node000001" class="edge">
<title>Node0&#45;&gt;Node1</title>
<g id="a_edge24_Node000000_Node000001"><a xlink:title=" ">
<path fill="none" stroke="#63b8ff" d="M134.35,-58.08C159.16,-63.18 187.94,-69.1 211.49,-73.94"/>
<polygon fill="#63b8ff" stroke="#63b8ff" points="134.85,-54.61 124.35,-56.03 133.44,-61.47 134.85,-54.61"/>
</a>
</g>
</g>
<!-- Node2 -->
<g id="Node000002" class="node">
<title>Node2</title>
<g id="a_Node000002"><a xlink:href="classcom_1_1peternaggschga_1_1gwent_1_1ui_1_1settings_1_1SettingsRuleFragment.xhtml" target="_top" xlink:title="A PreferenceFragmentCompat class encapsulating the rule preference screen, i.e., the rule sections de...">
<polygon fill="white" stroke="#666666" points="321.5,-56 196.5,-56 196.5,-37 321.5,-37 321.5,-56"/>
<text text-anchor="middle" x="259" y="-44" font-family="Helvetica,sans-Serif" font-size="10.00">SettingsRuleFragment</text>
</a>
</g>
</g>
<!-- Node0&#45;&gt;Node2 -->
<g id="edge25_Node000000_Node000002" class="edge">
<title>Node0&#45;&gt;Node2</title>
<g id="a_edge25_Node000000_Node000002"><a xlink:title=" ">
<path fill="none" stroke="#63b8ff" d="M164.39,-46.5C175.18,-46.5 186.05,-46.5 196.36,-46.5"/>
<polygon fill="#63b8ff" stroke="#63b8ff" points="164.08,-43 154.08,-46.5 164.08,-50 164.08,-43"/>
</a>
</g>
</g>
<!-- Node3 -->
<g id="Node000003" class="node">
<title>Node3</title>
<g id="a_Node000003"><a xlink:href="classcom_1_1peternaggschga_1_1gwent_1_1ui_1_1settings_1_1SettingsSoundFragment.xhtml" target="_top" xlink:title="A PreferenceFragmentCompat class encapsulating the sound preference screen, i.e., the Preferences def...">
<polygon fill="white" stroke="#666666" points="325.5,-19 192.5,-19 192.5,0 325.5,0 325.5,-19"/>
<text text-anchor="middle" x="259" y="-7" font-family="Helvetica,sans-Serif" font-size="10.00">SettingsSoundFragment</text>
</a>
</g>
</g>
<!-- Node0&#45;&gt;Node3 -->
<g id="edge26_Node000000_Node000003" class="edge">
<title>Node0&#45;&gt;Node3</title>
<g id="a_edge26_Node000000_Node000003"><a xlink:title=" ">
<path fill="none" stroke="#63b8ff" d="M134.35,-34.92C159.16,-29.82 187.94,-23.9 211.49,-19.06"/>
<polygon fill="#63b8ff" stroke="#63b8ff" points="133.44,-31.53 124.35,-36.97 134.85,-38.39 133.44,-31.53"/>
</a>
</g>
</g>
</g>
</svg>
