<?xml version="1.0" encoding="UTF-8" standalone="no"?>
<!DOCTYPE svg PUBLIC "-//W3C//DTD SVG 1.1//EN"
 "http://www.w3.org/Graphics/SVG/1.1/DTD/svg11.dtd">
<!-- Generated by graphviz version 2.43.0 (0)
 -->
<!-- Title: Graphical Class Hierarchy Pages: 1 -->
<svg width="234pt" height="66pt"
 viewBox="0.00 0.00 234.00 66.00" xmlns="http://www.w3.org/2000/svg" xmlns:xlink="http://www.w3.org/1999/xlink">
<g id="graph0" class="graph" transform="scale(1 1) rotate(0) translate(4 62)">
<title>Graphical Class Hierarchy</title>
<polygon fill="white" stroke="transparent" points="-4,4 -4,-62 230,-62 230,4 -4,4"/>
<!-- Node59 -->
<g id="node1" class="node">
<title>Node59</title>
<g id="a_node1"><a xlink:title=" ">
<polygon fill="white" stroke="#bfbfbf" points="0,-19.5 0,-38.5 66,-38.5 66,-19.5 0,-19.5"/>
<text text-anchor="middle" x="33" y="-26.5" font-family="Helvetica,sans-Serif" font-size="10.00">Consumer</text>
</a>
</g>
</g>
<!-- Node0 -->
<g id="node2" class="node">
<title>Node0</title>
<g id="a_node2"><a xlink:href="classcom_1_1peternaggschga_1_1gwent_1_1ui_1_1main_1_1MenuUiStateObserver.xhtml" target="_top" xlink:title="An observer class responsible for updating the menu views when notified, i.e., when a new MenuUiState...">
<polygon fill="white" stroke="black" points="102,-38.5 102,-57.5 226,-57.5 226,-38.5 102,-38.5"/>
<text text-anchor="middle" x="164" y="-45.5" font-family="Helvetica,sans-Serif" font-size="10.00">MenuUiStateObserver</text>
</a>
</g>
</g>
<!-- Node59&#45;&gt;Node0 -->
<g id="edge1" class="edge">
<title>Node59&#45;&gt;Node0</title>
<path fill="none" stroke="midnightblue" d="M76.24,-35.22C84.42,-36.43 93.14,-37.71 101.79,-38.98"/>
<polygon fill="midnightblue" stroke="midnightblue" points="76.62,-31.74 66.22,-33.75 75.6,-38.67 76.62,-31.74"/>
</g>
<!-- Node61 -->
<g id="node3" class="node">
<title>Node61</title>
<g id="a_node3"><a xlink:href="classcom_1_1peternaggschga_1_1gwent_1_1ui_1_1main_1_1RowUiStateObserver.xhtml" target="_top" xlink:title="An observer class responsible for updating the views of the row defined in #row when notified,...">
<polygon fill="white" stroke="black" points="105,-0.5 105,-19.5 223,-19.5 223,-0.5 105,-0.5"/>
<text text-anchor="middle" x="164" y="-7.5" font-family="Helvetica,sans-Serif" font-size="10.00">RowUiStateObserver</text>
</a>
</g>
</g>
<!-- Node59&#45;&gt;Node61 -->
<g id="edge2" class="edge">
<title>Node59&#45;&gt;Node61</title>
<path fill="none" stroke="midnightblue" d="M76.21,-22.78C85.36,-21.43 95.2,-19.99 104.84,-18.57"/>
<polygon fill="midnightblue" stroke="midnightblue" points="75.6,-19.33 66.22,-24.25 76.62,-26.26 75.6,-19.33"/>
</g>
</g>
</svg>
