<?xml version="1.0" encoding="UTF-8" standalone="no"?>
<!DOCTYPE svg PUBLIC "-//W3C//DTD SVG 1.1//EN"
 "http://www.w3.org/Graphics/SVG/1.1/DTD/svg11.dtd">
<!-- Generated by graphviz version 2.43.0 (0)
 -->
<!-- Title: Graphical Class Hierarchy Pages: 1 -->
<svg width="333pt" height="142pt"
 viewBox="0.00 0.00 333.00 142.00" xmlns="http://www.w3.org/2000/svg" xmlns:xlink="http://www.w3.org/1999/xlink">
<g id="graph0" class="graph" transform="scale(1 1) rotate(0) translate(4 138)">
<title>Graphical Class Hierarchy</title>
<polygon fill="white" stroke="transparent" points="-4,4 -4,-138 329,-138 329,4 -4,4"/>
<!-- Node62 -->
<g id="node1" class="node">
<title>Node62</title>
<g id="a_node1"><a xlink:title=" ">
<polygon fill="white" stroke="#bfbfbf" points="0,-57.5 0,-76.5 48,-76.5 48,-57.5 0,-57.5"/>
<text text-anchor="middle" x="24" y="-64.5" font-family="Helvetica,sans-Serif" font-size="10.00">Dialog</text>
</a>
</g>
</g>
<!-- Node0 -->
<g id="node2" class="node">
<title>Node0</title>
<g id="a_node2"><a xlink:href="classcom_1_1peternaggschga_1_1gwent_1_1ui_1_1dialogs_1_1OverlayDialog.xhtml" target="_top" xlink:title="A Dialog class which is used for popups that are shown on top of the calling Activity.">
<polygon fill="white" stroke="black" points="84,-57.5 84,-76.5 170,-76.5 170,-57.5 84,-57.5"/>
<text text-anchor="middle" x="127" y="-64.5" font-family="Helvetica,sans-Serif" font-size="10.00">OverlayDialog</text>
</a>
</g>
</g>
<!-- Node62&#45;&gt;Node0 -->
<g id="edge1" class="edge">
<title>Node62&#45;&gt;Node0</title>
<path fill="none" stroke="midnightblue" d="M58.42,-67C66.57,-67 75.39,-67 83.89,-67"/>
<polygon fill="midnightblue" stroke="midnightblue" points="58.17,-63.5 48.17,-67 58.17,-70.5 58.17,-63.5"/>
</g>
<!-- Node1 -->
<g id="node3" class="node">
<title>Node1</title>
<g id="a_node3"><a xlink:href="classcom_1_1peternaggschga_1_1gwent_1_1ui_1_1dialogs_1_1ChangeFactionDialog.xhtml" target="_top" xlink:title="An OverlayDialog class used to change the faction design.">
<polygon fill="white" stroke="black" points="206,-114.5 206,-133.5 325,-133.5 325,-114.5 206,-114.5"/>
<text text-anchor="middle" x="265.5" y="-121.5" font-family="Helvetica,sans-Serif" font-size="10.00">ChangeFactionDialog</text>
</a>
</g>
</g>
<!-- Node0&#45;&gt;Node1 -->
<g id="edge2" class="edge">
<title>Node0&#45;&gt;Node1</title>
<path fill="none" stroke="midnightblue" d="M155.06,-81.34C169.88,-88.89 188.7,-98.02 206,-105 214.42,-108.4 223.69,-111.63 232.33,-114.44"/>
<polygon fill="midnightblue" stroke="midnightblue" points="156.45,-78.12 145.96,-76.64 153.24,-84.33 156.45,-78.12"/>
</g>
<!-- Node2 -->
<g id="node4" class="node">
<title>Node2</title>
<g id="a_node4"><a xlink:href="classcom_1_1peternaggschga_1_1gwent_1_1ui_1_1dialogs_1_1CoinFlipDialog.xhtml" target="_top" xlink:title="An OverlayDialog class showing the result of a coin&#45;flip.">
<polygon fill="white" stroke="black" points="221.5,-76.5 221.5,-95.5 309.5,-95.5 309.5,-76.5 221.5,-76.5"/>
<text text-anchor="middle" x="265.5" y="-83.5" font-family="Helvetica,sans-Serif" font-size="10.00">CoinFlipDialog</text>
</a>
</g>
</g>
<!-- Node0&#45;&gt;Node2 -->
<g id="edge3" class="edge">
<title>Node0&#45;&gt;Node2</title>
<path fill="none" stroke="midnightblue" d="M180.25,-74.27C193.84,-76.16 208.33,-78.18 221.39,-80"/>
<polygon fill="midnightblue" stroke="midnightblue" points="180.46,-70.77 170.07,-72.86 179.49,-77.7 180.46,-70.77"/>
</g>
<!-- Node3 -->
<g id="node5" class="node">
<title>Node3</title>
<g id="a_node5"><a xlink:href="classcom_1_1peternaggschga_1_1gwent_1_1ui_1_1dialogs_1_1addcard_1_1AddCardDialog.xhtml" target="_top" xlink:title="An OverlayDialog used to add new UnitEntity objects to a certain row.">
<polygon fill="white" stroke="black" points="221,-38.5 221,-57.5 310,-57.5 310,-38.5 221,-38.5"/>
<text text-anchor="middle" x="265.5" y="-45.5" font-family="Helvetica,sans-Serif" font-size="10.00">AddCardDialog</text>
</a>
</g>
</g>
<!-- Node0&#45;&gt;Node3 -->
<g id="edge4" class="edge">
<title>Node0&#45;&gt;Node3</title>
<path fill="none" stroke="midnightblue" d="M180.15,-59.74C193.61,-57.87 207.95,-55.87 220.92,-54.07"/>
<polygon fill="midnightblue" stroke="midnightblue" points="179.49,-56.3 170.07,-61.14 180.46,-63.23 179.49,-56.3"/>
</g>
<!-- Node4 -->
<g id="node6" class="node">
<title>Node4</title>
<g id="a_node6"><a xlink:href="classcom_1_1peternaggschga_1_1gwent_1_1ui_1_1dialogs_1_1cards_1_1ShowUnitsDialog.xhtml" target="_top" xlink:title="An OverlayDialog used to list the units of a certain row and enabling the user to copy,...">
<polygon fill="white" stroke="black" points="215.5,-0.5 215.5,-19.5 315.5,-19.5 315.5,-0.5 215.5,-0.5"/>
<text text-anchor="middle" x="265.5" y="-7.5" font-family="Helvetica,sans-Serif" font-size="10.00">ShowUnitsDialog</text>
</a>
</g>
</g>
<!-- Node0&#45;&gt;Node4 -->
<g id="edge5" class="edge">
<title>Node0&#45;&gt;Node4</title>
<path fill="none" stroke="midnightblue" d="M155.06,-52.66C169.88,-45.11 188.7,-35.98 206,-29 214.42,-25.6 223.69,-22.37 232.33,-19.56"/>
<polygon fill="midnightblue" stroke="midnightblue" points="153.24,-49.67 145.96,-57.36 156.45,-55.88 153.24,-49.67"/>
</g>
</g>
</svg>
