<?xml version="1.0" encoding="UTF-8" standalone="no"?>
<!DOCTYPE svg PUBLIC "-//W3C//DTD SVG 1.1//EN"
 "http://www.w3.org/Graphics/SVG/1.1/DTD/svg11.dtd">
<!-- Generated by graphviz version 2.43.0 (0)
 -->
<!-- Title: Graphical Class Hierarchy Pages: 1 -->
<svg width="525pt" height="101pt"
 viewBox="0.00 0.00 525.00 101.00" xmlns="http://www.w3.org/2000/svg" xmlns:xlink="http://www.w3.org/1999/xlink">
<g id="graph0" class="graph" transform="scale(1 1) rotate(0) translate(4 97)">
<title>Graphical Class Hierarchy</title>
<!-- Node0 -->
<g id="Node000000" class="node">
<title>Node0</title>
<g id="a_Node000000"><a xlink:href="interfacecom_1_1peternaggschga_1_1gwent_1_1domain_1_1damage_1_1DamageCalculator.xhtml" target="_top" xlink:title="An interface for a class capable of calculating the (de&#45;)buffed damage of a unit for a given UnitEnti...">
<polygon fill="white" stroke="#666666" points="107,-37 0,-37 0,-18 107,-18 107,-37"/>
<text text-anchor="middle" x="53.5" y="-25" font-family="Helvetica,sans-Serif" font-size="10.00">DamageCalculator</text>
</a>
</g>
</g>
<!-- Node1 -->
<g id="Node000001" class="node">
<title>Node1</title>
<g id="a_Node000001"><a xlink:href="classcom_1_1peternaggschga_1_1gwent_1_1domain_1_1damage_1_1DamageCalculatorDecorator.xhtml" target="_top" xlink:title="An abstract DamageCalculator that is used as a superclass for the decorator classes implementing the ...">
<polygon fill="white" stroke="#666666" points="298,-56 143,-56 143,-37 298,-37 298,-56"/>
<text text-anchor="middle" x="220.5" y="-44" font-family="Helvetica,sans-Serif" font-size="10.00">DamageCalculatorDecorator</text>
</a>
</g>
</g>
<!-- Node0&#45;&gt;Node1 -->
<g id="edge10_Node000000_Node000001" class="edge">
<title>Node0&#45;&gt;Node1</title>
<g id="a_edge10_Node000000_Node000001"><a xlink:title=" ">
<path fill="none" stroke="#63b8ff" d="M117.25,-34.73C125.66,-35.69 134.37,-36.7 142.98,-37.69"/>
<polygon fill="#63b8ff" stroke="#63b8ff" points="117.5,-31.23 107.16,-33.56 116.69,-38.19 117.5,-31.23"/>
</a>
</g>
</g>
<!-- Node5 -->
<g id="Node000005" class="node">
<title>Node5</title>
<g id="a_Node000005"><a xlink:href="classcom_1_1peternaggschga_1_1gwent_1_1domain_1_1damage_1_1WeatherDamageCalculator.xhtml" target="_top" xlink:title="A DamageCalculator class responsible for calculating the weather debuff if necessary,...">
<polygon fill="white" stroke="#666666" points="294.5,-19 146.5,-19 146.5,0 294.5,0 294.5,-19"/>
<text text-anchor="middle" x="220.5" y="-7" font-family="Helvetica,sans-Serif" font-size="10.00">WeatherDamageCalculator</text>
</a>
</g>
</g>
<!-- Node0&#45;&gt;Node5 -->
<g id="edge14_Node000000_Node000005" class="edge">
<title>Node0&#45;&gt;Node5</title>
<g id="a_edge14_Node000000_Node000005"><a xlink:title=" ">
<path fill="none" stroke="#63b8ff" d="M117.28,-20.65C126.76,-19.62 136.61,-18.54 146.28,-17.49"/>
<polygon fill="#63b8ff" stroke="#63b8ff" points="116.72,-17.19 107.16,-21.76 117.48,-24.15 116.72,-17.19"/>
</a>
</g>
</g>
<!-- Node2 -->
<g id="Node000002" class="node">
<title>Node2</title>
<g id="a_Node000002"><a xlink:href="classcom_1_1peternaggschga_1_1gwent_1_1domain_1_1damage_1_1BondDamageCalculatorDecorator.xhtml" target="_top" xlink:title="A DamageCalculator class responsible for calculating the tight bond buff if necessary,...">
<polygon fill="white" stroke="#666666" points="515.5,-93 335.5,-93 335.5,-74 515.5,-74 515.5,-93"/>
<text text-anchor="middle" x="425.5" y="-81" font-family="Helvetica,sans-Serif" font-size="10.00">BondDamageCalculatorDecorator</text>
</a>
</g>
</g>
<!-- Node1&#45;&gt;Node2 -->
<g id="edge11_Node000001_Node000002" class="edge">
<title>Node1&#45;&gt;Node2</title>
<g id="a_edge11_Node000001_Node000002"><a xlink:title=" ">
<path fill="none" stroke="#63b8ff" d="M283.94,-57.88C312.16,-63.02 345.13,-69.03 372.05,-73.94"/>
<polygon fill="#63b8ff" stroke="#63b8ff" points="284.24,-54.38 273.78,-56.03 282.99,-61.26 284.24,-54.38"/>
</a>
</g>
</g>
<!-- Node3 -->
<g id="Node000003" class="node">
<title>Node3</title>
<g id="a_Node000003"><a xlink:href="classcom_1_1peternaggschga_1_1gwent_1_1domain_1_1damage_1_1HornDamageCalculatorDecorator.xhtml" target="_top" xlink:title="A DamageCalculator class responsible for calculating the horn buff if necessary, i....">
<polygon fill="white" stroke="#666666" points="515,-56 336,-56 336,-37 515,-37 515,-56"/>
<text text-anchor="middle" x="425.5" y="-44" font-family="Helvetica,sans-Serif" font-size="10.00">HornDamageCalculatorDecorator</text>
</a>
</g>
</g>
<!-- Node1&#45;&gt;Node3 -->
<g id="edge12_Node000001_Node000003" class="edge">
<title>Node1&#45;&gt;Node3</title>
<g id="a_edge12_Node000001_Node000003"><a xlink:title=" ">
<path fill="none" stroke="#63b8ff" d="M308.38,-46.5C317.44,-46.5 326.65,-46.5 335.72,-46.5"/>
<polygon fill="#63b8ff" stroke="#63b8ff" points="308.25,-43 298.25,-46.5 308.25,-50 308.25,-43"/>
</a>
</g>
</g>
<!-- Node4 -->
<g id="Node000004" class="node">
<title>Node4</title>
<g id="a_Node000004"><a xlink:href="classcom_1_1peternaggschga_1_1gwent_1_1domain_1_1damage_1_1MoralDamageCalculatorDecorator.xhtml" target="_top" xlink:title="A DamageCalculator class responsible for calculating the moral buff if necessary, i....">
<polygon fill="white" stroke="#666666" points="517,-19 334,-19 334,0 517,0 517,-19"/>
<text text-anchor="middle" x="425.5" y="-7" font-family="Helvetica,sans-Serif" font-size="10.00">MoralDamageCalculatorDecorator</text>
</a>
</g>
</g>
<!-- Node1&#45;&gt;Node4 -->
<g id="edge13_Node000001_Node000004" class="edge">
<title>Node1&#45;&gt;Node4</title>
<g id="a_edge13_Node000001_Node000004"><a xlink:title=" ">
<path fill="none" stroke="#63b8ff" d="M283.94,-35.12C312.16,-29.98 345.13,-23.97 372.05,-19.06"/>
<polygon fill="#63b8ff" stroke="#63b8ff" points="282.99,-31.74 273.78,-36.97 284.24,-38.62 282.99,-31.74"/>
</a>
</g>
</g>
</g>
</svg>
