<?xml version="1.0" encoding="UTF-8" standalone="no"?>
<!DOCTYPE svg PUBLIC "-//W3C//DTD SVG 1.1//EN"
 "http://www.w3.org/Graphics/SVG/1.1/DTD/svg11.dtd">
<!-- Generated by graphviz version 2.43.0 (0)
 -->
<!-- Title: DamageCalculator Pages: 1 -->
<svg width="587pt" height="140pt"
 viewBox="0.00 0.00 586.50 140.00" xmlns="http://www.w3.org/2000/svg" xmlns:xlink="http://www.w3.org/1999/xlink">
<g id="graph0" class="graph" transform="scale(1 1) rotate(0) translate(4 136)">
<title>DamageCalculator</title>
<polygon fill="white" stroke="transparent" points="-4,4 -4,-136 582.5,-136 582.5,4 -4,4"/>
<!-- Node1 -->
<g id="node1" class="node">
<title>Node1</title>
<g id="a_node1"><a xlink:title="An interface for a class capable of calculating the (de&#45;)buffed damage of a unit for a given UnitEnti...">
<polygon fill="#bfbfbf" stroke="black" points="319.5,-112.5 319.5,-131.5 426.5,-131.5 426.5,-112.5 319.5,-112.5"/>
<text text-anchor="middle" x="373" y="-119.5" font-family="Helvetica,sans-Serif" font-size="10.00">DamageCalculator</text>
</a>
</g>
</g>
<!-- Node2 -->
<g id="node2" class="node">
<title>Node2</title>
<g id="a_node2"><a xlink:href="classcom_1_1peternaggschga_1_1gwent_1_1domain_1_1damage_1_1DamageCalculatorDecorator.xhtml" target="_top" xlink:title="An abstract DamageCalculator that is used as a superclass for the decorator classes implementing the ...">
<polygon fill="white" stroke="black" points="210.5,-56.5 210.5,-75.5 365.5,-75.5 365.5,-56.5 210.5,-56.5"/>
<text text-anchor="middle" x="288" y="-63.5" font-family="Helvetica,sans-Serif" font-size="10.00">DamageCalculatorDecorator</text>
</a>
</g>
</g>
<!-- Node1&#45;&gt;Node2 -->
<g id="edge1" class="edge">
<title>Node1&#45;&gt;Node2</title>
<path fill="none" stroke="midnightblue" d="M350.81,-106.9C335.22,-97 314.87,-84.07 301.62,-75.65"/>
<polygon fill="none" stroke="midnightblue" points="349.03,-109.92 359.34,-112.32 352.78,-104.01 349.03,-109.92"/>
</g>
<!-- Node6 -->
<g id="node6" class="node">
<title>Node6</title>
<g id="a_node6"><a xlink:href="classcom_1_1peternaggschga_1_1gwent_1_1domain_1_1damage_1_1WeatherDamageCalculator.xhtml" target="_top" xlink:title="A DamageCalculator class responsible for calculating the weather debuff if necessary,...">
<polygon fill="white" stroke="black" points="384,-56.5 384,-75.5 532,-75.5 532,-56.5 384,-56.5"/>
<text text-anchor="middle" x="458" y="-63.5" font-family="Helvetica,sans-Serif" font-size="10.00">WeatherDamageCalculator</text>
</a>
</g>
</g>
<!-- Node1&#45;&gt;Node6 -->
<g id="edge5" class="edge">
<title>Node1&#45;&gt;Node6</title>
<path fill="none" stroke="midnightblue" d="M395.19,-106.9C410.78,-97 431.13,-84.07 444.38,-75.65"/>
<polygon fill="none" stroke="midnightblue" points="393.22,-104.01 386.66,-112.32 396.97,-109.92 393.22,-104.01"/>
</g>
<!-- Node3 -->
<g id="node3" class="node">
<title>Node3</title>
<g id="a_node3"><a xlink:href="classcom_1_1peternaggschga_1_1gwent_1_1domain_1_1damage_1_1BondDamageCalculatorDecorator.xhtml" target="_top" xlink:title="A DamageCalculator class responsible for calculating the tight bond buff if necessary,...">
<polygon fill="white" stroke="black" points="0,-0.5 0,-19.5 180,-19.5 180,-0.5 0,-0.5"/>
<text text-anchor="middle" x="90" y="-7.5" font-family="Helvetica,sans-Serif" font-size="10.00">BondDamageCalculatorDecorator</text>
</a>
</g>
</g>
<!-- Node2&#45;&gt;Node3 -->
<g id="edge2" class="edge">
<title>Node2&#45;&gt;Node3</title>
<path fill="none" stroke="midnightblue" d="M246.56,-53.7C209.19,-43.51 155.06,-28.74 121.23,-19.52"/>
<polygon fill="none" stroke="midnightblue" points="246.06,-57.19 256.63,-56.44 247.9,-50.44 246.06,-57.19"/>
</g>
<!-- Node4 -->
<g id="node4" class="node">
<title>Node4</title>
<g id="a_node4"><a xlink:href="classcom_1_1peternaggschga_1_1gwent_1_1domain_1_1damage_1_1HornDamageCalculatorDecorator.xhtml" target="_top" xlink:title="A DamageCalculator class responsible for calculating the horn buff if necessary, i....">
<polygon fill="white" stroke="black" points="198.5,-0.5 198.5,-19.5 377.5,-19.5 377.5,-0.5 198.5,-0.5"/>
<text text-anchor="middle" x="288" y="-7.5" font-family="Helvetica,sans-Serif" font-size="10.00">HornDamageCalculatorDecorator</text>
</a>
</g>
</g>
<!-- Node2&#45;&gt;Node4 -->
<g id="edge3" class="edge">
<title>Node2&#45;&gt;Node4</title>
<path fill="none" stroke="midnightblue" d="M288,-45.8C288,-36.91 288,-26.78 288,-19.75"/>
<polygon fill="none" stroke="midnightblue" points="284.5,-46.08 288,-56.08 291.5,-46.08 284.5,-46.08"/>
</g>
<!-- Node5 -->
<g id="node5" class="node">
<title>Node5</title>
<g id="a_node5"><a xlink:href="classcom_1_1peternaggschga_1_1gwent_1_1domain_1_1damage_1_1MoralDamageCalculatorDecorator.xhtml" target="_top" xlink:title="A DamageCalculator class responsible for calculating the moral buff if necessary, i....">
<polygon fill="white" stroke="black" points="395.5,-0.5 395.5,-19.5 578.5,-19.5 578.5,-0.5 395.5,-0.5"/>
<text text-anchor="middle" x="487" y="-7.5" font-family="Helvetica,sans-Serif" font-size="10.00">MoralDamageCalculatorDecorator</text>
</a>
</g>
</g>
<!-- Node2&#45;&gt;Node5 -->
<g id="edge4" class="edge">
<title>Node2&#45;&gt;Node5</title>
<path fill="none" stroke="midnightblue" d="M329.65,-53.7C367.21,-43.51 421.61,-28.74 455.62,-19.52"/>
<polygon fill="none" stroke="midnightblue" points="328.27,-50.45 319.53,-56.44 330.1,-57.2 328.27,-50.45"/>
</g>
</g>
</svg>
