<?xml version="1.0" encoding="UTF-8" standalone="no"?>
<!DOCTYPE svg PUBLIC "-//W3C//DTD SVG 1.1//EN"
 "http://www.w3.org/Graphics/SVG/1.1/DTD/svg11.dtd">
<!-- Generated by graphviz version 2.43.0 (0)
 -->
<!-- Title: DamageCalculator Pages: 1 -->
<svg width="564pt" height="137pt"
 viewBox="0.00 0.00 564.00 137.00" xmlns="http://www.w3.org/2000/svg" xmlns:xlink="http://www.w3.org/1999/xlink">
<g id="graph0" class="graph" transform="scale(1 1) rotate(0) translate(4 133)">
<title>DamageCalculator</title>
<!-- Node1 -->
<g id="Node000001" class="node">
<title>Node1</title>
<g id="a_Node000001"><a xlink:title="An interface for a class capable of calculating the (de&#45;)buffed damage of a unit for a given UnitEnti...">
<polygon fill="#999999" stroke="transparent" points="407,-129 307,-129 307,-110 407,-110 407,-129"/>
<text text-anchor="start" x="311.5" y="-116.5" font-family="Helvetica,sans-Serif" font-size="10.00">DamageCalculator</text>
<polygon fill="none" stroke="#666666" points="307,-110 307,-129 407,-129 407,-110 307,-110"/>
</a>
</g>
</g>
<!-- Node2 -->
<g id="Node000002" class="node">
<title>Node2</title>
<g id="a_Node000002"><a xlink:href="classcom_1_1peternaggschga_1_1gwent_1_1domain_1_1damage_1_1DamageCalculatorDecorator.xhtml" target="_top" xlink:title="An abstract DamageCalculator that is used as a superclass for the decorator classes implementing the ...">
<polygon fill="white" stroke="transparent" points="350,-74 202,-74 202,-55 350,-55 350,-74"/>
<text text-anchor="start" x="206.5" y="-61.5" font-family="Helvetica,sans-Serif" font-size="10.00">DamageCalculatorDecorator</text>
<polygon fill="none" stroke="#666666" points="202,-55 202,-74 350,-74 350,-55 202,-55"/>
</a>
</g>
</g>
<!-- Node1&#45;&gt;Node2 -->
<g id="edge1_Node000001_Node000002" class="edge">
<title>Node1&#45;&gt;Node2</title>
<g id="a_edge1_Node000001_Node000002"><a xlink:title=" ">
<path fill="none" stroke="#63b8ff" d="M335.49,-104.42C320.79,-94.81 301.78,-82.37 289.25,-74.17"/>
<polygon fill="none" stroke="#63b8ff" points="333.7,-107.44 343.99,-109.98 337.53,-101.58 333.7,-107.44"/>
</a>
</g>
</g>
<!-- Node6 -->
<g id="Node000006" class="node">
<title>Node6</title>
<g id="a_Node000006"><a xlink:href="classcom_1_1peternaggschga_1_1gwent_1_1domain_1_1damage_1_1WeatherDamageCalculator.xhtml" target="_top" xlink:title="A DamageCalculator class responsible for calculating the weather debuff if necessary,...">
<polygon fill="white" stroke="transparent" points="508,-74 368,-74 368,-55 508,-55 508,-74"/>
<text text-anchor="start" x="372" y="-61.5" font-family="Helvetica,sans-Serif" font-size="10.00">WeatherDamageCalculator</text>
<polygon fill="none" stroke="#666666" points="368,-55 368,-74 508,-74 508,-55 368,-55"/>
</a>
</g>
</g>
<!-- Node1&#45;&gt;Node6 -->
<g id="edge5_Node000001_Node000006" class="edge">
<title>Node1&#45;&gt;Node6</title>
<g id="a_edge5_Node000001_Node000006"><a xlink:title=" ">
<path fill="none" stroke="#63b8ff" d="M378.51,-104.42C393.21,-94.81 412.22,-82.37 424.75,-74.17"/>
<polygon fill="none" stroke="#63b8ff" points="376.47,-101.58 370.01,-109.98 380.3,-107.44 376.47,-101.58"/>
</a>
</g>
</g>
<!-- Node3 -->
<g id="Node000003" class="node">
<title>Node3</title>
<g id="a_Node000003"><a xlink:href="classcom_1_1peternaggschga_1_1gwent_1_1domain_1_1damage_1_1BondDamageCalculatorDecorator.xhtml" target="_top" xlink:title="A DamageCalculator class responsible for calculating the tight bond buff if necessary,...">
<polygon fill="white" stroke="transparent" points="172,-19 0,-19 0,0 172,0 172,-19"/>
<text text-anchor="start" x="4" y="-6.5" font-family="Helvetica,sans-Serif" font-size="10.00">BondDamageCalculatorDecorator</text>
<polygon fill="none" stroke="#666666" points="0,0 0,-19 172,-19 172,0 0,0"/>
</a>
</g>
</g>
<!-- Node2&#45;&gt;Node3 -->
<g id="edge2_Node000002_Node000003" class="edge">
<title>Node2&#45;&gt;Node3</title>
<g id="a_edge2_Node000002_Node000003"><a xlink:title=" ">
<path fill="none" stroke="#63b8ff" d="M235.43,-52.18C199.9,-42.27 149.03,-28.08 116.77,-19.08"/>
<polygon fill="none" stroke="#63b8ff" points="234.9,-55.67 245.47,-54.98 236.78,-48.93 234.9,-55.67"/>
</a>
</g>
</g>
<!-- Node4 -->
<g id="Node000004" class="node">
<title>Node4</title>
<g id="a_Node000004"><a xlink:href="classcom_1_1peternaggschga_1_1gwent_1_1domain_1_1damage_1_1HornDamageCalculatorDecorator.xhtml" target="_top" xlink:title="A DamageCalculator class responsible for calculating the horn buff if necessary, i....">
<polygon fill="white" stroke="transparent" points="362,-19 190,-19 190,0 362,0 362,-19"/>
<text text-anchor="start" x="194.5" y="-6.5" font-family="Helvetica,sans-Serif" font-size="10.00">HornDamageCalculatorDecorator</text>
<polygon fill="none" stroke="#666666" points="190,0 190,-19 362,-19 362,0 190,0"/>
</a>
</g>
</g>
<!-- Node2&#45;&gt;Node4 -->
<g id="edge3_Node000002_Node000004" class="edge">
<title>Node2&#45;&gt;Node4</title>
<g id="a_edge3_Node000002_Node000004"><a xlink:title=" ">
<path fill="none" stroke="#63b8ff" d="M276,-44.66C276,-35.93 276,-25.99 276,-19.09"/>
<polygon fill="none" stroke="#63b8ff" points="272.5,-44.75 276,-54.75 279.5,-44.75 272.5,-44.75"/>
</a>
</g>
</g>
<!-- Node5 -->
<g id="Node000005" class="node">
<title>Node5</title>
<g id="a_Node000005"><a xlink:href="classcom_1_1peternaggschga_1_1gwent_1_1domain_1_1damage_1_1MoralDamageCalculatorDecorator.xhtml" target="_top" xlink:title="A DamageCalculator class responsible for calculating the moral buff if necessary, i....">
<polygon fill="white" stroke="transparent" points="556,-19 380,-19 380,0 556,0 556,-19"/>
<text text-anchor="start" x="384.5" y="-6.5" font-family="Helvetica,sans-Serif" font-size="10.00">MoralDamageCalculatorDecorator</text>
<polygon fill="none" stroke="#666666" points="380,0 380,-19 556,-19 556,0 380,0"/>
</a>
</g>
</g>
<!-- Node2&#45;&gt;Node5 -->
<g id="edge4_Node000002_Node000005" class="edge">
<title>Node2&#45;&gt;Node5</title>
<g id="a_edge4_Node000002_Node000005"><a xlink:title=" ">
<path fill="none" stroke="#63b8ff" d="M316.53,-52.31C352.46,-42.39 404.16,-28.12 436.91,-19.08"/>
<polygon fill="none" stroke="#63b8ff" points="315.56,-48.95 306.85,-54.98 317.42,-55.7 315.56,-48.95"/>
</a>
</g>
</g>
</g>
</svg>
