<?xml version="1.0" encoding="UTF-8" standalone="no"?>
<svg
   xmlns:dc="http://purl.org/dc/elements/1.1/"
   xmlns:cc="http://creativecommons.org/ns#"
   xmlns:rdf="http://www.w3.org/1999/02/22-rdf-syntax-ns#"
   xmlns:svg="http://www.w3.org/2000/svg"
   xmlns="http://www.w3.org/2000/svg"
   width="510.03275mm"
   height="299.9978mm"
   viewBox="0 0 510.03275 299.9978"
   version="1.1"
   id="svg8">
  <defs
     id="defs2" />
  <metadata
     id="metadata5">
    <rdf:RDF>
      <cc:Work
         rdf:about="">
        <dc:format>image/svg+xml</dc:format>
        <dc:type
           rdf:resource="http://purl.org/dc/dcmitype/StillImage" />
        <dc:title></dc:title>
      </cc:Work>
    </rdf:RDF>
  </metadata>
  <g
     id="layer7"
     transform="translate(-0.041085)">
    <rect
       style="fill:#5f4f2d;fill-opacity:1;stroke:none;stroke-width:0.264583;stroke-opacity:1"
       id="rect15561"
       width="510.03275"
       height="299.9978"
       x="0.041084997"
       y="-1.5072868e-15" />
  </g>
  <g
     id="layer4"
     transform="translate(-0.041085,14.247796)">
    <path
       id="path15489-37"
       style="fill:#35270a;fill-opacity:1;stroke:none;stroke-width:0.264583px;stroke-linecap:butt;stroke-linejoin:miter;stroke-opacity:1"
       d="m 495.11506,0.752104 h 14.99989 v -14.99725 z m -480.069523,0 H 0.041085 v -14.9999 z m 450.065163,0 h 30.00436 l -14.99989,-14.99989 z m -30.00436,0 h 30.00436 l -14.99989,-14.99989 z m -30.00433,0 h 30.00433 l -14.99989,-14.99989 z m -30.00433,0 h 30.00433 l -14.99989,-14.99989 z m -30.00436,0 h 30.00436 l -14.99992,-14.99989 z m -30.00434,0 h 30.00434 l -14.99989,-14.99989 z m -30.00435,0 h 30.00435 l -14.99989,-14.99989 z m -30.00434,0 h 30.00434 l -14.99989,-14.99989 z m -30.00434,0 h 30.00434 l -14.99989,-14.99989 z m -30.00435,0 h 30.00435 l -14.9999,-14.99989 z m -30.00434,0 h 30.00434 l -14.9999,-14.99989 z m -30.00433,0 h 30.00433 l -14.9999,-14.99989 z m -30.00435,0 h 30.00435 l -14.99991,-14.99989 z m -30.004358,0 h 30.004358 l -14.99991,-14.99989 z m -30.00434,0 h 30.00434 l -14.99989,-14.99989 z m -30.004345,0 h 30.004345 l -14.99989,-14.99989 z M 480.11056,15.751993 h 30.00436 L 495.11503,0.752104 Z m -30.00433,0 h 30.00433 L 465.11067,0.752104 Z m -30.00436,0 h 30.00436 L 435.10631,0.752104 Z m -30.0043,0 h 30.0043 L 405.10198,0.752104 Z m -30.00436,0 h 30.00436 L 375.09765,0.752104 Z m -30.00433,0 h 30.00433 L 345.09332,0.752104 Z m -30.00436,0 h 30.00436 L 315.08896,0.752104 Z m -30.00434,0 h 30.00434 L 285.08463,0.752104 Z m -30.00435,0 h 30.00435 L 255.08028,0.752104 Z m -30.00435,0 h 30.00435 L 225.07593,0.752104 Z m -30.00434,0 h 30.00434 L 195.07159,0.752104 Z m -30.00433,0 h 30.00433 L 165.06724,0.752104 Z m -30.00435,0 h 30.00435 L 135.06291,0.752104 Z m -30.00435,0 h 30.00435 L 105.05857,0.752104 Z m -30.00434,0 H 90.05411 L 75.05422,0.752104 Z m -30.00434,0 H 60.04977 L 45.049877,0.752104 Z m -30.00434,0 H 30.04543 L 15.045537,0.752104 Z m 495.0694,14.99989 h 14.99989 v -14.99725 z m -480.069516,0 H 0.0365221 v -14.9999 z m 450.065156,0 h 30.00436 L 480.1106,15.751993 Z m -30.00436,0 h 30.00436 l -14.99989,-14.99989 z m -30.00433,0 h 30.00433 l -14.99989,-14.99989 z m -30.00433,0 h 30.00433 l -14.99989,-14.99989 z m -30.00436,0 h 30.00436 l -14.99992,-14.99989 z m -30.00434,0 h 30.00434 l -14.99989,-14.99989 z m -30.00435,0 h 30.00435 l -14.99989,-14.99989 z m -30.00434,0 h 30.00434 l -14.99989,-14.99989 z m -30.00434,0 h 30.00434 l -14.99989,-14.99989 z m -30.00435,0 h 30.00435 l -14.9999,-14.99989 z m -30.00434,0 h 30.00434 l -14.9999,-14.99989 z m -30.00433,0 h 30.00433 l -14.9999,-14.99989 z m -30.00435,0 h 30.00435 l -14.99991,-14.99989 z m -30.004351,0 H 105.05401 L 90.054109,15.751993 Z m -30.00434,0 h 30.00434 l -14.99989,-14.99989 z m -30.004345,0 H 45.045319 L 30.045429,15.751993 Z M 480.10599,45.751772 h 30.00436 L 495.11046,30.751883 Z m -30.00433,0 h 30.00433 L 465.1061,30.751883 Z m -30.00436,0 h 30.00436 L 435.10174,30.751883 Z m -30.0043,0 h 30.0043 L 405.09741,30.751883 Z m -30.00436,0 H 390.093 L 375.09308,30.751883 Z m -30.00433,0 h 30.00433 L 345.08875,30.751883 Z m -30.00436,0 h 30.00436 L 315.08439,30.751883 Z m -30.00434,0 h 30.00434 L 285.08006,30.751883 Z m -30.00435,0 h 30.00435 l -14.9999,-14.999889 z m -30.00435,0 h 30.00435 l -14.9999,-14.999889 z m -30.00434,0 h 30.00434 L 195.06702,30.751883 Z m -30.00433,0 h 30.00433 l -14.9999,-14.999889 z m -30.00435,0 h 30.00435 l -14.9999,-14.999889 z m -30.00434,0 h 30.00434 L 105.054,30.751883 Z m -30.004343,0 H 90.04955 L 75.049657,30.751883 Z m -30.00434,0 h 30.00434 L 45.045314,30.751883 Z m -30.0043403,0 H 30.040867 L 15.040974,30.751883 Z M 495.10593,60.751662 h 14.99989 v -14.99725 z m -480.069516,0 H 0.031962 v -14.9999 z m 450.065156,0 h 30.00436 l -14.99989,-14.99989 z m -30.00436,0 h 30.00436 l -14.99989,-14.99989 z m -30.00433,0 h 30.00433 l -14.99989,-14.99989 z m -30.00433,0 h 30.00433 l -14.99989,-14.99989 z m -30.00436,0 h 30.00436 l -14.99992,-14.99989 z m -30.00434,0 h 30.00434 L 330.0843,45.751772 Z m -30.00435,0 h 30.00435 l -14.99989,-14.99989 z m -30.00434,0 h 30.00434 l -14.99989,-14.99989 z m -30.00434,0 h 30.00434 l -14.99989,-14.99989 z m -30.00435,0 h 30.00435 l -14.9999,-14.99989 z m -30.00434,0 h 30.00434 l -14.9999,-14.99989 z m -30.00433,0 h 30.00433 l -14.9999,-14.99989 z m -30.00435,0 h 30.00435 l -14.99991,-14.99989 z m -30.00435,0 h 30.00435 l -14.9999,-14.99989 z m -30.004341,0 H 75.0451 L 60.045209,45.751772 Z m -30.004345,0 H 45.040759 L 30.040869,45.751772 Z M 480.10143,75.751551 h 30.00436 L 495.1059,60.751662 Z m -30.00433,0 h 30.00433 L 465.10154,60.751662 Z m -30.00436,0 H 450.0971 L 435.09718,60.751662 Z m -30.0043,0 h 30.0043 L 405.09285,60.751662 Z m -30.00436,0 h 30.00436 L 375.08852,60.751662 Z m -30.00433,0 h 30.00433 L 345.08419,60.751662 Z m -30.00436,0 h 30.00436 L 315.07983,60.751662 Z m -30.00434,0 h 30.00434 L 285.0755,60.751662 Z m -30.00435,0 h 30.00435 l -14.9999,-14.999889 z m -30.00435,0 H 240.0667 L 225.0668,60.751662 Z m -30.00434,0 h 30.00434 L 195.06246,60.751662 Z m -30.00433,0 h 30.00433 l -14.9999,-14.999889 z m -30.00435,0 h 30.00435 l -14.9999,-14.999889 z m -30.00434,0 h 30.00434 L 105.04944,60.751662 Z m -30.004343,0 H 90.04499 L 75.0451,60.751662 Z m -30.00434,0 h 30.00434 L 45.040754,60.751662 Z m -30.00434,0 h 30.00434 L 15.036414,60.751662 Z m 495.069393,14.99989 h 14.99989 v -14.99725 z m -480.069516,0 H 0.0273921 v -14.9999 z m 450.065156,0 h 30.00436 l -14.99989,-14.99989 z m -30.00436,0 H 465.097 l -14.99989,-14.99989 z m -30.00433,0 h 30.00433 l -14.99989,-14.99989 z m -30.00433,0 h 30.00433 l -14.99989,-14.99989 z m -30.00436,0 h 30.00436 l -14.99992,-14.99989 z m -30.00434,0 h 30.00434 l -14.99989,-14.99989 z m -30.00435,0 h 30.00435 l -14.99989,-14.99989 z m -30.00434,0 h 30.00434 l -14.99989,-14.99989 z m -30.00434,0 h 30.00434 L 240.0667,75.751551 Z m -30.00435,0 h 30.00435 l -14.9999,-14.99989 z m -30.00434,0 H 195.0579 L 180.058,75.751551 Z m -30.00433,0 h 30.00433 l -14.9999,-14.99989 z m -30.00435,0 h 30.00435 l -14.99991,-14.99989 z m -30.004351,0 H 105.04488 L 90.044979,75.751551 Z m -30.00434,0 h 30.00434 l -14.99989,-14.99989 z m -30.004345,0 H 45.036189 L 30.036299,75.751551 Z M 480.09686,105.75133 h 30.00436 L 495.10133,90.751441 Z m -30.00433,0 h 30.00433 L 465.09697,90.751441 Z m -30.00436,0 h 30.00436 L 435.09261,90.751441 Z m -30.0043,0 h 30.0043 L 405.08828,90.751441 Z m -30.00436,0 h 30.00436 L 375.08395,90.751441 Z m -30.00433,0 h 30.00433 L 345.07962,90.751441 Z m -30.00436,0 h 30.00436 L 315.07526,90.751441 Z m -30.00434,0 h 30.00434 L 285.07093,90.751441 Z m -30.00435,0 h 30.00435 l -14.9999,-14.999889 z m -30.00435,0 h 30.00435 l -14.9999,-14.999889 z m -30.00434,0 h 30.00434 L 195.05789,90.751441 Z m -30.00433,0 h 30.00433 l -14.9999,-14.999889 z m -30.00435,0 h 30.00435 l -14.9999,-14.999889 z m -30.00434,0 h 30.00434 L 105.04487,90.751441 Z m -30.004343,0 H 90.04042 L 75.040527,90.751441 Z m -30.00434,0 h 30.00434 L 45.036184,90.751441 Z m -30.0043402,0 H 30.031737 L 15.031844,90.751441 Z M 495.0968,120.75121 h 14.99989 v -14.99724 z m -480.069516,0 H 0.022832 v -14.99989 z m 450.065156,0 h 30.00436 l -14.99989,-14.99988 z m -30.00436,0 h 30.00436 l -14.99989,-14.99988 z m -30.00433,0 h 30.00433 l -14.99989,-14.99988 z m -30.00433,0 h 30.00433 l -14.99989,-14.99988 z m -30.00436,0 h 30.00436 L 360.0795,105.75133 Z m -30.00434,0 h 30.00434 l -14.99989,-14.99988 z m -30.00435,0 h 30.00435 l -14.99989,-14.99988 z m -30.00434,0 h 30.00434 l -14.99989,-14.99988 z m -30.00434,0 h 30.00434 l -14.99989,-14.99988 z m -30.00435,0 h 30.00435 l -14.9999,-14.99988 z m -30.00434,0 h 30.00434 l -14.9999,-14.99988 z m -30.00433,0 H 165.049 l -14.9999,-14.99988 z m -30.00435,0 h 30.00435 l -14.99991,-14.99988 z m -30.00435,0 h 30.00435 l -14.9999,-14.99988 z m -30.004341,0 H 75.03597 L 60.036079,105.75133 Z m -30.004345,0 H 45.031629 L 30.031739,105.75133 Z M 480.0923,135.7511 h 30.00436 l -14.99989,-14.99989 z m -30.00433,0 h 30.00433 l -14.99989,-14.99989 z m -30.00436,0 h 30.00436 l -14.99992,-14.99989 z m -30.0043,0 h 30.0043 l -14.99989,-14.99989 z m -30.00436,0 h 30.00436 l -14.99992,-14.99989 z m -30.00433,0 h 30.00433 l -14.99989,-14.99989 z m -30.00436,0 h 30.00436 L 315.0707,120.75121 Z m -30.00434,0 h 30.00434 l -14.99989,-14.99989 z m -30.00435,0 h 30.00435 l -14.9999,-14.99989 z m -30.00435,0 h 30.00435 l -14.9999,-14.99989 z m -30.00434,0 h 30.00434 l -14.99989,-14.99989 z m -30.00433,0 h 30.00433 l -14.9999,-14.99989 z m -30.00435,0 h 30.00435 l -14.9999,-14.99989 z m -30.00434,0 h 30.00434 l -14.99989,-14.99989 z m -30.004343,0 H 90.03586 L 75.03597,120.75121 Z m -30.00434,0 h 30.00434 L 45.031624,120.75121 Z m -30.00434,0 h 30.00434 L 15.027284,120.75121 Z m 495.069393,14.99989 h 14.99989 v -14.99725 z m -480.069523,0 H 0.018255 v -14.9999 z m 450.065163,0 h 30.00436 L 480.09234,135.7511 Z m -30.00436,0 h 30.00436 L 450.08798,135.7511 Z m -30.00433,0 h 30.00433 L 420.08362,135.7511 Z m -30.00433,0 h 30.00433 L 390.07929,135.7511 Z m -30.00436,0 h 30.00436 L 360.07493,135.7511 Z m -30.00434,0 h 30.00434 L 330.0706,135.7511 Z m -30.00435,0 h 30.00435 L 300.06626,135.7511 Z m -30.00434,0 H 285.0618 L 270.06191,135.7511 Z m -30.00434,0 h 30.00434 L 240.05757,135.7511 Z m -30.00435,0 h 30.00435 l -14.9999,-14.99989 z m -30.00434,0 h 30.00434 l -14.9999,-14.99989 z m -30.00433,0 h 30.00433 l -14.9999,-14.99989 z m -30.00435,0 H 135.0401 L 120.04019,135.7511 Z m -30.004358,0 H 105.03575 L 90.03584,135.7511 Z m -30.00434,0 h 30.00434 L 60.031502,135.7511 Z m -30.004345,0 H 45.027052 L 30.027162,135.7511 Z m 465.065023,14.99989 h 30.00436 L 495.0922,150.75099 Z m -30.00433,0 h 30.00433 l -14.99989,-14.99989 z m -30.00436,0 h 30.00436 l -14.99992,-14.99989 z m -30.0043,0 h 30.0043 l -14.99989,-14.99989 z m -30.00436,0 h 30.00436 l -14.99992,-14.99989 z m -30.00433,0 h 30.00433 l -14.99989,-14.99989 z m -30.00436,0 h 30.00436 l -14.99992,-14.99989 z m -30.00434,0 h 30.00434 L 285.0618,150.75099 Z m -30.00435,0 h 30.00435 l -14.9999,-14.99989 z m -30.00435,0 H 240.053 l -14.9999,-14.99989 z m -30.00434,0 h 30.00434 l -14.99989,-14.99989 z m -30.00433,0 h 30.00433 l -14.9999,-14.99989 z m -30.00435,0 h 30.00435 l -14.9999,-14.99989 z m -30.00435,0 h 30.00435 l -14.99989,-14.99989 z m -30.00434,0 H 90.03128 L 75.03139,150.75099 Z m -30.00434,0 H 60.02694 L 45.027047,150.75099 Z m -30.00434,0 H 30.0226 L 15.022707,150.75099 Z m 495.06941,14.99989 h 14.99989 v -14.99725 z m -480.069516,0 H 0.0137021 v -14.9999 z m 450.065156,0 h 30.00436 l -14.99989,-14.99989 z m -30.00436,0 h 30.00436 l -14.99989,-14.99989 z m -30.00433,0 h 30.00433 l -14.99989,-14.99989 z m -30.00433,0 h 30.00433 l -14.99989,-14.99989 z m -30.00436,0 h 30.00436 l -14.99992,-14.99989 z m -30.00434,0 h 30.00434 l -14.99989,-14.99989 z m -30.00435,0 h 30.00435 L 300.0617,165.75088 Z m -30.00434,0 h 30.00434 l -14.99989,-14.99989 z m -30.00434,0 h 30.00434 l -14.99989,-14.99989 z m -30.00435,0 h 30.00435 l -14.9999,-14.99989 z m -30.00434,0 h 30.00434 l -14.9999,-14.99989 z m -30.00433,0 h 30.00433 l -14.9999,-14.99989 z m -30.00435,0 h 30.00435 l -14.99991,-14.99989 z m -30.004351,0 H 105.03119 L 90.031289,165.75088 Z m -30.00434,0 h 30.00434 l -14.99989,-14.99989 z m -30.004345,0 h 30.004345 l -14.99989,-14.99989 z m 465.065016,14.99989 h 30.00436 l -14.99989,-14.99989 z m -30.00433,0 h 30.00433 l -14.99989,-14.99989 z m -30.00436,0 h 30.00436 l -14.99992,-14.99989 z m -30.0043,0 h 30.0043 l -14.99989,-14.99989 z m -30.00436,0 h 30.00436 l -14.99992,-14.99989 z m -30.00433,0 h 30.00433 l -14.99989,-14.99989 z m -30.00436,0 h 30.00436 l -14.99992,-14.99989 z m -30.00434,0 h 30.00434 l -14.99989,-14.99989 z m -30.00435,0 h 30.00435 l -14.9999,-14.99989 z m -30.00435,0 h 30.00435 l -14.9999,-14.99989 z m -30.00434,0 h 30.00434 L 195.0442,180.75077 Z m -30.00433,0 h 30.00433 l -14.9999,-14.99989 z m -30.00435,0 h 30.00435 l -14.9999,-14.99989 z m -30.00434,0 h 30.00434 l -14.99989,-14.99989 z m -30.004343,0 H 90.02673 L 75.026837,180.75077 Z m -30.00434,0 h 30.00434 L 45.022494,180.75077 Z m -30.0043402,0 H 30.018047 L 15.018154,180.75077 Z M 495.08311,210.75055 H 510.083 V 195.7533 Z m -480.069516,0 H 0.00914212 v -14.9999 z m 450.065156,0 h 30.00436 l -14.99989,-14.99989 z m -30.00436,0 h 30.00436 l -14.99989,-14.99989 z m -30.00433,0 h 30.00433 L 420.0745,195.75066 Z m -30.00433,0 h 30.00433 l -14.99989,-14.99989 z m -30.00436,0 h 30.00436 l -14.99992,-14.99989 z m -30.00434,0 h 30.00434 l -14.99989,-14.99989 z m -30.00435,0 h 30.00435 l -14.99989,-14.99989 z m -30.00434,0 h 30.00434 l -14.99989,-14.99989 z m -30.00434,0 h 30.00434 l -14.99989,-14.99989 z m -30.00435,0 H 225.044 l -14.9999,-14.99989 z m -30.00434,0 h 30.00434 l -14.9999,-14.99989 z m -30.00433,0 h 30.00433 l -14.9999,-14.99989 z m -30.00435,0 h 30.00435 l -14.99991,-14.99989 z m -30.004351,0 H 105.02663 L 90.026729,195.75066 Z m -30.00434,0 h 30.00434 l -14.99989,-14.99989 z m -30.004345,0 h 30.004345 l -14.99989,-14.99989 z m 465.065016,14.99989 h 30.00436 l -14.99989,-14.99989 z m -30.00433,0 h 30.00433 l -14.99989,-14.99989 z m -30.00436,0 h 30.00436 l -14.99992,-14.99989 z m -30.0043,0 h 30.0043 l -14.99989,-14.99989 z m -30.00436,0 h 30.00436 L 375.0657,210.75055 Z m -30.00433,0 h 30.00433 l -14.99989,-14.99989 z m -30.00436,0 h 30.00436 l -14.99992,-14.99989 z m -30.00434,0 h 30.00434 l -14.99989,-14.99989 z m -30.00435,0 h 30.00435 l -14.9999,-14.99989 z m -30.00435,0 h 30.00435 l -14.9999,-14.99989 z m -30.00434,0 h 30.00434 l -14.99989,-14.99989 z m -30.00433,0 h 30.00433 l -14.9999,-14.99989 z m -30.00435,0 h 30.00435 l -14.9999,-14.99989 z m -30.00434,0 h 30.00434 l -14.99989,-14.99989 z m -30.004343,0 H 90.02217 L 75.022277,210.75055 Z m -30.00434,0 h 30.00434 L 45.017934,210.75055 Z m -30.00434023,0 H 30.013487 L 15.013594,210.75055 Z M 495.07854,240.75033 h 14.99989 v -14.99725 z m -480.069522,0 H 0.004566 v -14.9999 z m 450.065162,0 h 30.00436 l -14.99989,-14.99989 z m -30.00436,0 h 30.00436 l -14.99989,-14.99989 z m -30.00433,0 h 30.00433 l -14.99989,-14.99989 z m -30.00433,0 h 30.00433 L 390.0656,225.75044 Z m -30.00436,0 h 30.00436 l -14.99992,-14.99989 z m -30.00434,0 h 30.00434 l -14.99989,-14.99989 z m -30.00435,0 h 30.00435 l -14.99989,-14.99989 z m -30.00434,0 h 30.00434 l -14.99989,-14.99989 z m -30.00434,0 h 30.00434 l -14.99989,-14.99989 z m -30.00435,0 h 30.00435 l -14.9999,-14.99989 z m -30.00434,0 h 30.00434 l -14.9999,-14.99989 z m -30.00433,0 h 30.00433 l -14.9999,-14.99989 z m -30.00435,0 h 30.00435 L 120.0265,225.75044 Z m -30.004357,0 H 105.02206 L 90.022153,225.75044 Z m -30.00434,0 h 30.00434 l -14.99989,-14.99989 z m -30.004345,0 h 30.004345 l -14.99989,-14.99989 z m 465.065022,14.99989 h 30.00436 l -14.99989,-14.99989 z m -30.00433,0 h 30.00433 l -14.99989,-14.99989 z m -30.00436,0 h 30.00436 l -14.99992,-14.99989 z m -30.0043,0 h 30.0043 l -14.99989,-14.99989 z m -30.00436,0 h 30.00436 l -14.99992,-14.99989 z m -30.00433,0 h 30.00433 L 345.0568,240.75033 Z m -30.00436,0 h 30.00436 l -14.99992,-14.99989 z m -30.00434,0 H 300.048 l -14.99989,-14.99989 z m -30.00435,0 h 30.00435 l -14.9999,-14.99989 z m -30.00435,0 h 30.00435 l -14.9999,-14.99989 z m -30.00434,0 h 30.00434 l -14.99989,-14.99989 z m -30.00433,0 h 30.00433 l -14.9999,-14.99989 z m -30.00435,0 h 30.00435 l -14.9999,-14.99989 z m -30.004346,0 h 30.004346 l -14.99989,-14.99989 z m -30.004343,0 H 90.017594 L 75.017701,240.75033 Z m -30.00434,0 h 30.00434 L 45.013358,240.75033 Z m -30.004341,0 H 30.008911 L 15.009018,240.75033 Z m 495.06939,14.99989 h 14.99989 v -14.99725 z m -480.069508,0 H 0 v -14.9999 z m 450.065148,0 h 30.00436 l -14.99989,-14.99989 z m -30.00436,0 h 30.00436 l -14.99989,-14.99989 z m -30.00433,0 h 30.00433 l -14.99989,-14.99989 z m -30.00433,0 h 30.00433 l -14.99989,-14.99989 z m -30.00436,0 h 30.00436 l -14.99992,-14.99989 z m -30.00433,0 h 30.00433 l -14.99989,-14.99989 z m -30.00436,0 h 30.00436 L 300.048,255.75022 Z m -30.00433,0 h 30.00433 l -14.99989,-14.99989 z m -30.00434,0 h 30.00434 l -14.99989,-14.99989 z m -30.00435,0 h 30.00435 l -14.9999,-14.99989 z m -30.00434,0 h 30.00434 l -14.9999,-14.99989 z m -30.00433,0 h 30.00433 l -14.9999,-14.99989 z m -30.00435,0 h 30.00435 l -14.99991,-14.99989 z m -30.004353,0 H 105.01749 L 90.017587,255.75022 Z m -30.00434,0 h 30.00434 l -14.99989,-14.99989 z m -30.004345,0 H 45.008797 L 30.008907,255.75022 Z M 480.06948,285.75 h 30.00435 l -14.99989,-14.99989 z m -30.00435,0 h 30.00435 l -14.9999,-14.99989 z m -30.00434,0 h 30.00434 l -14.9999,-14.99989 z m -30.00433,0 h 30.00433 l -14.9999,-14.99989 z m -30.00435,0 h 30.00435 l -14.99991,-14.99989 z m -30.00434,0 h 30.00434 l -14.9999,-14.99989 z m -30.00435,0 h 30.00435 l -14.9999,-14.99989 z m -30.00434,0 h 30.00434 l -14.99989,-14.99989 z m -30.00434,0 h 30.00434 l -14.99989,-14.99989 z m -30.00435,0 h 30.00435 l -14.9999,-14.99989 z m -30.00434,0 h 30.00434 L 195.0305,270.75011 Z m -30.00433,0 h 30.00433 l -14.9999,-14.99989 z m -30.00435,0 h 30.00435 l -14.9999,-14.99989 z m -30.004342,0 h 30.004342 l -14.99989,-14.99989 z m -30.004342,0 H 90.013028 L 75.013134,270.75011 Z m -30.004341,0 H 60.008686 L 45.008792,270.75011 Z M 4.6484375e-6,285.75 H 30.004345 L 15.004452,270.75011 Z" />
  </g>
  <script
     id="mesh_polyfill"
     type="text/javascript">
!function(){const t=&quot;http://www.w3.org/2000/svg&quot;,e=&quot;http://www.w3.org/1999/xlink&quot;,s=&quot;http://www.w3.org/1999/xhtml&quot;,r=2;if(document.createElementNS(t,&quot;meshgradient&quot;).x)return;const n=(t,e,s,r)=&gt;{let n=new x(.5*(e.x+s.x),.5*(e.y+s.y)),o=new x(.5*(t.x+e.x),.5*(t.y+e.y)),i=new x(.5*(s.x+r.x),.5*(s.y+r.y)),a=new x(.5*(n.x+o.x),.5*(n.y+o.y)),h=new x(.5*(n.x+i.x),.5*(n.y+i.y)),l=new x(.5*(a.x+h.x),.5*(a.y+h.y));return[[t,o,a,l],[l,h,i,r]]},o=t=&gt;{let e=t[0].distSquared(t[1]),s=t[2].distSquared(t[3]),r=.25*t[0].distSquared(t[2]),n=.25*t[1].distSquared(t[3]),o=e&gt;s?e:s,i=r&gt;n?r:n;return 18*(o&gt;i?o:i)},i=(t,e)=&gt;Math.sqrt(t.distSquared(e)),a=(t,e)=&gt;t.scale(2/3).add(e.scale(1/3)),h=t=&gt;{let e,s,r,n,o,i,a,h=new g;return t.match(/(\w+\(\s*[^)]+\))+/g).forEach(t=&gt;{let l=t.match(/[\w.-]+/g),d=l.shift();switch(d){case&quot;translate&quot;:2===l.length?e=new g(1,0,0,1,l[0],l[1]):(console.error(&quot;mesh.js: translate does not have 2 arguments!&quot;),e=new g(1,0,0,1,0,0)),h=h.append(e);break;case&quot;scale&quot;:1===l.length?s=new g(l[0],0,0,l[0],0,0):2===l.length?s=new g(l[0],0,0,l[1],0,0):(console.error(&quot;mesh.js: scale does not have 1 or 2 arguments!&quot;),s=new g(1,0,0,1,0,0)),h=h.append(s);break;case&quot;rotate&quot;:if(3===l.length&amp;&amp;(e=new g(1,0,0,1,l[1],l[2]),h=h.append(e)),l[0]){r=l[0]*Math.PI/180;let t=Math.cos(r),e=Math.sin(r);Math.abs(t)&lt;1e-16&amp;&amp;(t=0),Math.abs(e)&lt;1e-16&amp;&amp;(e=0),a=new g(t,e,-e,t,0,0),h=h.append(a)}else console.error(&quot;math.js: No argument to rotate transform!&quot;);3===l.length&amp;&amp;(e=new g(1,0,0,1,-l[1],-l[2]),h=h.append(e));break;case&quot;skewX&quot;:l[0]?(r=l[0]*Math.PI/180,n=Math.tan(r),o=new g(1,0,n,1,0,0),h=h.append(o)):console.error(&quot;math.js: No argument to skewX transform!&quot;);break;case&quot;skewY&quot;:l[0]?(r=l[0]*Math.PI/180,n=Math.tan(r),i=new g(1,n,0,1,0,0),h=h.append(i)):console.error(&quot;math.js: No argument to skewY transform!&quot;);break;case&quot;matrix&quot;:6===l.length?h=h.append(new g(...l)):console.error(&quot;math.js: Incorrect number of arguments for matrix!&quot;);break;default:console.error(&quot;mesh.js: Unhandled transform type: &quot;+d)}}),h},l=t=&gt;{let e=[],s=t.split(/[ ,]+/);for(let t=0,r=s.length-1;t&lt;r;t+=2)e.push(new x(parseFloat(s[t]),parseFloat(s[t+1])));return e},d=(t,e)=&gt;{for(let s in e)t.setAttribute(s,e[s])},c=(t,e,s,r,n)=&gt;{let o,i,a=[0,0,0,0];for(let h=0;h&lt;3;++h)e[h]&lt;t[h]&amp;&amp;e[h]&lt;s[h]||t[h]&lt;e[h]&amp;&amp;s[h]&lt;e[h]?a[h]=0:(a[h]=.5*((e[h]-t[h])/r+(s[h]-e[h])/n),o=Math.abs(3*(e[h]-t[h])/r),i=Math.abs(3*(s[h]-e[h])/n),a[h]&gt;o?a[h]=o:a[h]&gt;i&amp;&amp;(a[h]=i));return a},u=[[1,0,0,0,0,0,0,0,0,0,0,0,0,0,0,0],[0,0,0,0,1,0,0,0,0,0,0,0,0,0,0,0],[-3,3,0,0,-2,-1,0,0,0,0,0,0,0,0,0,0],[2,-2,0,0,1,1,0,0,0,0,0,0,0,0,0,0],[0,0,0,0,0,0,0,0,1,0,0,0,0,0,0,0],[0,0,0,0,0,0,0,0,0,0,0,0,1,0,0,0],[0,0,0,0,0,0,0,0,-3,3,0,0,-2,-1,0,0],[0,0,0,0,0,0,0,0,2,-2,0,0,1,1,0,0],[-3,0,3,0,0,0,0,0,-2,0,-1,0,0,0,0,0],[0,0,0,0,-3,0,3,0,0,0,0,0,-2,0,-1,0],[9,-9,-9,9,6,3,-6,-3,6,-6,3,-3,4,2,2,1],[-6,6,6,-6,-3,-3,3,3,-4,4,-2,2,-2,-2,-1,-1],[2,0,-2,0,0,0,0,0,1,0,1,0,0,0,0,0],[0,0,0,0,2,0,-2,0,0,0,0,0,1,0,1,0],[-6,6,6,-6,-4,-2,4,2,-3,3,-3,3,-2,-1,-2,-1],[4,-4,-4,4,2,2,-2,-2,2,-2,2,-2,1,1,1,1]],f=t=&gt;{let e=[];for(let s=0;s&lt;16;++s){e[s]=0;for(let r=0;r&lt;16;++r)e[s]+=u[s][r]*t[r]}return e},p=(t,e,s)=&gt;{const r=e*e,n=s*s,o=e*e*e,i=s*s*s;return t[0]+t[1]*e+t[2]*r+t[3]*o+t[4]*s+t[5]*s*e+t[6]*s*r+t[7]*s*o+t[8]*n+t[9]*n*e+t[10]*n*r+t[11]*n*o+t[12]*i+t[13]*i*e+t[14]*i*r+t[15]*i*o},y=t=&gt;{let e=[],s=[],r=[];for(let s=0;s&lt;4;++s)e[s]=[],e[s][0]=n(t[0][s],t[1][s],t[2][s],t[3][s]),e[s][1]=[],e[s][1].push(...n(...e[s][0][0])),e[s][1].push(...n(...e[s][0][1])),e[s][2]=[],e[s][2].push(...n(...e[s][1][0])),e[s][2].push(...n(...e[s][1][1])),e[s][2].push(...n(...e[s][1][2])),e[s][2].push(...n(...e[s][1][3]));for(let t=0;t&lt;8;++t){s[t]=[];for(let r=0;r&lt;4;++r)s[t][r]=[],s[t][r][0]=n(e[0][2][t][r],e[1][2][t][r],e[2][2][t][r],e[3][2][t][r]),s[t][r][1]=[],s[t][r][1].push(...n(...s[t][r][0][0])),s[t][r][1].push(...n(...s[t][r][0][1])),s[t][r][2]=[],s[t][r][2].push(...n(...s[t][r][1][0])),s[t][r][2].push(...n(...s[t][r][1][1])),s[t][r][2].push(...n(...s[t][r][1][2])),s[t][r][2].push(...n(...s[t][r][1][3]))}for(let t=0;t&lt;8;++t){r[t]=[];for(let e=0;e&lt;8;++e)r[t][e]=[],r[t][e][0]=s[t][0][2][e],r[t][e][1]=s[t][1][2][e],r[t][e][2]=s[t][2][2][e],r[t][e][3]=s[t][3][2][e]}return r};class x{constructor(t,e){this.x=t||0,this.y=e||0}toString(){return`(x=${this.x}, y=${this.y})`}clone(){return new x(this.x,this.y)}add(t){return new x(this.x+t.x,this.y+t.y)}scale(t){return void 0===t.x?new x(this.x*t,this.y*t):new x(this.x*t.x,this.y*t.y)}distSquared(t){let e=this.x-t.x,s=this.y-t.y;return e*e+s*s}transform(t){let e=this.x*t.a+this.y*t.c+t.e,s=this.x*t.b+this.y*t.d+t.f;return new x(e,s)}}class g{constructor(t,e,s,r,n,o){void 0===t?(this.a=1,this.b=0,this.c=0,this.d=1,this.e=0,this.f=0):(this.a=t,this.b=e,this.c=s,this.d=r,this.e=n,this.f=o)}toString(){return`affine: ${this.a} ${this.c} ${this.e} \n       ${this.b} ${this.d} ${this.f}`}append(t){t instanceof g||console.error(&quot;mesh.js: argument to Affine.append is not affine!&quot;);let e=this.a*t.a+this.c*t.b,s=this.b*t.a+this.d*t.b,r=this.a*t.c+this.c*t.d,n=this.b*t.c+this.d*t.d,o=this.a*t.e+this.c*t.f+this.e,i=this.b*t.e+this.d*t.f+this.f;return new g(e,s,r,n,o,i)}}class w{constructor(t,e){this.nodes=t,this.colors=e}paintCurve(t,e){if(o(this.nodes)&gt;r){const s=n(...this.nodes);let r=[[],[]],o=[[],[]];for(let t=0;t&lt;4;++t)r[0][t]=this.colors[0][t],r[1][t]=(this.colors[0][t]+this.colors[1][t])/2,o[0][t]=r[1][t],o[1][t]=this.colors[1][t];let i=new w(s[0],r),a=new w(s[1],o);i.paintCurve(t,e),a.paintCurve(t,e)}else{let s=Math.round(this.nodes[0].x);if(s&gt;=0&amp;&amp;s&lt;e){let r=4*(~~this.nodes[0].y*e+s);t[r]=Math.round(this.colors[0][0]),t[r+1]=Math.round(this.colors[0][1]),t[r+2]=Math.round(this.colors[0][2]),t[r+3]=Math.round(this.colors[0][3])}}}}class m{constructor(t,e){this.nodes=t,this.colors=e}split(){let t=[[],[],[],[]],e=[[],[],[],[]],s=[[[],[]],[[],[]]],r=[[[],[]],[[],[]]];for(let s=0;s&lt;4;++s){const r=n(this.nodes[0][s],this.nodes[1][s],this.nodes[2][s],this.nodes[3][s]);t[0][s]=r[0][0],t[1][s]=r[0][1],t[2][s]=r[0][2],t[3][s]=r[0][3],e[0][s]=r[1][0],e[1][s]=r[1][1],e[2][s]=r[1][2],e[3][s]=r[1][3]}for(let t=0;t&lt;4;++t)s[0][0][t]=this.colors[0][0][t],s[0][1][t]=this.colors[0][1][t],s[1][0][t]=(this.colors[0][0][t]+this.colors[1][0][t])/2,s[1][1][t]=(this.colors[0][1][t]+this.colors[1][1][t])/2,r[0][0][t]=s[1][0][t],r[0][1][t]=s[1][1][t],r[1][0][t]=this.colors[1][0][t],r[1][1][t]=this.colors[1][1][t];return[new m(t,s),new m(e,r)]}paint(t,e){let s,n=!1;for(let t=0;t&lt;4;++t)if((s=o([this.nodes[0][t],this.nodes[1][t],this.nodes[2][t],this.nodes[3][t]]))&gt;r){n=!0;break}if(n){let s=this.split();s[0].paint(t,e),s[1].paint(t,e)}else{new w([...this.nodes[0]],[...this.colors[0]]).paintCurve(t,e)}}}class b{constructor(t){this.readMesh(t),this.type=t.getAttribute(&quot;type&quot;)||&quot;bilinear&quot;}readMesh(t){let e=[[]],s=[[]],r=Number(t.getAttribute(&quot;x&quot;)),n=Number(t.getAttribute(&quot;y&quot;));e[0][0]=new x(r,n);let o=t.children;for(let t=0,r=o.length;t&lt;r;++t){e[3*t+1]=[],e[3*t+2]=[],e[3*t+3]=[],s[t+1]=[];let r=o[t].children;for(let n=0,o=r.length;n&lt;o;++n){let o=r[n].children;for(let r=0,i=o.length;r&lt;i;++r){let i=r;0!==t&amp;&amp;++i;let h,d=o[r].getAttribute(&quot;path&quot;),c=&quot;l&quot;;null!=d&amp;&amp;(c=(h=d.match(/\s*([lLcC])\s*(.*)/))[1]);let u=l(h[2]);switch(c){case&quot;l&quot;:0===i?(e[3*t][3*n+3]=u[0].add(e[3*t][3*n]),e[3*t][3*n+1]=a(e[3*t][3*n],e[3*t][3*n+3]),e[3*t][3*n+2]=a(e[3*t][3*n+3],e[3*t][3*n])):1===i?(e[3*t+3][3*n+3]=u[0].add(e[3*t][3*n+3]),e[3*t+1][3*n+3]=a(e[3*t][3*n+3],e[3*t+3][3*n+3]),e[3*t+2][3*n+3]=a(e[3*t+3][3*n+3],e[3*t][3*n+3])):2===i?(0===n&amp;&amp;(e[3*t+3][3*n+0]=u[0].add(e[3*t+3][3*n+3])),e[3*t+3][3*n+1]=a(e[3*t+3][3*n],e[3*t+3][3*n+3]),e[3*t+3][3*n+2]=a(e[3*t+3][3*n+3],e[3*t+3][3*n])):(e[3*t+1][3*n]=a(e[3*t][3*n],e[3*t+3][3*n]),e[3*t+2][3*n]=a(e[3*t+3][3*n],e[3*t][3*n]));break;case&quot;L&quot;:0===i?(e[3*t][3*n+3]=u[0],e[3*t][3*n+1]=a(e[3*t][3*n],e[3*t][3*n+3]),e[3*t][3*n+2]=a(e[3*t][3*n+3],e[3*t][3*n])):1===i?(e[3*t+3][3*n+3]=u[0],e[3*t+1][3*n+3]=a(e[3*t][3*n+3],e[3*t+3][3*n+3]),e[3*t+2][3*n+3]=a(e[3*t+3][3*n+3],e[3*t][3*n+3])):2===i?(0===n&amp;&amp;(e[3*t+3][3*n+0]=u[0]),e[3*t+3][3*n+1]=a(e[3*t+3][3*n],e[3*t+3][3*n+3]),e[3*t+3][3*n+2]=a(e[3*t+3][3*n+3],e[3*t+3][3*n])):(e[3*t+1][3*n]=a(e[3*t][3*n],e[3*t+3][3*n]),e[3*t+2][3*n]=a(e[3*t+3][3*n],e[3*t][3*n]));break;case&quot;c&quot;:0===i?(e[3*t][3*n+1]=u[0].add(e[3*t][3*n]),e[3*t][3*n+2]=u[1].add(e[3*t][3*n]),e[3*t][3*n+3]=u[2].add(e[3*t][3*n])):1===i?(e[3*t+1][3*n+3]=u[0].add(e[3*t][3*n+3]),e[3*t+2][3*n+3]=u[1].add(e[3*t][3*n+3]),e[3*t+3][3*n+3]=u[2].add(e[3*t][3*n+3])):2===i?(e[3*t+3][3*n+2]=u[0].add(e[3*t+3][3*n+3]),e[3*t+3][3*n+1]=u[1].add(e[3*t+3][3*n+3]),0===n&amp;&amp;(e[3*t+3][3*n+0]=u[2].add(e[3*t+3][3*n+3]))):(e[3*t+2][3*n]=u[0].add(e[3*t+3][3*n]),e[3*t+1][3*n]=u[1].add(e[3*t+3][3*n]));break;case&quot;C&quot;:0===i?(e[3*t][3*n+1]=u[0],e[3*t][3*n+2]=u[1],e[3*t][3*n+3]=u[2]):1===i?(e[3*t+1][3*n+3]=u[0],e[3*t+2][3*n+3]=u[1],e[3*t+3][3*n+3]=u[2]):2===i?(e[3*t+3][3*n+2]=u[0],e[3*t+3][3*n+1]=u[1],0===n&amp;&amp;(e[3*t+3][3*n+0]=u[2])):(e[3*t+2][3*n]=u[0],e[3*t+1][3*n]=u[1]);break;default:console.error(&quot;mesh.js: &quot;+c+&quot; invalid path type.&quot;)}if(0===t&amp;&amp;0===n||r&gt;0){let e=window.getComputedStyle(o[r]).stopColor.match(/^rgb\s*\(\s*(\d+)\s*,\s*(\d+)\s*,\s*(\d+)\s*\)$/i),a=window.getComputedStyle(o[r]).stopOpacity,h=255;a&amp;&amp;(h=Math.floor(255*a)),e&amp;&amp;(0===i?(s[t][n]=[],s[t][n][0]=Math.floor(e[1]),s[t][n][1]=Math.floor(e[2]),s[t][n][2]=Math.floor(e[3]),s[t][n][3]=h):1===i?(s[t][n+1]=[],s[t][n+1][0]=Math.floor(e[1]),s[t][n+1][1]=Math.floor(e[2]),s[t][n+1][2]=Math.floor(e[3]),s[t][n+1][3]=h):2===i?(s[t+1][n+1]=[],s[t+1][n+1][0]=Math.floor(e[1]),s[t+1][n+1][1]=Math.floor(e[2]),s[t+1][n+1][2]=Math.floor(e[3]),s[t+1][n+1][3]=h):3===i&amp;&amp;(s[t+1][n]=[],s[t+1][n][0]=Math.floor(e[1]),s[t+1][n][1]=Math.floor(e[2]),s[t+1][n][2]=Math.floor(e[3]),s[t+1][n][3]=h))}}e[3*t+1][3*n+1]=new x,e[3*t+1][3*n+2]=new x,e[3*t+2][3*n+1]=new x,e[3*t+2][3*n+2]=new x,e[3*t+1][3*n+1].x=(-4*e[3*t][3*n].x+6*(e[3*t][3*n+1].x+e[3*t+1][3*n].x)+-2*(e[3*t][3*n+3].x+e[3*t+3][3*n].x)+3*(e[3*t+3][3*n+1].x+e[3*t+1][3*n+3].x)+-1*e[3*t+3][3*n+3].x)/9,e[3*t+1][3*n+2].x=(-4*e[3*t][3*n+3].x+6*(e[3*t][3*n+2].x+e[3*t+1][3*n+3].x)+-2*(e[3*t][3*n].x+e[3*t+3][3*n+3].x)+3*(e[3*t+3][3*n+2].x+e[3*t+1][3*n].x)+-1*e[3*t+3][3*n].x)/9,e[3*t+2][3*n+1].x=(-4*e[3*t+3][3*n].x+6*(e[3*t+3][3*n+1].x+e[3*t+2][3*n].x)+-2*(e[3*t+3][3*n+3].x+e[3*t][3*n].x)+3*(e[3*t][3*n+1].x+e[3*t+2][3*n+3].x)+-1*e[3*t][3*n+3].x)/9,e[3*t+2][3*n+2].x=(-4*e[3*t+3][3*n+3].x+6*(e[3*t+3][3*n+2].x+e[3*t+2][3*n+3].x)+-2*(e[3*t+3][3*n].x+e[3*t][3*n+3].x)+3*(e[3*t][3*n+2].x+e[3*t+2][3*n].x)+-1*e[3*t][3*n].x)/9,e[3*t+1][3*n+1].y=(-4*e[3*t][3*n].y+6*(e[3*t][3*n+1].y+e[3*t+1][3*n].y)+-2*(e[3*t][3*n+3].y+e[3*t+3][3*n].y)+3*(e[3*t+3][3*n+1].y+e[3*t+1][3*n+3].y)+-1*e[3*t+3][3*n+3].y)/9,e[3*t+1][3*n+2].y=(-4*e[3*t][3*n+3].y+6*(e[3*t][3*n+2].y+e[3*t+1][3*n+3].y)+-2*(e[3*t][3*n].y+e[3*t+3][3*n+3].y)+3*(e[3*t+3][3*n+2].y+e[3*t+1][3*n].y)+-1*e[3*t+3][3*n].y)/9,e[3*t+2][3*n+1].y=(-4*e[3*t+3][3*n].y+6*(e[3*t+3][3*n+1].y+e[3*t+2][3*n].y)+-2*(e[3*t+3][3*n+3].y+e[3*t][3*n].y)+3*(e[3*t][3*n+1].y+e[3*t+2][3*n+3].y)+-1*e[3*t][3*n+3].y)/9,e[3*t+2][3*n+2].y=(-4*e[3*t+3][3*n+3].y+6*(e[3*t+3][3*n+2].y+e[3*t+2][3*n+3].y)+-2*(e[3*t+3][3*n].y+e[3*t][3*n+3].y)+3*(e[3*t][3*n+2].y+e[3*t+2][3*n].y)+-1*e[3*t][3*n].y)/9}}this.nodes=e,this.colors=s}paintMesh(t,e){let s=(this.nodes.length-1)/3,r=(this.nodes[0].length-1)/3;if(&quot;bilinear&quot;===this.type||s&lt;2||r&lt;2){let n;for(let o=0;o&lt;s;++o)for(let s=0;s&lt;r;++s){let r=[];for(let t=3*o,e=3*o+4;t&lt;e;++t)r.push(this.nodes[t].slice(3*s,3*s+4));let i=[];i.push(this.colors[o].slice(s,s+2)),i.push(this.colors[o+1].slice(s,s+2)),(n=new m(r,i)).paint(t,e)}}else{let n,o,a,h,l,d,u;const x=s,g=r;s++,r++;let w=new Array(s);for(let t=0;t&lt;s;++t){w[t]=new Array(r);for(let e=0;e&lt;r;++e)w[t][e]=[],w[t][e][0]=this.nodes[3*t][3*e],w[t][e][1]=this.colors[t][e]}for(let t=0;t&lt;s;++t)for(let e=0;e&lt;r;++e)0!==t&amp;&amp;t!==x&amp;&amp;(n=i(w[t-1][e][0],w[t][e][0]),o=i(w[t+1][e][0],w[t][e][0]),w[t][e][2]=c(w[t-1][e][1],w[t][e][1],w[t+1][e][1],n,o)),0!==e&amp;&amp;e!==g&amp;&amp;(n=i(w[t][e-1][0],w[t][e][0]),o=i(w[t][e+1][0],w[t][e][0]),w[t][e][3]=c(w[t][e-1][1],w[t][e][1],w[t][e+1][1],n,o));for(let t=0;t&lt;r;++t){w[0][t][2]=[],w[x][t][2]=[];for(let e=0;e&lt;4;++e)n=i(w[1][t][0],w[0][t][0]),o=i(w[x][t][0],w[x-1][t][0]),w[0][t][2][e]=n&gt;0?2*(w[1][t][1][e]-w[0][t][1][e])/n-w[1][t][2][e]:0,w[x][t][2][e]=o&gt;0?2*(w[x][t][1][e]-w[x-1][t][1][e])/o-w[x-1][t][2][e]:0}for(let t=0;t&lt;s;++t){w[t][0][3]=[],w[t][g][3]=[];for(let e=0;e&lt;4;++e)n=i(w[t][1][0],w[t][0][0]),o=i(w[t][g][0],w[t][g-1][0]),w[t][0][3][e]=n&gt;0?2*(w[t][1][1][e]-w[t][0][1][e])/n-w[t][1][3][e]:0,w[t][g][3][e]=o&gt;0?2*(w[t][g][1][e]-w[t][g-1][1][e])/o-w[t][g-1][3][e]:0}for(let s=0;s&lt;x;++s)for(let r=0;r&lt;g;++r){let n=i(w[s][r][0],w[s+1][r][0]),o=i(w[s][r+1][0],w[s+1][r+1][0]),c=i(w[s][r][0],w[s][r+1][0]),x=i(w[s+1][r][0],w[s+1][r+1][0]),g=[[],[],[],[]];for(let t=0;t&lt;4;++t){(d=[])[0]=w[s][r][1][t],d[1]=w[s+1][r][1][t],d[2]=w[s][r+1][1][t],d[3]=w[s+1][r+1][1][t],d[4]=w[s][r][2][t]*n,d[5]=w[s+1][r][2][t]*n,d[6]=w[s][r+1][2][t]*o,d[7]=w[s+1][r+1][2][t]*o,d[8]=w[s][r][3][t]*c,d[9]=w[s+1][r][3][t]*x,d[10]=w[s][r+1][3][t]*c,d[11]=w[s+1][r+1][3][t]*x,d[12]=0,d[13]=0,d[14]=0,d[15]=0,u=f(d);for(let e=0;e&lt;9;++e){g[t][e]=[];for(let s=0;s&lt;9;++s)g[t][e][s]=p(u,e/8,s/8),g[t][e][s]&gt;255?g[t][e][s]=255:g[t][e][s]&lt;0&amp;&amp;(g[t][e][s]=0)}}h=[];for(let t=3*s,e=3*s+4;t&lt;e;++t)h.push(this.nodes[t].slice(3*r,3*r+4));l=y(h);for(let s=0;s&lt;8;++s)for(let r=0;r&lt;8;++r)(a=new m(l[s][r],[[[g[0][s][r],g[1][s][r],g[2][s][r],g[3][s][r]],[g[0][s][r+1],g[1][s][r+1],g[2][s][r+1],g[3][s][r+1]]],[[g[0][s+1][r],g[1][s+1][r],g[2][s+1][r],g[3][s+1][r]],[g[0][s+1][r+1],g[1][s+1][r+1],g[2][s+1][r+1],g[3][s+1][r+1]]]])).paint(t,e)}}}transform(t){if(t instanceof x)for(let e=0,s=this.nodes.length;e&lt;s;++e)for(let s=0,r=this.nodes[0].length;s&lt;r;++s)this.nodes[e][s]=this.nodes[e][s].add(t);else if(t instanceof g)for(let e=0,s=this.nodes.length;e&lt;s;++e)for(let s=0,r=this.nodes[0].length;s&lt;r;++s)this.nodes[e][s]=this.nodes[e][s].transform(t)}scale(t){for(let e=0,s=this.nodes.length;e&lt;s;++e)for(let s=0,r=this.nodes[0].length;s&lt;r;++s)this.nodes[e][s]=this.nodes[e][s].scale(t)}}document.querySelectorAll(&quot;rect,circle,ellipse,path,text&quot;).forEach((r,n)=&gt;{let o=r.getAttribute(&quot;id&quot;);o||(o=&quot;patchjs_shape&quot;+n,r.setAttribute(&quot;id&quot;,o));const i=r.style.fill.match(/^url\(\s*&quot;?\s*#([^\s&quot;]+)&quot;?\s*\)/),a=r.style.stroke.match(/^url\(\s*&quot;?\s*#([^\s&quot;]+)&quot;?\s*\)/);if(i&amp;&amp;i[1]){const a=document.getElementById(i[1]);if(a&amp;&amp;&quot;meshgradient&quot;===a.nodeName){const i=r.getBBox();let l=document.createElementNS(s,&quot;canvas&quot;);d(l,{width:i.width,height:i.height});const c=l.getContext(&quot;2d&quot;);let u=c.createImageData(i.width,i.height);const f=new b(a);&quot;objectBoundingBox&quot;===a.getAttribute(&quot;gradientUnits&quot;)&amp;&amp;f.scale(new x(i.width,i.height));const p=a.getAttribute(&quot;gradientTransform&quot;);null!=p&amp;&amp;f.transform(h(p)),&quot;userSpaceOnUse&quot;===a.getAttribute(&quot;gradientUnits&quot;)&amp;&amp;f.transform(new x(-i.x,-i.y)),f.paintMesh(u.data,l.width),c.putImageData(u,0,0);const y=document.createElementNS(t,&quot;image&quot;);d(y,{width:i.width,height:i.height,x:i.x,y:i.y});let g=l.toDataURL();y.setAttributeNS(e,&quot;xlink:href&quot;,g),r.parentNode.insertBefore(y,r),r.style.fill=&quot;none&quot;;const w=document.createElementNS(t,&quot;use&quot;);w.setAttributeNS(e,&quot;xlink:href&quot;,&quot;#&quot;+o);const m=&quot;patchjs_clip&quot;+n,M=document.createElementNS(t,&quot;clipPath&quot;);M.setAttribute(&quot;id&quot;,m),M.appendChild(w),r.parentElement.insertBefore(M,r),y.setAttribute(&quot;clip-path&quot;,&quot;url(#&quot;+m+&quot;)&quot;),u=null,l=null,g=null}}if(a&amp;&amp;a[1]){const o=document.getElementById(a[1]);if(o&amp;&amp;&quot;meshgradient&quot;===o.nodeName){const i=parseFloat(r.style.strokeWidth.slice(0,-2))*(parseFloat(r.style.strokeMiterlimit)||parseFloat(r.getAttribute(&quot;stroke-miterlimit&quot;))||1),a=r.getBBox(),l=Math.trunc(a.width+i),c=Math.trunc(a.height+i),u=Math.trunc(a.x-i/2),f=Math.trunc(a.y-i/2);let p=document.createElementNS(s,&quot;canvas&quot;);d(p,{width:l,height:c});const y=p.getContext(&quot;2d&quot;);let g=y.createImageData(l,c);const w=new b(o);&quot;objectBoundingBox&quot;===o.getAttribute(&quot;gradientUnits&quot;)&amp;&amp;w.scale(new x(l,c));const m=o.getAttribute(&quot;gradientTransform&quot;);null!=m&amp;&amp;w.transform(h(m)),&quot;userSpaceOnUse&quot;===o.getAttribute(&quot;gradientUnits&quot;)&amp;&amp;w.transform(new x(-u,-f)),w.paintMesh(g.data,p.width),y.putImageData(g,0,0);const M=document.createElementNS(t,&quot;image&quot;);d(M,{width:l,height:c,x:0,y:0});let S=p.toDataURL();M.setAttributeNS(e,&quot;xlink:href&quot;,S);const k=&quot;pattern_clip&quot;+n,A=document.createElementNS(t,&quot;pattern&quot;);d(A,{id:k,patternUnits:&quot;userSpaceOnUse&quot;,width:l,height:c,x:u,y:f}),A.appendChild(M),o.parentNode.appendChild(A),r.style.stroke=&quot;url(#&quot;+k+&quot;)&quot;,g=null,p=null,S=null}}})}();
</script>
</svg>
